<svg width="12" height="12" viewBox="0 0 12 12" fill="none" xmlns="http://www.w3.org/2000/svg">
<path d="M10.2346 0H1.76479C0.791961 0 0 0.791376 0 1.76479V10.2352C0 11.208 0.791376 12 1.76479 12H10.2352C11.208 12 12 11.2086 12 10.2352V1.76479C11.9994 0.791376 11.208 0 10.2346 0ZM11.2935 10.2346C11.2935 10.8182 10.8188 11.2935 10.2346 11.2935H1.76479C1.18121 11.2935 0.705917 10.8188 0.705917 10.2346V8.958L3.55417 5.79308L7.40159 9.29047L9.52929 7.51749L11.2941 8.98785V10.2346H11.2935ZM11.2935 8.06946L9.52871 6.59909L7.42091 8.35511L3.50441 4.79391L0.705917 7.90322V1.76479C0.705917 1.18121 1.18063 0.705917 1.76479 0.705917H10.2352C10.8188 0.705917 11.2941 1.18063 11.2941 1.76479V8.06946H11.2935Z" fill="white"/>
<path d="M8.47085 5.29374C9.44368 5.29374 10.2356 4.50237 10.2356 3.52895C10.2356 2.55554 9.44426 1.76416 8.47085 1.76416C7.49802 1.76416 6.70605 2.55554 6.70605 3.52895C6.70605 4.50237 7.49743 5.29374 8.47085 5.29374ZM8.47085 2.47066C9.05443 2.47066 9.52972 2.94537 9.52972 3.52954C9.52972 4.1137 9.05501 4.58841 8.47085 4.58841C7.88668 4.58841 7.41197 4.1137 7.41197 3.52954C7.41197 2.94537 7.88668 2.47066 8.47085 2.47066Z" fill="white"/>
</svg>
