<svg width="12" height="12" viewBox="0 0 12 12" fill="none" xmlns="http://www.w3.org/2000/svg">
<path d="M6 12C9.31375 12 12 9.31375 12 6C12 2.68625 9.31375 -2.34839e-07 6 -5.24537e-07C2.6865 -8.14212e-07 8.14234e-07 2.68625 5.24537e-07 6C2.34839e-07 9.31375 2.6865 12 6 12ZM4.24125 5.99575L4.52775 5.709L4.52975 5.711L7.22925 3.01125L7.22975 3.01175L7.23025 3.011L7.759 3.53925L5.29725 6.001L7.757 8.46075L7.49375 8.72375L7.495 8.725L7.23075 8.98925L7.2295 8.988L7.22825 8.98925L4.36775 6.12875L4.36925 6.1275L4.24125 5.9995L4.24275 5.99775L4.24125 5.99575Z" fill="white"/>
</svg>
