<svg width="257" height="47" viewBox="0 0 257 47" fill="none" xmlns="http://www.w3.org/2000/svg">
<path d="M245.278 1.90173L245.264 1.89825L245.249 1.89507C244.107 1.65136 242.94 1.5 241.702 1.5H15.6151C8.22843 1.5 1.81714 6.66801 1.81714 13.5441V33.4557C1.81714 40.3318 8.22843 45.4998 15.6151 45.4998H241.702C249.089 45.4998 255.5 40.3318 255.5 33.4557V13.5441C255.5 10.161 253.944 7.13462 251.369 4.93643C249.697 3.50862 247.623 2.45224 245.278 1.90173Z" fill="#E7B628" stroke="#3A3A3A" stroke-width="3"/>
<g opacity="0.19">
<path opacity="0.19" d="M241.702 25.2194H15.298C8.51288 25.2194 3 20.513 3 14.6753V33.4556C3 39.2933 8.51288 43.9997 15.298 43.9997H241.702C248.487 43.9997 254 39.2933 254 33.4556V14.6753C254 20.513 248.487 25.2194 241.702 25.2194Z" fill="#5C647B"/>
</g>
<g opacity="0.42">
<path opacity="0.42" d="M241.702 40.0177H15.298C8.51288 40.0177 3 35.3114 3 29.4736V33.456C3 39.2937 8.51288 44.0001 15.298 44.0001H241.702C248.487 44.0001 254 39.2937 254 33.456V29.4736C254 35.3114 248.487 40.0177 241.702 40.0177Z" fill="#5C647B"/>
</g>
<g opacity="0.3">
<path opacity="0.49" d="M95.3177 3L52.6818 43.9998H14.96L55.4939 3H95.3177Z" fill="white"/>
</g>
<g opacity="0.3">
<path opacity="0.49" d="M165.467 3.02305L127.952 43.9998H82L126.454 3L162.576 3.00033C163.708 3.00033 162.576 3 165.467 3.02305Z" fill="white"/>
<path opacity="0.49" d="M235.467 3.02305L197.952 43.9998H152L196.454 3L232.576 3.00033C233.708 3.00033 232.576 3 235.467 3.02305Z" fill="white"/>
</g>
<path d="M92.3555 27.8281C92.3555 28.4766 92.2344 29.0352 91.9922 29.5039C91.7578 29.9727 91.4414 30.3711 91.043 30.6992C90.6445 31.0273 90.1836 31.2969 89.6602 31.5078C89.1445 31.7109 88.6055 31.8711 88.043 31.9883C87.4805 32.1055 86.9141 32.1836 86.3438 32.2227C85.7812 32.2617 85.2539 32.2812 84.7617 32.2812C84.2773 32.2812 83.7734 32.2617 83.25 32.2227C82.7344 32.1914 82.2188 32.1328 81.7031 32.0469C81.1875 31.9609 80.6797 31.8477 80.1797 31.707C79.6797 31.5586 79.207 31.375 78.7617 31.1562L78.7383 16.0625C79.1758 15.8828 79.6406 15.7227 80.1328 15.582C80.625 15.4336 81.125 15.3125 81.6328 15.2188C82.1484 15.1172 82.6602 15.043 83.168 14.9961C83.6758 14.9414 84.168 14.9141 84.6445 14.9141C85.1992 14.9141 85.7578 14.9492 86.3203 15.0195C86.8906 15.0898 87.4375 15.207 87.9609 15.3711C88.4844 15.5352 88.9727 15.75 89.4258 16.0156C89.8789 16.2734 90.2734 16.5938 90.6094 16.9766C90.9531 17.3594 91.2188 17.8047 91.4062 18.3125C91.6016 18.8203 91.6992 19.4062 91.6992 20.0703C91.6992 20.5078 91.6367 20.918 91.5117 21.3008C91.3867 21.6836 91.207 22.0273 90.9727 22.332C90.7383 22.6367 90.4531 22.8984 90.1172 23.1172C89.7812 23.3281 89.4023 23.4844 88.9805 23.5859C89.4883 23.7188 89.9492 23.9141 90.3633 24.1719C90.7852 24.4297 91.1406 24.7422 91.4297 25.1094C91.7266 25.4766 91.9531 25.8906 92.1094 26.3516C92.2734 26.8125 92.3555 27.3047 92.3555 27.8281ZM86.4023 21.1484C86.4023 20.9219 86.3555 20.7305 86.2617 20.5742C86.168 20.4102 86.0508 20.2773 85.9102 20.1758C85.7773 20.0742 85.6289 20 85.4648 19.9531C85.3086 19.9062 85.168 19.8828 85.043 19.8828C84.8867 19.8828 84.7344 19.9062 84.5859 19.9531C84.4375 20 84.293 20.0547 84.1523 20.1172L84.082 22.7188C84.2617 22.7188 84.4844 22.7031 84.75 22.6719C85.0156 22.6406 85.2695 22.5742 85.5117 22.4727C85.7617 22.3633 85.9727 22.207 86.1445 22.0039C86.3164 21.793 86.4023 21.5078 86.4023 21.1484ZM84.7383 24.9688C84.5117 24.9688 84.293 24.9922 84.082 25.0391L84.0352 27.7109C84.1523 27.7344 84.2656 27.7578 84.375 27.7812C84.4922 27.7969 84.6055 27.8047 84.7148 27.8047C84.8789 27.8047 85.0586 27.7891 85.2539 27.7578C85.4492 27.7188 85.6328 27.6484 85.8047 27.5469C85.9766 27.4375 86.1172 27.293 86.2266 27.1133C86.3438 26.9336 86.4023 26.6953 86.4023 26.3984C86.4023 26.1016 86.3438 25.8594 86.2266 25.6719C86.1172 25.4844 85.9805 25.3398 85.8164 25.2383C85.6523 25.1289 85.4727 25.0586 85.2773 25.0273C85.082 24.9883 84.9023 24.9688 84.7383 24.9688ZM107.004 18.9688C107.004 19.5469 106.977 20.1836 106.922 20.8789C106.867 21.5742 106.777 22.293 106.652 23.0352C106.527 23.7773 106.363 24.5312 106.16 25.2969C105.965 26.0547 105.719 26.7852 105.422 27.4883C105.125 28.1914 104.777 28.8516 104.379 29.4688C103.988 30.0781 103.535 30.6133 103.02 31.0742C102.512 31.5273 101.941 31.8828 101.309 32.1406C100.676 32.4062 99.9727 32.5391 99.1992 32.5391C98.293 32.5391 97.5039 32.3906 96.832 32.0938C96.168 31.8047 95.5977 31.4141 95.1211 30.9219C94.6445 30.4219 94.2539 29.8438 93.9492 29.1875C93.6445 28.5234 93.4062 27.8242 93.2344 27.0898C93.0625 26.3477 92.9414 25.5938 92.8711 24.8281C92.8086 24.0547 92.7773 23.3125 92.7773 22.6016C92.7773 21.5078 92.832 20.418 92.9414 19.332C93.0508 18.2383 93.207 17.1484 93.4102 16.0625L98.8945 16.2734C98.6836 17.5 98.5 18.7344 98.3438 19.9766C98.1953 21.2109 98.1211 22.4531 98.1211 23.7031C98.1211 23.8359 98.125 24.0352 98.1328 24.3008C98.1484 24.5586 98.1719 24.8516 98.2031 25.1797C98.2344 25.5 98.2773 25.832 98.332 26.1758C98.3945 26.5117 98.4766 26.8203 98.5781 27.1016C98.6797 27.3828 98.8008 27.6133 98.9414 27.793C99.0898 27.9727 99.2617 28.0625 99.457 28.0625C99.6836 28.0625 99.8867 27.957 100.066 27.7461C100.246 27.5273 100.402 27.2383 100.535 26.8789C100.676 26.5195 100.797 26.1055 100.898 25.6367C101 25.168 101.086 24.6797 101.156 24.1719C101.227 23.6641 101.281 23.1562 101.32 22.6484C101.367 22.1406 101.402 21.668 101.426 21.2305C101.457 20.793 101.477 20.4062 101.484 20.0703C101.492 19.7344 101.496 19.4844 101.496 19.3203C101.496 18.7109 101.484 18.1055 101.461 17.5039C101.445 16.8945 101.418 16.2891 101.379 15.6875H106.863C106.957 16.7656 107.004 17.8594 107.004 18.9688ZM122.859 16.1328L116.414 25.1328L116.109 32.4688H110.555L110.695 25.1797L107.344 16.4844L113.32 15.7344L114.258 20.7969L117.234 15.7344L122.859 16.1328ZM143.004 15.1953L142.16 31.0859L136.02 31.6484L132.738 23.1406L132.223 31.8125H126.949L127.371 15.1953L133.23 14.9141L137.285 23.3516L137.473 15.3828L143.004 15.1953ZM158.285 23.7266C158.285 24.4375 158.203 25.125 158.039 25.7891C157.875 26.4453 157.637 27.0625 157.324 27.6406C157.02 28.2188 156.645 28.75 156.199 29.2344C155.762 29.7109 155.266 30.1211 154.711 30.4648C154.164 30.8086 153.566 31.0781 152.918 31.2734C152.27 31.4609 151.582 31.5547 150.855 31.5547C150.152 31.5547 149.48 31.4648 148.84 31.2852C148.207 31.1055 147.613 30.8555 147.059 30.5352C146.504 30.207 146 29.8164 145.547 29.3633C145.102 28.9023 144.719 28.3945 144.398 27.8398C144.086 27.2773 143.84 26.6758 143.66 26.0352C143.488 25.3945 143.402 24.7266 143.402 24.0312C143.402 23.3516 143.484 22.6875 143.648 22.0391C143.812 21.3828 144.047 20.7656 144.352 20.1875C144.664 19.6094 145.039 19.0781 145.477 18.5938C145.914 18.1094 146.402 17.6914 146.941 17.3398C147.488 16.9883 148.078 16.7148 148.711 16.5195C149.344 16.3242 150.012 16.2266 150.715 16.2266C151.848 16.2266 152.879 16.4023 153.809 16.7539C154.746 17.1055 155.543 17.6094 156.199 18.2656C156.863 18.9141 157.375 19.7031 157.734 20.6328C158.102 21.5547 158.285 22.5859 158.285 23.7266ZM153.082 24.0312C153.082 23.6953 153.031 23.3711 152.93 23.0586C152.836 22.7383 152.695 22.457 152.508 22.2148C152.32 21.9648 152.086 21.7656 151.805 21.6172C151.531 21.4609 151.215 21.3828 150.855 21.3828C150.488 21.3828 150.16 21.4492 149.871 21.582C149.582 21.7148 149.332 21.8984 149.121 22.1328C148.918 22.3594 148.762 22.6289 148.652 22.9414C148.543 23.2461 148.488 23.5703 148.488 23.9141C148.488 24.2422 148.535 24.5703 148.629 24.8984C148.723 25.2266 148.863 25.5234 149.051 25.7891C149.238 26.0547 149.469 26.2695 149.742 26.4336C150.023 26.5977 150.348 26.6797 150.715 26.6797C151.082 26.6797 151.41 26.6094 151.699 26.4688C151.996 26.3203 152.246 26.125 152.449 25.8828C152.652 25.6328 152.809 25.3477 152.918 25.0273C153.027 24.707 153.082 24.375 153.082 24.0312ZM179.824 15.7344L177.082 31.9766L170.426 32.1172L168.996 23.7031L167.566 31.5078L160.91 31.7422L158.145 15.7344L163.957 15.2188L165.129 24.9453L166.699 15.2188H171.27L173.098 25.0625L174.035 15.2188L179.824 15.7344Z" fill="white"/>
</svg>
