<svg width="40" height="40" viewBox="0 0 40 40" fill="none" xmlns="http://www.w3.org/2000/svg">
<path d="M14.164 30.8127C14.2418 31.28 14.6835 31.5957 15.1504 31.5178L16.2777 31.3298C16.7447 31.2518 17.0601 30.81 16.9822 30.3427L15.9139 23.928C15.8361 23.4607 15.3945 23.1451 14.9275 23.223L13.8002 23.411C13.3333 23.4888 13.0178 23.9308 13.0957 24.3981L14.164 30.8127Z" fill="white"/>
<path d="M23.0173 30.3427C22.9395 30.81 23.255 31.2519 23.7218 31.3299L24.8491 31.5179C25.3161 31.5957 25.7577 31.28 25.8355 30.8127L26.904 24.3971C26.9818 23.9299 26.6664 23.4879 26.1994 23.41L25.0721 23.222C24.6053 23.1441 24.1635 23.4599 24.0858 23.9271L23.0173 30.3427Z" fill="white"/>
<path fill-rule="evenodd" clip-rule="evenodd" d="M30.3387 12.839H9.32742L17.3909 5.2738C17.7939 4.89578 17.8142 4.26247 17.4364 3.85925L16.8503 3.23347C16.4726 2.83025 15.8397 2.80982 15.4367 3.18784L5.46728 12.5413C5.37396 12.6288 5.30115 12.7301 5.24906 12.839H2.85716C2.06819 12.839 1.42859 13.4791 1.42859 14.2686V19.9872C1.42859 20.7768 2.06819 21.4169 2.85716 21.4169H3.46457L6.52292 35.7848C6.69149 36.5768 7.39045 37.1429 8.19957 37.1429H31.798C32.6072 37.1429 33.3062 36.5768 33.4747 35.7848L36.533 21.4169H37.1429C37.9319 21.4169 38.5714 20.7768 38.5714 19.9872V14.2686C38.5714 13.4791 37.9319 12.839 37.1429 12.839H34.6796C34.6202 12.7238 34.5372 12.6184 34.4314 12.5302L23.1107 3.08915C22.6864 2.73532 22.0559 2.7927 21.7023 3.2173L21.1536 3.87627C20.8 4.30085 20.8573 4.9319 21.2816 5.28572L30.3387 12.839ZM5.14287 15.6983C4.66949 15.6983 4.28573 16.0823 4.28573 16.556V17.6998C4.28573 18.1735 4.66949 18.5576 5.14287 18.5576H34.8572C35.3306 18.5576 35.7143 18.1735 35.7143 17.6998V16.556C35.7143 16.0823 35.3306 15.6983 34.8572 15.6983H5.14287ZM6.64323 22.626C6.51069 22.0035 6.98513 21.4169 7.62129 21.4169H32.3763C33.0125 21.4169 33.4869 22.0035 33.3545 22.626L31.0416 33.4913C30.9433 33.9533 30.5356 34.2836 30.0636 34.2836H9.93405C9.46205 34.2836 9.05433 33.9533 8.95599 33.4913L6.64323 22.626Z" fill="white"/>
</svg>
