<svg width="12" height="12" viewBox="0 0 12 12" fill="none" xmlns="http://www.w3.org/2000/svg">
<path d="M6 12C4.81331 12 3.65328 11.6481 2.66658 10.9888C1.67989 10.3295 0.910851 9.39246 0.456726 8.2961C0.00259971 7.19975 -0.11622 5.99335 0.115291 4.82946C0.346802 3.66558 0.918247 2.59648 1.75736 1.75736C2.59648 0.918247 3.66558 0.346802 4.82946 0.115291C5.99335 -0.11622 7.19975 0.00259971 8.2961 0.456726C9.39246 0.910851 10.3295 1.67989 10.9888 2.66658C11.6481 3.65328 12 4.81331 12 6C12 7.5913 11.3679 9.11743 10.2426 10.2426C9.11743 11.3679 7.5913 12 6 12ZM6 0.92308C4.99588 0.92308 4.01431 1.22084 3.17942 1.7787C2.34452 2.33656 1.6938 3.12946 1.30954 4.05715C0.925277 4.98484 0.824737 6.00564 1.02063 6.99046C1.21653 7.97529 1.70006 8.87991 2.41008 9.58993C3.1201 10.3 4.02472 10.7835 5.00954 10.9794C5.99437 11.1753 7.01517 11.0747 7.94286 10.6905C8.87054 10.3062 9.66345 9.65549 10.2213 8.82059C10.7792 7.98569 11.0769 7.00412 11.0769 6C11.0769 4.65352 10.542 3.36218 9.58993 2.41008C8.63782 1.45797 7.34649 0.92308 6 0.92308Z" fill="white"/>
<path d="M6.00008 6.46158C5.54366 6.46158 5.09749 6.32623 4.71799 6.07266C4.33849 5.81909 4.04271 5.45868 3.86805 5.037C3.69338 4.61532 3.64768 4.15133 3.73673 3.70368C3.82577 3.25603 4.04555 2.84484 4.36829 2.5221C4.69103 2.19936 5.10222 1.97958 5.54987 1.89053C5.99752 1.80149 6.46152 1.84719 6.88319 2.02186C7.30487 2.19652 7.66528 2.4923 7.91885 2.8718C8.17243 3.2513 8.30777 3.69747 8.30777 4.15389C8.30777 4.76592 8.06464 5.35289 7.63186 5.78567C7.19909 6.21845 6.61211 6.46158 6.00008 6.46158ZM6.00008 2.76927C5.72623 2.76927 5.45852 2.85048 5.23083 3.00262C5.00313 3.15476 4.82566 3.37101 4.72086 3.62402C4.61606 3.87702 4.58864 4.15542 4.64207 4.42401C4.69549 4.6926 4.82736 4.93931 5.02101 5.13296C5.21465 5.3266 5.46136 5.45847 5.72995 5.5119C5.99854 5.56532 6.27694 5.5379 6.52995 5.4331C6.78295 5.32831 6.9992 5.15084 7.15134 4.92314C7.30349 4.69544 7.38469 4.42774 7.38469 4.15389C7.38469 3.78666 7.23881 3.43448 6.97915 3.17481C6.71948 2.91515 6.3673 2.76927 6.00008 2.76927Z" fill="white"/>
<path d="M10.408 9.69234C10.344 9.69277 10.2805 9.67987 10.2217 9.65444C10.1629 9.62901 10.1101 9.59162 10.0665 9.54465C9.57661 9.01029 8.98114 8.58343 8.31777 8.29107C7.65441 7.99871 6.93758 7.84722 6.21265 7.84619H5.78803C4.43674 7.84327 3.13736 8.36634 2.16496 9.30465C2.07511 9.37878 1.96056 9.41621 1.84427 9.40941C1.72799 9.40261 1.61858 9.3521 1.53798 9.268C1.45739 9.1839 1.41157 9.07244 1.40973 8.95597C1.40788 8.8395 1.45014 8.72664 1.52803 8.64003C2.67075 7.53555 4.1988 6.91969 5.78803 6.92311H6.21265C7.06475 6.92504 7.90725 7.10316 8.68722 7.44628C9.46718 7.7894 10.1678 8.29011 10.745 8.91696C10.8059 8.98271 10.8464 9.0648 10.8615 9.15321C10.8766 9.24161 10.8656 9.33249 10.8299 9.41474C10.7941 9.49699 10.7352 9.56705 10.6603 9.61635C10.5854 9.66565 10.4977 9.69205 10.408 9.69234Z" fill="white"/>
</svg>
