<svg width="26" height="26" viewBox="0 0 26 26" fill="none" xmlns="http://www.w3.org/2000/svg">
<path d="M24.3439 21.1626L16.1814 13.0001L24.3439 4.83755C25.2252 3.9563 25.2252 2.53755 24.3439 1.6563C23.4627 0.775049 22.0439 0.775049 21.1627 1.6563L13.0002 9.8188L4.83766 1.6563C3.95641 0.775049 2.53766 0.775049 1.65641 1.6563C0.775156 2.53755 0.775156 3.9563 1.65641 4.83755L9.8189 13.0001L1.65641 21.1626C0.775156 22.0438 0.775156 23.4626 1.65641 24.3438C2.53766 25.2251 3.95641 25.2251 4.83766 24.3438L13.0002 16.1813L21.1627 24.3438C22.0439 25.2251 23.4627 25.2251 24.3439 24.3438C25.2189 23.4626 25.2189 22.0376 24.3439 21.1626Z" fill="white"/>
</svg>
