<svg width="123" height="64" viewBox="0 0 123 64" fill="none" xmlns="http://www.w3.org/2000/svg">
<g clip-path="url(#clip0_6:1238)">
<path d="M10.6855 31.2214C3.35384 31.2214 0 28.3406 0 22.3455V8.87591C0 2.80292 3.35384 0 10.6855 0H21.527C22.6189 0 23.0869 0.467153 23.0869 1.55718V6.77372C23.0869 7.86375 22.6189 8.3309 21.527 8.3309H12.4794C10.6855 8.3309 9.82752 9.03163 9.82752 10.5109V20.8662C9.82752 22.3455 10.4515 22.9684 11.8554 22.9684H16.0672V16.1946C16.0672 15.1046 16.5352 14.6375 17.6271 14.6375H24.3348C25.4268 14.6375 25.8947 15.1046 25.8947 16.1946V29.5864C25.8947 30.6764 25.4268 31.1436 24.3348 31.1436H10.6855V31.2214Z" fill="white"/>
<path d="M38.4522 31.2214H32.0565C30.9646 31.2214 30.4966 30.7543 30.4966 29.6642V18.219C30.4966 16.5061 31.0426 14.326 32.2125 11.2895L35.9563 1.47932C36.3463 0.467153 37.0483 0 38.2182 0H49.9176C51.0096 0 51.7115 0.467153 52.1015 1.40146L55.8453 11.2117C57.0153 14.2482 57.5613 16.4282 57.5613 18.1411V29.5864C57.5613 30.6764 57.0933 31.1436 56.0013 31.1436H49.4497C48.2797 31.1436 47.7337 30.6764 47.7337 29.5864V23.5134H40.0901V29.5864C40.0901 30.6764 39.5441 31.2214 38.4522 31.2214ZM40.4801 15.6496H47.2658L45.2379 9.10949C45.0039 8.56448 44.7699 8.40876 44.3799 8.40876H43.288C42.976 8.40876 42.664 8.64234 42.43 9.10949L40.4801 15.6496Z" fill="white"/>
<path d="M64.4249 31.2214C63.333 31.2214 62.865 30.7543 62.865 29.6642V1.55718C62.865 0.467153 63.333 0 64.4249 0H71.4446C72.3805 0 72.9265 0.311436 73.4725 1.3236L77.3723 8.40876C77.6843 8.95377 77.8403 9.10949 78.1522 9.10949H78.5422C78.8542 9.10949 79.0102 8.87591 79.3222 8.40876L83.222 1.3236C83.768 0.389294 84.3139 0 85.2499 0H92.2696C93.3615 0 93.8295 0.467153 93.8295 1.55718V29.6642C93.8295 30.7543 93.3615 31.2214 92.2696 31.2214H85.5619C84.4699 31.2214 84.002 30.7543 84.002 29.6642V14.4039L81.4281 19.1533C80.8821 20.1655 80.2581 20.5547 79.1662 20.5547H77.4503C76.3583 20.5547 75.6564 20.1655 75.1884 19.1533L72.6145 14.4039V29.6642C72.6145 30.7543 72.1465 31.2214 71.0546 31.2214H64.4249Z" fill="white"/>
<path d="M101.317 31.2214C100.225 31.2214 99.7571 30.7543 99.7571 29.6642V1.55718C99.7571 0.467153 100.225 0 101.317 0H121.44C122.532 0 123 0.467153 123 1.55718V6.61801C123 7.70803 122.532 8.17518 121.44 8.17518H109.429V11.5231H117.852C118.944 11.5231 119.412 11.9903 119.412 13.0803V17.7518C119.412 18.8418 118.944 19.309 117.852 19.309H109.429V23.0462H121.44C122.532 23.0462 123 23.5134 123 24.6034V29.6642C123 30.7543 122.532 31.2214 121.44 31.2214H101.317Z" fill="white"/>
<path d="M27.3767 64.0001C19.4211 64.0001 17.4712 61.3529 17.4712 57.5378V46.6376C17.4712 42.7446 19.4211 40.0974 27.3767 40.0974C35.3323 40.0974 37.2822 42.7446 37.2822 46.6376V57.5378C37.2822 61.4307 35.3323 64.0001 27.3767 64.0001ZM27.3767 57.8492C29.7166 57.8492 30.0286 57.2264 30.0286 56.3699V47.8054C30.0286 46.949 29.6386 46.3261 27.3767 46.3261C25.1148 46.3261 24.7248 46.949 24.7248 47.8054V56.3699C24.6468 57.2264 25.0368 57.8492 27.3767 57.8492Z" fill="white"/>
<path d="M46.6418 63.5328C45.7839 63.5328 45.3159 63.2992 45.0039 62.4428L41.8841 54.6569C41.1041 52.7104 40.8701 52.1654 40.8701 50.1411V41.7323C40.8701 40.9537 41.1821 40.5645 42.0401 40.5645H47.1098C47.8898 40.5645 48.3578 40.9537 48.3578 41.7323V50.5304C48.3578 50.9975 48.4357 51.3868 48.5917 51.854L50.0737 56.292C50.2297 56.6812 50.3077 56.837 50.6976 56.837H51.0876C51.3996 56.837 51.5556 56.6812 51.7116 56.292L53.1935 51.7761C53.3495 51.309 53.4275 50.9197 53.4275 50.4525V41.7323C53.4275 40.9537 53.8175 40.5645 54.5974 40.5645H59.5892C60.4472 40.5645 60.7591 40.9537 60.7591 41.7323V50.1411C60.7591 52.1654 60.5252 52.7883 59.7452 54.6569L56.6253 62.4428C56.3134 63.2214 55.8454 63.5328 54.9874 63.5328H46.6418Z" fill="white"/>
<path d="M65.7508 63.5328C64.9708 63.5328 64.5808 63.1435 64.5808 62.3649V41.7323C64.5808 40.9537 64.8928 40.5645 65.7508 40.5645H80.57C81.35 40.5645 81.74 40.9537 81.74 41.7323V45.4696C81.74 46.2482 81.428 46.6374 80.57 46.6374H71.7565V49.1289H77.9961C78.7761 49.1289 79.1661 49.5182 79.1661 50.2968V53.7226C79.1661 54.5012 78.7761 54.8905 77.9961 54.8905H71.7565V57.6156H80.57C81.35 57.6156 81.74 57.927 81.74 58.7834V62.5207C81.74 63.2993 81.428 63.6885 80.57 63.6885H65.7508V63.5328Z" fill="white"/>
<path d="M86.6538 63.5328C85.8739 63.5328 85.4839 63.1435 85.4839 62.3649V41.7323C85.4839 40.9537 85.8739 40.5645 86.6538 40.5645H97.2613C102.019 40.5645 103.579 42.7445 103.579 45.8589V47.3382C103.579 49.1289 103.111 50.3747 101.785 50.9975C104.125 51.2311 105.685 52.944 105.685 55.5912V62.3649C105.685 63.1435 105.295 63.5328 104.515 63.5328H99.6012C98.8212 63.5328 98.4313 63.1435 98.4313 62.3649V57.4598C98.4313 56.5255 98.1193 56.0584 97.1833 56.0584H92.7375V62.2871C92.7375 63.0657 92.4256 63.455 91.5676 63.455H86.6538V63.5328ZM92.7375 50.4525H95.1554C96.2474 50.4525 96.5594 49.8297 96.5594 48.9732V47.8832C96.5594 47.0267 96.2474 46.4039 95.1554 46.4039H92.7375V50.4525Z" fill="white"/>
</g>
<defs>
<clipPath id="clip0_6:1238">
<rect width="123" height="64" fill="white"/>
</clipPath>
</defs>
</svg>
