<svg width="123" height="64" viewBox="0 0 123 64" fill="none" xmlns="http://www.w3.org/2000/svg">
<path d="M10.7 31.2C3.4 31.2 0 28.3 0 22.3V8.9C0 2.8 3.4 0 10.7 0H21.5C22.6 0 23.1 0.5 23.1 1.6V6.8C23.1 7.9 22.6 8.4 21.5 8.4H12.5C10.7 8.4 9.8 9.1 9.8 10.6V21C9.8 22.5 10.4 23.1 11.8 23.1H16V16.3C16 15.2 16.5 14.7 17.6 14.7H24.3C25.4 14.7 25.9 15.2 25.9 16.3V29.7C25.9 30.8 25.4 31.3 24.3 31.3L10.7 31.2Z" fill="white"/>
<path d="M38.5 31.2H32.1C31 31.2 30.5 30.7 30.5 29.6V18.2C30.5 16.5 31 14.3 32.2 11.3L36 1.5C36.3 0.5 37 0 38.2 0H49.9C51 0 51.7 0.5 52.1 1.4L55.8 11.2C57 14.2 57.5 16.4 57.5 18.1V29.5C57.5 30.6 57 31.1 55.9 31.1H49.3C48.1 31.1 47.6 30.6 47.6 29.5V23.4H40V29.5C40.1 30.7 39.5 31.2 38.5 31.2ZM40.5 15.6H47.3L45.3 9.1C45.1 8.6 44.8 8.4 44.4 8.4H43.3C43 8.4 42.7 8.6 42.4 9.1L40.5 15.6Z" fill="white"/>
<path d="M64.3998 31.2C63.2998 31.2 62.7998 30.7 62.7998 29.6V1.6C62.7998 0.5 63.2998 0 64.3998 0H71.3998C72.2998 0 72.8998 0.3 73.3998 1.3L77.2998 8.4C77.5998 8.9 77.7998 9.1 78.0998 9.1H78.4998C78.7998 9.1 78.9998 8.9 79.2998 8.4L83.1998 1.3C83.6998 0.4 84.2998 0 85.1998 0H92.1998C93.2998 0 93.7998 0.5 93.7998 1.6V29.7C93.7998 30.8 93.2998 31.3 92.1998 31.3H85.4998C84.3998 31.3 83.8998 30.8 83.8998 29.7V14.4L81.2998 19.1C80.7998 20.1 80.0998 20.5 78.9998 20.5H77.2998C76.1998 20.5 75.4998 20.1 74.9998 19.1L72.3998 14.4V29.7C72.3998 30.8 71.8998 31.3 70.7998 31.3H64.3998V31.2Z" fill="white"/>
<path d="M101.3 31.2C100.2 31.2 99.7002 30.7 99.7002 29.6V1.6C99.7002 0.5 100.2 0 101.3 0H121.4C122.5 0 123 0.5 123 1.6V6.7C123 7.8 122.5 8.3 121.4 8.3H109.4V11.6H117.8C118.9 11.6 119.4 12.1 119.4 13.2V17.9C119.4 19 118.9 19.5 117.8 19.5H109.4V23H121.4C122.5 23 123 23.5 123 24.6V29.7C123 30.8 122.5 31.3 121.4 31.3H101.3V31.2Z" fill="white"/>
<path d="M79.5998 40.6001H74.3998C73.6998 40.6001 73.2998 40.9001 72.8998 41.6001L69.9998 46.8001C69.7998 47.1001 69.6998 47.3001 69.3998 47.3001H69.0998C68.8998 47.3001 68.7998 47.2001 68.4998 46.8001L65.5998 41.6001C65.1998 40.9001 64.7998 40.6001 64.0998 40.6001H58.8998C58.0998 40.6001 57.7998 40.9001 57.7998 41.7001V62.4001C57.7998 63.2001 58.0998 63.5001 58.8998 63.5001H63.9998C64.7998 63.5001 65.0998 63.2001 65.0998 62.4001V51.2001L66.9998 54.7001C67.2998 55.4001 67.8998 55.7001 68.6998 55.7001H69.9998C70.7998 55.7001 71.2998 55.4001 71.6998 54.7001L73.5998 51.2001V62.4001C73.5998 63.2001 73.8998 63.5001 74.6998 63.5001H79.5998C80.3998 63.5001 80.6998 63.2001 80.6998 62.4001V41.7001C80.7998 40.9001 80.3998 40.6001 79.5998 40.6001Z" fill="white"/>
<path d="M53 40.6C52.9 40.6 52.7 40.5 52.5 40.5H47.6H47.4C46.8 40.6 46.5 40.9 46.5 41.6V51.1V62.3C46.5 62.6 46.6 62.8 46.7 63C46.7 63 46.7 63.1 46.8 63.1C46.9 63.2 47 63.3 47.2 63.3C47.3 63.3 47.5 63.4 47.7 63.4H52.6H52.8C53.4 63.3 53.7 63 53.7 62.3V52.8V41.7C53.6 41.1 53.4 40.8 53 40.6Z" fill="white"/>
<path d="M40.8998 40.6001H37.3998H36.5998H33.8998H33.1998H28.9998H28.7998H26.2998H21.9998C21.3998 40.6001 21.0998 40.8001 20.8998 41.2001C20.8998 41.3001 20.7998 41.5001 20.7998 41.7001V46.6001V46.8001C20.8998 47.4001 21.1998 47.7001 21.8998 47.7001H26.1998H27.7998V51.1001V62.3001C27.7998 62.6001 27.8998 62.8001 27.9998 63.0001C27.9998 63.0001 27.9998 63.1001 28.0998 63.1001C28.1998 63.2001 28.2998 63.3001 28.4998 63.3001C28.5998 63.3001 28.7998 63.4001 28.9998 63.4001H33.8998H34.0998C34.6998 63.3001 34.9998 63.0001 34.9998 62.3001V52.8001V47.7001H35.5998H36.5998H40.8998C41.1998 47.7001 41.3998 47.6001 41.5998 47.5001C41.5998 47.5001 41.6998 47.5001 41.6998 47.4001C41.7998 47.3001 41.8998 47.2001 41.8998 47.0001C41.8998 46.9001 41.9998 46.7001 41.9998 46.5001V41.6001V41.4001C41.8998 40.9001 41.5998 40.6001 40.8998 40.6001Z" fill="white"/>
<path d="M101.1 46.5999C101.9 46.5999 102.2 46.3 102.2 45.5V41.7999C102.2 40.9999 101.9 40.7 101.1 40.7H86.2997C85.4997 40.7 85.1997 40.9999 85.1997 41.7999V62.5C85.1997 63.2999 85.4997 63.5999 86.2997 63.5999H101.1C101.9 63.5999 102.2 63.2999 102.2 62.5V58.7999C102.2 58 101.9 57.7 101.1 57.7H92.2997V55H98.4997C99.2997 55 99.5997 54.7 99.5997 53.9V50.5C99.5997 49.7 99.2997 49.4 98.4997 49.4H92.2997V46.9H101.1V46.5999Z" fill="white"/>
</svg>
