<svg width="112" height="52" viewBox="0 0 112 52" fill="none" xmlns="http://www.w3.org/2000/svg">
<path d="M11.5208 41.6365L11.5183 41.6344C9.17902 39.6305 6.57755 37.1397 4.55302 34.4768C2.54919 31.8411 1 28.8942 1 26C1 25.4568 1.04388 24.882 1.15717 24.2994C1.15726 24.2989 1.15736 24.2984 1.15745 24.2979L2.13903 24.489C3.13209 19.2494 9.03084 13.5977 13.7975 9.79068L11.5208 41.6365ZM11.5208 41.6365C14.2779 43.9828 17.3581 46.2312 20.1859 47.9675L20.1899 47.9699C25.0374 50.9158 26.925 51 27.7996 51C28.5832 51 29.3104 50.8297 29.968 50.5053C31.5184 49.7495 32.2791 48.3296 32.734 46.5061H95.2233C98.6508 46.5061 101.918 45.4391 104.654 43.4074C105.062 43.1104 105.442 42.7964 105.814 42.4701L105.814 42.4701L105.822 42.4625C109.11 39.5078 111 35.294 111 30.906V21.094C111 12.4642 103.906 5.49387 95.2233 5.49387H32.8237C32.3045 3.50597 31.4197 1.94779 29.571 1.29549C29.0345 1.09519 28.461 1 27.8791 1C26.599 1 25.0896 1.51634 23.6216 2.1969C22.1238 2.89122 20.5455 3.81628 19.0905 4.75273C16.1841 6.62333 13.689 8.59173 13.1706 9.01155L11.5208 41.6365Z" fill="#3A3A3A" stroke="#3A3A3A" stroke-width="2"/>
<path d="M25.4926 42.7004H95.4547C101.999 42.7004 107.307 37.437 107.307 30.9468V21.0531C107.307 14.5629 101.999 9.29947 95.4547 9.29947H25.4926C18.9478 9.29947 13.6402 14.5629 13.6402 21.0531V30.9468C13.6402 37.437 18.9478 42.7004 25.4926 42.7004Z" fill="#E7B628"/>
<g opacity="0.6">
<path opacity="0.6" d="M25.4926 12.7622H76.2344C76.3541 14.4243 77.7509 15.7303 79.4669 15.7303C81.1829 15.7303 82.5796 14.4243 82.6994 12.7622H95.4547C101.999 12.7622 107.307 18.0256 107.307 24.5159V21.0531C107.307 14.5629 101.999 9.29943 95.4547 9.29943H25.4926C18.9478 9.29943 13.6402 14.5629 13.6402 21.0531V24.5159C13.6402 18.0256 18.9478 12.7622 25.4926 12.7622Z" fill="#C59818"/>
<path opacity="0.6" d="M73.0333 15.7855C72.0252 16.0216 71.4009 17.0234 71.639 18.0231C71.877 19.0228 72.8872 19.6419 73.8953 19.4058C74.9035 19.1698 75.5277 18.168 75.2897 17.1682C75.0516 16.1685 74.0414 15.5494 73.0333 15.7855Z" fill="#C59818"/>
<path opacity="0.6" d="M79.0879 18.6982C78.609 18.6982 78.2099 19.0939 78.2099 19.5688C78.2099 20.0437 78.609 20.4395 79.0879 20.4395C79.5667 20.4395 79.9658 20.0437 79.9658 19.5688C79.9658 19.0741 79.5667 18.6982 79.0879 18.6982Z" fill="#C59818"/>
</g>
<path opacity="0.72" d="M25.4926 42.7004H95.4547C101.999 42.7004 107.307 37.437 107.307 30.9468V27.484C107.307 33.9742 101.999 39.2377 95.4547 39.2377H41.7747L54.6048 12.7622H49.3171L35.5492 39.2377H32.4564L44.7078 12.7622H42.3334L30.1816 39.2377H25.4926C18.9478 39.2377 13.6402 33.9742 13.6402 27.484V30.9468C13.6402 37.437 18.9478 42.7004 25.4926 42.7004Z" fill="#C59818"/>
<path d="M29.7627 14.3648C29.4634 9.02228 28.9047 5.12418 28.0666 4.80758C25.4128 3.85779 6.33719 16.8976 4.80077 24.9906C4.74091 25.327 4.701 25.6634 4.701 25.98C4.701 29.5813 8.97106 34.5281 13.8796 38.723C19.8058 43.8084 26.6898 47.8252 28.0467 47.1524C28.5655 46.8952 29.0044 44.9164 29.3237 41.9286C30.0819 35.0624 30.2416 22.8932 29.7627 14.3648Z" fill="#E7B628"/>
<path d="M29.7627 14.3649C29.4634 9.02237 28.9047 5.12427 28.0666 4.80768C25.4128 3.85788 6.33723 16.8977 4.80081 24.9907C10.4078 17.6101 22.3998 9.22024 29.7627 14.3649Z" fill="#C59818"/>
<path opacity="0.72" d="M29.3235 41.9485C26.4701 44.3032 19.5463 42.1463 13.8595 38.7429C19.7857 43.8283 26.6697 47.8451 28.0265 47.1723C28.5852 46.8953 29.0042 44.9166 29.3235 41.9485Z" fill="#C59818"/>
<path opacity="0.72" d="M22.4945 37.6579C21.8555 38.2915 21.8555 39.3188 22.4945 39.9525C23.1334 40.5861 24.1694 40.5861 24.8084 39.9525C25.4473 39.3188 25.4473 38.2915 24.8084 37.6579C24.1694 37.0242 23.1334 37.0242 22.4945 37.6579Z" fill="#C59818"/>
<path opacity="0.72" d="M20.3844 35.953C20.0428 35.953 19.7658 36.2276 19.7658 36.5664C19.7658 36.9052 20.0428 37.1798 20.3844 37.1798C20.726 37.1798 21.0029 36.9052 21.0029 36.5664C21.0029 36.2276 20.726 35.953 20.3844 35.953Z" fill="#C59818"/>
<path opacity="0.72" d="M23.1583 35.9529C22.8191 35.9529 22.5397 35.6759 22.5397 35.3395C22.5397 35.0031 22.8191 34.7261 23.1583 34.7261C23.4975 34.7261 23.7769 35.0031 23.7769 35.3395C23.7769 35.6759 23.4975 35.9529 23.1583 35.9529Z" fill="#C59818"/>
<path d="M47.6953 29.8281C47.6953 30.4766 47.5742 31.0352 47.332 31.5039C47.0977 31.9727 46.7812 32.3711 46.3828 32.6992C45.9844 33.0273 45.5234 33.2969 45 33.5078C44.4844 33.7109 43.9453 33.8711 43.3828 33.9883C42.8203 34.1055 42.2539 34.1836 41.6836 34.2227C41.1211 34.2617 40.5938 34.2812 40.1016 34.2812C39.6172 34.2812 39.1133 34.2617 38.5898 34.2227C38.0742 34.1914 37.5586 34.1328 37.043 34.0469C36.5273 33.9609 36.0195 33.8477 35.5195 33.707C35.0195 33.5586 34.5469 33.375 34.1016 33.1562L34.0781 18.0625C34.5156 17.8828 34.9805 17.7227 35.4727 17.582C35.9648 17.4336 36.4648 17.3125 36.9727 17.2188C37.4883 17.1172 38 17.043 38.5078 16.9961C39.0156 16.9414 39.5078 16.9141 39.9844 16.9141C40.5391 16.9141 41.0977 16.9492 41.6602 17.0195C42.2305 17.0898 42.7773 17.207 43.3008 17.3711C43.8242 17.5352 44.3125 17.75 44.7656 18.0156C45.2188 18.2734 45.6133 18.5938 45.9492 18.9766C46.293 19.3594 46.5586 19.8047 46.7461 20.3125C46.9414 20.8203 47.0391 21.4062 47.0391 22.0703C47.0391 22.5078 46.9766 22.918 46.8516 23.3008C46.7266 23.6836 46.5469 24.0273 46.3125 24.332C46.0781 24.6367 45.793 24.8984 45.457 25.1172C45.1211 25.3281 44.7422 25.4844 44.3203 25.5859C44.8281 25.7188 45.2891 25.9141 45.7031 26.1719C46.125 26.4297 46.4805 26.7422 46.7695 27.1094C47.0664 27.4766 47.293 27.8906 47.4492 28.3516C47.6133 28.8125 47.6953 29.3047 47.6953 29.8281ZM41.7422 23.1484C41.7422 22.9219 41.6953 22.7305 41.6016 22.5742C41.5078 22.4102 41.3906 22.2773 41.25 22.1758C41.1172 22.0742 40.9688 22 40.8047 21.9531C40.6484 21.9062 40.5078 21.8828 40.3828 21.8828C40.2266 21.8828 40.0742 21.9062 39.9258 21.9531C39.7773 22 39.6328 22.0547 39.4922 22.1172L39.4219 24.7188C39.6016 24.7188 39.8242 24.7031 40.0898 24.6719C40.3555 24.6406 40.6094 24.5742 40.8516 24.4727C41.1016 24.3633 41.3125 24.207 41.4844 24.0039C41.6562 23.793 41.7422 23.5078 41.7422 23.1484ZM40.0781 26.9688C39.8516 26.9688 39.6328 26.9922 39.4219 27.0391L39.375 29.7109C39.4922 29.7344 39.6055 29.7578 39.7148 29.7812C39.832 29.7969 39.9453 29.8047 40.0547 29.8047C40.2188 29.8047 40.3984 29.7891 40.5938 29.7578C40.7891 29.7188 40.9727 29.6484 41.1445 29.5469C41.3164 29.4375 41.457 29.293 41.5664 29.1133C41.6836 28.9336 41.7422 28.6953 41.7422 28.3984C41.7422 28.1016 41.6836 27.8594 41.5664 27.6719C41.457 27.4844 41.3203 27.3398 41.1562 27.2383C40.9922 27.1289 40.8125 27.0586 40.6172 27.0273C40.4219 26.9883 40.2422 26.9688 40.0781 26.9688ZM63.1055 32.9922L57.293 33.7422L56.5898 31.0938H53.918L53.332 33.7422L47.3555 33.1562L52.0195 17.5469L58.5352 17.2188L63.1055 32.9922ZM56.168 27.5078L55.2773 23.4297L54.4102 27.5078H56.168ZM74.6602 17.5234L74.0039 22.4688C73.7773 22.4062 73.5508 22.3633 73.3242 22.3398C73.0977 22.3164 72.8711 22.3047 72.6445 22.3047C72.0664 22.3047 71.5156 22.3828 70.9922 22.5391C70.4688 22.6875 70.0039 22.918 69.5977 23.2305C69.1992 23.543 68.8789 23.9336 68.6367 24.4023C68.4023 24.8711 68.2852 25.4219 68.2852 26.0547C68.2852 26.4609 68.3477 26.8125 68.4727 27.1094C68.6055 27.4062 68.7891 27.6523 69.0234 27.8477C69.2578 28.043 69.5352 28.1875 69.8555 28.2812C70.1758 28.375 70.5273 28.4219 70.9102 28.4219C71.1992 28.4219 71.5 28.3906 71.8125 28.3281C72.125 28.2656 72.4336 28.1836 72.7383 28.082C73.043 27.9805 73.3398 27.8633 73.6289 27.7305C73.918 27.5977 74.1836 27.4609 74.4258 27.3203L73.957 32.8281C73.6523 32.9844 73.3203 33.125 72.9609 33.25C72.6094 33.3672 72.2461 33.4727 71.8711 33.5664C71.4961 33.6523 71.1211 33.7188 70.7461 33.7656C70.3711 33.8125 70.0117 33.8359 69.668 33.8359C68.6758 33.8359 67.75 33.6523 66.8906 33.2852C66.0312 32.918 65.2852 32.4141 64.6523 31.7734C64.0195 31.1328 63.5195 30.3789 63.1523 29.5117C62.793 28.6367 62.6133 27.6953 62.6133 26.6875C62.6133 25.3516 62.8047 24.0938 63.1875 22.9141C63.5703 21.7266 64.1328 20.6875 64.875 19.7969C65.6172 18.9062 66.5352 18.2031 67.6289 17.6875C68.7305 17.1719 69.9961 16.9141 71.4258 16.9141C71.9648 16.9141 72.5156 16.957 73.0781 17.043C73.6484 17.1289 74.1758 17.2891 74.6602 17.5234ZM90.2578 17.2188L84.6094 25.0234L89.3672 33.3203L83.9297 34.2812L80.3672 29.2188L80.1797 34.5156L75.3047 34.7031L75.6797 16.75L81.1406 17.0547L80.7188 22.3516L84.3516 16.75L90.2578 17.2188Z" fill="white"/>
</svg>
