<svg width="31" height="31" viewBox="0 0 31 31" fill="none" xmlns="http://www.w3.org/2000/svg">
<path d="M15.5 29.71C23.348 29.71 29.71 23.348 29.71 15.5C29.71 7.65207 23.348 1.29004 15.5 1.29004C7.65207 1.29004 1.29004 7.65207 1.29004 15.5C1.29004 23.348 7.65207 29.71 15.5 29.71Z" stroke="white" stroke-width="1.9329" stroke-miterlimit="10"/>
<path d="M9.06204 19.2121H6.77104C5.95904 19.2121 5.32104 18.5741 5.32104 17.7621V15.5001V13.2671C5.32104 12.4551 5.95904 11.8171 6.77104 11.8171H9.06204C9.41004 11.8171 9.75805 11.9331 10.019 12.1651L12.629 14.3981C13.296 14.9781 13.296 16.0221 12.629 16.6021L10.019 18.8351C9.75805 19.0671 9.41004 19.2121 9.06204 19.2121Z" fill="white"/>
<path d="M21.9381 11.8171H24.2291C25.0411 11.8171 25.6791 12.4551 25.6791 13.2671V15.5001V17.7331C25.6791 18.5451 25.0411 19.1831 24.2291 19.1831H21.9381C21.5901 19.1831 21.2421 19.0671 20.9811 18.8351L18.3711 16.6021C17.7041 16.0221 17.7041 14.9781 18.3711 14.3981L20.9811 12.1651C21.2421 11.9331 21.5901 11.8171 21.9381 11.8171Z" fill="white"/>
<path d="M19.2121 21.9381V24.2291C19.2121 25.0411 18.5741 25.6791 17.7621 25.6791H15.5001H13.2671C12.4551 25.6791 11.8171 25.0411 11.8171 24.2291V21.9381C11.8171 21.5901 11.9331 21.2421 12.1651 20.9811L14.3981 18.3711C14.9781 17.7041 16.0221 17.7041 16.6021 18.3711L18.8351 20.9811C19.0671 21.2421 19.2121 21.5901 19.2121 21.9381Z" fill="white"/>
<path d="M11.8171 9.06204V6.77104C11.8171 5.95904 12.4551 5.32104 13.2671 5.32104H15.5001H17.7331C18.5451 5.32104 19.1831 5.95904 19.1831 6.77104V9.06204C19.1831 9.41004 19.0671 9.75805 18.8351 10.019L16.6021 12.629C16.0221 13.296 14.9781 13.296 14.3981 12.629L12.1651 10.019C11.9331 9.75805 11.8171 9.41004 11.8171 9.06204Z" fill="white"/>
</svg>
