<svg width="31" height="31" viewBox="0 0 31 31" fill="none" xmlns="http://www.w3.org/2000/svg">
<path d="M15.5 29.71C23.348 29.71 29.71 23.348 29.71 15.5C29.71 7.65207 23.348 1.29004 15.5 1.29004C7.65207 1.29004 1.29004 7.65207 1.29004 15.5C1.29004 23.348 7.65207 29.71 15.5 29.71Z" stroke="white" stroke-width="1.9329" stroke-miterlimit="10"/>
<path d="M8.22109 19.1831C10.2551 19.1831 11.9041 17.5342 11.9041 15.5001C11.9041 13.4661 10.2551 11.8171 8.22109 11.8171C6.18702 11.8171 4.53809 13.4661 4.53809 15.5001C4.53809 17.5342 6.18702 19.1831 8.22109 19.1831Z" fill="white"/>
<path d="M22.7789 19.1831C24.813 19.1831 26.462 17.5342 26.462 15.5001C26.462 13.4661 24.813 11.8171 22.7789 11.8171C20.7449 11.8171 19.0959 13.4661 19.0959 15.5001C19.0959 17.5342 20.7449 19.1831 22.7789 19.1831Z" fill="white"/>
<path d="M15.5001 26.462C17.5342 26.462 19.1831 24.813 19.1831 22.7789C19.1831 20.7449 17.5342 19.0959 15.5001 19.0959C13.4661 19.0959 11.8171 20.7449 11.8171 22.7789C11.8171 24.813 13.4661 26.462 15.5001 26.462Z" fill="white"/>
<path d="M15.5001 11.9041C17.5342 11.9041 19.1831 10.2551 19.1831 8.22109C19.1831 6.18702 17.5342 4.53809 15.5001 4.53809C13.4661 4.53809 11.8171 6.18702 11.8171 8.22109C11.8171 10.2551 13.4661 11.9041 15.5001 11.9041Z" fill="white"/>
</svg>
