<svg id="Layer_1" data-name="Layer 1" xmlns="http://www.w3.org/2000/svg" xmlns:xlink="http://www.w3.org/1999/xlink" viewBox="0 0 3590.3 1946.52"><defs><style>.cls-1{fill:url(#linear-gradient);}.cls-2{fill:url(#linear-gradient-2);}.cls-3{fill:url(#linear-gradient-3);}.cls-4{fill:url(#linear-gradient-4);}.cls-5{fill:url(#linear-gradient-5);}.cls-6{fill:url(#linear-gradient-6);}.cls-7{fill:url(#linear-gradient-7);}.cls-8{fill:url(#linear-gradient-8);}.cls-9{fill:url(#linear-gradient-9);}.cls-10{fill:url(#linear-gradient-10);}.cls-11{fill:url(#linear-gradient-11);}.cls-12{fill:url(#linear-gradient-12);}.cls-13{fill:url(#linear-gradient-13);}.cls-14{fill:url(#linear-gradient-14);}.cls-15{fill:url(#linear-gradient-15);}.cls-16{fill:url(#linear-gradient-16);}.cls-17{fill:url(#linear-gradient-17);}.cls-18{fill:url(#linear-gradient-18);}.cls-19{fill:url(#linear-gradient-19);}.cls-20{fill:url(#linear-gradient-20);}.cls-21{fill:url(#linear-gradient-21);}.cls-22{fill:url(#linear-gradient-22);}.cls-23{fill:url(#linear-gradient-23);}.cls-24{fill:#fff;}.cls-25{fill:#225b00;}</style><linearGradient id="linear-gradient" x1="2155.23" y1="2519.06" x2="2158.47" y2="752.8" gradientTransform="matrix(1, 0, 0, -1, 0, 2625.62)" gradientUnits="userSpaceOnUse"><stop offset="0" stop-color="#ffed00"/><stop offset="0.1" stop-color="#f4e903"/><stop offset="0.27" stop-color="#d7e00a"/><stop offset="0.49" stop-color="#a8d116"/><stop offset="0.76" stop-color="#68bc27"/><stop offset="1" stop-color="#27a737"/></linearGradient><linearGradient id="linear-gradient-2" x1="619.87" y1="2500.23" x2="648.09" y2="752.27" xlink:href="#linear-gradient"/><linearGradient id="linear-gradient-3" x1="2729.02" y1="2522.82" x2="2720.69" y2="754.88" xlink:href="#linear-gradient"/><linearGradient id="linear-gradient-4" x1="1272.41" y1="2505.17" x2="1290.54" y2="754.12" xlink:href="#linear-gradient"/><linearGradient id="linear-gradient-5" x1="3252.62" y1="2527.75" x2="3240.08" y2="757.43" xlink:href="#linear-gradient"/><linearGradient id="linear-gradient-6" x1="1720.98" y1="2510.69" x2="1725.99" y2="752.59" xlink:href="#linear-gradient"/><linearGradient id="linear-gradient-7" x1="1288.18" y1="2505.08" x2="1296.43" y2="753.57" xlink:href="#linear-gradient"/><linearGradient id="linear-gradient-8" x1="3309.07" y1="2532.15" x2="3309.33" y2="752.75" xlink:href="#linear-gradient"/><linearGradient id="linear-gradient-9" x1="3347.99" y1="2538.64" x2="3376.8" y2="752.69" xlink:href="#linear-gradient"/><linearGradient id="linear-gradient-10" x1="3211.74" y1="2532.23" x2="3215.09" y2="749.83" xlink:href="#linear-gradient"/><linearGradient id="linear-gradient-11" x1="3488.36" y1="2537.04" x2="3500.96" y2="753.38" xlink:href="#linear-gradient"/><linearGradient id="linear-gradient-12" x1="3574.25" y1="2543.31" x2="3556.5" y2="752.66" xlink:href="#linear-gradient"/><linearGradient id="linear-gradient-13" x1="3103.9" y1="2533.55" x2="3119.74" y2="748.91" xlink:href="#linear-gradient"/><linearGradient id="linear-gradient-14" x1="3296.03" y1="2537.76" x2="3317.63" y2="747.28" xlink:href="#linear-gradient"/><linearGradient id="linear-gradient-15" x1="3200.96" y1="2529.1" x2="3233.59" y2="756.2" xlink:href="#linear-gradient"/><linearGradient id="linear-gradient-16" x1="3238.2" y1="2531.47" x2="3238.2" y2="755.43" xlink:href="#linear-gradient"/><linearGradient id="linear-gradient-17" x1="3404.02" y1="2539.31" x2="3444.01" y2="747.4" xlink:href="#linear-gradient"/><linearGradient id="linear-gradient-18" x1="3298.82" y1="2532.94" x2="3290.29" y2="752.66" xlink:href="#linear-gradient"/><linearGradient id="linear-gradient-19" x1="3472.39" y1="2536" x2="3460.08" y2="755.51" xlink:href="#linear-gradient"/><linearGradient id="linear-gradient-20" x1="3301.38" y1="2537.45" x2="3303.37" y2="741.96" xlink:href="#linear-gradient"/><linearGradient id="linear-gradient-21" x1="3400.53" y1="2535.46" x2="3400.51" y2="758.14" xlink:href="#linear-gradient"/><linearGradient id="linear-gradient-22" x1="3321.26" y1="2535.23" x2="3327.06" y2="752.65" xlink:href="#linear-gradient"/><linearGradient id="linear-gradient-23" x1="3386.03" y1="2535.37" x2="3349.67" y2="747.73" xlink:href="#linear-gradient"/></defs><g id="Layer_1-2" data-name="Layer 1"><path class="cls-1" d="M2127.7,1173.31c-26.7-.5-51.2-5.3-75.2-12.4-28.8-8.5-55.6-21.1-78.8-40.5-18.9-15.8-32.8-35.1-40.7-58.5-16.5-48.8-29.7-98.5-37.4-149.5-5-33.7-6.6-67.6-6.9-101.6-.6-76,14.5-149.1,40.3-220.2,13.8-38,39.2-66.4,73.8-86.6,26.7-15.6,55.6-25.7,86.1-31.3,40.3-7.3,80.8-7.3,121.4-3.6,27.4,2.5,54.3,7.8,79.8,18.1a373.66,373.66,0,0,1,38.3,18.4c34.8,18.9,58,48,71.4,84.8A411.37,411.37,0,0,1,2423.2,698c1.5,18,1.8,35.8-.4,53.7a90.07,90.07,0,0,1-8.2,28.4c-6.7,14.2-17.7,24.3-31.9,31a119.51,119.51,0,0,1-39.4,10.7c-49.8,5.3-96.6-5.1-142-24.7-17.9-7.7-25.2-21.2-25.9-40-.6-17.3,3.1-33.7,7.7-50.1,3.9-14.1,8.1-28.1,11.2-42.4,2.1-9.6,4.4-19.3,1.9-29.4-3.2-12.6-16-24.5-28.8-25.7-4.2-.4-7.3,1.7-9.9,4.5-4.9,5.4-7.7,11.9-9.4,18.8a181.22,181.22,0,0,0-5.6,43.4q-.15,146.7.1,293.3a134,134,0,0,0,4.2,32.1c4,16.2,12.2,21.6,28.9,20.7a72.55,72.55,0,0,0,16.6-3.1c6.3-1.9,9.1-6.5,8.1-13.1a114.84,114.84,0,0,0-3.4-15.2c-4.3-15-8.8-29.9-13.1-44.9a123.51,123.51,0,0,1-4.9-37.8,82.55,82.55,0,0,1,.8-9.9c2-14.2,8.3-25.4,20.8-33.7,27-17.9,56.2-28.7,88.8-29.6,20.9-.6,41.6-.2,61.8,5.8a154.67,154.67,0,0,1,33.9,14.1c26.3,15.2,39.6,38,40.6,68.4.9,28.8-5.6,56.2-13.7,83.5-4.7,15.8-9.8,31.6-14.8,47.3a56.14,56.14,0,0,1-4.2,10.5c-15.8,29.2-36.9,53.4-65.9,70.5a286.67,286.67,0,0,1-104.9,36.9c-3.3.5-6.6.5-9.9.8s-6.5.5-10.4.8c2.9,4.2,6.9,3.9,10.5,4.1,17.5,1.1,34.6,4.8,51.5,9.2,26.7,7,51.5,18.5,74.6,33.5s40.5,35.2,52.9,59.8c11.1,22.1,17.9,45.6,23.5,69.6,6.3,26.8,9.9,53.8,9.7,81.3-.1,13.2-1.5,26.4-5.3,39.2-5.8,19.7-18,33.9-36.5,42.8a115.88,115.88,0,0,1-42.2,11.2c-49.1,3.6-95.8-5.1-140.5-25.9-16.6-7.7-23.7-20.5-24.4-38a113.51,113.51,0,0,1,5.2-40.5c3.1-9.9,5.9-19.9,8.9-29.9a170.09,170.09,0,0,0,7.1-34.6c1.7-20.1-9.8-30.1-25.9-35.3-6.8-2.2-11.7.1-15.8,6.3-6.4,9.7-8.8,20.9-10.1,32.2a372.3,372.3,0,0,0-2.5,39.5q-.3,131.7-.1,263.5c0,10.8,1.4,21.6,2.3,32.4a43,43,0,0,0,1.6,6.9c4.9,16.6,14.4,23.1,31.7,21.1a72.28,72.28,0,0,0,13.8-3c5.9-1.8,9.4-6.8,8.5-13a146,146,0,0,0-4.2-19.4c-3.2-11.4-6.9-22.6-10.1-33.9-4.2-14.6-7.3-29.3-7-44.6,0-2.8.2-5.7.4-8.5,1.3-16.6,8.9-29,23.2-38.3,32.4-21.1,67.6-30.7,106.2-28.3,13.6.8,27.3,1.3,40.5,5.2,20.1,6,38.9,14,54.2,29.2,14.3,14.1,20.8,31.2,21.8,50.7a189.08,189.08,0,0,1-6,60.4c-7.3,26.4-14.4,52.9-23.5,78.7-6.5,18.3-18.3,34-31.6,48.3-19.7,21.1-44,35.5-70.2,46.9-34.2,15-70.2,21.8-107.4,22.8-26.9.8-53.9.7-80.7-2.7-39.8-5.1-77.8-15.7-112.1-37.1-22.8-14.3-41.9-32.3-53.9-56.8a168.63,168.63,0,0,1-7.9-19.7,894.11,894.11,0,0,1-30.1-109.1c-8.5-40.7-14-81.9-13.1-123.6.2-9.9,0-19.8.2-29.8,1-47.5,8.9-93.9,21.8-139.5,4.7-16.8,10.1-33.4,15.5-50,15.5-47,46.4-80.3,90.5-102a277.19,277.19,0,0,1,93.4-27C2115.9,1177.31,2121.4,1176.51,2127.7,1173.31Z" transform="translate(-230.36)"/><path class="cls-2" d="M566.1,1873.11c-38.3,0-76.5-.2-114.8.1-30,.2-56.7-9-80.3-27.1-24.2-18.6-40.7-43-51.9-71.3s-14.7-57.7-11.6-87.6c2.4-23.5,10.2-45.1,28.9-61.3,13.9-12,30.3-19,48.1-22.7,23.5-5,47-3.5,70.3,1.3,12.9,2.7,25.9,5.9,38.1,10.9,20.7,8.4,40.8,6,60.8-.9,21.2-7.4,37.7-21.1,50.7-39.3,13.8-19.4,23.4-40.9,31-63.4,10.9-32.3,17.8-65.5,23.2-99.1a823.76,823.76,0,0,0,9.3-88.6c.8-16.5,1.6-33,2.7-49.4,2.4-35.8,2.9-71.7,1.8-107.5-1.1-34.9-2.8-69.7-4.4-104.6-1.1-22.1-2.2-44.3-3.9-66.4-2.1-26.8-4.7-53.6-7.3-80.3-1.9-19.2-4-38.5-6.4-57.7-3.3-26.2-6.6-52.4-10.5-78.5-4.7-31.2-9.6-62.5-15-93.6-6.2-35.8-13.6-71.3-25.2-105.9-7.1-21.2-6.1-42,7.8-60.6a92.32,92.32,0,0,1,23.7-22.1c14.7-9.8,30.9-16.3,47.7-21.4a340.51,340.51,0,0,1,68.1-12.5c17.9-1.6,35.8-2.6,53.8-1.9,29.8,1.2,59.3,4.3,88,13.2,13.1,4.1,26,8.9,37.6,16.2a141.22,141.22,0,0,1,19.1,14.5c20.6,19.2,24.1,42.8,16.7,68.8-2.8,10-6.5,19.7-9.2,29.7-5.8,21-8.3,42.6-10.2,64.2-4.9,54.1-6.7,108.3-6.6,162.6,0,11.8-1.3,23.6-1.1,35.4q.9,66.6,2.6,133.1c.6,26.9,1.7,53.8,2.8,80.6,1.8,42.4,3.6,84.8,5.8,127.3,1.5,30.6,3.6,61.2,5.5,91.8,1.8,28.7,3,57.5,5.7,86.1,5,54.2,2.3,108.5,2.6,162.8.2,28.3.3,56.7-1.3,84.9-1.2,21.6-.4,43.4-4.5,64.9-7.2,38.4-24.9,71-52.9,98.1-9.9,9.6-21.8,16.6-33.8,23.1-42.3,22.8-87.2,38.3-134.3,47.7-23.7,4.8-47.6,6.6-71.8,6.5C629.5,1873,597.8,1873.11,566.1,1873.11Z" transform="translate(-230.36)"/><path class="cls-3" d="M2664.1,1177.41c4.9,1.3,10,2.1,14.7,3.9,8,2.9,16.3,5.4,23.5,9.7,15.3,9,18.7,24,8.9,38.7-8.3,12.5-12.7,26.3-16.1,40.6-9.1,38-10.9,76.6-8.4,115.3.8,11.7,3.8,23.3,6.4,34.7,1.3,5.8,3.2,11.9,9,15.3,5.6-.3,8.4-4.4,11.5-7.8,8.1-8.7,14.3-18.8,19.9-29.2,14.9-28.1,26.1-57.6,34.6-88.1,3-10.9,5.9-21.9,8.2-33,3.8-18.1,5.4-36.4,3.3-54.9-1.9-17.2,6.1-29.3,20.7-36.9a118.34,118.34,0,0,1,26.4-9.9,231.18,231.18,0,0,1,50.5-6.3c27-.4,53.9,0,80.3,5.8a183,183,0,0,1,27,8.3c4.7,1.8,8.8,5.3,12.9,8.5,10.6,8.3,9,26.9,1.4,34.5a55,55,0,0,1-8.5,7.5c-19.6,13.1-34.8,30.4-48.2,49.5a560.44,560.44,0,0,0-81.2,173.6c-6.2,22.6-5.7,44.5.6,66.9,16,56.6,38.6,110.4,64.8,162.9q17.1,34.2,37.5,66.6a374.42,374.42,0,0,0,39.3,51.9c12.5,13.6,11.5,28.4-2.2,40.9-6.4,5.9-14.3,9.1-22.2,12.2-14.6,5.6-29.9,8.6-45.3,11-28.2,4.4-56.5,4.2-84.8,2.8a146.87,146.87,0,0,1-42.9-8.7c-9-3.3-17-8-23.6-15.2-5.3-5.8-8.8-12.3-8.6-20.3.1-6.1-.1-12.4,1.1-18.3,3.3-16.5,2.4-32.8.3-49.3-4.8-38.7-15-75.9-29.1-112.1a245.08,245.08,0,0,0-24.3-47.9,131.72,131.72,0,0,0-13.2-16.6c-2.4-2.6-5.9-4.2-8.6-6.1-5.4,3.3-6.6,8.2-7.3,12.7a220.83,220.83,0,0,0-3.5,28c-1.2,28.4,1.2,56.5,4.7,84.7a951.2,951.2,0,0,0,19.8,109.9c4,16.1-1.8,29.8-16.1,39a94.31,94.31,0,0,1-17.8,8.6c-13.3,5-27.2,7.3-41.4,9.1-19.3,2.5-38.6,2.5-58,2.2-22.7-.4-45.3-2.7-67.3-8.4-10-2.6-19.7-6.6-29.2-10.6-4.2-1.8-7.9-5.1-11.5-8.1-10.5-8.8-12.6-23.2-7.3-34.8,11.9-26,17.3-53.9,22.2-81.7,6.2-35.3,9.6-71,12.4-106.8a1584.47,1584.47,0,0,0,4.3-179.7c-1-32-2.5-64.1-7.2-95.9-3.1-21-5.5-42.1-9.6-62.9-4-20.4-9.6-40.3-23.3-57.1-8-9.8-8.2-29,8.7-39.2,10.3-6.2,21.6-9.6,33.3-11.4,31.8-4.8,63.8-7.1,96-4.3,11.1,1,22.2,1.3,35.5,1.4-4.5-4.3-8.3-4.6-11.6-6-10.4-4.4-20.9-8.8-31.2-13.5-13-5.9-18.7-16.6-19.2-30.5-.4-11.4.6-22.6,4.7-33.4,4.4-11.5,8.8-22.9,12.8-34.5,5.1-14.7,10.4-29.4,14.3-44.4,8.3-31.7,1.3-60.3-21.8-83.6-34-34.4-59-74.8-80.1-117.8a751.11,751.11,0,0,1-58.5-165.1c-7.2-31.9-11.8-64-10.3-96.8.6-12.4,2.7-24.3,8.4-35.5q14-27.9,43.2-38.8c11.1-4.2,22.6-6,34.6-6.4,44.6-1.5,83.2,14,118.3,40.1a33.86,33.86,0,0,1,13.9,22,582.43,582.43,0,0,1,8.7,65.9c2.4,30.2,1.9,60.4,2.9,90.6.5,15.5,2.8,31,5.1,46.3a33.92,33.92,0,0,0,6,14.1c4.3,6.2,12.5,6.3,16.8.1a62.52,62.52,0,0,0,8.2-17.8,205.64,205.64,0,0,0,5.4-29.2c1.5-11.7,2.3-23.5,3-35.2,1.3-22.1,2-44.3,3.5-66.4a494.34,494.34,0,0,1,9-67.3,37.65,37.65,0,0,1,13.6-22.4c23.1-19,49.1-32.5,78.7-36.5,28.8-4,57.5-2.6,84.1,12a105.72,105.72,0,0,1,33.7,29.7c7.1,9.4,9.5,20.4,9.9,32,.6,18.6-2.8,36.7-7.3,54.5-9.7,38.6-23.7,75.6-39.1,112.2-26.5,63.2-56.8,124.6-89.7,184.6-4.8,8.7-9.6,17.4-14.7,25.9-16.3,27.3-19.5,56.8-14.7,87.5,3,19.2,8.6,37.7,14.4,56.2,4.2,13.5,7.8,27.2,11.2,40.9a43.77,43.77,0,0,1-.5,23.8c-2.5,8.6-7.5,15.1-15.7,19-23.6,11-48,19.6-73.9,23.8a214.89,214.89,0,0,1-36.7,2.4h-12.7A3.18,3.18,0,0,1,2664.1,1177.41Zm-22.9-4.2c3.6,1.1,4.8,1.8,6.1,1.9a56.73,56.73,0,0,0,7.5-.6c-3.5-1.1-4.7-1.7-6-1.8C2647.1,1172.61,2645.4,1172.91,2641.2,1173.21Z" transform="translate(-230.36)"/><path class="cls-4" d="M1285.9,1175.21c-34.2.4-68-2.9-101-11.5-30.8-8-60.4-19.4-86-38.8q-51-38.4-60.7-101.9c-3.7-24.5-3.1-48.9-.6-73.4,1.3-12.7,2.5-25.4,3.4-38.1,2.4-32.5,4.4-65,6.8-97.4,3.7-50.9,6-101.8,4.4-152.8-1.3-41-4.3-82-12.4-122.4-1.6-7.8-1.7-15.9-1.9-23.9s3.3-14.6,8.6-20.4c7.4-8.3,16.7-13.9,26.9-17.8,14.6-5.7,29.8-9.5,45.4-10,17.5-.6,35-.8,52.4.1a148.88,148.88,0,0,1,56,13.8,94.41,94.41,0,0,1,17.1,10c12.6,9.5,20.3,21.8,22,38a238.16,238.16,0,0,1,.8,39.6c-1.4,19.3-2.6,38.6-4.4,57.9-2.2,24-4.9,47.9-7.4,71.8-2.1,20.2-4.5,40.3-6.6,60.5-2.7,26.7-5.8,53.5-7.6,80.3-2,29.2-5,58.4-3.2,87.7a276.91,276.91,0,0,0,5.4,40.6c4.4,21.1,23.8,31.4,44.4,24.6,14.1-4.6,23.1-13.8,26.7-28.5,4.5-18,5.6-36.3,5.3-54.8-.6-34-3.7-67.8-7.7-101.6-3.4-28.1-6.4-56.2-9.7-84.4-3.4-29-7-58.1-10.2-87.1-3.4-31.5-5.1-63-3.9-94.7.9-23.8,11.8-41.2,32.5-52.8a135.38,135.38,0,0,1,44-15.2c22.8-3.8,45.7-6,69-4,15.6,1.4,31,2.6,46.1,6.8,9.1,2.5,18,5.9,25.9,11.2,13.5,9,21.7,22.3,13,43.2-10.5,25.2-15,51.4-18,78.3-3.7,33.9-3.2,67.9-1.8,101.9,1.4,33,4.4,65.9,7.1,98.8,1.8,22.6,4.1,45.1,6.4,67.6,2.3,22,5.2,44,7.5,66.1,1.5,14.1,2.8,28.2,3.3,42.3.8,22.4-3.7,44.1-11.3,65.2-12.1,33.2-30.9,61.5-60.1,82.1-21,14.9-44.4,25-69.2,31.7C1351,1172.41,1318.6,1175.51,1285.9,1175.21Z" transform="translate(-230.36)"/><path class="cls-5" d="M3168.3,1574.91c-3.3-2.6-6.4-5.4-10-7.7-21.8-14.1-43.5-28.4-65.7-42a151.67,151.67,0,0,1-59.4-66.7c-5-10.7-9.9-21.4-14.7-32.2-11.9-27.1-14.2-55.7-11.1-84.7a202,202,0,0,1,27.2-82.8,143.68,143.68,0,0,1,53.1-51.9c21.5-12.4,44.6-20.2,68.7-25.9a422.34,422.34,0,0,1,123.7-11.1c35.8,2.2,70,10.7,101.1,29.2,17.2,10.2,31.9,23.6,45.4,38.1,19.5,20.9,36.5,43.5,46.4,70.6a162.64,162.64,0,0,1,8.4,31.3c5.2,34.7-6.2,63.3-34,84.8-18.7,14.5-40.4,22.3-63.5,26.2-11.1,1.9-22.4,2.5-33.6,3.7-.5,2.5,1.7,3,3.1,3.9,12.4,7.7,25.3,14.8,37.3,23.1,14,9.6,27.7,19.7,40.8,30.5,23.5,19.2,37,44.9,45.1,73.7a248.16,248.16,0,0,1,8.9,58.7c.8,21.7.5,43.4,0,65.1-.3,15.1-3.3,30-7.1,44.6-7.7,29.8-25.4,52.3-50.9,69-23.1,15.2-48.6,25.2-75.1,32.5-29.3,8-59.3,11.5-89.6,11.7-18.9.1-37.8.1-56.7-.5-13.7-.4-27.4-1.5-40.9-3.2a156.89,156.89,0,0,1-50-14.9c-11.4-5.7-23.2-10.5-34.5-16.4a153.85,153.85,0,0,1-48.3-38.8c-12.5-15-19.9-32-20-51.7-.1-18.9.1-37.8-.4-56.7a326.9,326.9,0,0,0-3.2-39.5c-1.4-9.2-5-18.1-7.7-27.1-.9-3.1-2.5-6.2-3.1-9.4-2.3-13.9,2.2-25,14.2-32.9,10.5-6.9,22.3-10.2,34.5-12,38.4-5.5,76.3-2.8,113.3,9.3a80.23,80.23,0,0,0,8.2,1.8l.4.5Zm38,24.4-3-.3,1.5,1.8c1.8,3.3,3.5,6.6,5.3,9.9,3.8,7.1,6.7,14.6,7.2,22.8.9,14.2.4,28.3-4.8,41.8-2.4,6.2-4.2,12.5-6.2,18.8s.2,11.1,5.1,15c9.6,7.7,20.2,9.5,32,6.1,16.8-4.8,22.9-11.7,24-28.8a226.44,226.44,0,0,0-.2-29.7c-.9-12.9-6.6-23.4-17.8-30.6-12.3-7.9-24.4-16.2-36.7-24.1C3210.8,1600.81,3208.5,1600.21,3206.3,1599.31Zm66-185.9c2.7-19.2,3-20,13.1-36.9,1.9-3.2,3.7-6.5,5.5-9.9a122.77,122.77,0,0,0,11.4-28.7c2.5-10.3-.7-18.6-7.8-25.6-13.7-13.7-36.5-16.7-53.6-7.4a37.1,37.1,0,0,0-18.2,22.3c-5.2,16.4-2.7,32.5,1.9,48.5,3.7,13,14.5,19.2,24.7,25.9,5.5,3.6,11.4,6.6,17.1,9.8C3267.8,1412.31,3269.7,1412.61,3272.3,1413.41Z" transform="translate(-230.36)"/><path class="cls-6" d="M1665.8,1173.31c-5.4-1.4-10-2.3-14.3-3.8-8-2.7-16.3-4.9-23.9-8.7-16.3-8.1-21.8-21.5-16.3-38.9,8-25.3,11.9-51.4,14.7-77.7,6.6-61.6,8.8-123.3,8.5-185.2-.2-33.1.2-66.1-.7-99.2-.8-30.2-2.9-60.3-4.6-90.5-.9-15.5-2-31.1-3.3-46.6-2.6-32-6.5-63.8-13.4-95.2a106.16,106.16,0,0,1-1.8-12.6c-1.3-12.2,4-21.3,14.2-27.2,6.9-4,14.5-6.8,22.1-9.3,15.4-5,31.5-6.6,47.4-7.7,23.1-1.7,46.2-1.9,69.3.5,13.6,1.4,27.3,2.7,40.4,6.9a114.57,114.57,0,0,1,19.5,8.1c12.3,6.5,17,17.1,15,30.8a13.73,13.73,0,0,1-.5,2.8c-6.5,22.8-9.3,46.2-12.4,69.6-1.5,11.2-3,22.5-3.9,33.7q-3.6,45.9-6.5,91.8c-1.8,28.7-3.7,57.5-4.4,86.2-.8,32.6-1,65.2-.2,97.7q1.5,57.3,5.6,114.5c2.1,28.7,5.5,57.3,13.4,85.2,2.2,7.7,4.8,15.3,7.5,22.8,6.2,17.1,1.6,29.2-14.8,37.4-11,5.5-22.9,8.8-35,10.9-1.6.3-3.3.6-8.2,1.6,6.2,1.9,9.2,2.9,12.2,3.7,7.7,2.2,15.5,4,23.1,6.6a51.69,51.69,0,0,1,12.5,6.6c8.4,5.7,13.2,13.5,12,24a105.93,105.93,0,0,1-2.2,13.9c-6.2,25.3-9.9,50.9-12.5,76.8-2.8,28.6-5.2,57.3-7.8,86-.2,2.4-.3,4.7-.4,7.1-1.2,29.2-1.9,58.5-3.9,87.7-2.5,37.3-2.2,74.6-1.5,111.9.5,30.6,2.7,61.2,4.3,91.9.7,13.2,2.1,26.3,3.1,39.5a450.58,450.58,0,0,0,12.3,73.9c1.7,6.8,4.6,13.4,7.1,20,5.2,14.2,2.9,23.1-9,32.4a34.13,34.13,0,0,1-9.8,5.6c-8.4,3-16.9,6-25.7,7.9-30.2,6.7-60.9,6.8-91.7,6.3-18.5-.3-36.8-1.5-54.7-6.6a92.8,92.8,0,0,1-21-8.3c-15-8.4-19.7-22.7-14.8-37.2,8.7-25.6,12-52.4,14.8-79.1,3.4-31.4,4.6-63,6.4-94.6,3.7-66.5,2.5-133.1,1-199.6-.7-34.4-3-68.8-5.6-103.2-2.7-35.7-6-71.5-13.3-106.7-1.3-6.5-2.9-12.9-4.3-19.3-2.3-10.7.8-19.9,9.3-26.6a63,63,0,0,1,17-9.9C1645.5,1178.51,1655.1,1176.41,1665.8,1173.31Z" transform="translate(-230.36)"/><path class="cls-7" d="M1261.5,1435.51c5.9-.4,9.3-4.8,12.2-8.8,7.2-9.9,14.6-19.8,20.3-30.6,22.5-42.5,36.9-87.8,44.5-135.3,1.5-9.7.9-19.8,1.1-29.7a107.1,107.1,0,0,0-.7-11.3c-.9-13.6,5.1-23.6,15.9-31.3,8.6-6.2,18.4-9.8,28.5-12.2a224.78,224.78,0,0,1,46.2-6.6c24.1-.8,48.2-.8,72.1,2.7,14,2.1,28,4.4,41,10.4a57,57,0,0,1,11,6.3c14,11.1,14.7,28.2,1.7,40.4a40,40,0,0,1-5.5,4.5c-19.4,12.6-34.1,29.8-47.4,48.2-31.7,44-55.3,92.2-72.6,143.6a353.26,353.26,0,0,0-12.6,46.4,91.34,91.34,0,0,0,.5,37.9c7,31.9,17.8,62.7,30,92.9,20.4,50.4,43.8,99.3,72.5,145.7,12.4,20.1,26.2,39.3,42.3,56.6,12.7,13.6,11.7,28.3-2,40.9-6.4,5.9-14.2,9.3-22.2,12.3-14.2,5.3-29,8.5-43.9,10.9-29.6,4.7-59.3,4.4-89.1,2.8a138.62,138.62,0,0,1-40.1-8.4,58.75,58.75,0,0,1-24.5-16.3c-5-5.5-8-11.8-8-19.1,0-6.6.1-13.3,1.5-19.7a112.66,112.66,0,0,0,1.6-35.2c-5.5-53.1-19.3-103.9-42.7-151.9-5.3-11-12.5-21.1-19.3-31.2-3.7-5.4-8.3-10.3-14.8-12.3-5.3,2.5-6.4,7.5-7.2,11.9-1.6,8.8-3.1,17.7-3.4,26.6-1.2,36.4,2.3,72.5,7.6,108.6,4.4,29.4,9.7,58.6,16.7,87.5,4.1,16.7-1.2,29.3-15.5,39.3-8.2,5.7-17.5,9.3-27.1,12-19.7,5.5-39.9,7.7-60.2,8.3-23.2.7-46.3.2-69.3-2.8-16-2.1-31.7-5.3-46.8-11-9.3-3.6-18-8-24.9-15.7-8.1-9.1-10.1-19.6-5.5-30.3,15.3-35.1,21.4-72.2,26.8-109.6,6.3-43.9,9.8-88.1,12-132.4q3.15-63.75,1-127.4c-1.6-48.1-4.3-96.2-13.4-143.6-2.5-13-5.6-25.8-9.1-38.6-3.3-11.9-8.1-23.1-16.3-32.7a25,25,0,0,1-5.8-14.2c-1.3-12.9,4.5-21.7,15.3-27.9a87.44,87.44,0,0,1,30.8-10.2c31.8-4.8,63.8-7.2,96-4.3,15.5,1.4,31.1,2.4,46.6,3.9a171.49,171.49,0,0,1,40,8.9c8.1,2.8,15.8,6.3,21.7,12.9,7.5,8.3,9.9,19.5,3.7,28.7-16.3,24.5-20.6,52.3-24.7,80.4a348,348,0,0,0-2.2,76.3c.9,12.6,3.8,25.1,6.5,37.6C1253.8,1427.11,1255.5,1429,1261.5,1435.51Z" transform="translate(-230.36)"/><path class="cls-8" d="M3668.1,1038.81c-3.4.3-5,.9-5.9.4-10.9-6.5-21.8-13.2-32.7-19.8a7.6,7.6,0,0,1-2.2-1.7c-6.4-9.2-16.4-10.6-26.2-11.6-13.1-1.4-26.4-2.3-39.6-2.6-6.5-.1-13.2,1.2-19.6,2.8-4.6,1.1-8.6,3.7-10.5,8.7-5.3,13.4-15.8,22-27.4,29.6-8.7,5.7-17.2,11.6-25.6,17.7-4.5,3.3-8.5,7.4-8.6,13.4,2.5,2.7,4.8,1.6,6.8.5,10.8-6,22.3-6.2,34.4-6.2,29.7,0,59.5-1.1,89.2-1.5,19.8-.3,39.7,0,59.5-.1,5.7,0,11.3-.3,17-.5s10-2.4,10.3-9.1c0-.6,1.3-1.1,2.5-2,4.8,1.5,8.7,4.9,12.6,8.2,15.5,13,26.7,29.2,34.9,47.6a52.61,52.61,0,0,1,2.5,6.6c2.9,10,.8,13.9-9.5,16.3a293.24,293.24,0,0,1-29.2,5.3c-18.7,2.4-37.5,4.3-56.3,6.2-26.7,2.8-53.5,5.5-80.2,7.9a199.09,199.09,0,0,1-81.1-8.9,66.52,66.52,0,0,1-27.5-16.9c-12.2-12.6-16.4-28.4-17.7-45.2-.8-10.3-.1-20.7-.1-32.2-1.9,1.1-3.6,1.6-4.7,2.7-2.4,2.2-4.5,4.7-6.3,6.6-11.5-.3-11.1-10.7-16.1-17.7-3.2,4.5-1.8,8.8-2.9,12.6-1,3.6-1.5,7.3-2.4,11.8-3.2-.4-5.8-.6-8.4-1-.9-.1-1.6-1-2.5-1.3-13.2-3.8-16.2-13.6-16.9-26-1.2-21.1,5.7-39.9,14.3-58.4.7-1.5,2.6-2.4,4.5-4.1,5.7,9.6,10.3,18.6,10.9,31.7,4.1-11.2,5.1-20.9,12.6-27.7,1.4-1.3,1.3-4.4,1.7-6.6s.7-4.4,1.2-8c4.7,3.4,8.3,7.7,7.5,10.7-1.8,6.8,2.9,10.3,4.8,15.3a103.73,103.73,0,0,1,4.9,20.5c.8,6,.2,12.2.2,21.4,2.8-4,4.1-5.2,4.6-6.8,3-8.5,5.6-17,8.7-25.4a24.37,24.37,0,0,0,.7-15.3c-2.5-9.1-5.3-18.1-8.3-27a25.8,25.8,0,0,0-5.2-8.3c-3.4-3.9-7.6-7.1-10.9-11.1-2.9-3.5-4.8-7.7-7.3-11.8-4.5,6.7-3.5,14-4.4,20.6-3.9,4.8-8.7,6.1-14.2,4.9a17.39,17.39,0,0,1-12.7-10.1c-6.5-13.5-9-27.8-8.9-42.6,0-6.1,1.2-12.2,2-18.3a73.81,73.81,0,0,1,12.7-32.6c4-5.8,5.5-11.6,2.6-18.6-2.6-6.2-2.3-12.9-.9-19.7q4.35-2.25,8.4-4.5c-.3-1.3-.3-2.6-.7-2.8-10.3-3.8-12.6-13.3-14.9-22.5-10.7-3.8-20.8-7.7-31.1-10.9-6.9-2.1-14-1.4-20.9,1-7.1,2.4-14.2,5.1-21.5,7.2-6.8,2-9.8,6.8-11,13.2a13.1,13.1,0,0,0,0,2.8c.3,11.3-4.9,18.9-15.7,22.4a17.31,17.31,0,0,0-2.8,1.6c-.7,2.8-1.4,6-2.3,9.7-12.6.7-22.3-7.1-33.6-10.5-5.7,3.4-4.2,10-7.8,14.9,3.3,2.5,5.7,4.6,8.4,6.3,18.3,11.6,36.9,22.9,53.5,37.1a26.62,26.62,0,0,1,8.7,12.5c4.2,12.8,4.6,26,3.2,39.2-.4,3.5-1.6,6.2-4.7,8.2-14,8.8-29,13.1-46.1,11.2-2.7-10.6-9.1-17.8-17.2-24-7.7-5.9-15.2-12.2-23.6-16.6-5.2,5.5-4.5,11-4.5,16,0,8.5-4.8,13.1-11.9,15.6a110.88,110.88,0,0,1-15.1,3.7c-13.5,2.7-24.5,8.5-32.4,20.5-5.9,9-14,16.5-21.1,24.8-.2,7.6,4.3,13.5,6.7,20.1,2.5,7.1,5.3,14.1,8.3,21.1,2.7,6.5,5.8,12.9,8.7,19.4,2.9,6.3,5.9,12.6,9.3,19.7a52.53,52.53,0,0,1-6.6,2.6c-12.4,2.8-24.8,6-37.4,7.9-20.1,3-40.2,5.2-60.4,7.6a111.1,111.1,0,0,1-14.1.8c-19.8.2-39.7.9-59.5.3a769.87,769.87,0,0,1-81.7-7.3c-6.1-.8-12.2-1.1-18.3-1.6-3.8-.3-7.6-.1-11.3-.6a8.76,8.76,0,0,1-8-8.5,42.5,42.5,0,0,1,1-11.2c4.4-19.2,24.8-35.4,46.1-29.3a33.54,33.54,0,0,0,8.3,1.4c30.2,1,60.4,2.2,90.6,2.8,10,.2,19.7.9,29,5.2a89.29,89.29,0,0,0,16.1,5.3c3.1.8,6.4.6,10.5.9-1.8-7-6.8-10-11.4-12.8-7.3-4.4-13.3-10.4-19.8-15.8s-8.7-10.7-6-18.5c.4-1.2.1-2.6.1-4.3-11.3-4.6-20.1,7.5-32.3,4.7,2.1-2.8,3.3-5.5,5.3-6.9,7.7-5.5,15.2-11.2,21.4-18.4a12.22,12.22,0,0,1,3.3-2.7c11.9-6.7,22.3-15.8,35.1-20.8,3-1.2,6.4-2.5,8.6-4.7,8-8,15.7-16.2,23.2-24.6,4.4-4.9,8.2-10.3,13.1-16.7-.2-11.1-.6-23.8,3.3-36.2a44,44,0,0,1,2.9-7.9c.8-1.4,2.5-2.3,5.3-4.7,0,4.4.2,7,0,9.6-.6,7-1.7,14-2.1,21.1-.3,5-.5,9.8,4.6,13.9,2.7,2.1,2.8,7.6,4.2,11.8h6.9c.7-6,1.3-11.5,1.9-16.4,5.6-3.5,11-3.2,16-2.8,9.3.8,16.6-2,22.4-10.7-4.2-12.3-1.1-25.2.6-38.3.8-5.8,2.4-10.8,6.4-15.3,2.4-2.7,3.8-6.2,5.9-9.6-2.1-1.2-3.1-2.1-4.4-2.4-10.5-2.5-11.5-1.8-17.2,7.1-3.5,5.4-4.5,10.9-2.2,17-12.2,3.3-23.5,6.4-35,9.5-4.1-5.3-2.9-10.5-.3-14.9a224.35,224.35,0,0,1,13.8-19.7c3-3.9,7.6-5.5,12.3-6.5,2.8-.6,5.6-.6,8.4-1.2,5-1,7-5.2,4.4-9.4a26.91,26.91,0,0,0-2.6-3.3c-5.4-6.8-6.6-14.3-4.2-22.7,1.9-6.7,4.3-13.3,4.5-20.6.2-6.6,6.1-11.6,13.9-11.6,14.6-.1,29.3-.1,43.8,1.2a182.6,182.6,0,0,1,54.2,13.1c1.1-2.7,2.4-4.7,2.5-6.7a89.93,89.93,0,0,0-.5-12.7,22.27,22.27,0,0,0-10.6-17.5c-2.8-1.8-5.5-3.7-8.3-5.4-20.6-12.1-40.7-11.2-59.5,3.2-4.7,3.7-8.4,8.8-12.8,13.6-1.5-.6-3.5-.9-4.9-2-15.4-11-30.8-21.9-44-35.5-18.4-19-37.4-37.4-52.5-59.4-20.8-30.2-36.6-62.7-44.8-98.7-7.6-33.2-7.4-66.5-.9-99.8,2.2-11.5,3.9-23.2,9.6-34.5,8.2,1.8,16.3,3.6,25.7,5.7.8,3.6,2,8,2.9,12.6,10.1,54.3,53.4,95.6,107.7,104.7,56.8,9.6,122-24.5,142.3-87,2.5-7.6,4.5-15.3,6.8-23.3a41.13,41.13,0,0,1,5.5-1.1,33.46,33.46,0,0,1,5,.7,11.29,11.29,0,0,1,1.8,2.8c1.8,6.4,3.2,12.9,5.3,19.1q26.55,75.6,105.8,88.8c58.1,9.7,128.8-28.1,144.4-103.1,1-4.6,1.8-9.2,2.7-14,4.8-.9,9.4-1.4,13.7-2.7,4-1.2,7.7-3.2,11-4.6,4,1.6,3.9,4.7,4.6,7.3a283,283,0,0,1,11,91,212.33,212.33,0,0,1-11,58.3c-16,48-43.2,88.8-79,124.4-16.1,16-32.4,31.7-51.1,44.7-1.1.8-1.8,2.1-3.3,4,3.8,1.5,7,2.9,10.4,4,5.4,1.6,9.1,4.9,10.9,10.2.6,1.8.8,3.9,1.9,5.3,7.9,10.6,4.3,20.5-1.7,30.2a96.06,96.06,0,0,1-6.3,8.3c.9,4,1.8,8.2,2.9,12.2s2.3,7.9-1,11.9c-1.2,1.4-.7,4.4-.7,6.7.1,4.2,1.6,8.4-1.2,13a23.51,23.51,0,0,1-5,.9c-16.4.1-32.8,0-48.4,0-2.5-7.8-4.3-14.5-6.9-21-1.7-4.3-5.6-5.4-9.3-3.3-4.8,2.8-9.4,6.1-14.2,9.3,1.8,8.3,9.3,12.7,9.9,20.7s2.8,15.8,3.5,23.7c.6,7.4.6,15-4.5,21.3,1.2,1.7,1.9,2.9,2.7,3.9,4,4.9,8.8,6.4,15.1,4.3a88.09,88.09,0,0,1,29.2-4.8c2.8.1,5.6.4,8,.7,6.1,6.1,3.2,14,6,21.4,12.4.8,24.6,6.9,38.6,2.3-3.3-4.6-8-3.8-11.7-5-3.5-1.1-7.1-2.1-11.4-3.4-.3-4.7-.6-9.2-1-14.3,6.3-2,10.8,1.1,15.4,2.9a21.47,21.47,0,0,0,14.4.4c3.6-6,4.1-13.4,4.1-20.1a231.2,231.2,0,0,0-3-35.2c-.7-4.6-4.6-8.8-7.1-13.4,7.5-2.8,12.3.3,15.6,6.2,4.2,7.6,5.5,16,6.2,24.5.5,7.1.1,14.2.5,21.2.3,5.6,1.5,11.1,2,16.7a106.18,106.18,0,0,1,.5,12.6c-.2,7.2.7,14.1,3.8,20.7,5.2,11.1,10.5,22.2,15.7,33.3a30.44,30.44,0,0,0,14.6,14.8c6.5,3.2,11.9,7.5,15,14.4a16.37,16.37,0,0,0,4.4,5.4c12.8,10.8,22.8,23.8,31.1,38.3C3662.9,1030.91,3665,1033.91,3668.1,1038.81Zm-259.5-299.3c3.6-.9,7.2-1.7,10.8-2.8,22.2-6.8,44.7-11.4,68.1-9.2a65.43,65.43,0,0,0,9.9,0c2.1-.1,4.3-.5,7-.9-1.6-7.7-5.6-13-9.2-18.4-5.1-7.7-12.5-12.2-21.4-15.2-24.4-8.1-55.1,10-64.9,31.1C3406.7,728.71,3405.2,733.71,3408.6,739.51Zm142,193.2c-11.5-7.8-23.3-7.5-44.4,1,8.5-.7,15.3-1.6,22.2-1.7C3535.5,932,3542.6,935.81,3550.6,932.71Zm-61.1-11.3c-7.6.5-7.6.5-13.7,4.3C3480.3,926.41,3480.3,926.41,3489.5,921.41Zm73.7,56.5v1.2a47.08,47.08,0,0,0,5.3.3,20.24,20.24,0,0,0,4-.8c-.1-.2-.1-.5-.2-.7Zm-426.7-52.5c2.7-.1,4.6,2,7.2-1.6C3141.2,923.31,3139.3,922.11,3136.5,925.41Zm35.7-20.7c-4-.5-5.2-.6-6.4-.7a12.75,12.75,0,0,0,.1,1.9C3167,905.61,3168.2,905.41,3172.2,904.71Z" transform="translate(-230.36)"/><path class="cls-9" d="M3364.7,223.41c3.4-.7,5.7-.9,7.8-1.6,6.2-2.3,12.3-4.8,18.5-7.1a141.86,141.86,0,0,1,51.2-9.2,109.53,109.53,0,0,1,53,13.1Q3570.8,259,3615,332.21c2.6,4.4,4.7,9,7.2,13.7-4.4,3.8-8.4,2.8-13,1.7a30.32,30.32,0,0,1-2.8-4.4,121.71,121.71,0,0,0-20.3-33.9c-24.9-29.1-56.4-45-94.9-46.8-62.5-2.9-118,41.5-131.2,101.3-1,4.6-1.5,9.3-2.2,14-1.1,6.9-1.8,7.2-11.3,6.1-9.8-65.8-46.1-107.6-112.8-120.6-67.2-5.4-113.1,24.8-140.7,84.9-2.4.2-4.2.4-6.1.4a15.87,15.87,0,0,1-3.9-.8c-.3-1.1-1.1-2.1-.8-2.7,8.4-18.1,20-34.2,32.6-49.5a299,299,0,0,1,94-76.2c23.6-12.4,48.3-18.7,75.1-13.7,6.5,1.2,13,2.1,19.6,3a28.27,28.27,0,0,0,5-.2c-.3-4.7-3.6-6.2-6.1-8-11.8-8.6-19.7-20.4-25.6-33.4-8.4-18.6-14.2-38-15.5-58.5-.4-7.1-1.4-14.1-1.9-21.1-.2-2.7.4-5.4.7-8.8,2.6.5,4.5.4,6,1.2,13.8,7.1,27.4,14.8,41.4,21.6a47.39,47.39,0,0,1,19.9,17.4c9.2,14.4,16.9,29.5,22.1,45.7.5,1.7,1.1,3.3,1.6,5,4.1-1.3,3.6-4.6,4.3-7.1,3.9-15.9,11.3-30,21.2-42.8,4.2-5.5,10-5.5,14.1-.3,5.9,7.4,6.6,14.6,1,21.8-13.2,16.8-19.7,36.4-24.2,56.8-1.2,5.5-2.1,11.1-2.9,16.7C3364.4,217.11,3364.7,219.91,3364.7,223.41Z" transform="translate(-230.36)"/><path class="cls-10" d="M3321.5,356.41c-2.6-1.9-5.2-3.8-7.9-5.6-6.6-4.5-12.7-9.9-19.9-13.3-42.8-20.1-94.8,8.4-99.4,59-2.7,30.6,17.6,63.2,52.5,73.1,14.7,4.2,28.8,2.9,42.9-2.4,3.8-1.4,7.4-4.5,12-3.1l-.2-.2c-.9,1.6-1.4,3.5-2.6,4.8-17.2,18.7-38.5,30.6-63.5,34.3-34.3,5.1-66.1-1.9-92.6-25.2-34.1-30-47.2-68-36.2-112.2s40.3-71.8,84.3-82.6c50.8-12.5,104.2,13.5,126.8,60,2.1,4.2,4.9,8.2,3.8,13.4Z" transform="translate(-230.36)"/><path class="cls-11" d="M3400.8,464.11c4.6-1.4,8.2,1.6,12,3.1,33.8,13.9,69.6-3.8,85-28.9,24.6-40,3.7-86.7-32.6-101.7-26.5-11-50.6-6-72.8,11.2-3.7,2.9-7.3,5.8-10.9,8.8l-.6-.6c.8-3.2,1.1-6.5,2.4-9.4,16-34.3,42.7-55.5,79.6-64.1,57-13.2,124.9,22.6,135.7,94.2A110.38,110.38,0,0,1,3524.5,498c-33.3,11.3-65.8,9-96.4-10-8.9-5.5-17.1-11.6-24.2-19.3-1.2-1.3-1.8-3.2-2.7-4.8Z" transform="translate(-230.36)"/><path class="cls-12" d="M3746.9,1178.21c-.2,3.7.2,7.6-.6,11.2a18.13,18.13,0,0,1-9.9,13.1c-31.3,14.8-63.4,27.1-98.4,29.7-7.5.6-15,1.5-22.6,1.8a241.09,241.09,0,0,1-25.5-.4c-15.1-1.1-30.1-2.9-45.1-4.3-21.3-2-41.8-7.6-61.7-15.1-12-4.5-22.3-12.2-31.7-21.1a31.81,31.81,0,0,1-10-19.8c-1-8.4-2.6-16.7-3.8-24.8-6.1-5.5-13-8.6-19.7-12.1-9.2-4.8-18.4-9.6-27.5-14.6a17.6,17.6,0,0,1-8.4-11c-1.3-4.4-2.5-9,.4-13.3,1.3,0,2.5-.4,3.1.1,6.2,5.2,13.5,8.6,20.7,12.1,11.4,5.6,22.6,11.7,34.1,17.2,5.2,2.5,6.5,6.3,6.2,11.4-.3,4.7-.4,9.4-.6,14.1-.5,10.8,4.1,19,12.4,25.7a87.91,87.91,0,0,0,24.5,14,149.92,149.92,0,0,0,75.3,7.6c21.4-3.3,42.7-8,63.7-13.3a283.66,283.66,0,0,1,105.4-6.4c7,.7,13.2-1.6,19.7-1.8Z" transform="translate(-230.36)"/><path class="cls-13" d="M3348.3,1082.41c3.6,6.3,3.4,10.2-1,13a31.15,31.15,0,0,1-7.7,3.4c-19.5,5.9-39.4,10.1-59.8,10.1-31.8,0-63,4.2-94.1,10.8-18.5,3.9-36.8,8.5-55.4,11.6-20.4,3.4-40.7,7.9-61.7,7.7-19.8-.2-39.6,1.4-59.4,1.1-37.4-.6-74.2-6.6-110.2-16.8a85.77,85.77,0,0,1-14.6-5.5c-8.2-4-10.8-10.4-9.1-21.4,5-1.5,9.9,0,15,1.2,22.9,5.5,45.8,11.4,68.9,16.2,29.2,6.1,58.9,8.1,88.7,8.1,6.6,0,13.2-.5,19.8-.4,17.6.3,34.8-2.7,51.9-6.5,22.1-4.9,44.1-10.7,66.4-14.3,34-5.5,68-11.2,102.6-10.9a323.23,323.23,0,0,0,38.1-2.2C3334,1086.81,3341.1,1084.21,3348.3,1082.41Z" transform="translate(-230.36)"/><path class="cls-14" d="M3325,960.41c9.4,16.3,18.7,31,20.8,49,1.2,10.4,1.5,20.7-1.4,30.9-1,3.5-2.8,6.2-6.4,6.8-22.3,3.7-44.7,7.4-67.5,5.7-.4,0-.8-.5-1.1-.8-.4-.8-1.3-1.7-1.1-2.4,2.7-15.8,5.4-31.6,8.5-47.3,1.1-5.7,4.9-10.2,9.2-14a85.23,85.23,0,0,1,9.1-6.7c8.2-5.5,16.9-10.4,23.8-17.7C3320.2,962.71,3322.1,962.11,3325,960.41Z" transform="translate(-230.36)"/><path class="cls-15" d="M3210.3,968.61c.6-5,1-9.1,1.6-14.1,5.8,3,10.7,5.5,15.6,8,.4,2.4.7,4.7,1.1,7.3,16.2,2.8,23.5,13.9,26.7,29,1.5,7.3-.4,14.1-3.2,20.6-3.7,8.4-10.2,14.7-16.4,21.1a13.64,13.64,0,0,1-6.2,3.2,91.41,91.41,0,0,1-13.8,2.9c-2.2.3-5,.3-6.8-.8-6.5-3.8-13.4-7.4-18.7-12.5-10.5-10-12.9-22.7-8.5-36.5,3.5-10.8,10.6-18.8,20.3-24.5C3204.2,970.91,3206.9,970,3210.3,968.61Z" transform="translate(-230.36)"/><path class="cls-16" d="M3270.9,412.21c0,18.7-13.3,32.2-31.8,32.5-19,.3-33.9-14.1-33.6-32.5a33.16,33.16,0,0,1,33.7-32.9C3257.2,379.61,3270.9,393.81,3270.9,412.21Z" transform="translate(-230.36)"/><path class="cls-17" d="M3411.5,444.71c-18.3.1-32.7-13.8-32.9-31.7a33.23,33.23,0,0,1,32.9-33.7c18.5-.2,32.7,14.6,32.5,33.6C3443.7,431.41,3430.3,444.61,3411.5,444.71Z" transform="translate(-230.36)"/><path class="cls-18" d="M3310,377.81a12.17,12.17,0,0,1-12.3,12.6c-7.2.1-12.7-5.1-12.8-12.1a12.55,12.55,0,1,1,25.1-.5Z" transform="translate(-230.36)"/><path class="cls-19" d="M3470,390.41a12.18,12.18,0,0,1-12.1-12.8c.3-6.7,6.4-12.5,13-12.2a12.54,12.54,0,0,1,12,13.1C3482.8,385.61,3477.3,390.71,3470,390.41Z" transform="translate(-230.36)"/><path class="cls-20" d="M3301.8,464.21c.1-.4.1-.8.2-1.2a10.37,10.37,0,0,0-.4,1Z" transform="translate(-230.36)"/><path class="cls-21" d="M3401,464a2.47,2.47,0,0,1-.9-.4c-.1-.1,0-.5,0-.7.2.4.5.9.7,1.3C3400.8,464.11,3401,464,3401,464Z" transform="translate(-230.36)"/><path class="cls-22" d="M3321.6,356.31c.4.4.7.8,1.1,1.2a1.72,1.72,0,0,1-.8-.1,1.43,1.43,0,0,1-.3-1.1Z" transform="translate(-230.36)"/><path class="cls-23" d="M3381.4,356.71c-.5.3-1.1.7-1.6,1,.3-.5.6-1.1.9-1.6A4.35,4.35,0,0,1,3381.4,356.71Z" transform="translate(-230.36)"/></g><g id="Layer_3" data-name="Layer 3"><path class="cls-24" d="M1279.1,421.41c4.6-2.2,9.2-4.4,13.9-6.6,27.2-12.8,55.9-19.8,85.9-21.9,15.1-1.1,30.1-2.6,45.2-1.8,22.1,1.2,44.3,2.4,65.9,8.1,21.1,5.5,41.5,12.9,59.5,25.8,4.5,3.3,8.8,6.9,13.7,10.8,2.5-1.8,4.8-3.4,7-5a157.85,157.85,0,0,1,55.8-26.9c26.7-6.9,53.6-10.7,81.2-10.5,16.1.1,32.2-.5,48.2.3,26.4,1.3,52.7,4.5,77.8,13.6,15.6,5.7,30.3,13.2,43.3,23.7a97.46,97.46,0,0,1,23.8,29.6c2.7,5,4.9,10.2,7.7,16.2,2-1.2,4.1-2.1,5.6-3.5,38-35.1,82.7-57.4,132.5-70.4,32.1-8.4,64.7-13.3,98-12.6,14.6.3,29.3-.2,43.9.2,63,1.4,122.3,16.9,177.1,48.2,7.7,4.4,15.1,9.5,23.1,14.5a88.94,88.94,0,0,0,6.2-6.4c20.7-25.4,47.7-41.2,78.6-50.5,15-4.5,30.4-6.9,46.1-6a134.52,134.52,0,0,0,14.2,0c34.9-1.5,67.1,9.1,98.5,22.7a240.9,240.9,0,0,1,45.3,26.3c3,2.2,6.3,4.2,10,6.6,3.1-1.9,6.5-3.5,9.4-5.7a219.66,219.66,0,0,1,57.8-32.5c23-8.7,46.6-15.6,71.7-14.7,7.1.2,14.2.1,21.3,0,40.8-.5,76.8,12.9,109.5,36.6,4.1,3,7.8,6.7,13.9,8.6a44.37,44.37,0,0,0,1.9-6.8c2.8-19.7,7.8-38.8,13.1-57.9a64.17,64.17,0,0,1,12-23.9,29.83,29.83,0,0,0,6.6-15.3,88.62,88.62,0,0,1,11.4-31.8c18.2-31.7,39.6-61,65.8-86.6a381.27,381.27,0,0,1,89.2-64.6c5-2.6,10-5.3,15-8,.8-.4,1.2-1.4,2.3-2.7-.8-6.4-1.7-13.4-2.4-20.3-.7-6.6-1-13.2-1.7-19.7-1.4-14.1-2.2-28.1,1.1-42.2,10.9-46.1,57.7-64.6,91.3-56.6a98.36,98.36,0,0,1,27.4,11c15,8.8,30.6,16.8,46.3,24.5,3.6,1.8,8.2,1.9,12.3,2,8.5.1,17-.4,25.5-.4,17.9-.2,33.3,6.6,46.6,17.9,17.5,14.9,28.9,33.5,32.6,56.4.8,5.1,2,10.1,3.2,15.9,3.3,1.2,6.7,2.8,10.3,3.5,27.3,5.6,51.5,18.1,74.7,33,26.3,17,50.8,36.1,72.1,59.1,24.6,26.4,45.8,55.3,61,88.2a106.46,106.46,0,0,1,7,22.9c1,4.7,2.1,9,5.2,12.8,7.5,9.4,11.8,20.4,14.7,31.9,6.5,25.6,12.4,51.3,12.4,78,0,7.5,1.8,15,1.9,22.5.6,38.3-7.8,75-21.3,110.5A355.38,355.38,0,0,1,3646.7,696c-9.4,11.1-19.5,21.8-29.7,32.3-4.2,4.4-7,8.7-6,15a21.69,21.69,0,0,1,.1,5.7c-.8,8,2.1,14.3,7.3,20.5,18.7,22.2,27,48.5,26.6,77.3-.3,16.7,4,32.7,5.7,49.1a19.21,19.21,0,0,0,8.2,14.4c10.9,7.1,18.6,17.3,26.6,27.2,8.6,10.6,17.5,21,26.2,31.5a29.72,29.72,0,0,1,3.3,4.6c5.5,10.2,14.1,17.1,23.3,24a219.31,219.31,0,0,1,32.9,31c17.9,20.9,32.1,44.3,38.9,71.5,2.3,8.9,1.8,17.8,2.2,26.7.3,5.1,0,10.7,1.9,15.3,8.6,20.6,7.7,41.4,2.6,62.5A97.21,97.21,0,0,1,3796,1246a77.92,77.92,0,0,1-24.6,18.9c-36.2,17.8-73.6,32.1-113.8,37.5-27.2,3.6-54.6,3.5-82,2.9-5.6-.1-11.2-1.7-16.8-2.2-2.7-.2-5.4.4-9.1.8.7,5.3,1.2,9.9,1.9,14.4,4.7,30.8,4,61.1-6.8,90.7-7.4,20.3-19,37.9-33.4,53.8-3.1,3.4-7.4,6-8.7,12.1,1.6,2.5,3.3,5.8,5.5,8.7,23.3,30.3,35.8,65.1,43.2,102.1,3.9,19.5,6.2,39.1,5.9,59-.1,5.6.8,11.3,1.1,16.9.3,6.1.7,12.3.5,18.4-.4,11.3-1.2,22.6-1.8,33.9-1.7,33.4-9.2,65.3-23.7,95.5-12.2,25.2-30.5,45.5-52.3,62.5-31.7,24.7-68.2,40.1-106.6,51.3-25.9,7.5-52.5,11.4-79.3,14.2-3.3.3-6.6.3-9.9.3-32.1,0-64.3.8-96.4-.3-37.5-1.3-74.2-7.4-108.2-24.8-7.6-3.9-15.5-7-23.2-10.5a11.39,11.39,0,0,0-12,1.1c-6.2,4.3-12.6,8.4-19.1,12.1-20.4,11.6-42.7,17.6-65.4,22.3a299.39,299.39,0,0,1-66.1,6.4c-17-.3-34,.1-51-.3-34.7-.8-67.1-9.6-96.7-28.1a78.78,78.78,0,0,0-7.7-3.8c-2.8,1.3-5.5,2.2-7.9,3.6-25.3,14.9-53,21.7-81.9,25.5-32.1,4.2-64.2,3.1-96.2,1.9s-63.8-7.4-93.8-19.8c-21.7-9-41-21.5-54.4-41.4-1.8-2.7-3.9-5.1-6.3-8.2-3.3,1.9-6.3,3.2-8.8,5.2-45.3,34.7-96.8,54.7-152.6,64.1-13.4,2.3-27,4-40.8,3.8-21.3-.3-42.5.2-63.8-.1a365.89,365.89,0,0,1-149.6-33.3,258.33,258.33,0,0,1-67.3-44.1c-2.3-2.1-4.9-4-7.9-6.4-1.2,2.5-2.1,4.2-2.8,5.8-12.7,28.3-34.2,47.1-62.8,58-19.5,7.4-39.6,12-60.4,14.8a312.91,312.91,0,0,1-40.9,2.5c-19.4.2-38.8.1-58.1-.1-34-.4-66.5-7.3-96.9-23.1-1.2-.6-2.6-1.1-3.9-1.6a12.69,12.69,0,0,0-2.4-.3c-16.3,7.9-34.3,13.4-52.8,17.4-19.9,4.3-39.8,7.8-60.3,7.7-21.3-.1-42.5.4-63.8-.1-34.7-.8-67.1-9.5-96.7-28a83.15,83.15,0,0,0-7.9-3.9c-6,3-11.9,5.9-17.7,8.9-22.6,11.6-46.9,16.9-71.8,20.3-32,4.4-64.2,3.3-96.2,1.9-35-1.6-69.3-8.3-101.5-23.3-27.7-12.9-48.1-32.9-59.7-61.5a49.38,49.38,0,0,0-3.1-5.6c-2.8,1.3-5.5,2-7.6,3.6-31.5,24-66.8,40.8-103.6,54.9a559.07,559.07,0,0,1-100.9,28c-14.4,2.6-28.8,4.9-43.5,4.9q-67.35,0-134.7.1c-40.2,0-80.3-.2-120.5.1-33.1.2-63.5-9.8-91.6-26.1-45.2-26.4-76.3-65.2-96.2-113.5-9.3-22.5-15.6-45.7-17.9-69.7-4.2-42.8-1.2-84.9,19.4-124.1,14.3-27.1,35.1-47.7,61.8-62.6,22.6-12.6,46.8-20.8,72.4-23a308.1,308.1,0,0,1,62.2.8c22.2,2.7,43.5,8.8,64.6,15.6,8.9,2.9,15.9,1.5,22-4.7a90.53,90.53,0,0,0,13.1-16.5c11.2-18.8,17.8-39.6,23.4-60.6,7-26,11.4-52.5,14.6-79.2,4.3-34.6,6.9-69.4,9-104.2,2.9-46.3,2.4-92.5,1.3-138.7-.5-22.6-1.4-45.3-2.6-67.9q-2.25-39.6-5.6-79c-1.1-13.6-3.1-27.1-4.5-40.7s-2.2-27.3-3.6-40.8c-2.3-21.5-5-43.1-7.6-64.6-1.9-15-3.9-29.9-6-44.8-3-21-5.6-42.1-9.3-62.9-5.2-29.7-10.8-59.4-17-88.9a389.24,389.24,0,0,0-11.6-42.3c-5.5-16.3-8.7-32.7-8.2-50,.4-14.2.6-28.2,4.9-42,10.3-32.9,30-58.4,58.2-77.8,22-15.1,46.1-25.9,71.6-33.4a391.66,391.66,0,0,1,65-13.8c15-1.8,30.1-2.7,45.2-3.3,14.2-.5,28.4-.5,42.5,0,43.2,1.4,85.4,8.5,125.8,24.5a208.63,208.63,0,0,1,46.9,26c2.3,1.7,4.5,3.4,7.4,5.5,2.3-1.5,4.9-2.6,6.7-4.4,17.8-17.9,39.5-29.1,63.2-36.4,22.2-6.8,44.8-11.2,68.3-10.3,12.7.4,25.5.1,38.3.1,36.1.1,70.1,8.7,102.3,24.8C1270.1,416.91,1274.4,419,1279.1,421.41Zm1575,544.7a52.61,52.61,0,0,0,6.6-2.5c24.5-12.2,50.3-15.2,77.1-10.2a28.86,28.86,0,0,0,5.1,0c4.9-5.5,8.8-10.8,13.7-15.2,10.5-9.5,20.9-19.1,32.2-27.5a453.06,453.06,0,0,1,41.4-27.1c9-5.2,14.3-11.8,15.4-22a42.43,42.43,0,0,1,1.1-7c2.4-8.6,3.6-17.8,7.6-25.7,9.5-18.9,17.8-38.6,31.4-55.2,6.9-8.3,10.8-17.4,10.8-28.6-9.3-13.4-22.4-23.8-33.1-36.3-11-12.9-21.9-26-31.7-39.8-9.4-13.3-17.4-27.7-27-43.3-2.2,6.1-3.8,10.4-5.3,14.8-7.2,21-13.7,42.2-21.8,62.8-11,28.1-22.8,55.9-35.1,83.5-11.2,25-23,49.7-35.6,74-16.5,31.8-34,63.1-50.9,94.7-1.5,2.8-2,6.2-3,9.3a14.58,14.58,0,0,1-.7,1.9A6.36,6.36,0,0,0,2854.1,966.11Zm-1857.3,313,.7.4.7-.4c.4,1.8.8,3.6,1.1,5.4.5,1,.9,2,1.4,3.1,1.3,6,2.8,11.9,4,17.9,8.4,45.1,11.7,90.8,13.3,136.6,3.1,87.5-.9,174.6-13.4,261.3-4.6,31.8-11.3,62.9-23.2,93.1-10.4,26.3-6.7,52,11.5,74.5a89.83,89.83,0,0,0,28.5,23c23.9,12.4,49.7,17.5,76,21.1,24.9,3.4,50,2.7,75,2.6a273.78,273.78,0,0,0,54.9-5.9c27.2-5.6,52.6-15.1,72.3-36,.5-.6,1.6-.5,3.2-1,2.4,2.3,5.3,4.7,7.8,7.5,8.8,9.6,19.6,16.2,31.4,21.4a160.74,160.74,0,0,0,54.7,13.7c40.1,2.8,80.3,2.8,120-5.4,21.8-4.5,43.1-10.5,62.3-22.3,2.3-1.4,4.8-2.6,7.4-3.9,11.7,11,25.1,17.9,39.6,22.4,16.7,5.2,33.8,8.9,51.4,9.5q31.2,1.05,62.4.8a294,294,0,0,0,60.5-6.4c16.2-3.5,32.1-7.8,46.7-16,37.7-21.3,46.1-59.9,32.9-92.1-2.8-7-5.7-14.1-7-21.4-3.5-18.5-6.6-37.2-8.9-55.9-2.1-16.6-3-33.4-4.7-53.4,2.5,7.5,4,11.8,5.3,16.3,8.1,27.6,15.9,55.3,24.2,82.8,12.3,41.1,37.8,72.4,72.7,96.4,35.6,24.5,75.4,38.7,117.7,46,47.8,8.2,95.9,8.6,144,3.4s92.7-21.2,133.6-47.3c20.9-13.4,39.1-29.6,54.1-49.4,1.3-1.7,2.8-3.3,4-4.8,1.3.7,1.9.9,1.9,1.2a79.2,79.2,0,0,1,.5,8.5c-.5,15.8,5.2,29.6,14.4,42a88.89,88.89,0,0,0,31.3,26.1c23.5,12,48.9,17.1,74.7,20.6,27.3,3.7,54.7,3,82.1,2.5a256.59,256.59,0,0,0,61.6-8.8c22.2-5.9,42.6-15.3,58.6-32.6.6-.6,1.6-.8,3.2-1.6,2.1,2,4.6,4,6.8,6.4,10.5,11.3,23.3,19.1,37.5,24.7a168.53,168.53,0,0,0,52.3,11.9c33,1.9,66.1,2.5,99-2.4,19.6-3,39-7,57.6-14.1,17-6.5,32.5-15.2,44.4-29.4,1.8-2.1,3.6-4.1,5.4-6.1,2,.7,3.3,1,4.6,1.6,16.5,8.1,32.7,16.9,49.5,24.3a264.57,264.57,0,0,0,36.1,12.3c22,6.1,44.7,7.4,67.4,7.9,20.3.5,40.6.3,61,.4a373.09,373.09,0,0,0,95.3-11.8c35-8.9,68.2-22.3,97.9-43.1,31.7-22.1,53.5-51.5,63.8-89.1,5-18.3,8.6-36.9,9.3-55.7,1.2-33,2.2-66.1-2.4-99-3.3-23.9-8.7-47.3-18.3-69.6-9.1-21-20.9-40.2-37.8-55.9-2.4-2.2-4.8-4.6-7-7-2.4-2.6-5.8-4.5-7.4-8.5,13.5-8.5,25.4-17.6,35.7-28.8,17.4-18.9,28.5-40.9,32.4-66.4,4.9-32.2-.2-63-13.4-92.6-2.1-4.7-4.1-9.4-6.2-14.2,1.4-.3,2.4-.9,3.2-.7,11.1,2.5,22.2,4.6,33.5,5.3,9.4.6,18.8,1.6,28.2,2.6,29.3,3.4,58.5,1.9,87.6-1.9,33.6-4.4,64.6-16.9,95.2-30.9,19.9-9.1,32-24.3,36.9-45.5,1-4.1,1.8-8.3,2.6-12.5,2.1-11.1,0-21.6-4.8-31.6a84.57,84.57,0,0,0-4.8-8c3.9-22.7,2.7-36.1-5.7-54.4-14.3-31.1-35.2-56.9-64.5-75.3-5.4-3.4-10.1-7.2-13-12.6-11.8-21.9-30.5-38.3-45.3-57.8-2-2.6-4.3-5.4-7.1-6.8-11.2-5.9-16.8-15.6-21.6-26.8-2.6-6.2-5-12.1-4.5-18.9.3-3.3.5-6.8-.4-9.9-3.2-10.6-2.6-21.5-2.7-32.3-.1-12.9-2.8-25.3-6.9-37.4-4.3-12.8-11.7-23.6-22.8-31.7-2.2-1.6-4.3-3.5-6.3-5.2a78.09,78.09,0,0,0-3.6-48.2c8.4-8.6,16.6-17,24.9-25.4,43.1-44,74.5-94.9,89.5-155.1,4-16,7.3-32.4,8-48.8a340.32,340.32,0,0,0-11-103.8c-4.1-15.4-9.2-29.7-22.2-39,.6-19.7-.2-23.3-9.4-39.9-32.6-59-79-104.3-137.8-137-24.3-13.5-50.2-21.5-78.4-20.9a28.2,28.2,0,0,1-5.4-1c.1-1.9-.2-3.4.3-4.6,7.2-20.1,3.7-38.9-6.8-57-11-18.9-27.5-27.6-49.2-27.8-10.2-.1-19.4,3.2-27.7,7.3-8.5-5.4-16.2-10.9-24.5-15.2-14.2-7.5-28.5-14.6-42.3-22.8-32.3-19.2-73.5,2.8-73.9,40.3a248.26,248.26,0,0,0,5.4,56.3c2,9.1,4.2,18.2,6.4,27.8-3.1,1.2-5.7,2.2-8.2,3.2-8.3,3.4-16.8,6.2-24.8,10.3-61.5,31-109.5,76.5-144.9,135.5-8.4,14-15.3,28.3-12.1,45.5-13.6,9.5-19.6,23-23,38.1-2.4,10.6-5.1,21.1-7.2,31.7a276.93,276.93,0,0,0-4.2,77.6,280.46,280.46,0,0,0,21.4,86.2,359.92,359.92,0,0,0,78,115.4c10.3,10.3,20.4,20.8,30.5,31.1-2.4,13.2-4.6,25.7-7,38.1a12.33,12.33,0,0,1-3.3,6c-16.8,17.2-25.5,39.5-37.2,59.8-2.8,4.8-4.1,10.6-5.3,16-1.7,7.3-2.6,14.9-4,22.3-.6,3.2-.8,7.1-2.7,9.3-5.7,6.8-11.4,14-18.5,19.3-8.6,6.4-18.8,10.7-27.9,16.5a228.77,228.77,0,0,0-20.5,15c-6.3,5-12,10.6-18.3,15.6-7.9,6.3-14.7,13.3-18.9,22.5-1.2,2.5-2.4,5-3.4,7.1-9.1,0-17.6.1-26.1-.1-2.3,0-4.6-.8-7-1.2-32.7-5.4-59.7,4.6-80.4,30.4-6.3,7.9-10.9,17.2-16.4,26-.6-.7-2-1.6-2.3-2.8-3.2-13.3-6.8-26.5-9.1-40-3.4-20.3,1.2-39,11.6-57a1923.26,1923.26,0,0,0,105.5-212.9c15.7-37.4,30-75.4,40.1-114.8,6.1-23.9,9.9-48.1,8.9-72.8-.8-19.8-6.3-38.1-18-54.3a146.48,146.48,0,0,0-49.7-43.5c-34.3-18.6-71.2-21.7-108.8-17.1-29.9,3.6-57.4,15-82.7,31.4-14.6,9.5-28.1,20.2-39.3,33.5-8.3-7.4-15.6-14.8-23.8-21.1-19.5-15.3-41.2-26.7-64.4-35.1-34.9-12.7-70.7-16.8-107.3-9.8-41.5,7.9-72.4,30.7-91.4,68.9-1.4,2.9-3,5.7-4.8,9.1-2.3-2-4.2-3.4-5.8-5-9.2-9.6-19.9-17.4-31-24.6a305.26,305.26,0,0,0-105.7-42.7c-57.1-11.3-114.5-11.8-171.9-2.6a301.18,301.18,0,0,0-102.3,36c-45.1,25.8-77.8,62.3-95.6,111.6l-10.2,27.9c-2.1,1.4-4.2,2.8-6.3,4.3,2-23.5,5-46.9,11-69.8a117,117,0,0,0,3.4-29.4c0-18-6.9-33-18.9-45.9-10.2-11-22.7-18.3-36.6-23.4a204.49,204.49,0,0,0-48.2-11.1,477.83,477.83,0,0,0-108.9.1c-21.1,2.5-41.9,6.8-61.3,16.3-18.9,9.3-33.5,22.7-41.5,42.5-.7,1.8-2.3,3.3-3.8,5.4-3-6-5.1-11.3-8.1-16.1a102.24,102.24,0,0,0-10.5-13.3c-13.8-15.2-31.5-23.9-50.9-29.4-46.8-13.1-94.3-12.7-141.8-4.4-25.9,4.5-49.9,14-71.2,29.8-1,.8-2.6.8-4.1,1.2-24.8-20.6-54-30.3-85.1-35.8-22.5-4-45.2-3.2-67.8-2.8a195.72,195.72,0,0,0-70.4,14.3c-25.9,10.5-46.4,26.9-57.9,53.2a37.47,37.47,0,0,1-2.6,4.1c-2-2.3-3.9-4.2-5.6-6.3a138.62,138.62,0,0,0-34.5-31.2,202.86,202.86,0,0,0-48.7-22.4,349.41,349.41,0,0,0-80.6-14.9c-42.6-3-85-1.5-127,6.6-27,5.2-53,13.3-77.5,26.1-18.2,9.5-34.3,21.9-47.2,37.8-25.2,31.3-29.6,66.9-18.1,104.2a715.5,715.5,0,0,1,20.8,83.7c6.4,35.3,12.5,70.6,17.6,106.1q9,61.65,15.8,123.6c4.1,37.1,7.1,74.2,9.7,111.4,2.9,41.9,5.4,83.8,6.9,125.8a1593.42,1593.42,0,0,1-4.2,185.4c-3.1,37.7-7.4,75.1-14.8,112.2-5.6,27.8-13,55.1-24.6,81.1a147.52,147.52,0,0,1-18.8,31.5,56.39,56.39,0,0,1-22.2,17.2c-11,4.8-22.2,6.5-34.3,1.9-11.4-4.4-23.4-7.5-35.3-10.3-35.4-8.5-71.1-10.6-106.6-.9-51.9,14.3-86.6,46.3-99.4,99.8-6.8,28.5-6.8,57.2-1.8,85.7,8.2,46.8,27.8,87.9,62.4,121.3,34.1,32.9,74.5,50.5,122.4,50.5,71.8-.1,143.7-.3,215.5.1a392.67,392.67,0,0,0,88.5-9.5c48.2-10.8,94.2-27.3,137.5-51.1,13.7-7.5,27.1-15.6,38.5-26.3,38-35.8,62.5-79.3,69.5-131.2,3.4-25.2,4.4-50.8,4.9-76.2,1-63.3,1.3-126.5,1.5-189.8,0-14.6-1.2-29.2-2.1-43.8-2.2-33.9-4.6-67.8-6.8-101.7A82.06,82.06,0,0,1,996.8,1279.11Z" transform="translate(-230.36)"/><path class="cls-24" d="M2456.4,1560.81c-3.4-4.6-6.7-9.5-10.3-14.1-3.5-4.4-7.4-8.5-11.8-13.5,4.2-5.3,8.8-10.4,12.7-16.1s7.3-11.8,10.8-17.6c.7.3,1.2.4,1.4.7a2.09,2.09,0,0,1,.3,1.4c.1,3.8.2,7.5.1,11.3-.4,15.5-.8,31.1-1.3,46.6C2458.3,1559.81,2457.6,1560.11,2456.4,1560.81Z" transform="translate(-230.36)"/><path class="cls-24" d="M2413.1,1227.81c-17-19.8-35.6-37.7-58.4-50.9-.8-.4-1.3-1.4-2.4-2.6,1.4-2.8,4.5-3.9,7-5.5,32.9-20.7,56.2-49.9,74.4-83.6a55.84,55.84,0,0,0,4.6-10.3c9.9-31.9,20.9-63.6,27.8-96.4a225.6,225.6,0,0,0,4-67.5c-2.5-27.4-12.5-52.1-32.6-72-1.7-1.7-3.2-3.4-5.3-5.7,6.8-8.5,13.5-16.9,20.2-25.3,4.4,1.1,4.6,5.5,6,8.7,14.2,29.8,29.8,58.9,48.5,86.2,12.8,18.7,26.6,36.6,42.8,52.7.7.7,1.3,1.4,2,2,12.6,11.9,16.1,26.4,11.7,42.7-3.3,12.2-7.7,24.2-11.9,36.2-5.3,15.1-11.1,30-16.2,45.2a93.16,93.16,0,0,0-5.2,34.8,77.19,77.19,0,0,1-.5,9.6c-13.6,2.4-26.6,4.4-39.5,6.9a119.82,119.82,0,0,0-38.4,14c-17.8,10.5-30.7,24.9-35.8,45.3a81.53,81.53,0,0,0-1.9,13.9c-.4,7-.3,14.1-.5,21.1C2413.6,1227.21,2413.1,1227.81,2413.1,1227.81Zm84.7-129.9c1-2.6,1.8-3.9,2.1-5.2,5.5-26,15-50.6,24.8-75.1a225.66,225.66,0,0,0,7.6-22.8c2.5-8.7,1.1-16.3-6-23.1-8.8-8.5-16.5-18.1-24.8-27.1-.8-.9-2.3-1.1-3.4-1.6a14.07,14.07,0,0,0-1.4,2.7c-.2,18.5-4.2,36.5-8.9,54.3-9.5,35.5-18.5,71.2-35,104.4-.6,1.3-.1,3.2-.1,5.1C2468.2,1105.41,2482.8,1101.71,2497.8,1097.91Z" transform="translate(-230.36)"/><path class="cls-24" d="M1568.2,539.51c3.1,19.5,6.8,39,9.2,58.7,5.3,43.1,7.5,86.5,9.6,129.8,3.4,70.3,3.4,140.6.9,210.9-1.3,36.7-4.6,73.5-8.2,110.1-2.1,21-5.2,42.1-12.4,62.3-2.2,6.1-2.2,12.9-2.9,19.5-.4,3.2-.1,6.4-.1,11-8.3-2.6-15.2-4.8-22.2-6.9-6.7-2-13.5-3.7-21-5.7,3-4.5,5.6-8.4,8.1-12.4,21.9-33.9,35.4-70.8,38.6-111.1,1.8-23.1-.3-46.2-2.8-69.2-4.5-41.3-9.2-82.5-13.2-123.9-3-31-5.5-62.1-7.2-93.1-2.4-42.9-2.1-85.8,4.3-128.6a172.2,172.2,0,0,1,15.7-51.1Z" transform="translate(-230.36)"/><path class="cls-24" d="M2959.2,1650.61a829,829,0,0,1-53.8-138c-4.1-14.4-4.6-28.6-.6-43.2a535.27,535.27,0,0,1,51.6-123.5,31.68,31.68,0,0,1,2.9-4c3.2,1.4,2.2,3.5,2.3,5.1.1,6.6.2,13.2-.1,19.8-1.3,26.4,4.7,51.6,14.4,75.8,10.8,27.2,23.1,53.7,41.5,76.8.6.7.7,1.7,1.4,3.4-3.7,1.6-7.4,3.2-11.2,4.7-13.3,5.3-25.2,12.6-35.1,23.1-12.9,13.7-19.7,29.4-20,48.3-.2,13.9,1.3,27.2,7.9,39.7.8,1.6.9,3.6,1.4,5.4C2960.9,1646.31,2960.1,1648.41,2959.2,1650.61Zm13.9-144c-3.4-6.4-6.3-11.8-8.9-17.2-2.5-5.1-4.6-10.3-7-15.4-2.5-5.6-5.1-11.1-7.7-16.6-2.5-5.2-3.2-11.3-7-16.2-1.4,1.3-2.5,1.8-2.7,2.6-4,14-7.8,28-11.7,42,3.1,12.7,6.3,25.5,9.4,38.2a17,17,0,0,0,1.3,4c1,1.9,2.2,3.7,3.7,6.1C2952.9,1524.71,2962.6,1516,2973.1,1506.61Z" transform="translate(-230.36)"/><path class="cls-24" d="M1000.4,603.31c4,3.5,3.3,8,3.6,12,2.4,35.3,4.2,70.7,3.1,106.1-1.5,51.4-4.7,102.7-8.8,154-2.1,26.3-5.1,52.6-6.8,79-1.9,30.1-2.6,60.3,4.3,90.1,6.6,28.5,18.2,54.4,35.8,77.8,2.5,3.4,5.1,6.8,7.5,10.2a6.78,6.78,0,0,1,.6,2.1c-17.4,6.4-35.2,12.7-48.8,29-.9-4.5-1.8-7.1-1.9-9.7-.9-17-1.5-33.9-2.3-50.9-3.6-74.9-5.3-149.9-6.2-225-.6-49.5.7-99.1,3.3-148.5,1.4-25.9,3.1-51.8,6.7-77.5C992.7,635.61,994.6,619.21,1000.4,603.31Z" transform="translate(-230.36)"/><path class="cls-24" d="M1868.2,1323.21c2.9-31.5,6.9-62.8,14.5-93.6,4-16.2,3.5-32.8-4.3-48.4-1.2-2.5-2.4-5.1-3.7-8,1.4-2.9,2.8-5.9,4.1-8.9,8.2-18.1,8.8-36.8,1.9-55.1a256.06,256.06,0,0,1-12.6-47.7c-4.7-28.8-7.3-57.8-9.1-89.9,2.3,7.2,3.9,11.5,5,16,7,28.4,15.4,56.4,24.1,84.3,12.9,41.5,38.5,73,73.9,97.3,3.1,2.1,6.2,4.3,9.3,6.4a6.37,6.37,0,0,1,1.2,1.6c-1.7,1.4-3.4,3.1-5.2,4.3-43.4,29.1-71.3,69.3-86.5,118.9-3,9.9-6.4,19.7-9.6,29.6C1870.2,1327.61,1869.2,1325.41,1868.2,1323.21Zm41.3-160c-4.6,11-4.3,13,2.4,21.4,3.2-3.1,7.6-5.1,8.1-11.5C1917.2,1170.41,1913.9,1167.31,1909.5,1163.21Z" transform="translate(-230.36)"/><path class="cls-24" d="M3336.5,842.61c3.1-5.1,5.7-8.9,7.9-13,1.9-3.5,3.5-7.3,5.6-11.6,4.5,13.1,4.1,15.3-5.4,31.2C3342.1,847.11,3339.7,845.11,3336.5,842.61Z" transform="translate(-230.36)"/><path class="cls-24" d="M1578.3,1751.11c-5.2-2.9-7.1-7.3-9.7-11.1-17.4-25.9-32.5-53.1-46.3-81-21.4-43.6-40.5-88.3-54.2-135-9.9-33.8-10.2-33.6-.2-67.6,13-44.1,32.1-85.6,56.3-124.7a287.14,287.14,0,0,1,32.1-43.1c4.8-5.2,9.6-10.3,15.6-13.5,3.7,1.1,3,3.9,3.2,5.9,2.8,26.7,6,53.4,8,80.2,2.3,31.5,4.1,63.1,5.1,94.7,1.9,60.9,2.2,121.8-.3,182.6-1.5,36.3-5.2,72.4-7.9,108.6C1579.8,1748,1579.2,1748.81,1578.3,1751.11Zm-28.7-409.8a99.42,99.42,0,0,0-10.1,14.7c-11.6,19.5-21.3,39.9-30.1,60.8-7.7,18.2-13.8,37.1-19.4,56.1a50.39,50.39,0,0,0,.8,30.5c5.6,17,10.8,34.2,16.9,51a809.75,809.75,0,0,0,41.4,94.5c1.1,2.2,1.3,5.8,5.4,5.2,3.3-4.5,2.5-9.8,2.7-15,1.5-32-1-64.1,2.5-96.1.3-2.7-.5-5.6-.8-8.4-.3-3.3-.8-6.6-.9-9.8-.2-41.9,0-83.9-3.2-125.8-1.4-18.3-2.4-36.6-3.6-54.9C1551.3,1343.71,1550.9,1343.41,1549.6,1341.31Z" transform="translate(-230.36)"/></g><g id="Layer_2" data-name="Layer 2"><path class="cls-25" d="M1876.3,602.81l10.2-27.9c17.8-49.2,50.5-85.7,95.6-111.6a301.18,301.18,0,0,1,102.3-36c57.4-9.2,114.8-8.6,171.9,2.6a305.26,305.26,0,0,1,105.7,42.7c11.2,7.1,21.8,15,31,24.6a63.76,63.76,0,0,0,5.8,5c1.8-3.4,3.4-6.2,4.8-9.1,19-38.2,49.8-61,91.4-68.9,36.6-7,72.4-2.9,107.3,9.8,23.2,8.4,44.9,19.8,64.4,35.1,8.1,6.3,15.4,13.7,23.8,21.1,11.1-13.3,24.7-24,39.3-33.5,25.3-16.5,52.9-27.8,82.7-31.4,37.6-4.5,74.5-1.5,108.8,17.1a147.42,147.42,0,0,1,49.7,43.5c11.7,16.2,17.1,34.5,18,54.3,1,24.8-2.7,48.9-8.9,72.8-10.1,39.4-24.4,77.3-40.1,114.8a1888.92,1888.92,0,0,1-105.5,212.9c-10.4,18-15,36.7-11.6,57,2.3,13.5,5.9,26.7,9.1,40,.3,1.2,1.7,2.1,2.3,2.8,5.4-8.8,10-18.1,16.4-26,20.7-25.8,47.7-35.8,80.4-30.4a53.85,53.85,0,0,0,7,1.2c8.5.1,16.9.1,26.1.1,1-2,2.2-4.5,3.4-7.1,4.3-9.2,11.1-16.3,18.9-22.5,6.3-5,12-10.6,18.3-15.6a228.77,228.77,0,0,1,20.5-15c9.1-5.8,19.3-10.1,27.9-16.5,7.1-5.3,12.8-12.4,18.5-19.3,1.9-2.3,2-6.1,2.7-9.3,1.4-7.4,2.3-14.9,4-22.3,1.3-5.5,2.6-11.2,5.3-16,11.7-20.4,20.5-42.6,37.2-59.8a14.2,14.2,0,0,0,3.3-6c2.5-12.5,4.6-25,7-38.1-10.1-10.3-20.2-20.8-30.5-31.1a358.32,358.32,0,0,1-78-115.4,280.46,280.46,0,0,1-21.4-86.2,277.13,277.13,0,0,1,4.2-77.6c2.1-10.6,4.8-21.2,7.2-31.7,3.4-15.1,9.4-28.6,23-38.1-3.1-17.1,3.7-31.4,12.1-45.5,35.4-59,83.4-104.5,144.9-135.5,8-4,16.5-6.9,24.8-10.3,2.5-1,5.1-2,8.2-3.2-2.2-9.6-4.5-18.7-6.4-27.8a259.61,259.61,0,0,1-5.4-56.3c.4-37.5,41.6-59.5,73.9-40.3,13.8,8.2,28.1,15.3,42.3,22.8,8.3,4.4,15.9,9.9,24.5,15.2,8.3-4.2,17.5-7.4,27.7-7.3,21.6.2,38.1,9,49.2,27.8,10.5,18.1,14,36.8,6.8,57-.4,1.2-.2,2.7-.3,4.6a26.86,26.86,0,0,0,5.4,1c28.2-.6,54.1,7.4,78.4,20.9,58.8,32.7,105.1,78,137.8,137,9.2,16.6,10,20.2,9.4,39.9,13.1,9.3,18.1,23.6,22.2,39a340.32,340.32,0,0,1,11,103.8c-.7,16.4-4,32.8-8,48.8-15,60.1-46.4,111-89.5,155.1-8.2,8.4-16.5,16.8-24.9,25.4a77.32,77.32,0,0,1,3.6,48.2c2.1,1.7,4.1,3.6,6.3,5.2a63.64,63.64,0,0,1,22.8,31.7c4.1,12.1,6.8,24.5,6.9,37.4.1,10.8-.5,21.7,2.7,32.3.9,3.1.7,6.6.4,9.9-.5,6.8,1.8,12.7,4.5,18.9,4.7,11.2,10.4,20.9,21.6,26.8,2.8,1.5,5.1,4.2,7.1,6.8,14.8,19.5,33.5,35.9,45.3,57.8,2.9,5.5,7.6,9.3,13,12.6,29.3,18.3,50.1,44.1,64.5,75.3,8.4,18.3,9.7,31.7,5.7,54.4,1.4,2.4,3.4,5.1,4.8,8,4.8,10,6.9,20.5,4.8,31.6-.8,4.2-1.6,8.3-2.6,12.5-4.9,21.1-17,36.3-36.9,45.5-30.5,14-61.6,26.5-95.2,30.9-29.1,3.9-58.3,5.3-87.6,1.9-9.4-1.1-18.8-2.1-28.2-2.6a198.1,198.1,0,0,1-33.5-5.3c-.8-.2-1.8.4-3.2.7,2.1,4.8,4.1,9.5,6.2,14.2,13.1,29.6,18.2,60.4,13.4,92.6-3.9,25.5-15,47.5-32.4,66.4-10.3,11.2-22.2,20.3-35.7,28.8,1.6,4,5.1,5.9,7.4,8.5a92.46,92.46,0,0,0,7,7c16.9,15.7,28.7,34.9,37.8,55.9,9.6,22.2,15,45.7,18.3,69.6,4.6,32.9,3.5,66,2.4,99-.7,18.9-4.3,37.5-9.3,55.7-10.3,37.6-32.1,66.9-63.8,89.1-29.8,20.8-62.9,34.2-97.9,43.1a378.71,378.71,0,0,1-95.3,11.8c-20.3-.1-40.6.1-61-.4-22.7-.6-45.4-1.8-67.4-7.9-12.2-3.4-24.5-7.2-36.1-12.3-16.8-7.4-33-16.1-49.5-24.3a46.3,46.3,0,0,0-4.6-1.6c-1.8,2-3.6,4-5.4,6.1-11.9,14.2-27.4,22.9-44.4,29.4-18.6,7.1-38,11.1-57.6,14.1-32.9,5-66,4.3-99,2.4a168.53,168.53,0,0,1-52.3-11.9c-14.2-5.6-27.1-13.4-37.5-24.7-2.2-2.4-4.7-4.4-6.8-6.4-1.6.8-2.6,1-3.2,1.6-16,17.3-36.4,26.6-58.6,32.6a255.88,255.88,0,0,1-61.6,8.8c-27.4.5-54.8,1.2-82.1-2.5-25.8-3.5-51.2-8.6-74.7-20.6a88.89,88.89,0,0,1-31.3-26.1c-9.2-12.4-14.9-26.2-14.4-42a82.35,82.35,0,0,0-.5-8.5c0-.2-.7-.4-1.9-1.2-1.3,1.5-2.7,3.1-4,4.8-14.9,19.8-33.2,36-54.1,49.4-40.9,26.1-85.4,42.1-133.6,47.3s-96.2,4.8-144-3.4c-42.3-7.3-82.1-21.5-117.7-46-34.9-24-60.5-55.3-72.7-96.4-8.2-27.6-16.1-55.2-24.2-82.8-1.3-4.4-2.9-8.8-5.3-16.3,1.7,20,2.6,36.8,4.7,53.4,2.4,18.7,5.5,37.3,8.9,55.9,1.4,7.3,4.2,14.5,7,21.4,13.1,32.3,4.8,70.8-32.9,92.1-14.6,8.2-30.5,12.5-46.7,16a300.27,300.27,0,0,1-60.5,6.4c-20.8.1-41.6-.1-62.4-.8-17.5-.6-34.7-4.3-51.4-9.5-14.5-4.6-27.9-11.5-39.6-22.4-2.5,1.4-5,2.5-7.4,3.9-19.2,11.8-40.5,17.7-62.3,22.3-39.7,8.3-79.8,8.2-120,5.4a160.74,160.74,0,0,1-54.7-13.7c-11.8-5.2-22.5-11.8-31.4-21.4-2.5-2.7-5.4-5.2-7.8-7.5-1.5.5-2.7.4-3.2,1-19.7,20.9-45.1,30.3-72.3,36a273.78,273.78,0,0,1-54.9,5.9c-25,.1-50.1.8-75-2.6-26.3-3.6-52.1-8.7-76-21.1a88.49,88.49,0,0,1-28.5-23c-18.2-22.5-21.9-48.2-11.5-74.5,11.9-30.2,18.7-61.3,23.2-93.1,12.5-86.7,16.4-173.9,13.4-261.3-1.6-45.8-4.9-91.4-13.3-136.6-1.1-6-2.6-12-4-17.9-.5-1-.9-2.1-1.4-3.1-.4-1.8-.8-3.6-1.1-5.4-.9-2-1.7-4-1.8-4.2,0,.1.2,2.1.3,4.2a81.13,81.13,0,0,0-.4,9.8c2.2,33.9,4.6,67.8,6.8,101.7.9,14.6,2.2,29.2,2.1,43.8-.2,63.3-.4,126.6-1.5,189.8-.4,25.4-1.5,51.1-4.9,76.2-7,51.9-31.5,95.4-69.5,131.2-11.4,10.7-24.8,18.8-38.5,26.3-43.3,23.7-89.4,40.3-137.5,51.1a393.29,393.29,0,0,1-88.5,9.5c-71.8-.4-143.7-.2-215.5-.1-47.8.1-88.2-17.5-122.4-50.5-34.5-33.3-54.2-74.5-62.4-121.3-5-28.6-5.1-57.2,1.8-85.7,12.8-53.6,47.5-85.6,99.4-99.8,35.4-9.7,71.1-7.6,106.6.9a285.56,285.56,0,0,1,35.3,10.3c12.1,4.6,23.3,2.9,34.3-1.9a56.39,56.39,0,0,0,22.2-17.2,154.4,154.4,0,0,0,18.8-31.5c11.6-26,19.1-53.3,24.6-81.1,7.4-37.1,11.7-74.5,14.8-112.2a1592.92,1592.92,0,0,0,4.2-185.4c-1.4-42-4-83.9-6.9-125.8-2.6-37.2-5.6-74.4-9.7-111.4-4.5-41.3-9.9-82.5-15.8-123.6-5.1-35.5-11.2-70.8-17.6-106.1a715.5,715.5,0,0,0-20.8-83.7c-11.5-37.3-7.2-72.9,18.1-104.2,12.9-16,29-28.3,47.2-37.8,24.5-12.8,50.5-20.8,77.5-26.1,42-8.2,84.3-9.7,127-6.6a355.82,355.82,0,0,1,80.6,14.9A202.86,202.86,0,0,1,954.7,455a140.58,140.58,0,0,1,34.5,31.2c1.7,2.1,3.6,4.1,5.6,6.3,1.1-1.7,2-2.9,2.6-4.1,11.4-26.3,32-42.6,57.9-53.2a191.15,191.15,0,0,1,70.4-14.3c22.6-.4,45.3-1.1,67.8,2.8,31.2,5.5,60.4,15.2,85.1,35.8,1.5-.4,3-.5,4.1-1.2,21.3-15.7,45.4-25.2,71.2-29.8,47.5-8.4,94.9-8.8,141.8,4.4,19.3,5.4,37.1,14.1,50.9,29.4a102.24,102.24,0,0,1,10.5,13.3c3,4.7,5.1,10.1,8.1,16.1,1.5-2.1,3.1-3.6,3.8-5.4,8.1-19.8,22.6-33.3,41.5-42.5,19.4-9.5,40.1-13.8,61.3-16.3a466.66,466.66,0,0,1,108.9-.1,205.64,205.64,0,0,1,48.2,11.1c13.9,5.2,26.4,12.5,36.6,23.4,12,13,18.9,28,18.9,45.9a117,117,0,0,1-3.4,29.4c-6,22.9-9,46.3-11,69.8-1.4,6.9-2.7,13.7-.8,21C1871.6,619.71,1874,611.31,1876.3,602.81Zm-8.1,720.4c-3.3,7.8-.4,16.2-1.6,25.2-4.2-5.5,1.9-6,2.4-9,.5-3.2,1.5-6.4,2.2-9.6,3.2-9.9,6.6-19.7,9.7-29.6,15.1-49.6,43.1-89.9,86.5-118.9,1.9-1.3,3.5-2.9,5.2-4.3a9.19,9.19,0,0,0-1.2-1.6c-3.1-2.2-6.2-4.3-9.3-6.4-35.4-24.3-61-55.8-73.9-97.3-8.7-27.9-17.1-55.9-24.1-84.3-1.1-4.5-2.7-8.8-5-16,1.8,32.1,4.4,61.1,9.1,89.9a254,254,0,0,0,12.6,47.7c6.9,18.3,6.3,37-1.9,55.1-1.4,3-2.8,5.9-4.1,8.9,1.3,2.9,2.5,5.5,3.7,8,7.7,15.6,8.2,32.3,4.3,48.4C1875.1,1260.41,1871.2,1291.71,1868.2,1323.21Zm1878.7-145.1c-6.5.3-12.7,2.6-19.6,1.7a283.66,283.66,0,0,0-105.4,6.4c-21,5.3-42.3,10-63.7,13.3a149.92,149.92,0,0,1-75.3-7.6,87.91,87.91,0,0,1-24.5-14c-8.3-6.7-12.9-14.9-12.4-25.7l.6-14.1c.3-5.1-1-8.9-6.2-11.4-11.5-5.4-22.7-11.5-34.1-17.2-7.2-3.5-14.5-6.8-20.7-12.1-.5-.4-1.8-.1-3.1-.1-2.9,4.3-1.7,8.9-.4,13.3a18,18,0,0,0,8.4,11c9.1,5,18.3,9.9,27.5,14.6,6.7,3.5,13.6,6.6,19.7,12.1,1.3,8,2.8,16.4,3.8,24.8a32.07,32.07,0,0,0,10,19.8c9.3,8.9,19.6,16.6,31.7,21.1,19.9,7.5,40.4,13.1,61.7,15.1,15,1.4,30,3.2,45.1,4.3,8.5.6,17,.6,25.5.4,7.5-.2,15.1-1.2,22.6-1.8,35-2.6,67.1-14.9,98.4-29.7,5.6-2.6,8.7-7.3,9.9-13.1.7-3.5.3-7.3.5-11.1.2-.3.4-.7.6-1A8.79,8.79,0,0,1,3746.9,1178.11Zm-787.7,472.5c1.2,2.7,2.3,5.4,3.5,8.1,1.4-5.3,2.6-10.3-1-14.7a23.79,23.79,0,0,0-1.4-5.4c-6.5-12.5-8-25.8-7.9-39.7.3-19,7.1-34.7,20-48.3,9.9-10.5,21.9-17.8,35.1-23.1,3.8-1.5,7.5-3.1,11.2-4.7a22.1,22.1,0,0,0-1.4-3.4c-18.4-23.2-30.7-49.6-41.5-76.8-9.7-24.3-15.6-49.4-14.4-75.8.3-6.6.2-13.2.1-19.8,0-1.6.9-3.8-2.3-5.1a46.18,46.18,0,0,0-2.9,4,530.94,530.94,0,0,0-51.6,123.5,77.4,77.4,0,0,0,.6,43.2A838.23,838.23,0,0,0,2959.2,1650.61ZM1564.6,539.81a175.17,175.17,0,0,0-15.7,51.1c-6.4,42.7-6.6,85.6-4.3,128.6,1.7,31.1,4.2,62.1,7.2,93.1,4,41.3,8.7,82.6,13.2,123.9,2.5,23,4.6,46.1,2.8,69.2-3.2,40.3-16.7,77.2-38.6,111.1-2.5,3.9-5.2,7.8-8.1,12.4,7.5,2,14.3,3.7,21,5.7,7,2,14,4.3,22.2,6.9,0-4.6-.3-7.8.1-11,.7-6.5.7-13.4,2.9-19.5,7.2-20.2,10.3-41.3,12.4-62.3,3.6-36.6,6.9-73.3,8.2-110.1,2.5-70.3,2.6-140.6-.9-210.9-2.1-43.4-4.2-86.7-9.6-129.8-2.4-19.6-6.1-39.1-9.2-58.7l-.9-3.6Zm848.5,688c.5.6,1.1,1.2,1.6,1.8.3-.5.6-1,.9-1.4-.7-.3-1.3-.6-2-.9.1-7,.1-14.1.5-21.1a80.19,80.19,0,0,1,1.9-13.9c5.1-20.4,18.1-34.9,35.8-45.3a119,119,0,0,1,38.4-14c12.9-2.5,25.9-4.5,39.5-6.9a77.19,77.19,0,0,0,.5-9.6,93.16,93.16,0,0,1,5.2-34.8c5.2-15.2,11-30.1,16.2-45.2,4.2-12,8.5-24,11.9-36.2,4.4-16.3,1-30.9-11.7-42.7-.7-.6-1.3-1.4-2-2-16.1-16-29.9-34-42.8-52.7-18.7-27.3-34.3-56.3-48.5-86.2-1.5-3.1-1.6-7.6-6-8.7-6.7,8.4-13.4,16.8-20.2,25.3,2.1,2.3,3.6,4,5.3,5.7,20,19.9,30.1,44.5,32.6,72a228.93,228.93,0,0,1-4,67.5c-6.9,32.9-17.8,64.5-27.8,96.4a55.84,55.84,0,0,1-4.6,10.3c-18.2,33.7-41.5,62.9-74.4,83.6-2.5,1.6-5.6,2.7-7,5.5,1.1,1.2,1.6,2.2,2.4,2.6C2377.5,1190.11,2396.1,1208,2413.1,1227.81Zm968.3-871.1c3.6-2.9,7.2-5.9,10.9-8.8,22.2-17.2,46.3-22.2,72.8-11.2,36.3,15,57.2,61.7,32.6,101.7-15.4,25-51.2,42.8-85,28.9-3.8-1.6-7.3-4.6-12-3.1-.2-.4-.5-.9-.7-1.3,0,.2-.1.6,0,.7a2.47,2.47,0,0,0,.9.4c.9,1.6,1.5,3.5,2.7,4.8,7.1,7.6,15.3,13.7,24.2,19.3,30.7,19,63.1,21.3,96.4,10a110.38,110.38,0,0,0,74.1-121.3c-10.8-71.6-78.7-107.3-135.7-94.2q-55.35,12.75-79.6,64.1c-1.4,2.9-1.6,6.3-2.4,9.4-.3.5-.6,1.1-.9,1.6A6.93,6.93,0,0,0,3381.4,356.71Zm-79.6,107.5c-4.6-1.4-8.1,1.7-12,3.1-14.1,5.3-28.2,6.5-42.9,2.4-34.9-9.9-55.2-42.5-52.5-73.1,4.5-50.6,56.6-79.1,99.4-59,7.1,3.4,13.3,8.8,19.9,13.3,2.6,1.8,5.2,3.7,7.9,5.6a3.81,3.81,0,0,0,.3,1c.1.2.5.1.8.1-.4-.4-.7-.8-1.1-1.2,1-5.1-1.8-9.2-3.8-13.3-22.6-46.5-76-72.5-126.8-60-44.1,10.8-73.4,38.5-84.3,82.6s2.1,82.2,36.2,112.2c26.5,23.3,58.3,30.3,92.6,25.2,25-3.7,46.3-15.5,63.5-34.3,1.2-1.3,1.8-3.2,2.6-4.8a10.37,10.37,0,0,0,.4-1C3301.9,463.41,3301.9,463.81,3301.8,464.21Zm-133.4,1110.6c-2.7-.6-5.6-1-8.2-1.8-37-12-74.9-14.8-113.3-9.3-12.2,1.8-24,5.1-34.5,12-12,7.9-16.5,19-14.2,32.9.5,3.2,2.1,6.2,3.1,9.4,2.7,9,6.3,17.9,7.7,27.1a325.27,325.27,0,0,1,3.2,39.5c.6,18.9.4,37.8.4,56.7.1,19.8,7.4,36.7,20,51.7a155.27,155.27,0,0,0,48.3,38.8c11.3,5.9,23.1,10.7,34.5,16.4a156.89,156.89,0,0,0,50,14.9c13.6,1.7,27.3,2.7,40.9,3.2,18.9.6,37.8.6,56.7.5,30.3-.2,60.3-3.7,89.6-11.7,26.5-7.3,52-17.3,75.1-32.5,25.5-16.7,43.2-39.2,50.9-69,3.8-14.7,6.7-29.5,7.1-44.6.5-21.7.7-43.4,0-65.1a248.94,248.94,0,0,0-8.9-58.7c-8.1-28.8-21.6-54.5-45.1-73.7-13.1-10.7-26.8-20.9-40.8-30.5-12.1-8.3-24.9-15.4-37.3-23.1-1.4-.9-3.7-1.5-3.1-3.9,11.2-1.2,22.5-1.8,33.6-3.7,23.1-3.9,44.8-11.7,63.5-26.2,27.8-21.6,39.3-50.1,34-84.8a162.64,162.64,0,0,0-8.4-31.3c-9.9-27.1-26.9-49.7-46.4-70.6-13.6-14.6-28.2-27.9-45.4-38.1-31.2-18.5-65.4-27-101.1-29.2a422.34,422.34,0,0,0-123.7,11.1c-24,5.7-47.2,13.6-68.7,25.9a144.43,144.43,0,0,0-53.1,51.9,201.54,201.54,0,0,0-27.2,82.8c-3.1,29-.8,57.6,11.1,84.7,4.7,10.8,9.7,21.5,14.7,32.2a152.89,152.89,0,0,0,59.4,66.7c22.1,13.6,43.8,27.9,65.7,42,3.5,2.3,6.6,5.1,10,7.7Zm-1040.7-401.5c-6.4,3.2-11.8,4-17.4,4.6a277.85,277.85,0,0,0-93.4,27c-44.1,21.7-75,55-90.5,102-5.5,16.6-10.8,33.2-15.5,50-12.9,45.6-20.8,92-21.8,139.5-.2,9.9,0,19.8-.2,29.8-.8,41.8,4.7,82.9,13.1,123.6a894.11,894.11,0,0,0,30.1,109.1,168.63,168.63,0,0,0,7.9,19.7c12,24.5,31,42.6,53.9,56.8,34.3,21.4,72.3,32,112.1,37.1,26.8,3.4,53.7,3.5,80.7,2.7,37.2-1,73.2-7.8,107.4-22.8,26.1-11.4,50.5-25.8,70.2-46.9,13.3-14.3,25.1-30.1,31.6-48.3,9.1-25.8,16.2-52.3,23.5-78.7a189.08,189.08,0,0,0,6-60.4c-1.1-19.5-7.6-36.6-21.8-50.7-15.3-15.2-34.1-23.3-54.2-29.2-13.2-3.9-26.8-4.4-40.5-5.2-38.6-2.4-73.7,7.2-106.2,28.3-14.3,9.3-21.9,21.7-23.2,38.3-.2,2.8-.4,5.7-.4,8.5-.2,15.3,2.8,30,7,44.6,3.3,11.3,6.9,22.6,10.1,33.9a142.63,142.63,0,0,1,4.2,19.4c.8,6.2-2.6,11.2-8.5,13a74,74,0,0,1-13.8,3c-17.2,1.9-26.8-4.5-31.7-21.1a32.91,32.91,0,0,1-1.6-6.9c-.9-10.8-2.3-21.6-2.3-32.4q-.3-131.7.1-263.5a347.62,347.62,0,0,1,2.5-39.5c1.3-11.2,3.7-22.4,10.1-32.2,4.1-6.2,8.9-8.5,15.8-6.3,16.1,5.2,27.6,15.2,25.9,35.3a170.09,170.09,0,0,1-7.1,34.6c-3,10-5.8,20-8.9,29.9a118.18,118.18,0,0,0-5.2,40.5c.7,17.5,7.8,30.3,24.4,38a280.14,280.14,0,0,0,140.5,25.9,116.94,116.94,0,0,0,42.2-11.2c18.5-8.9,30.7-23.1,36.5-42.8,3.8-12.8,5.2-25.9,5.3-39.2.2-27.5-3.4-54.6-9.7-81.3-5.6-24-12.4-47.5-23.5-69.6-12.4-24.6-29.7-44.8-52.9-59.8s-47.9-26.5-74.6-33.5c-16.9-4.4-34-8.1-51.5-9.2-3.6-.2-7.6.1-10.5-4.1,3.9-.3,7.2-.6,10.4-.8s6.6-.3,9.9-.8a286.67,286.67,0,0,0,104.9-36.9c29-17.1,50.1-41.2,65.9-70.5a63.89,63.89,0,0,0,4.2-10.5c5-15.7,10.1-31.5,14.8-47.3,8.1-27.2,14.6-54.7,13.7-83.5-1-30.5-14.2-53.2-40.6-68.4a154.67,154.67,0,0,0-33.9-14.1c-20.2-6-40.9-6.4-61.8-5.8-32.6.9-61.8,11.7-88.8,29.6-12.5,8.3-18.7,19.5-20.8,33.7-.5,3.3-.6,6.6-.8,9.9a124.31,124.31,0,0,0,4.9,37.8c4.2,15,8.8,29.9,13.1,44.9a114.84,114.84,0,0,1,3.4,15.2c.9,6.6-1.8,11.2-8.1,13.1a67.54,67.54,0,0,1-16.6,3.1c-16.8.9-24.9-4.5-28.9-20.7a139.22,139.22,0,0,1-4.2-32.1q-.45-146.7-.1-293.3a186.41,186.41,0,0,1,5.6-43.4c1.7-6.9,4.5-13.5,9.4-18.8,2.6-2.8,5.8-4.9,9.9-4.5,12.8,1.3,25.6,13.1,28.8,25.7,2.5,10.1.2,19.8-1.9,29.4-3.1,14.3-7.3,28.3-11.2,42.4-4.6,16.4-8.3,32.8-7.7,50.1.6,18.8,7.9,32.3,25.9,40,45.4,19.6,92.2,30,142,24.7a124.58,124.58,0,0,0,39.4-10.7c14.1-6.6,25.1-16.7,31.9-31a93.59,93.59,0,0,0,8.2-28.4c2.2-17.9,1.9-35.7.4-53.7a413.14,413.14,0,0,0-23.4-107.6c-13.4-36.8-36.7-65.9-71.4-84.8a363.9,363.9,0,0,0-38.3-18.4c-25.6-10.3-52.4-15.6-79.8-18.1-40.6-3.7-81.1-3.8-121.4,3.6-30.5,5.6-59.4,15.6-86.1,31.3-34.6,20.3-60,48.6-73.8,86.6-25.9,71.1-40.9,144.2-40.3,220.2.3,34,1.8,68,6.9,101.6,7.6,51,20.8,100.7,37.4,149.5,7.9,23.5,21.8,42.7,40.7,58.5,23.2,19.5,50.1,32,78.8,40.5C2076.5,1168,2101.1,1172.81,2127.7,1173.31ZM566.1,1873.11c31.7,0,63.3-.2,95,.1a345.74,345.74,0,0,0,71.8-6.5c47.1-9.4,92-24.9,134.3-47.7,12.1-6.5,23.9-13.5,33.8-23.1,27.9-27.1,45.7-59.7,52.9-98.1,4-21.5,3.2-43.3,4.5-64.9,1.6-28.3,1.5-56.6,1.3-84.9-.3-54.3,2.4-108.6-2.6-162.8-2.6-28.6-3.9-57.4-5.7-86.1-1.9-30.6-4-61.2-5.5-91.8q-3.15-63.6-5.8-127.3c-1.1-26.9-2.2-53.7-2.8-80.6q-1.65-66.6-2.6-133.1c-.2-11.8,1.1-23.6,1.1-35.4-.1-54.3,1.7-108.5,6.6-162.6,1.9-21.6,4.4-43.2,10.2-64.2,2.7-10,6.4-19.7,9.2-29.7,7.4-26,4-49.6-16.7-68.8a123.13,123.13,0,0,0-19.1-14.5c-11.6-7.3-24.5-12.1-37.6-16.2-28.7-8.9-58.2-12-88-13.2-17.9-.7-35.8.3-53.8,1.9a340.51,340.51,0,0,0-68.1,12.5c-16.8,5-32.9,11.6-47.7,21.4a94.22,94.22,0,0,0-23.7,22.1c-13.8,18.6-14.8,39.4-7.8,60.6,11.5,34.6,18.9,70.1,25.2,105.9q8.1,46.65,15,93.6c3.9,26.1,7.2,52.3,10.5,78.5q3.6,28.8,6.4,57.7c2.6,26.8,5.2,53.5,7.3,80.3,1.7,22.1,2.8,44.3,3.9,66.4,1.7,34.9,3.4,69.7,4.4,104.6q1.65,53.85-1.8,107.5c-1.1,16.5-1.9,33-2.7,49.4a796.56,796.56,0,0,1-9.3,88.6c-5.4,33.6-12.3,66.8-23.2,99.1-7.6,22.5-17.2,44-31,63.4-12.9,18.2-29.5,31.9-50.7,39.3-20,7-40.1,9.3-60.8.9-12.2-4.9-25.2-8.1-38.1-10.9-23.3-4.9-46.8-6.3-70.3-1.3-17.8,3.8-34.2,10.7-48.1,22.7-18.7,16.1-26.5,37.8-28.9,61.3-3.1,29.9.4,59.3,11.6,87.6s27.7,52.7,51.9,71.3c23.5,18.1,50.3,27.4,80.3,27.1C489.6,1872.91,527.9,1873.11,566.1,1873.11Zm2098-695.7c.1-.8.2-1.5.3-2.3h12.7a225.56,225.56,0,0,0,36.7-2.4c25.9-4.2,50.2-12.8,73.9-23.8,8.3-3.8,13.2-10.4,15.7-19a45.77,45.77,0,0,0,.5-23.8c-3.4-13.7-6.9-27.4-11.2-40.9-5.8-18.5-11.4-37-14.4-56.2-4.8-30.7-1.6-60.2,14.7-87.5,5.1-8.5,9.9-17.2,14.7-25.9A1963.07,1963.07,0,0,0,2897.4,711c15.4-36.6,29.4-73.6,39.1-112.2,4.5-17.9,7.8-36,7.3-54.5-.3-11.5-2.8-22.6-9.9-32-9.2-12.2-20.1-22.3-33.7-29.7-26.6-14.7-55.2-16-84.1-12-29.6,4.1-55.6,17.5-78.7,36.5a37.65,37.65,0,0,0-13.6,22.4,492.25,492.25,0,0,0-9,67.3c-1.5,22.1-2.2,44.3-3.5,66.4-.7,11.8-1.5,23.6-3,35.2a220.77,220.77,0,0,1-5.4,29.2,62.52,62.52,0,0,1-8.2,17.8c-4.2,6.3-12.5,6.2-16.8-.1a33.92,33.92,0,0,1-6-14.1c-2.2-15.4-4.6-30.8-5.1-46.3-1-30.2-.5-60.4-2.9-90.6a609.41,609.41,0,0,0-8.7-65.9,33.86,33.86,0,0,0-13.9-22c-35.2-26.1-73.7-41.6-118.3-40.1-12,.4-23.5,2.2-34.6,6.4q-29.1,10.95-43.2,38.8c-5.6,11.2-7.8,23.2-8.4,35.5-1.5,32.8,3,65,10.3,96.8a754.44,754.44,0,0,0,58.5,165.1c21.1,43,46.1,83.4,80.1,117.8,23.1,23.4,30.1,51.9,21.8,83.6-3.9,15-9.3,29.7-14.3,44.4-4,11.6-8.5,23-12.8,34.5-4.1,10.8-5.1,22-4.7,33.4.5,13.9,6.1,24.6,19.2,30.5,10.3,4.7,20.8,9,31.2,13.5,3.3,1.4,7.1,1.7,11.6,6-13.3-.1-24.4-.5-35.5-1.4-32.2-2.8-64.2-.5-96,4.3-11.7,1.8-23.1,5.1-33.3,11.4-16.9,10.2-16.7,29.4-8.7,39.2,13.7,16.8,19.3,36.7,23.3,57.1,4.1,20.8,6.4,41.9,9.6,62.9,4.7,31.8,6.2,63.9,7.2,95.9a1633.55,1633.55,0,0,1-4.3,179.7c-2.9,35.8-6.2,71.4-12.4,106.8-4.9,27.9-10.3,55.7-22.2,81.7-5.3,11.6-3.2,26,7.3,34.8,3.6,3,7.3,6.3,11.5,8.1,9.5,4,19.2,8,29.2,10.6,22,5.7,44.6,8,67.3,8.4,19.4.3,38.7.3,58-2.2,14.1-1.8,28-4.1,41.4-9.1a97.36,97.36,0,0,0,17.8-8.6c14.3-9.2,20.1-22.9,16.1-39-9-36.2-15.2-72.9-19.8-109.9-3.5-28.2-6-56.3-4.7-84.7a218.58,218.58,0,0,1,3.5-28c.8-4.5,1.9-9.3,7.3-12.7,2.7,1.8,6.2,3.5,8.6,6.1a131.72,131.72,0,0,1,13.2,16.6c10,15,17.8,31.2,24.3,47.9,14.1,36.2,24.3,73.4,29.1,112.1,2.1,16.5,2.9,32.8-.3,49.3-1.2,5.9-.9,12.2-1.1,18.3-.1,8,3.3,14.4,8.6,20.3,6.6,7.2,14.6,11.9,23.6,15.2a146.21,146.21,0,0,0,42.9,8.7c28.3,1.3,56.7,1.6,84.8-2.8,15.4-2.4,30.7-5.4,45.3-11,8-3,15.8-6.3,22.2-12.2,13.7-12.5,14.7-27.3,2.2-40.9a374.42,374.42,0,0,1-39.3-51.9,751.49,751.49,0,0,1-37.5-66.6c-26.2-52.5-48.8-106.4-64.8-162.9-6.3-22.4-6.9-44.4-.6-66.9a560.44,560.44,0,0,1,81.2-173.6c13.3-19.1,28.6-36.4,48.2-49.5a60.08,60.08,0,0,0,8.5-7.5c7.6-7.6,9.2-26.2-1.4-34.5-4-3.2-8.2-6.7-12.9-8.5a183,183,0,0,0-27-8.3c-26.5-5.8-53.4-6.2-80.3-5.8a231.18,231.18,0,0,0-50.5,6.3,118.34,118.34,0,0,0-26.4,9.9c-14.7,7.6-22.7,19.7-20.7,36.9,2.1,18.5.5,36.8-3.3,54.9-2.3,11.1-5.2,22-8.2,33-8.5,30.5-19.7,60.1-34.6,88.1-5.6,10.5-11.7,20.5-19.9,29.2-3.1,3.4-6,7.5-11.5,7.8-5.7-3.4-7.6-9.5-9-15.3-2.6-11.5-5.6-23.1-6.4-34.7-2.5-38.8-.7-77.4,8.4-115.3,3.4-14.2,7.7-28.1,16.1-40.6,9.8-14.7,6.3-29.7-8.9-38.7-7.2-4.3-15.5-6.8-23.5-9.7C2674.1,1179.61,2669,1178.71,2664.1,1177.41Zm-1378.2-2.2c32.7.3,65.1-2.8,96.7-11.4,24.8-6.7,48.1-16.8,69.2-31.7,29.2-20.6,48-49,60.1-82.1,7.7-21,12.1-42.7,11.3-65.2-.5-14.1-1.8-28.2-3.3-42.3-2.3-22-5.2-44-7.5-66.1-2.4-22.5-4.6-45.1-6.4-67.6-2.7-32.9-5.7-65.8-7.1-98.8-1.4-33.9-1.9-67.9,1.8-101.9,2.9-26.8,7.5-53.1,18-78.3,8.7-20.9.5-34.1-13-43.2-7.9-5.3-16.8-8.6-25.9-11.2-15.1-4.2-30.5-5.5-46.1-6.8-23.3-2-46.2.1-69,4a133.87,133.87,0,0,0-44,15.2c-20.6,11.6-31.6,29-32.5,52.8-1.2,31.7.5,63.2,3.9,94.7,3.2,29.1,6.8,58.1,10.2,87.1,3.3,28.1,6.3,56.2,9.7,84.4,4,33.8,7.1,67.6,7.7,101.6.3,18.4-.8,36.7-5.3,54.8-3.6,14.7-12.6,23.9-26.7,28.5-20.5,6.7-39.9-3.6-44.4-24.6a276.91,276.91,0,0,1-5.4-40.6c-1.8-29.3,1.2-58.5,3.2-87.7,1.8-26.8,4.9-53.5,7.6-80.3,2-20.2,4.4-40.3,6.6-60.5,2.5-23.9,5.2-47.8,7.4-71.8,1.8-19.3,3-38.6,4.4-57.9a228,228,0,0,0-.8-39.6c-1.6-16.2-9.3-28.5-22-38a91.12,91.12,0,0,0-17.1-10,149.82,149.82,0,0,0-56-13.8c-17.4-.8-35-.6-52.4-.1-15.7.5-30.8,4.3-45.4,10-10.2,4-19.5,9.6-26.9,17.8-5.3,5.8-8.7,12.5-8.6,20.4s.3,16.1,1.9,23.9c8.1,40.4,11.1,81.3,12.4,122.4,1.6,51-.7,101.9-4.4,152.8-2.4,32.5-4.4,65-6.8,97.4-.9,12.7-2.1,25.4-3.4,38.1-2.6,24.5-3.1,48.9.6,73.4q9.6,63.45,60.7,101.9c25.6,19.3,55.2,30.7,86,38.8C1218,1172.31,1251.8,1175.61,1285.9,1175.21Zm379.9-1.9c-10.7,3.1-20.3,5.2-29.4,8.7a65.78,65.78,0,0,0-17,9.9c-8.4,6.7-11.5,15.9-9.3,26.6,1.4,6.5,3,12.9,4.3,19.3,7.2,35.2,10.6,70.9,13.3,106.7,2.6,34.3,4.9,68.8,5.6,103.2,1.4,66.5,2.7,133.1-1,199.6-1.8,31.6-3,63.1-6.4,94.6-2.9,26.8-6.1,53.5-14.8,79.1-5,14.5-.3,28.8,14.8,37.2a103.17,103.17,0,0,0,21,8.3c17.8,5,36.2,6.3,54.7,6.6,30.7.5,61.5.4,91.7-6.3,8.7-1.9,17.2-4.9,25.7-7.9a35.52,35.52,0,0,0,9.8-5.6c11.9-9.3,14.2-18.3,9-32.4-2.4-6.6-5.4-13.2-7.1-20-6-24.3-10.5-48.9-12.3-73.9-1-13.2-2.4-26.3-3.1-39.5-1.7-30.6-3.8-61.2-4.3-91.9-.6-37.3-1-74.6,1.5-111.9,2-29.2,2.6-58.4,3.9-87.7.1-2.4.2-4.7.4-7.1,2.6-28.7,4.9-57.3,7.8-86,2.5-25.8,6.2-51.5,12.5-76.8a108.65,108.65,0,0,0,2.2-13.9c1.2-10.5-3.6-18.3-12-24a59.8,59.8,0,0,0-12.5-6.6c-7.6-2.6-15.4-4.4-23.1-6.6-3-.9-6-1.8-12.2-3.7,4.9-1,6.6-1.3,8.2-1.6,12.2-2,24-5.3,35-10.9,16.4-8.2,20.9-20.3,14.8-37.4-2.7-7.5-5.3-15.1-7.5-22.8-7.9-27.8-11.3-56.5-13.4-85.2q-4.2-57.15-5.6-114.5c-.9-32.6-.6-65.2.2-97.7.7-28.8,2.6-57.5,4.4-86.2q2.85-45.9,6.5-91.8c.9-11.3,2.4-22.5,3.9-33.7,3.1-23.4,6-46.8,12.4-69.6a13.73,13.73,0,0,0,.5-2.8c2-13.7-2.7-24.3-15-30.8a114.57,114.57,0,0,0-19.5-8.1c-13.1-4.2-26.8-5.5-40.4-6.9-23.1-2.4-46.3-2.2-69.3-.5-16,1.2-32.1,2.7-47.4,7.7-7.6,2.5-15.2,5.3-22.1,9.3-10.1,5.9-15.5,15-14.2,27.2.5,4.2.9,8.5,1.8,12.6,6.9,31.4,10.9,63.2,13.4,95.2,1.2,15.5,2.4,31.1,3.3,46.6,1.7,30.1,3.8,60.3,4.6,90.5.9,33,.5,66.1.7,99.2.3,61.9-1.9,123.6-8.5,185.2-2.8,26.3-6.7,52.4-14.7,77.7-5.5,17.4,0,30.7,16.3,38.9,7.5,3.7,15.8,6,23.9,8.7C1655.8,1171,1660.4,1171.91,1665.8,1173.31Zm-404.3,262.2c-6-6.5-7.7-8.4-9.2-15.5-2.6-12.4-5.5-25-6.5-37.6a348,348,0,0,1,2.2-76.3c4.1-28.1,8.4-56,24.7-80.4,6.1-9.2,3.8-20.4-3.7-28.7-5.9-6.6-13.6-10.1-21.7-12.9a171.49,171.49,0,0,0-40-8.9c-15.5-1.5-31-2.5-46.6-3.9-32.2-2.9-64.2-.5-96,4.3a87.44,87.44,0,0,0-30.8,10.2c-10.8,6.2-16.6,15-15.3,27.9a25,25,0,0,0,5.8,14.2c8.2,9.6,13,20.8,16.3,32.7,3.5,12.7,6.6,25.6,9.1,38.6,9.1,47.4,11.8,95.5,13.4,143.6,1.4,42.4,1.2,84.9-1,127.4-2.2,44.3-5.7,88.5-12,132.4-5.3,37.4-11.5,74.6-26.8,109.6-4.6,10.7-2.6,21.2,5.5,30.3,6.9,7.7,15.6,12.1,24.9,15.7,15.1,5.8,30.8,9,46.8,11,23,3,46.2,3.5,69.3,2.8,20.3-.6,40.5-2.8,60.2-8.3,9.6-2.7,18.8-6.3,27.1-12,14.3-10,19.5-22.5,15.5-39.3-7-28.9-12.4-58.1-16.7-87.5-5.3-36-8.9-72.1-7.6-108.6.3-8.9,1.8-17.8,3.4-26.6.8-4.4,1.9-9.4,7.2-11.9,6.5,2,11.1,7,14.8,12.3,6.9,10.1,14,20.3,19.3,31.2,23.4,48,37.2,98.8,42.7,151.9a115.61,115.61,0,0,1-1.6,35.2c-1.3,6.4-1.4,13.1-1.5,19.7,0,7.3,3,13.6,8,19.1a60.72,60.72,0,0,0,24.5,16.3,138.62,138.62,0,0,0,40.1,8.4c29.7,1.6,59.5,1.9,89.1-2.8,14.9-2.4,29.7-5.5,43.9-10.9,8-3,15.8-6.4,22.2-12.3,13.8-12.6,14.7-27.3,2-40.9-16.2-17.4-29.9-36.5-42.3-56.6-28.7-46.3-52.1-95.3-72.5-145.7-12.2-30.2-23-60.9-30-92.9a93.05,93.05,0,0,1-.5-37.9,369.56,369.56,0,0,1,12.6-46.4c17.3-51.4,40.8-99.5,72.6-143.6,13.3-18.5,28-35.7,47.4-48.2a40,40,0,0,0,5.5-4.5c12.9-12.2,12.3-29.3-1.7-40.4a57,57,0,0,0-11-6.3c-13-6-27-8.3-41-10.4-23.9-3.5-48-3.5-72.1-2.7a219.07,219.07,0,0,0-46.2,6.6c-10.1,2.5-19.9,6.1-28.5,12.2-10.7,7.7-16.8,17.7-15.9,31.3.3,3.8.7,7.5.7,11.3-.2,9.9.4,20-1.1,29.7-7.5,47.4-21.9,92.8-44.5,135.3-5.7,10.8-13.1,20.7-20.3,30.6C1270.8,1430.71,1267.4,1435.21,1261.5,1435.51Zm2406.6-396.7c-3.1-4.9-5.3-7.9-7.1-11.1-8.3-14.5-18.3-27.5-31.1-38.3a15.22,15.22,0,0,1-4.4-5.4c-3.1-6.9-8.5-11.2-15-14.4a30.44,30.44,0,0,1-14.6-14.8c-5.1-11.1-10.4-22.2-15.7-33.3-3.1-6.6-4-13.5-3.8-20.7a106.18,106.18,0,0,0-.5-12.6c-.5-5.6-1.6-11.1-2-16.7-.4-7.1.1-14.2-.5-21.2-.6-8.5-1.9-17-6.2-24.5-3.3-5.9-8.1-9-15.6-6.2,2.6,4.7,6.4,8.8,7.1,13.4a230.12,230.12,0,0,1,3,35.2c0,6.7-.5,14.1-4.1,20.1a21.47,21.47,0,0,1-14.4-.4c-4.6-1.8-9.1-4.9-15.4-2.9.3,5.1.7,9.6,1,14.3,4.3,1.3,7.9,2.2,11.4,3.4,3.7,1.2,8.4.4,11.7,5-14.1,4.6-26.3-1.5-38.6-2.3-2.8-7.4.1-15.3-6-21.4-2.4-.2-5.2-.6-8-.7-10-.2-19.8,1.8-29.2,4.8-6.3,2-11.1.6-15.1-4.3-.9-1.1-1.6-2.3-2.7-3.9,5.1-6.2,5.1-13.8,4.5-21.3-.7-7.9-2.8-15.8-3.5-23.7s-8.2-12.4-9.9-20.7c4.8-3.2,9.3-6.5,14.2-9.3,3.8-2.2,7.6-1,9.3,3.3,2.6,6.4,4.4,13.2,6.9,21h48.4a23.51,23.51,0,0,0,5-.9c2.8-4.6,1.3-8.8,1.2-13-.1-2.3-.5-5.3.7-6.7,3.4-4,2.2-7.8,1-11.9s-1.9-8.2-2.9-12.2c2.3-3,4.6-5.5,6.3-8.3,6-9.7,9.6-19.6,1.7-30.2-1.1-1.4-1.3-3.5-1.9-5.3-1.9-5.3-5.6-8.5-10.9-10.2-3.4-1-6.6-2.5-10.4-4,1.5-1.9,2.2-3.2,3.3-4,18.7-13,35-28.7,51.1-44.7,35.8-35.5,63-76.3,79-124.4a211.63,211.63,0,0,0,11-58.3,283,283,0,0,0-11-91c-.8-2.6-.6-5.8-4.6-7.3-3.3,1.4-7,3.4-11,4.6-4.3,1.3-8.9,1.8-13.7,2.7-.9,4.8-1.7,9.4-2.7,14-15.5,74.9-86.2,112.7-144.4,103.1q-79.2-13.2-105.8-88.8c-2.2-6.2-3.5-12.7-5.3-19.1-.2-.8-1-1.5-1.8-2.8a24.1,24.1,0,0,0-5-.7c-1.8,0-3.6.7-5.5,1.1-2.3,8-4.4,15.7-6.8,23.3-20.3,62.5-85.5,96.6-142.3,87-54.3-9.1-97.6-50.4-107.7-104.7-.8-4.5-2-9-2.9-12.6-9.4-2.1-17.5-3.9-25.7-5.7-5.7,11.3-7.4,23.1-9.6,34.5-6.5,33.3-6.6,66.6.9,99.8,8.2,35.9,24.1,68.4,44.8,98.7,15.1,21.9,34.1,40.4,52.5,59.4,13.3,13.7,28.7,24.6,44,35.5,1.4,1,3.3,1.4,4.9,2,4.5-4.8,8.1-10,12.8-13.6,18.7-14.4,38.9-15.3,59.5-3.2,2.8,1.7,5.5,3.6,8.3,5.4a22,22,0,0,1,10.6,17.5,89.93,89.93,0,0,1,.5,12.7c-.1,2.1-1.5,4.1-2.5,6.7a185,185,0,0,0-54.2-13.1,426.3,426.3,0,0,0-43.8-1.2c-7.8.1-13.7,5-13.9,11.6-.2,7.3-2.6,13.9-4.5,20.6-2.3,8.4-1.1,15.8,4.2,22.7a37.46,37.46,0,0,1,2.6,3.3c2.6,4.2.6,8.4-4.4,9.4-2.8.5-5.7.5-8.4,1.2-4.7,1-9.3,2.6-12.3,6.5a204.87,204.87,0,0,0-13.8,19.7c-2.6,4.4-3.7,9.6.3,14.9,11.5-3.1,22.8-6.2,35-9.5-2.3-6.1-1.3-11.5,2.2-17,5.7-8.9,6.7-9.6,17.2-7.1,1.2.3,2.3,1.3,4.4,2.4-2,3.4-3.5,6.9-5.9,9.6-4,4.5-5.6,9.5-6.4,15.3-1.7,13-4.7,26-.6,38.3-5.8,8.7-13.1,11.5-22.4,10.7-5-.4-10.4-.7-16,2.8-.6,4.9-1.2,10.4-1.9,16.4h-6.9c-1.4-4.2-1.5-9.7-4.2-11.8-5.1-4-4.9-8.9-4.6-13.9.4-7,1.4-14,2.1-21.1.2-2.6,0-5.2,0-9.6-2.8,2.4-4.6,3.3-5.3,4.7a41.32,41.32,0,0,0-2.9,7.9c-3.8,12.3-3.5,25.1-3.3,36.2-5,6.4-8.8,11.8-13.1,16.7-7.5,8.4-15.2,16.7-23.2,24.6-2.2,2.2-5.5,3.5-8.6,4.7-12.9,5-23.3,14.1-35.1,20.8a12.22,12.22,0,0,0-3.3,2.7c-6.2,7.2-13.7,12.9-21.4,18.4-2,1.4-3.2,4.1-5.3,6.9,12.2,2.8,21-9.2,32.3-4.7,0,1.7.4,3.2-.1,4.3-2.8,7.8-.4,13.2,6,18.5s12.5,11.3,19.8,15.8c4.6,2.8,9.6,5.8,11.4,12.8-4.1-.3-7.4-.1-10.5-.9a97.91,97.91,0,0,1-16.1-5.3c-9.3-4.3-19-5-29-5.2-30.2-.6-60.4-1.8-90.6-2.8a33.54,33.54,0,0,1-8.3-1.4c-21.4-6.1-41.7,10.1-46.1,29.3a42.13,42.13,0,0,0-1,11.2,8.68,8.68,0,0,0,8,8.5c3.7.5,7.5.3,11.3.6,6.1.4,12.3.7,18.3,1.6a799.59,799.59,0,0,0,81.7,7.3c19.8.7,39.7,0,59.5-.3a131.78,131.78,0,0,0,14.1-.8c20.1-2.4,40.3-4.5,60.4-7.6,12.6-1.9,25-5.1,37.4-7.9a52.53,52.53,0,0,0,6.6-2.6c-3.4-7.1-6.4-13.4-9.3-19.7s-6-12.8-8.7-19.4c-2.9-7-5.8-14-8.3-21.1-2.3-6.6-6.9-12.4-6.7-20.1,7.2-8.3,15.2-15.8,21.1-24.8,7.9-12.1,18.9-17.9,32.4-20.5a107.38,107.38,0,0,0,15.1-3.7c7.2-2.5,12-7.1,11.9-15.6,0-5-.7-10.5,4.5-16,8.5,4.4,15.9,10.7,23.6,16.6,8.1,6.2,14.5,13.4,17.2,24,17.1,1.8,32.1-2.4,46.1-11.2a10,10,0,0,0,4.7-8.2c1.3-13.3.9-26.4-3.2-39.2a25.93,25.93,0,0,0-8.7-12.5c-16.6-14.1-35.2-25.4-53.5-37.1-2.7-1.7-5.1-3.8-8.4-6.3,3.7-4.9,2.1-11.5,7.8-14.9,11.3,3.4,21,11.2,33.6,10.5.9-3.7,1.6-6.9,2.3-9.7a17.31,17.31,0,0,1,2.8-1.6c10.9-3.6,16-11.1,15.7-22.4a13.1,13.1,0,0,1,0-2.8c1.2-6.4,4.2-11.2,11-13.2,7.2-2.1,14.3-4.8,21.5-7.2,6.9-2.4,14-3.1,20.9-1,10.3,3.2,20.4,7.1,31.1,10.9,2.3,9.2,4.6,18.7,14.9,22.5.4.2.4,1.5.7,2.8q-4.05,2.1-8.4,4.5c-1.4,6.8-1.8,13.5.9,19.7,2.9,7,1.4,12.8-2.6,18.6a74.28,74.28,0,0,0-12.7,32.6c-.8,6.1-2,12.2-2,18.3-.1,14.8,2.4,29.1,8.9,42.6a17.34,17.34,0,0,0,12.7,10.1,13.47,13.47,0,0,0,14.2-4.9c.9-6.6-.2-13.9,4.4-20.6,2.5,4.1,4.5,8.3,7.3,11.8,3.3,4,7.5,7.2,10.9,11.1a25.8,25.8,0,0,1,5.2,8.3c3.1,8.9,5.9,17.9,8.3,27a24.37,24.37,0,0,1-.7,15.3c-3.1,8.4-5.7,17-8.7,25.4-.5,1.5-1.8,2.8-4.6,6.8,0-9.2.6-15.4-.2-21.4a88.86,88.86,0,0,0-4.9-20.5c-1.9-5-6.5-8.6-4.8-15.3.8-3-2.8-7.3-7.5-10.7-.5,3.6-.8,5.8-1.2,8s-.3,5.4-1.7,6.6c-7.5,6.8-8.5,16.5-12.6,27.7-.6-13.1-5.2-22.1-10.9-31.7-2,1.7-3.8,2.6-4.5,4.1-8.6,18.5-15.5,37.3-14.3,58.4.7,12.4,3.7,22.2,16.9,26,.9.3,1.6,1.1,2.5,1.3,2.6.4,5.2.6,8.4,1,.9-4.5,1.5-8.2,2.4-11.8s-.3-8.1,2.9-12.6c5,7,4.6,17.5,16.1,17.7,1.8-1.9,3.9-4.4,6.3-6.6,1.1-1.1,2.8-1.6,4.7-2.7,0,11.5-.6,21.9.1,32.2,1.2,16.7,5.5,32.6,17.7,45.2a67.16,67.16,0,0,0,27.5,16.9c26.4,8.8,53.5,11.4,81.1,8.9,26.8-2.4,53.5-5.2,80.2-7.9,18.8-1.9,37.6-3.9,56.3-6.2a288.11,288.11,0,0,0,29.2-5.3c10.4-2.3,12.4-6.3,9.5-16.3a47.31,47.31,0,0,0-2.5-6.6c-8.2-18.3-19.4-34.5-34.9-47.6-3.9-3.3-7.8-6.8-12.6-8.2-1.2.9-2.5,1.5-2.5,2-.3,6.7-4.5,8.8-10.3,9.1s-11.3.5-17,.5c-19.8.1-39.7-.1-59.5.1-29.8.4-59.5,1.5-89.2,1.5-12,0-23.6.2-34.4,6.2-1.9,1.1-4.3,2.3-6.8-.5.1-6,4.1-10.1,8.6-13.4,8.4-6.1,16.9-12,25.6-17.7,11.6-7.7,22.1-16.2,27.4-29.6,1.9-4.9,5.9-7.6,10.5-8.7,6.4-1.5,13.1-2.9,19.6-2.8,13.2.3,26.4,1.2,39.6,2.6,9.8,1,19.8,2.4,26.2,11.6a7.6,7.6,0,0,0,2.2,1.7c10.9,6.6,21.7,13.3,32.7,19.8C3663.2,1039.71,3664.8,1039.11,3668.1,1038.81Zm-303.4-815.4c0-3.5-.3-6.3.1-8.9.8-5.6,1.7-11.2,2.9-16.7,4.5-20.4,11.1-40,24.2-56.8,5.6-7.2,5-14.4-1-21.8-4.2-5.2-10-5.2-14.1.3-9.9,12.9-17.3,27-21.2,42.8-.6,2.6-.2,5.8-4.3,7.1-.5-1.7-1.1-3.3-1.6-5a196.86,196.86,0,0,0-22.1-45.7,47.31,47.31,0,0,0-19.9-17.4c-14-6.8-27.6-14.4-41.4-21.6-1.5-.8-3.4-.7-6-1.2-.3,3.5-.9,6.2-.7,8.8.5,7.1,1.4,14.1,1.9,21.1,1.3,20.5,7.1,39.9,15.5,58.5,5.9,13,13.7,24.7,25.6,33.4,2.5,1.8,5.8,3.3,6.1,8a28.27,28.27,0,0,1-5,.2c-6.5-.9-13.1-1.8-19.6-3-26.8-5-51.6,1.3-75.1,13.7a301.55,301.55,0,0,0-94,76.2c-12.6,15.3-24.2,31.4-32.6,49.5-.3.6.5,1.6.8,2.7a16.89,16.89,0,0,0,3.9.8,46.58,46.58,0,0,0,6.1-.4c27.5-60.2,73.5-90.3,140.7-84.9,66.7,13.1,102.9,54.8,112.8,120.6,9.5,1.2,10.2.8,11.3-6.1.7-4.7,1.2-9.4,2.2-14,13.1-59.8,68.7-104.2,131.2-101.3,38.5,1.8,70,17.6,94.9,46.8a120.29,120.29,0,0,1,20.3,33.9,30.32,30.32,0,0,0,2.8,4.4c4.6,1.1,8.6,2.1,13-1.7-2.4-4.7-4.6-9.4-7.2-13.7q-44.1-73.5-119.8-113.6a109.53,109.53,0,0,0-53-13.1,146.28,146.28,0,0,0-51.2,9.2c-6.2,2.3-12.3,4.9-18.5,7.1C3370.4,222.51,3368.1,222.71,3364.7,223.41ZM1578.3,1751.11c1-2.3,1.6-3.1,1.6-3.9,2.7-36.2,6.4-72.4,7.9-108.6,2.6-60.8,2.2-121.7.3-182.6-1-31.6-2.8-63.2-5.1-94.7-2-26.8-5.2-53.5-8-80.2-.2-2,.6-4.9-3.2-5.9-6,3.2-10.8,8.4-15.6,13.5a275.71,275.71,0,0,0-32.1,43.1c-24.2,39.1-43.3,80.6-56.3,124.7-10,34-9.8,33.8.2,67.6,13.7,46.7,32.7,91.4,54.2,135,13.7,28,28.8,55.2,46.3,81C1571.1,1743.81,1573.1,1748.11,1578.3,1751.11ZM1000.4,603.31c-5.9,15.9-7.7,32.3-9.9,48.6-3.5,25.7-5.3,51.6-6.7,77.5-2.6,49.5-3.8,99-3.3,148.5.9,75,2.6,150,6.2,225,.8,17,1.4,33.9,2.3,50.9.1,2.6,1,5.2,1.9,9.7,13.7-16.3,31.4-22.5,48.8-29-.3-1.2-.3-1.8-.6-2.1l-7.5-10.2c-17.6-23.3-29.2-49.3-35.8-77.8-6.9-29.8-6.2-60-4.3-90.1,1.6-26.4,4.7-52.6,6.8-79,4.1-51.3,7.3-102.6,8.8-154,1-35.4-.7-70.8-3.1-106.1C1003.8,611.21,1004.5,606.81,1000.4,603.31Zm2347.9,479.1c-7.2,1.8-14.4,4.4-21.7,5.2a323.23,323.23,0,0,1-38.1,2.2c-34.7-.3-68.7,5.4-102.6,10.9-22.3,3.6-44.3,9.4-66.4,14.3-17.1,3.8-34.2,6.8-51.9,6.5-6.6-.1-13.2.4-19.8.4-29.8,0-59.5-2-88.7-8.1-23.1-4.8-45.9-10.7-68.9-16.2-5-1.2-9.9-2.7-15-1.2-1.7,11,.9,17.4,9.1,21.4a82.7,82.7,0,0,0,14.6,5.5c36,10.2,72.8,16.2,110.2,16.8,19.8.3,39.6-1.3,59.4-1.1,21,.2,41.3-4.3,61.7-7.7,18.6-3.1,36.9-7.7,55.4-11.6,31-6.6,62.2-10.8,94.1-10.8,20.4,0,40.3-4.2,59.8-10.1a29.6,29.6,0,0,0,7.7-3.4C3351.7,1092.61,3351.9,1088.71,3348.3,1082.41Zm-23.3-122c-2.9,1.7-4.8,2.3-6,3.6-6.9,7.3-15.6,12.2-23.8,17.7a85.23,85.23,0,0,0-9.1,6.7c-4.3,3.8-8.1,8.3-9.2,14-3.1,15.7-5.8,31.5-8.5,47.3-.1.7.7,1.6,1.1,2.4.4.3.7.8,1.1.8,22.8,1.7,45.2-2,67.5-5.7,3.6-.6,5.4-3.4,6.4-6.8,2.9-10.2,2.6-20.4,1.4-30.9C3343.7,991.41,3334.4,976.71,3325,960.41Zm-114.7,8.2c-3.3,1.5-6.1,2.4-8.5,3.8-9.7,5.7-16.9,13.6-20.3,24.5-4.4,13.8-2,26.4,8.5,36.5,5.4,5.1,12.3,8.7,18.7,12.5,1.8,1.1,4.6,1.1,6.8.8a130.09,130.09,0,0,0,13.8-2.9,14.16,14.16,0,0,0,6.2-3.2c6.2-6.4,12.7-12.7,16.4-21.1,2.9-6.6,4.8-13.3,3.2-20.6-3.1-15-10.4-26.1-26.7-29-.4-2.6-.7-4.8-1.1-7.3-4.9-2.5-9.8-5-15.6-8C3211.3,959.51,3210.8,963.51,3210.3,968.61Zm60.6-556.4c0-18.4-13.7-32.6-31.8-32.9a33.29,33.29,0,0,0-33.7,32.9c-.2,18.4,14.6,32.7,33.6,32.5C3257.7,444.41,3271,430.91,3270.9,412.21Zm140.6,32.5c18.8-.1,32.3-13.2,32.5-31.9.2-19-14.1-33.7-32.5-33.6a33.29,33.29,0,0,0-32.9,33.7C3378.7,430.91,3393.1,444.81,3411.5,444.71Zm-955.1,1116.1c1.3-.8,2-1,2-1.3.5-15.5.9-31.1,1.3-46.6.1-3.8-.1-7.5-.1-11.3a3.19,3.19,0,0,0-.3-1.4c-.2-.3-.7-.4-1.4-.7-3.6,5.9-6.9,12-10.8,17.6s-8.5,10.8-12.7,16.1c4.4,5,8.3,9.1,11.8,13.5C2449.7,1551.31,2453,1556.21,2456.4,1560.81Zm853.6-1183a12.55,12.55,0,1,0-25.1.5c.1,7,5.6,12.2,12.8,12.1A12.06,12.06,0,0,0,3310,377.81Zm160,12.6c7.3.2,12.8-4.8,13-11.9a12.61,12.61,0,0,0-12-13.1,12.81,12.81,0,0,0-13,12.2A12,12,0,0,0,3470,390.41Zm-133.5,452.2c3.2,2.6,5.6,4.5,8.1,6.6,9.5-15.9,9.9-18,5.4-31.2-2,4.3-3.6,8.1-5.6,11.6C3342.2,833.61,3339.6,837.51,3336.5,842.61Z" transform="translate(-230.36)"/><path class="cls-25" d="M2641.2,1173.21c4.2-.3,5.9-.6,7.6-.5,1.3.1,2.5.7,6,1.8-4.1.3-5.8.7-7.5.6C2646.1,1175,2644.8,1174.31,2641.2,1173.21Z" transform="translate(-230.36)"/><path class="cls-25" d="M3272.3,1413.41c-2.6-.8-4.5-1.1-6-2a180.11,180.11,0,0,1-17.1-9.8c-10.1-6.8-20.9-12.9-24.7-25.9-4.6-16.1-7.1-32.1-1.9-48.5a36.83,36.83,0,0,1,18.2-22.3c17.1-9.3,39.9-6.3,53.6,7.4,7.1,7.1,10.3,15.4,7.8,25.6a121.06,121.06,0,0,1-11.4,28.7c-1.8,3.3-3.6,6.6-5.5,9.9C3275.3,1393.41,3275,1394.21,3272.3,1413.41Z" transform="translate(-230.36)"/><path class="cls-25" d="M3206.3,1599.31c2.2.9,4.5,1.5,6.4,2.8,12.3,8,24.3,16.3,36.7,24.1,11.3,7.2,16.9,17.6,17.8,30.6a226.44,226.44,0,0,1,.2,29.7c-1.1,17.2-7.2,24.1-24,28.8-11.7,3.3-22.4,1.5-32-6.1-4.9-3.9-7-8.8-5.1-15s3.8-12.7,6.2-18.8c5.2-13.6,5.7-27.6,4.8-41.8-.5-8.2-3.4-15.6-7.2-22.8-1.8-3.3-3.5-6.6-5.3-9.9C3205.3,1600.31,3205.8,1599.81,3206.3,1599.31Z" transform="translate(-230.36)"/><path class="cls-25" d="M3204.8,1600.81l-1.5-1.8,3,.3Z" transform="translate(-230.36)"/><polygon class="cls-25" points="2937.94 1574.91 2938.44 1575.31 2938.04 1574.81 2937.94 1574.91"/><path class="cls-25" d="M3408.6,739.51c-3.4-5.8-1.8-10.7.3-15.4,9.8-21.1,40.4-39.2,64.9-31.1,8.9,3,16.3,7.4,21.4,15.2,3.6,5.4,7.5,10.7,9.2,18.4-2.8.4-4.9.8-7,.9a81.75,81.75,0,0,1-9.9,0c-23.4-2.2-45.9,2.5-68.1,9.2C3415.8,737.71,3412.2,738.51,3408.6,739.51Z" transform="translate(-230.36)"/><path class="cls-25" d="M3550.6,932.71c-7.9,3-15.1-.7-22.2-.7-6.8.1-13.7,1-22.2,1.7C3527.2,925.21,3539,925,3550.6,932.71Z" transform="translate(-230.36)"/><path class="cls-25" d="M3489.5,921.41c-9.1,5-9.2,5-13.7,4.3C3481.9,921.91,3481.9,921.91,3489.5,921.41Z" transform="translate(-230.36)"/><path class="cls-25" d="M3563.2,977.91h9c.1.2.1.5.2.7a17.73,17.73,0,0,1-4,.8,47.08,47.08,0,0,1-5.3-.3A4.87,4.87,0,0,0,3563.2,977.91Z" transform="translate(-230.36)"/><path class="cls-25" d="M3136.5,925.41c2.8-3.3,4.7-2.1,7.2-1.6C3141.1,927.51,3139.3,925.41,3136.5,925.41Z" transform="translate(-230.36)"/><path class="cls-25" d="M3172.2,904.71c-4,.7-5.2.9-6.4,1.1a12.75,12.75,0,0,0-.1-1.9C3166.9,904.11,3168.1,904.21,3172.2,904.71Z" transform="translate(-230.36)"/></g></svg>