<svg width="38" height="34" viewBox="0 0 38 34" fill="none" xmlns="http://www.w3.org/2000/svg">
<path d="M37.9107 11.1919C37.8701 11.1053 37.8209 11.0231 37.7637 10.9465C37.7205 10.7343 37.6625 10.5253 37.5903 10.3212C37.5815 10.2976 37.5726 10.2739 37.5609 10.2503L33.5145 0.886957C33.4 0.623222 33.2115 0.398816 32.9721 0.241263C32.7327 0.0837097 32.4528 -0.000139334 32.1666 1.73801e-07H5.70993C5.42382 -0.000139334 5.14388 0.0837097 4.90447 0.241263C4.66505 0.398816 4.47656 0.623222 4.36211 0.886957L0.290715 10.3197C-0.0969051 11.3091 -0.0969051 12.4096 0.290715 13.399C0.665199 14.2599 1.20772 15.0366 1.88611 15.6828C2.56451 16.329 3.36499 16.8318 4.24011 17.1611V32.5217C4.24011 32.9138 4.39497 33.2898 4.67061 33.567C4.94626 33.8443 5.32011 34 5.70993 34H32.1666C32.5565 34 32.9303 33.8443 33.206 33.567C33.4816 33.2898 33.6365 32.9138 33.6365 32.5217V17.1611C34.5114 16.8322 35.3117 16.3299 35.9901 15.6842C36.6685 15.0385 37.2111 14.2624 37.5859 13.4019C37.707 13.0909 37.7875 12.7655 37.8254 12.4337C37.9235 12.2436 37.9816 12.0353 37.9963 11.8217C38.011 11.6081 37.9818 11.3937 37.9107 11.1919ZM14.5288 31.0435V22.1739H17.4685V31.0435H14.5288ZM20.4081 31.0435V22.1739H23.3477V31.0435H20.4081ZM30.6968 31.0435H26.2874V20.6957C26.2874 20.3036 26.1325 19.9276 25.8569 19.6504C25.5812 19.3731 25.2074 19.2174 24.8176 19.2174H13.059C12.6692 19.2174 12.2953 19.3731 12.0197 19.6504C11.7441 19.9276 11.5892 20.3036 11.5892 20.6957V31.0435H7.17975V17.7391C8.2933 17.7532 9.39645 17.5223 10.412 17.0627C11.4275 16.6031 12.331 15.9258 13.059 15.0783C13.7954 15.916 14.7003 16.5868 15.7139 17.0462C16.7275 17.5056 17.8265 17.7432 18.9383 17.7432C20.05 17.7432 21.1491 17.5056 22.1627 17.0462C23.1763 16.5868 24.0812 15.916 24.8176 15.0783C25.5456 15.9258 26.449 16.6031 27.4646 17.0627C28.4801 17.5223 29.5833 17.7532 30.6968 17.7391V31.0435ZM34.8667 12.2696C34.4907 13.0515 33.8958 13.706 33.155 14.1525C32.4141 14.5989 31.5598 14.818 30.6968 14.7826C29.6271 14.8701 28.5658 14.532 27.7413 13.8409C26.9168 13.1499 26.3947 12.161 26.2874 11.087C26.2874 10.6949 26.1325 10.3189 25.8569 10.0417C25.5812 9.76444 25.2074 9.6087 24.8176 9.6087C24.4277 9.6087 24.0539 9.76444 23.7782 10.0417C23.5026 10.3189 23.3477 10.6949 23.3477 11.087C23.2404 12.161 22.7184 13.1499 21.8938 13.8409C21.0693 14.532 20.0081 14.8701 18.9383 14.7826C17.8685 14.8701 16.8073 14.532 15.9828 13.8409C15.1582 13.1499 14.6362 12.161 14.5288 11.087C14.5288 10.6949 14.374 10.3189 14.0983 10.0417C13.8227 9.76444 13.4488 9.6087 13.059 9.6087C12.6692 9.6087 12.2953 9.76444 12.0197 10.0417C11.7441 10.3189 11.5892 10.6949 11.5892 11.087C11.4819 12.161 10.9598 13.1499 10.1353 13.8409C9.31074 14.532 8.24953 14.8701 7.17975 14.7826C6.31661 14.8181 5.46199 14.5991 4.72092 14.1526C3.97985 13.7062 3.38462 13.0517 3.00841 12.2696C2.90991 11.9969 2.90991 11.6981 3.00841 11.4255L6.67413 2.95652H31.2024L34.8432 11.3826C34.9569 11.6658 34.9653 11.9807 34.8667 12.2696Z" fill="white"/>
</svg>
