<svg width="37" height="34" viewBox="0 0 37 34" fill="none" xmlns="http://www.w3.org/2000/svg">
<path d="M35.2143 34H1.21429C0.892237 34 0.583379 33.8721 0.355656 33.6443C0.127933 33.4166 0 33.1078 0 32.7857V1.21429C0 0.892237 0.127933 0.583379 0.355656 0.355656C0.583379 0.127933 0.892237 0 1.21429 0H35.2143C35.5363 0 35.8452 0.127933 36.0729 0.355656C36.3006 0.583379 36.4286 0.892237 36.4286 1.21429V32.7857C36.4286 33.1078 36.3006 33.4166 36.0729 33.6443C35.8452 33.8721 35.5363 34 35.2143 34ZM2.42857 31.5714H34V2.42857H2.42857V31.5714Z" fill="white"/>
<path d="M13.3571 25.5C13.1485 25.4994 12.9436 25.445 12.7621 25.3422C12.5745 25.2367 12.4184 25.0834 12.3095 24.8977C12.2007 24.7121 12.1432 24.5009 12.1428 24.2857V9.71432C12.1429 9.49999 12.1996 9.28949 12.3073 9.10421C12.4151 8.91892 12.5699 8.76545 12.7562 8.65938C12.9424 8.55331 13.1534 8.49842 13.3677 8.50029C13.582 8.50216 13.792 8.56073 13.9764 8.67003L26.1193 15.9557C26.3005 16.0633 26.4506 16.2161 26.5548 16.3992C26.6591 16.5823 26.7139 16.7893 26.7139 17C26.7139 17.2107 26.6591 17.4178 26.5548 17.6009C26.4506 17.784 26.3005 17.9368 26.1193 18.0443L13.9764 25.33C13.789 25.4412 13.5751 25.5 13.3571 25.5ZM14.5714 11.8636V22.1365L23.1442 17L14.5714 11.8636Z" fill="white"/>
</svg>
