<svg width="39" height="34" viewBox="0 0 39 34" fill="none" xmlns="http://www.w3.org/2000/svg">
<path d="M29.2536 29.6056C29.2536 30.6943 29.2536 31.7043 29.2536 32.7143C29.2536 33.4883 28.7663 33.9998 27.9892 33.9998C26.3955 34.013 24.7886 34.013 23.1949 33.9998C22.4309 33.9998 21.9436 33.5014 21.9436 32.7406C21.9436 31.2714 21.9436 29.8154 21.9436 28.3463C21.9436 28.2282 21.9436 28.1102 21.9436 27.9659C20.7187 27.9659 19.5201 27.9659 18.2688 27.9659C18.2688 28.0839 18.2688 28.202 18.2688 28.3069C18.2688 29.7761 18.2688 31.2583 18.2688 32.7275C18.2688 33.4752 17.7815 33.9867 17.0176 33.9867C15.4238 33.9998 13.817 33.9998 12.2232 33.9867C11.4461 33.9867 10.9588 33.4883 10.9588 32.7012C10.9588 31.0222 10.9588 29.3432 10.9588 27.6642C10.9588 27.4674 10.8929 27.3494 10.7349 27.2444C10.2212 26.9427 9.69436 26.641 9.20703 26.2869C8.03479 25.4474 7.33671 24.2668 6.83621 22.942C6.20399 21.2761 5.90105 19.5446 5.70348 17.7869C5.40054 15.0323 5.38737 12.2776 5.32152 9.52299C5.32152 9.43117 5.30835 9.32623 5.30835 9.26064C4.5971 9.15571 3.89902 9.10324 3.22729 8.93271C1.84431 8.60478 0.790615 7.83086 0.237424 6.47978C-0.34211 5.06311 0.145225 3.50216 1.46235 2.42654C3.01655 1.1804 4.82101 0.4983 6.75718 0.104781C9.20703 -0.406793 11.9335 1.06234 12.7501 3.41034C12.974 4.05308 13.0267 4.77453 13.053 5.46975C13.1189 7.13564 13.0925 8.81466 13.1321 10.4806C13.1716 11.9759 13.2769 13.4582 13.6326 14.9273C13.896 16.0029 14.2911 16.2784 15.5687 16.1472C16.4644 16.0554 17.36 15.898 18.2688 15.7799C19.7967 15.5832 21.3246 15.5963 22.8524 15.8062C24.4198 16.016 25.9345 16.4096 27.4228 16.9211C29.0166 17.4721 30.2283 18.4821 31.1371 19.8594C31.8879 21.0006 32.5728 22.1812 33.2577 23.3486C34.1797 24.8833 35.0885 26.4312 36.3661 27.7167C36.9851 28.3332 37.67 28.9103 38.3681 29.4613C38.8291 29.8285 39.053 30.2352 38.9608 30.8123C38.8818 31.3239 38.513 31.5863 38.0652 31.7568C36.7349 32.2684 35.3783 32.2946 33.9953 32.0191C32.283 31.6781 30.8078 30.8648 29.4512 29.8023C29.4117 29.7367 29.359 29.6974 29.2536 29.6056ZM15.8322 31.56C15.8322 31.442 15.8322 31.3633 15.8322 31.2714C15.8322 29.763 15.8322 28.2545 15.8322 26.746C15.8322 26.077 16.28 25.5785 16.9517 25.5261C17.4259 25.4867 17.8869 25.4998 18.361 25.4998C19.8889 25.4998 21.4299 25.4998 22.9578 25.4998C23.9061 25.4998 24.3671 25.9721 24.3671 26.9165C24.3671 28.3463 24.3671 29.7761 24.3671 31.2059C24.3671 31.3239 24.3671 31.4289 24.3671 31.5469C25.2101 31.5469 25.9872 31.5469 26.8038 31.5469C26.8038 31.4157 26.8038 31.2977 26.8038 31.1796C26.8038 29.7236 26.8038 28.2807 26.8038 26.8247C26.8038 26.6804 26.8038 26.5361 26.8433 26.4049C27.1067 25.4605 28.2263 25.2113 28.9375 25.9065C29.6883 26.641 30.4259 27.3887 31.2293 28.0577C32.2698 28.8972 33.4553 29.4744 34.8646 29.6711C34.5485 29.3301 34.2719 29.0415 34.0084 28.7398C32.7967 27.3494 31.8747 25.7622 30.9264 24.1881C30.2415 23.0469 29.5434 21.9188 28.7926 20.817C28.3712 20.1873 27.7916 19.6889 27.0672 19.4003C24.0378 18.2066 20.9162 17.7475 17.6761 18.3116C16.6093 18.4952 15.5424 18.7182 14.4492 18.5477C13.5667 18.4165 12.7106 18.141 12.1574 17.4065C11.8018 16.9343 11.5252 16.3833 11.3539 15.8193C10.8271 14.1403 10.7349 12.3957 10.6822 10.6511C10.6427 9.05077 10.6295 7.43734 10.6032 5.83703C10.59 5.36481 10.6032 4.89259 10.4978 4.43348C10.2344 3.23981 8.73286 2.25602 7.45526 2.45278C6.0591 2.66265 4.70247 3.13487 3.50389 3.94815C3.14826 4.18426 2.8585 4.52531 2.56873 4.85324C2.37116 5.06311 2.38433 5.32546 2.50287 5.58781C2.68727 6.02068 3.02972 6.29614 3.46437 6.47978C4.36002 6.83395 5.30835 6.89953 6.2435 6.76836C7.15232 6.65031 7.77136 7.34552 7.77136 8.08009C7.79771 11.4512 7.77136 14.8224 8.20601 18.1804C8.39041 19.5839 8.65384 20.9744 9.19386 22.2992C9.62851 23.3486 10.2476 24.2143 11.2881 24.7653C11.7886 25.0276 12.2628 25.3556 12.7501 25.6441C13.1979 25.9196 13.4086 26.3131 13.4086 26.8378C13.3955 28.2938 13.4086 29.7367 13.4086 31.1927C13.4086 31.3108 13.4086 31.4289 13.4086 31.56C14.2121 31.56 15.0024 31.56 15.8322 31.56Z" fill="white"/>
</svg>
