<svg width="29" height="38" viewBox="0 0 29 38" fill="none" xmlns="http://www.w3.org/2000/svg">
<path fill-rule="evenodd" clip-rule="evenodd" d="M6.63643 10.4812C4.36787 14.6517 3 19.6366 3 22.9231C3 29.2953 8.18676 34.5 14.5 34.5C20.8132 34.5 26 29.2953 26 22.9231C26 19.6366 24.6321 14.6517 22.3636 10.4812C21.2365 8.4092 19.9316 6.62239 18.5438 5.37235C17.152 4.11874 15.7882 3.5 14.5 3.5C13.2118 3.5 11.848 4.11874 10.4562 5.37235C9.06843 6.62239 7.76348 8.4092 6.63643 10.4812ZM8.44845 3.14327C10.1645 1.5976 12.2132 0.5 14.5 0.5C16.7868 0.5 18.8355 1.5976 20.5515 3.14327C22.2715 4.69252 23.7697 6.78791 24.9989 9.04767C27.4429 13.5406 29 19.0172 29 22.9231C29 30.9355 22.4868 37.5 14.5 37.5C6.51324 37.5 0 30.9355 0 22.9231C0 19.0172 1.55713 13.5406 4.00107 9.04767C5.23027 6.78791 6.72845 4.69252 8.44845 3.14327Z" fill="white"/>
</svg>
