<svg width="79" height="24" viewBox="0 0 79 24" fill="none" xmlns="http://www.w3.org/2000/svg">
<path d="M70.5194 1.75262L70.5046 1.74914L70.4897 1.74596C69.7844 1.59544 69.0545 1.5 68.2749 1.5H10.2327C5.64064 1.5 1.5 4.72955 1.5 9.2012V14.5661C1.5 19.0378 5.64064 22.2673 10.2327 22.2673H68.2749C72.8669 22.2673 77.0075 19.0378 77.0075 14.5661V9.2012C77.0075 7.01094 75.9976 5.06568 74.3615 3.66897C73.3004 2.76306 71.991 2.0981 70.5194 1.75262Z" fill="#6FCD93" stroke="#3A3A3A" stroke-width="3"/>
<g opacity="0.19">
<path opacity="0.19" d="M67.9693 14.7986H10.2327C6.24223 14.7986 3 12.0307 3 8.59741L3 14.7986C3 18.2319 6.24223 20.9998 10.2327 20.9998H67.9693C71.9598 20.9998 75.3383 18.2319 75.3383 14.7986V8.59741C75.3383 12.0307 71.9598 14.7986 67.9693 14.7986Z" fill="#5C647B"/>
</g>
<g opacity="0.42">
<path opacity="0.42" d="M68.2673 18.4251H10.2327C6.24223 18.4251 3 15.6572 3 12.2239V14.566C3 17.9992 6.24223 20.7672 10.2327 20.7672H68.2673C72.2578 20.7672 75.5 17.9992 75.5 14.566V12.2239C75.5 15.6572 72.2578 18.4251 68.2673 18.4251Z" fill="#5C647B"/>
</g>
<g opacity="0.3">
<path opacity="0.49" d="M42.3699 3L22.5738 20.7673H9.34546L28.1656 3H42.3699Z" fill="white"/>
</g>
<g opacity="0.3">
<path opacity="0.49" d="M64.1113 3.00999L46.6927 20.7673H30L50.6403 3L62.7687 3.00014C63.2943 3.00014 62.7687 3 64.1113 3.00999Z" fill="white"/>
</g>
<path d="M21.2246 7.76172L20.8965 10.2344C20.7832 10.2031 20.6699 10.1816 20.5566 10.1699C20.4434 10.1582 20.3301 10.1523 20.2168 10.1523C19.9277 10.1523 19.6523 10.1914 19.3906 10.2695C19.1289 10.3438 18.8965 10.459 18.6934 10.6152C18.4941 10.7715 18.334 10.9668 18.2129 11.2012C18.0957 11.4355 18.0371 11.7109 18.0371 12.0273C18.0371 12.2305 18.0684 12.4062 18.1309 12.5547C18.1973 12.7031 18.2891 12.8262 18.4062 12.9238C18.5234 13.0215 18.6621 13.0938 18.8223 13.1406C18.9824 13.1875 19.1582 13.2109 19.3496 13.2109C19.4941 13.2109 19.6445 13.1953 19.8008 13.1641C19.957 13.1328 20.1113 13.0918 20.2637 13.041C20.416 12.9902 20.5645 12.9316 20.709 12.8652C20.8535 12.7988 20.9863 12.7305 21.1074 12.6602L20.873 15.4141C20.7207 15.4922 20.5547 15.5625 20.375 15.625C20.1992 15.6836 20.0176 15.7363 19.8301 15.7832C19.6426 15.8262 19.4551 15.8594 19.2676 15.8828C19.0801 15.9062 18.9004 15.918 18.7285 15.918C18.2324 15.918 17.7695 15.8262 17.3398 15.6426C16.9102 15.459 16.5371 15.207 16.2207 14.8867C15.9043 14.5664 15.6543 14.1895 15.4707 13.7559C15.291 13.3184 15.2012 12.8477 15.2012 12.3438C15.2012 11.6758 15.2969 11.0469 15.4883 10.457C15.6797 9.86328 15.9609 9.34375 16.332 8.89844C16.7031 8.45312 17.1621 8.10156 17.709 7.84375C18.2598 7.58594 18.8926 7.45703 19.6074 7.45703C19.877 7.45703 20.1523 7.47852 20.4336 7.52148C20.7188 7.56445 20.9824 7.64453 21.2246 7.76172ZM28.7656 11.8633C28.7656 12.2188 28.7246 12.5625 28.6426 12.8945C28.5605 13.2227 28.4414 13.5312 28.2852 13.8203C28.1328 14.1094 27.9453 14.375 27.7227 14.6172C27.5039 14.8555 27.2559 15.0605 26.9785 15.2324C26.7051 15.4043 26.4062 15.5391 26.082 15.6367C25.7578 15.7305 25.4141 15.7773 25.0508 15.7773C24.6992 15.7773 24.3633 15.7324 24.043 15.6426C23.7266 15.5527 23.4297 15.4277 23.1523 15.2676C22.875 15.1035 22.623 14.9082 22.3965 14.6816C22.1738 14.4512 21.9824 14.1973 21.8223 13.9199C21.666 13.6387 21.543 13.3379 21.4531 13.0176C21.3672 12.6973 21.3242 12.3633 21.3242 12.0156C21.3242 11.6758 21.3652 11.3438 21.4473 11.0195C21.5293 10.6914 21.6465 10.3828 21.7988 10.0938C21.9551 9.80469 22.1426 9.53906 22.3613 9.29688C22.5801 9.05469 22.8242 8.8457 23.0938 8.66992C23.3672 8.49414 23.6621 8.35742 23.9785 8.25977C24.2949 8.16211 24.6289 8.11328 24.9805 8.11328C25.5469 8.11328 26.0625 8.20117 26.5273 8.37695C26.9961 8.55273 27.3945 8.80469 27.7227 9.13281C28.0547 9.45703 28.3105 9.85156 28.4902 10.3164C28.6738 10.7773 28.7656 11.293 28.7656 11.8633ZM26.1641 12.0156C26.1641 11.8477 26.1387 11.6855 26.0879 11.5293C26.041 11.3691 25.9707 11.2285 25.877 11.1074C25.7832 10.9824 25.666 10.8828 25.5254 10.8086C25.3887 10.7305 25.2305 10.6914 25.0508 10.6914C24.8672 10.6914 24.7031 10.7246 24.5586 10.791C24.4141 10.8574 24.2891 10.9492 24.1836 11.0664C24.082 11.1797 24.0039 11.3145 23.9492 11.4707C23.8945 11.623 23.8672 11.7852 23.8672 11.957C23.8672 12.1211 23.8906 12.2852 23.9375 12.4492C23.9844 12.6133 24.0547 12.7617 24.1484 12.8945C24.2422 13.0273 24.3574 13.1348 24.4941 13.2168C24.6348 13.2988 24.7969 13.3398 24.9805 13.3398C25.1641 13.3398 25.3281 13.3047 25.4727 13.2344C25.6211 13.1602 25.7461 13.0625 25.8477 12.9414C25.9492 12.8164 26.0273 12.6738 26.082 12.5137C26.1367 12.3535 26.1641 12.1875 26.1641 12.0156ZM38.2344 7.45703L37.6953 16.0586L35.0234 16.1758L35.0469 11.6406L33.8398 15.2969H32.8086L31.8828 12.0273L31.8711 15.8242L29.1641 15.9062L29.2812 7.80859L32.293 7.69141L33.4883 11.5703L35.082 7.45703H38.2344ZM47.7266 7.45703L47.1875 16.0586L44.5156 16.1758L44.5391 11.6406L43.332 15.2969H42.3008L41.375 12.0273L41.3633 15.8242L38.6562 15.9062L38.7734 7.80859L41.7852 7.69141L42.9805 11.5703L44.5742 7.45703H47.7266ZM55.3203 11.8633C55.3203 12.2188 55.2793 12.5625 55.1973 12.8945C55.1152 13.2227 54.9961 13.5312 54.8398 13.8203C54.6875 14.1094 54.5 14.375 54.2773 14.6172C54.0586 14.8555 53.8105 15.0605 53.5332 15.2324C53.2598 15.4043 52.9609 15.5391 52.6367 15.6367C52.3125 15.7305 51.9688 15.7773 51.6055 15.7773C51.2539 15.7773 50.918 15.7324 50.5977 15.6426C50.2812 15.5527 49.9844 15.4277 49.707 15.2676C49.4297 15.1035 49.1777 14.9082 48.9512 14.6816C48.7285 14.4512 48.5371 14.1973 48.377 13.9199C48.2207 13.6387 48.0977 13.3379 48.0078 13.0176C47.9219 12.6973 47.8789 12.3633 47.8789 12.0156C47.8789 11.6758 47.9199 11.3438 48.002 11.0195C48.084 10.6914 48.2012 10.3828 48.3535 10.0938C48.5098 9.80469 48.6973 9.53906 48.916 9.29688C49.1348 9.05469 49.3789 8.8457 49.6484 8.66992C49.9219 8.49414 50.2168 8.35742 50.5332 8.25977C50.8496 8.16211 51.1836 8.11328 51.5352 8.11328C52.1016 8.11328 52.6172 8.20117 53.082 8.37695C53.5508 8.55273 53.9492 8.80469 54.2773 9.13281C54.6094 9.45703 54.8652 9.85156 55.0449 10.3164C55.2285 10.7773 55.3203 11.293 55.3203 11.8633ZM52.7188 12.0156C52.7188 11.8477 52.6934 11.6855 52.6426 11.5293C52.5957 11.3691 52.5254 11.2285 52.4316 11.1074C52.3379 10.9824 52.2207 10.8828 52.0801 10.8086C51.9434 10.7305 51.7852 10.6914 51.6055 10.6914C51.4219 10.6914 51.2578 10.7246 51.1133 10.791C50.9688 10.8574 50.8438 10.9492 50.7383 11.0664C50.6367 11.1797 50.5586 11.3145 50.5039 11.4707C50.4492 11.623 50.4219 11.7852 50.4219 11.957C50.4219 12.1211 50.4453 12.2852 50.4922 12.4492C50.5391 12.6133 50.6094 12.7617 50.7031 12.8945C50.7969 13.0273 50.9121 13.1348 51.0488 13.2168C51.1895 13.2988 51.3516 13.3398 51.5352 13.3398C51.7188 13.3398 51.8828 13.3047 52.0273 13.2344C52.1758 13.1602 52.3008 13.0625 52.4023 12.9414C52.5039 12.8164 52.582 12.6738 52.6367 12.5137C52.6914 12.3535 52.7188 12.1875 52.7188 12.0156ZM63.6992 7.59766L63.2773 15.543L60.207 15.8242L58.5664 11.5703L58.3086 15.9062H55.6719L55.8828 7.59766L58.8125 7.45703L60.8398 11.6758L60.9336 7.69141L63.6992 7.59766Z" fill="white"/>
</svg>
