<svg width="12" height="12" viewBox="0 0 12 12" fill="none" xmlns="http://www.w3.org/2000/svg">
<path d="M9.42749 12C9.35367 12.0003 9.28091 11.9815 9.21562 11.9455L6.00002 10.1743L2.78382 11.9455C2.70886 11.9865 2.62444 12.0049 2.54008 11.9984C2.45571 11.9919 2.37476 11.9608 2.30634 11.9087C2.23793 11.8566 2.18477 11.7855 2.15287 11.7034C2.12098 11.6214 2.1116 11.5316 2.1258 11.4443L2.74023 7.69322L0.137243 5.03655C0.07654 4.97463 0.0335939 4.89615 0.0132626 4.80999C-0.00706865 4.72383 -0.00397364 4.63343 0.0221975 4.54901C0.0483687 4.4646 0.0965716 4.38954 0.161353 4.33233C0.226134 4.27512 0.304908 4.23804 0.388764 4.22529L3.98482 3.6781L5.59292 0.265014C5.63042 0.185462 5.68842 0.118484 5.76036 0.0716515C5.8323 0.0248191 5.91532 0 6.00002 0C6.08472 0 6.16774 0.0248191 6.23968 0.0716515C6.31162 0.118484 6.36962 0.185462 6.40712 0.265014L8.01522 3.6781L11.611 4.22529C11.6949 4.23799 11.7737 4.27504 11.8385 4.33223C11.9033 4.38942 11.9515 4.46447 11.9778 4.54889C12.004 4.63331 12.0071 4.72373 11.9868 4.80992C11.9664 4.8961 11.9235 4.97461 11.8628 5.03655L9.25981 7.69322L9.87424 11.4443C9.88538 11.5125 9.88217 11.5824 9.86483 11.6492C9.84749 11.716 9.81643 11.7781 9.77383 11.831C9.73123 11.8839 9.67811 11.9265 9.61819 11.9556C9.55826 11.9848 9.49297 12 9.42688 12H9.42749ZM1.42966 5.02799L3.54383 7.18661C3.5964 7.24029 3.63576 7.30652 3.65853 7.37962C3.68131 7.45273 3.68681 7.53053 3.67458 7.60635L3.17547 10.6542L5.78815 9.2162C5.85346 9.18011 5.92618 9.16125 6.00002 9.16125C6.07386 9.16125 6.14658 9.18011 6.21189 9.2162L8.82517 10.6552L8.32546 7.60635C8.31303 7.53041 8.31842 7.45244 8.34114 7.37915C8.36387 7.30587 8.40325 7.23947 8.45591 7.18566L10.5704 5.02799L7.64868 4.58416C7.57587 4.57307 7.50673 4.54361 7.44721 4.49833C7.38768 4.45304 7.33955 4.39329 7.30696 4.3242L6.00002 1.55118L4.69338 4.3242C4.66077 4.39333 4.61259 4.45311 4.55301 4.4984C4.49342 4.54368 4.42422 4.57312 4.35136 4.58416L1.42966 5.02799Z" fill="white"/>
</svg>
