<svg width="12" height="12" viewBox="0 0 12 12" fill="none" xmlns="http://www.w3.org/2000/svg">
<path d="M9.4517 12H2.52869C2.14354 11.9999 1.76349 11.9118 1.41753 11.7426C1.07158 11.5733 0.768857 11.3272 0.532457 11.0231C0.296057 10.7191 0.132225 10.365 0.0534565 9.988C-0.0253116 9.61099 -0.0169348 9.22097 0.077948 8.84768L1.48101 3.12005C1.50628 3.01764 1.56586 2.92699 1.64984 2.86316C1.73381 2.79934 1.83711 2.76621 1.94254 2.76928H9.67324C9.77504 2.76462 9.87553 2.79379 9.95902 2.85223C10.0425 2.91067 10.1043 2.9951 10.1348 3.09236L11.8794 8.70461C11.9986 9.08579 12.0261 9.48978 11.9595 9.8836C11.893 10.2774 11.7342 10.6499 11.4963 10.9707C11.2623 11.2929 10.9546 11.5544 10.5989 11.7334C10.2432 11.9125 9.84988 12.0039 9.4517 12ZM2.2887 3.69235L0.954862 9.06922C0.895465 9.30645 0.890705 9.55407 0.940942 9.7934C0.991178 10.0327 1.0951 10.2575 1.24487 10.4509C1.39464 10.6442 1.58635 10.801 1.80554 10.9094C2.02473 11.0179 2.26569 11.0751 2.51023 11.0769H9.43324C9.68441 11.0773 9.9321 11.0181 10.156 10.9042C10.3798 10.7902 10.5734 10.6248 10.7209 10.4215C10.8727 10.217 10.9739 9.97959 11.0164 9.72854C11.0589 9.47749 11.0415 9.21994 10.9655 8.97691L9.34093 3.69235H2.2887Z" fill="white"/>
<path d="M7.82714 6.46147C7.70474 6.46147 7.58735 6.41285 7.50079 6.32629C7.41424 6.23974 7.36561 6.12235 7.36561 5.99994V2.30767C7.36561 1.94045 7.21973 1.58827 6.96007 1.32861C6.70041 1.06894 6.34823 0.923068 5.98101 0.923068C5.61379 0.923068 5.26161 1.06894 5.00195 1.32861C4.74228 1.58827 4.59641 1.94045 4.59641 2.30767V5.99994C4.59641 6.12235 4.54778 6.23974 4.46123 6.32629C4.37467 6.41285 4.25728 6.46147 4.13487 6.46147C4.01247 6.46147 3.89507 6.41285 3.80852 6.32629C3.72197 6.23974 3.67334 6.12235 3.67334 5.99994V2.30767C3.67334 1.69564 3.91647 1.10867 4.34924 0.675901C4.78201 0.243129 5.36898 0 5.98101 0C6.59304 0 7.18001 0.243129 7.61278 0.675901C8.04555 1.10867 8.28868 1.69564 8.28868 2.30767V5.99994C8.28868 6.12235 8.24005 6.23974 8.1535 6.32629C8.06694 6.41285 7.94955 6.46147 7.82714 6.46147Z" fill="white"/>
</svg>
