<svg width="31" height="31" viewBox="0 0 31 31" fill="none" xmlns="http://www.w3.org/2000/svg">
<path d="M16.916 0.948475L20.471 8.68323C20.6255 9.14732 21.0892 9.45671 21.5529 9.6114L29.5901 10.849C30.9812 10.849 31.4449 12.3959 30.5175 13.3241L24.6441 19.3572C24.335 19.6666 24.1805 20.2854 24.1805 20.7495L25.5715 29.103C25.7261 30.3406 24.4896 31.4234 23.4076 30.8046L16.1432 26.7826C15.6795 26.4732 15.2158 26.4732 14.7521 26.7826L7.4877 30.8046C6.40576 31.4234 5.0147 30.4953 5.32382 29.103L6.71489 20.7495C6.86945 20.2854 6.56032 19.6666 6.2512 19.3572L0.37782 13.3241C-0.394993 12.3959 0.0686944 10.849 1.3052 10.6943L9.34245 9.45671C9.80614 9.45671 10.2698 8.99262 10.4244 8.52854L13.9793 0.79378C14.7521 -0.289086 16.2978 -0.289086 16.916 0.948475Z" fill="#FFE600"/>
</svg>
