<svg width="48" height="48" viewBox="0 0 48 48" fill="none" xmlns="http://www.w3.org/2000/svg">
<path d="M26.1925 1.46861L31.697 13.445C31.9363 14.1636 32.6543 14.6426 33.3722 14.8822L45.817 16.7984C47.9709 16.7984 48.6889 19.1937 47.2529 20.6308L38.1587 29.9724C37.68 30.4515 37.4407 31.4096 37.4407 32.1282L39.5946 45.0627C39.8339 46.9789 37.9194 48.6556 36.2441 47.6975L24.9959 41.4698C24.278 40.9907 23.56 40.9907 22.842 41.4698L11.5939 47.6975C9.9186 48.6556 7.76469 47.2185 8.24334 45.0627L10.3972 32.1282C10.6366 31.4096 10.1579 30.4515 9.67927 29.9724L0.585011 20.6308C-0.611602 19.1937 0.106366 16.7984 2.02095 16.5589L14.4657 14.6426C15.1837 14.6426 15.9017 13.9241 16.141 13.2055L21.6454 1.22908C22.842 -0.447617 25.2352 -0.447617 26.1925 1.46861Z" fill="#E7B628"/>
</svg>
