<svg width="24" height="24" viewBox="0 0 24 24" fill="none" xmlns="http://www.w3.org/2000/svg">
<path d="M12 0C5.3725 0 0 5.3725 0 12C0 18.6275 5.3725 24 12 24C18.627 24 24 18.6275 24 12C24 5.3725 18.627 0 12 0ZM15.5175 12.0085L14.9445 12.582L14.9405 12.578L9.5415 17.9775L9.5405 17.9765L9.5395 17.978L8.482 16.9215L13.4055 11.998L8.486 7.0785L9.0125 6.5525L9.01 6.55L9.5385 6.0215L9.541 6.024L9.5435 6.0215L15.2645 11.7425L15.2615 11.745L15.5175 12.001L15.5145 12.0045L15.5175 12.0085Z" fill="#F98316"/>
</svg>
