<svg width="55" height="54" viewBox="0 0 55 54" fill="none" xmlns="http://www.w3.org/2000/svg">
<path d="M27.4031 50.7392C40.8972 50.737 51.8796 39.9738 51.8796 26.6196C51.8796 13.2641 40.895 2.5 27.399 2.5C13.9614 2.5 2.52539 13.2073 2.52539 26.6196C2.52539 40.0606 13.9576 50.7744 27.4031 50.7392Z" fill="#1E601F" stroke="black" stroke-width="5"/>
<path d="M48.8227 26.6195C48.8227 38.3246 39.0936 47.7749 27.1042 47.7749C15.1148 47.7749 5.38574 38.2914 5.38574 26.6195C5.4185 14.9476 15.1476 5.46411 27.137 5.46411C39.1264 5.46411 48.8227 14.9476 48.8227 26.6195Z" fill="url(#paint0_radial_116_227)"/>
<path d="M48.8227 26.6195C48.8227 38.3246 39.0936 47.7749 27.1042 47.7749C15.1148 47.7749 5.38574 38.2914 5.38574 26.6195C5.4185 14.9476 15.1476 5.46411 27.137 5.46411C39.1264 5.46411 48.8227 14.9476 48.8227 26.6195Z" fill="url(#paint1_radial_116_227)"/>
<path d="M32.673 6.1604C32.5419 6.35935 32.3781 6.49199 32.1161 6.59147C31.1989 6.92306 29.7575 6.39251 29.1351 7.38728C28.4472 8.51468 29.692 9.40997 30.5765 9.84104C31.5264 10.3053 32.5092 10.6037 33.5574 10.4711C34.4419 10.3716 35.3263 10.1063 36.2108 10.1395C38.2418 10.2721 40.109 11.7974 41.4521 13.2564C49.6743 22.143 46.5295 37.1308 36.5711 43.2321C30.9368 46.6806 24.1887 47.5096 18.0957 45.8185C20.8474 47.0453 23.8938 47.7417 27.1369 47.7417C39.1263 47.7417 48.8554 38.2582 48.8554 26.5863C48.8226 16.8044 41.9762 8.54784 32.673 6.1604Z" fill="url(#paint2_radial_116_227)"/>
<path d="M47.0203 26.9845C46.9221 25.5586 46.4307 24.166 46.0048 22.8064C45.1204 20.0874 44.5307 17.1694 42.8601 14.782C42.729 14.583 42.598 14.4172 42.4342 14.2183C42.4342 14.152 42.467 14.1188 42.4342 14.0525C42.2377 13.5219 42.0084 13.0909 41.5498 12.7924C40.8618 12.3614 40.3377 11.7977 39.7808 11.234C39.1584 10.604 38.4378 10.3718 37.6516 10.1729C37.4223 10.0403 37.1602 9.87446 36.9309 9.74183C36.9637 9.64235 36.9309 9.54287 36.7671 9.57603C36.7016 9.57603 36.6688 9.60919 36.6033 9.60919C36.2757 9.4434 35.9482 9.37708 35.424 9.34392C34.9982 9.31076 34.5068 9.31076 34.0154 9.34392C34.5396 9.14497 34.9654 8.78022 35.5223 8.58126C35.6861 8.51495 35.8171 8.48179 35.9809 8.48179C36.6688 8.51495 37.3568 8.54811 37.9464 8.84654C38.0774 8.91285 38.1757 8.84654 38.274 8.78022C38.7326 9.01233 39.1584 9.34392 39.6826 9.50971C39.8464 9.57603 40.0429 9.24444 39.8464 9.17812C39.224 8.87969 38.6998 8.38231 38.0447 8.1502C37.8154 8.05072 37.5533 8.01756 37.324 7.9844C36.6688 7.85177 35.9809 7.91809 35.3258 7.9844C34.8016 7.95124 34.3103 7.88493 33.7534 7.91809C33.393 7.95124 33.0655 8.05072 32.7706 8.18336C32.6396 8.24968 32.5086 8.31599 32.4103 8.38231C32.5741 8.08388 32.7706 7.75229 32.9344 7.45386C33.1637 7.15543 33.5241 6.69121 33.4586 6.32646C33.393 5.99487 32.9672 6.22698 32.9344 6.45909C32.8689 7.05595 32.2138 7.12227 32.05 7.65281C31.9845 7.88493 31.9845 8.08388 31.9845 8.31599C31.9189 8.44863 31.8534 8.54811 31.8207 8.68074C31.5586 7.75229 31.1983 6.32646 31.0345 6.1275C30.7397 5.76276 30.019 5.1659 29.5276 5.43117C29.2328 5.36485 29.0035 5.86223 29.3311 5.96171C29.5604 6.02803 29.6914 6.35962 29.8224 6.55857C30.0517 6.857 30.3138 7.15543 30.5759 7.45386C30.7069 7.5865 30.8052 7.71913 30.8707 7.88493C30.8707 7.9844 30.9034 8.08388 30.969 8.1502C31.0017 8.21652 31.0017 8.28283 31.0345 8.34915C30.969 8.28283 30.8707 8.21652 30.8052 8.1502C30.3466 7.81861 29.8224 7.5865 29.3311 7.32123C28.8725 7.08911 28.5121 6.69121 28.0863 6.39278C27.6604 6.1275 27.169 6.22698 26.7104 6.26014C25.5639 6.39278 24.4501 6.09435 23.2709 6.22698C22.6157 6.2933 21.9933 6.19382 21.3381 6.2933C20.7157 6.39278 20.0278 6.65805 19.4382 6.92332C19.3727 6.95648 19.3399 7.0228 19.3399 7.08911C19.0778 7.15543 18.8158 7.22175 18.5537 7.28807C18.7175 7.22175 18.8813 7.12227 19.0451 7.05595C19.3399 6.95648 19.602 6.857 19.8968 6.72437C19.9951 6.69121 19.9951 6.52541 19.864 6.55857C19.7002 6.62489 19.5365 6.69121 19.3399 6.72437C19.0123 6.79068 18.7175 6.89016 18.3899 7.0228C18.0951 7.12227 17.8003 7.18859 17.6365 7.4207C17.5382 7.48702 17.4727 7.52018 17.3744 7.5865C17.3417 7.61966 17.3089 7.68597 17.3744 7.68597C17.4072 7.68597 17.44 7.65281 17.4727 7.65281C17.4727 7.68597 17.5055 7.71913 17.5382 7.68597C18.521 7.35438 19.602 7.35438 20.552 6.95648C20.5847 6.92332 20.6175 6.89016 20.6175 6.857C20.683 6.82384 20.7485 6.82384 20.814 6.82384C21.4364 6.69121 22.0916 6.95648 22.714 6.89016C23.795 6.79068 24.8105 6.92332 25.8915 6.92332C26.4811 6.92332 27.038 6.79068 27.5949 6.98964C27.988 7.15543 28.4466 7.65281 28.8397 7.91809C29.3638 8.24968 29.888 8.41547 30.3466 8.81338C30.1173 8.81338 29.8552 8.81338 29.6586 8.78022C29.2983 8.78022 28.9707 8.74706 28.6104 8.74706C28.3156 8.51495 27.988 8.41547 27.6277 8.34915C27.5949 8.34915 27.5621 8.31599 27.5294 8.31599C27.3656 8.28283 27.2018 8.28283 27.0053 8.24968C26.9725 8.24968 26.9397 8.24968 26.907 8.24968C26.4484 8.11704 26.0225 7.85177 25.5312 7.81861C25.007 7.78545 24.5484 8.34915 24.057 8.51495C23.3036 8.81338 22.3209 8.68074 21.5347 8.81338C20.7485 8.94601 19.9623 9.2776 19.2089 9.54287C17.702 10.0734 16.3262 10.4713 14.9504 11.3003C13.6728 12.0629 12.1332 12.7593 11.2487 14.0525C10.8556 14.6162 10.5936 15.2462 10.266 15.8431C9.87288 16.5726 9.18496 17.0699 8.56256 17.6005C7.57982 18.4958 7.18673 19.8885 6.6626 21.0822C6.0402 22.508 6.10572 24.1991 5.84366 25.6913C5.54883 27.2497 5.54883 28.6756 6.00744 30.1346C6.0402 32.522 7.0557 34.8431 7.87464 37.0648C7.94016 37.2637 8.23498 37.0316 8.16947 36.8658C7.51431 34.9758 6.99018 33.0857 7.02294 31.0962C7.02294 30.2672 6.92467 29.4714 6.85915 28.6756C6.85915 28.5761 6.85915 28.5098 6.89191 28.4103C6.95742 27.3824 7.71086 26.9181 8.23498 26.1555C8.95566 25.1607 8.59532 24.0333 8.69359 22.9059C8.82462 21.3806 10.1677 20.2864 10.9866 19.0926C11.4453 18.3963 11.609 17.5342 12.3297 17.0368C12.8538 16.672 13.5745 16.5726 14.0986 16.2078C14.5245 15.9094 14.8521 15.4783 15.1141 15.0473C15.2452 14.782 15.3762 14.5167 15.4745 14.2846C15.9658 13.2567 16.6538 13.4225 17.4072 13.2898C18.8485 13.0246 20.2571 12.8256 21.6657 12.4277C22.2226 12.2951 22.714 12.0298 23.1726 11.7314C23.7295 11.3335 23.8933 10.9687 24.6467 10.8029C25.2036 10.7034 25.7277 10.4713 26.2191 10.2061C26.9725 9.80814 27.7259 9.60919 28.5449 9.41024C28.5776 9.41024 28.5776 9.41024 28.6104 9.37708C28.7742 9.37708 28.938 9.41024 29.069 9.37708C29.1018 9.37708 29.1673 9.37708 29.2328 9.37708C29.2983 9.37708 29.3311 9.37708 29.3966 9.37708C29.7897 9.41024 30.4776 9.37708 31.0017 9.50971C30.6741 9.60919 30.3793 9.77499 30.0845 9.97394C29.9535 9.97394 29.8224 10.0071 29.6586 10.0403C29.5276 10.0734 29.4293 10.2061 29.3966 10.3055C27.7259 10.9355 26.2518 11.9966 24.6467 12.8588C23.7295 13.3561 22.8122 13.8535 22.0261 14.5167C21.2726 15.1467 20.7157 15.9425 20.0278 16.6389C18.7175 17.9984 16.8176 17.7 15.4417 18.8274C13.8366 20.1537 13.9021 22.6075 12.8866 24.3317C11.9039 26.0229 10.4953 27.1171 10.1022 29.1066C9.87288 30.3335 10.0694 31.6267 9.93839 32.8867C9.84012 33.782 9.90563 34.5115 10.266 35.3405C10.7246 36.3021 11.5435 36.9985 12.0021 37.9269C12.4935 38.8885 12.3625 40.1817 12.6901 41.2096C13.1814 42.9007 14.8193 43.9287 16.2279 44.824C16.621 45.4208 17.2434 45.9845 17.8986 46.1171C18.0624 46.1503 18.2261 45.9182 18.1279 45.7856C17.833 45.3877 17.4399 45.1887 17.1779 44.7576C17.1124 44.6582 17.0796 44.5587 17.0469 44.4592C17.44 42.7349 16.752 41.5412 15.9986 39.9828C15.6055 39.1538 16.3589 38.358 16.4572 37.529C16.5227 36.7995 16.1296 36.1032 15.8676 35.4731C15.3762 34.2131 15.2452 32.8867 15.7038 31.5935C15.9986 30.6983 16.7848 29.9688 17.1779 29.1066C17.5382 28.3108 17.6693 27.4155 17.833 26.5866C18.0624 25.3265 18.4554 24.1991 19.0778 23.0717C19.602 22.1101 20.4864 21.6459 21.3054 20.9827C22.0588 20.3527 22.4519 19.3911 23.2709 18.8274C23.8933 18.3963 24.5812 18.131 25.1381 17.6336C25.6622 17.1694 25.8915 16.4399 26.1536 15.7767C26.5794 14.6825 27.7914 14.3841 28.6432 13.7209C29.2656 13.2235 29.6914 12.4277 30.0845 11.7314C30.3138 11.3335 30.5431 10.8692 30.5759 10.5376C30.6741 10.4713 30.7724 10.4382 30.8707 10.3718C30.6741 10.8361 30.6414 11.3998 30.6414 11.864C30.6414 12.8919 30.7069 13.7209 30.281 14.7157C29.8224 15.8431 28.8069 16.4731 27.8897 17.2026C26.5466 18.2305 26.3829 19.4574 26.4156 21.049C26.4484 22.2427 25.7605 23.0054 25.4984 24.0996C25.2691 25.0944 25.2363 25.9897 25.3674 26.9513C25.4656 27.5813 23.7295 28.7419 23.3691 29.2061C22.8122 29.8693 22.5829 30.4993 22.6485 31.3946C22.6812 31.9915 22.8778 32.522 22.845 33.152C22.8122 33.782 22.6485 34.3789 22.5829 35.0089C22.5174 36.0037 23.0088 36.6669 23.5329 37.4295C24.3846 38.7227 23.8277 39.6512 23.1726 40.8117C23.0416 41.0438 23.0416 41.3423 23.0088 41.6075C22.8778 42.536 22.2881 42.4697 21.6985 42.8344C20.8795 43.3318 20.5847 44.5587 21.1416 45.3545C21.0761 45.6198 21.2071 45.8519 21.3054 46.084C21.4037 46.3161 21.3054 46.5482 21.3709 46.7803C21.4364 46.9461 21.5674 47.0124 21.6657 47.1451C21.6657 47.2114 21.6985 47.2446 21.7312 47.2777C21.7312 47.3109 21.764 47.344 21.764 47.3772C21.7968 47.5761 22.0588 47.5098 22.1243 47.3772C22.1571 47.4104 22.1898 47.3772 22.2226 47.344C22.2226 47.344 22.2554 47.3772 22.2881 47.3772C23.0416 47.5761 23.5657 47.974 24.3191 47.5098C24.3846 47.5098 24.4174 47.5098 24.4829 47.5098C24.8432 47.6756 25.4001 47.6756 25.826 47.6093V47.6756C25.826 47.7088 25.826 47.7419 25.8587 47.7419C27.2346 47.9409 28.5776 47.6756 29.9862 47.6425C31.4931 47.6093 32.7051 46.714 34.1465 46.3824C35.3913 46.084 36.374 45.3213 37.4878 44.7245C38.0774 44.426 38.6343 43.995 39.1584 43.5639C39.3222 43.6634 39.5843 43.5639 39.9774 43.2323C40.5998 42.7018 41.1239 41.9391 41.6153 41.3091C42.467 40.2149 43.4497 39.2533 44.3342 38.159C44.9893 37.3632 45.6773 36.4679 45.8738 35.44C46.1359 34.0473 46.0048 32.6215 46.2997 31.1956C46.791 29.8361 47.1186 28.5098 47.0203 26.9845ZM24.8105 46.5151C24.6794 46.4156 24.3846 46.5151 24.3191 46.6809C24.2864 46.7472 24.2864 46.7803 24.2864 46.8135C24.1226 46.8466 23.9588 46.8798 23.795 46.913C23.6639 46.913 23.5984 47.0788 23.5984 47.1782C23.5657 47.1782 23.5329 47.1782 23.5002 47.1782C23.1398 47.1119 22.845 47.0788 22.4847 47.1119C22.4519 47.1119 22.4519 47.1119 22.4192 47.1119C22.4192 47.0788 22.4192 47.0124 22.4192 46.9793C22.3864 46.913 22.3864 46.8135 22.3536 46.7472C22.4192 46.5482 22.5502 46.3493 22.6812 46.1835C22.976 45.9182 23.2053 45.4871 23.3691 45.3213C24.7777 43.995 26.5794 43.7297 27.2018 41.6739C27.4966 40.7122 27.988 39.7175 28.1845 38.7227C28.4138 37.5953 28.0208 36.899 27.4639 35.9705C26.6449 34.611 28.6432 33.6494 29.2983 32.8204C30.0845 31.7925 30.1828 30.5325 30.6086 29.3387C30.969 28.3108 31.3621 27.316 31.4931 26.2218C31.5586 25.6913 31.4603 25.1607 31.3621 24.6633C31.1983 23.7017 31.2638 23.1049 31.7552 22.2096C32.181 21.4801 32.6069 20.7174 32.5741 19.8553C32.5413 18.8937 32.7379 18.2637 33.2948 17.4679C33.5568 17.1031 33.7534 16.7715 33.8189 16.3405C33.9827 15.4783 34.081 14.4504 33.8517 13.6214C33.6224 12.8919 33.2948 12.2287 33.4258 11.4329C33.4586 11.1345 33.4913 10.9024 33.393 10.6703C33.6551 10.8692 33.8844 11.1013 34.1465 11.3003C34.212 11.4329 34.2775 11.5656 34.343 11.6982C34.5068 11.9635 34.7034 12.1293 34.8344 12.3282C34.8999 12.693 34.9982 13.0577 35.1292 13.4225C35.1292 13.5219 35.162 13.6214 35.1947 13.7541C35.2275 13.8535 35.2602 13.9198 35.3258 14.0193C35.6533 14.8483 36.0464 15.611 36.4723 16.4731C37.455 18.3963 36.0137 19.8553 36.0137 21.8117C36.0137 22.7401 36.1775 23.6686 36.2757 24.597C36.374 25.6249 36.2757 26.6529 36.2757 27.6476C36.2757 28.5098 36.4068 29.3719 36.5378 30.234C36.7344 31.4941 36.1775 32.3894 35.5551 33.3841C35.2275 33.9147 35.0309 34.4452 34.8999 35.0421C34.7034 35.9374 35.1292 36.8658 35.0637 37.7611C34.9982 38.5901 34.081 39.3859 33.6879 40.1485C33.4913 40.5133 33.4586 41.077 33.393 41.4749C33.131 42.7018 32.5741 42.7681 31.6896 43.1992C31.0017 43.5308 30.3793 43.9618 29.7569 44.3597C29.3311 44.625 28.9707 44.9566 28.5121 45.1555C28.1845 45.2882 27.6277 45.3213 27.3001 45.454C26.6777 45.6529 26.1863 46.1171 25.5639 46.3161C25.2691 46.4156 25.0398 46.4487 24.8105 46.5151ZM42.8601 34.6442C42.4997 35.9374 41.517 36.9321 40.9601 38.1259C40.7963 38.4574 40.8946 38.8554 40.7308 39.1869C40.5998 39.4854 40.436 39.817 40.305 40.1154C39.9446 40.878 39.5843 41.6407 39.2895 42.4365C39.2239 42.6355 39.1584 42.8344 39.1584 43.0334C38.7326 43.4313 38.3395 43.8292 37.8481 44.1608C36.6361 44.9897 35.3913 45.7856 33.9499 46.1503C32.6396 46.4487 31.5586 47.3109 30.1828 47.3109C29.9207 47.3109 27.7587 47.5761 26.7104 47.6425C26.9725 47.6093 27.2018 47.543 27.4311 47.4767C27.7587 47.4435 28.0863 47.3772 28.4138 47.344C29.8552 47.2114 30.6741 46.9793 31.8862 46.1503C33.8189 44.7908 36.0137 44.2603 37.5533 42.4034C39.1584 40.447 40.0101 38.3911 40.1084 35.8379C40.2067 33.3841 41.386 30.6983 40.6325 28.2777C40.2067 26.885 39.9446 25.5918 39.8464 24.166C39.7808 22.6738 40.0757 21.2148 39.9774 19.7227C39.8464 17.4347 38.5688 15.4783 37.3568 13.6214C37.1602 13.323 36.9637 12.8919 36.7344 12.3945C36.8654 12.2951 36.9309 12.1624 36.7999 12.0298C36.4723 11.6982 36.2102 11.2671 35.8499 10.9687C35.4568 10.604 34.8016 10.5376 34.343 10.2392C34.3758 10.2392 34.4085 10.2392 34.4413 10.2392C35.2275 10.3387 35.8826 10.7698 36.5378 11.234C36.7344 11.5656 36.9964 11.864 37.1602 11.9966C38.3067 12.8256 39.0602 13.4888 39.617 14.8151C40.0757 15.9094 40.2067 17.0699 40.7963 18.131C41.4842 19.3579 42.0084 20.4853 42.2377 21.9443C42.336 22.5743 42.4015 23.1712 42.467 23.8012C42.4997 24.4644 42.2049 24.9949 42.0739 25.5918C41.8773 26.4871 42.0739 27.2829 42.4997 28.0787C43.0239 29.1066 42.2377 30.1346 42.9584 31.063C43.0239 32.323 43.1549 33.4836 42.8601 34.6442Z" fill="url(#paint3_radial_116_227)"/>
<path d="M34.5403 8.71363C34.18 8.64731 33.8524 8.71363 33.5248 8.81311C33.5248 8.77995 33.4921 8.74679 33.4266 8.74679C32.968 8.68047 32.5421 8.64731 32.0835 8.54784C31.5266 8.44836 31.199 8.18309 30.7404 7.91782C30.5766 7.78518 30.3473 8.08361 30.4128 8.24941C30.4128 8.28257 30.4456 8.31573 30.4456 8.34888C30.2818 9.1447 31.5921 9.54261 32.1818 9.57576C32.3783 9.60892 32.5421 9.64208 32.7387 9.64208C33.1973 9.64208 33.7869 9.67524 34.2128 9.44313C34.3766 9.37681 34.5403 9.27733 34.6059 9.11154C34.7369 8.94574 34.7369 8.74679 34.5403 8.71363Z" fill="#2F5711"/>
<defs>
<radialGradient id="paint0_radial_116_227" cx="0" cy="0" r="1" gradientUnits="userSpaceOnUse" gradientTransform="translate(15.6987 10.4632) scale(57.3035 55.8572)">
<stop offset="0.0588054" stop-color="#F7EBD3"/>
<stop offset="0.1256" stop-color="#EAE5BF"/>
<stop offset="0.2615" stop-color="#C8D78C"/>
<stop offset="0.2851" stop-color="#C2D483"/>
<stop offset="0.4099" stop-color="#97CA70"/>
<stop offset="0.6394" stop-color="#3EB549"/>
<stop offset="1" stop-color="#00A651"/>
</radialGradient>
<radialGradient id="paint1_radial_116_227" cx="0" cy="0" r="1" gradientUnits="userSpaceOnUse" gradientTransform="translate(15.6987 10.4632) scale(57.3035 55.8572)">
<stop offset="0.0588054" stop-color="#F7EBD3"/>
<stop offset="0.1172" stop-color="#EAE5BF"/>
<stop offset="0.2361" stop-color="#C8D78C"/>
<stop offset="0.2567" stop-color="#C2D483"/>
<stop offset="0.3875" stop-color="#B4D158"/>
<stop offset="0.4766" stop-color="#A9CF38"/>
<stop offset="1" stop-color="#00A651"/>
</radialGradient>
<radialGradient id="paint2_radial_116_227" cx="0" cy="0" r="1" gradientUnits="userSpaceOnUse" gradientTransform="translate(15.6989 10.4636) scale(57.3029 55.8566)">
<stop offset="0.0588054" stop-color="#F7EBD3"/>
<stop offset="0.1146" stop-color="#EDE7BF"/>
<stop offset="0.2287" stop-color="#D2DE8C"/>
<stop offset="0.3898" stop-color="#A7CE3A"/>
<stop offset="0.3924" stop-color="#A6CE39"/>
<stop offset="1" stop-color="#62712E"/>
</radialGradient>
<radialGradient id="paint3_radial_116_227" cx="0" cy="0" r="1" gradientUnits="userSpaceOnUse" gradientTransform="translate(23.9039 13.7529) scale(42.099 42.6144)">
<stop stop-color="#3EB549"/>
<stop offset="0.5334" stop-color="#758740"/>
<stop offset="0.9036" stop-color="#0E6443"/>
</radialGradient>
</defs>
</svg>
