<svg width="21" height="20" viewBox="0 0 21 20" fill="none" xmlns="http://www.w3.org/2000/svg">
<path d="M14.5295 19.3445H5.89921C3.02821 19.3445 0.693359 16.9923 0.693359 14.1386V5.49101C0.693359 2.62001 3.04551 0.285156 5.89921 0.285156H14.5295C17.4005 0.285156 19.7354 2.6373 19.7354 5.49101V14.1213C19.7354 16.9923 17.4005 19.3445 14.5295 19.3445Z" fill="#5987C3"/>
<path d="M1.88711 11.8038C2.02547 11.6827 2.18113 11.5617 2.31949 11.4579C2.54433 12.0978 2.35408 13.0837 2.35408 13.7755C2.35408 13.7755 2.47515 15.3839 3.44368 16.2833C4.41221 17.1826 5.44992 17.5112 5.44992 17.5112L9.58347 17.5804H14.5472C14.5472 17.5804 16.4151 17.1307 17.2625 16.0238C18.0927 14.9342 18.0927 13.2566 18.0927 13.2566V10.1089C18.0927 10.1089 18.3521 15.211 18.871 15.0034C19.3898 14.8132 19.7012 13.7063 19.7012 13.7063V16.0238C19.7012 16.0238 19.3726 16.8021 18.7326 17.7707C18.0927 18.7392 17.2452 18.9986 17.2452 18.9986L15.9654 19.3272L11.3822 19.2062L6.53952 19.3272L4.15278 19.3964C4.15278 19.3964 2.2849 19.0678 1.5758 17.8398C0.866695 16.6119 0.538086 15.3839 0.538086 15.3839C0.572676 14.7613 0.607267 14.1214 0.659152 13.4987C0.693743 12.928 0.676448 12.8069 1.12612 12.4264C1.38555 12.2362 1.62768 12.0114 1.88711 11.8038Z" fill="#3F74B6"/>
<path d="M2.97607 3.83071C3.07984 3.67506 3.20091 3.5367 3.33927 3.41563C4.2905 2.51628 5.60494 1.94554 6.90208 1.87636C7.9052 1.82447 8.90832 2.04931 9.91144 2.10119C11.9004 2.18767 14.0104 1.56504 15.8091 2.39521C16.9333 2.91407 17.798 4.02096 18.0056 5.24892C17.9191 4.38416 18.6282 3.5194 19.493 3.41563C19.3719 2.17038 18.2823 1.21914 17.0889 0.838646C15.8956 0.458151 14.633 0.544627 13.3878 0.561922C11.762 0.596513 10.1363 0.544627 8.52783 0.38897C7.1961 0.267904 5.84707 0.0776569 4.53264 0.267904C2.88959 0.510037 1.22925 1.44398 0.883351 3.20809C0.831465 3.45022 0.831465 3.70965 0.831465 3.96908C0.81417 4.40146 0.81417 4.81654 0.796875 5.24892C0.866056 4.98949 0.952532 4.73006 1.02171 4.45334C1.16007 3.96908 1.47139 4.29768 1.62704 4.57441C1.8 4.88572 1.86918 5.3181 1.95565 5.664C2.11131 6.44229 2.1632 7.23787 2.19779 8.03345C2.24967 8.98468 2.35344 9.97051 2.35344 10.9217C2.37074 9.52083 2.38803 8.11992 2.40533 6.71901C2.40533 5.76778 2.43992 4.66088 2.97607 3.83071Z" fill="#86AADA"/>
<path d="M13.5431 1.94557C14.8921 2.03205 16.7427 2.67197 17.7285 1.30565C17.7631 1.25377 17.7977 1.18459 17.7977 1.1327C17.7804 1.02893 17.6767 0.977044 17.5902 0.942454C14.1311 -0.510343 9.87652 0.423598 6.22724 0.16417C5.81215 0.129579 5.37977 0.112284 4.96469 0.181465C4.5496 0.250646 4.16911 0.423598 3.78862 0.59655C3.44271 0.752206 3.04492 0.977044 3.04492 1.35754C3.04492 1.4959 3.1141 1.63426 3.20058 1.75533C3.42542 2.03205 3.78862 2.18771 4.13452 2.23959C4.79174 2.32607 5.39707 2.10123 6.0197 2.01476C6.84986 1.89369 7.73192 1.91098 8.57938 1.89369C10.2397 1.80721 11.9001 1.8418 13.5431 1.94557Z" fill="#A3CCFB"/>
<path d="M4.56797 19.3445C3.91075 19.3272 3.25354 19.2234 2.6828 18.8948C2.18123 18.6008 1.9391 18.1684 1.61049 17.736C1.23 17.2345 0.953276 16.6983 0.814914 16.0757C0.503601 14.5883 0.555486 12.8415 0.728438 11.3368C0.780324 10.9217 0.83221 10.5066 0.780324 10.0916C0.763029 11.1293 0.797619 12.1843 0.8668 13.222C0.935981 14.1386 0.935981 15.0899 1.2127 15.9719C1.45484 16.7502 1.88722 17.4939 2.47525 18.0646C2.94222 18.5143 3.92805 19.1369 4.60256 18.7219C5.39814 17.9263 4.18748 17.0615 3.63403 16.5081C3.51296 16.387 3.3746 16.2486 3.32272 16.0757C3.7378 16.5254 4.22207 16.9232 4.75822 17.2345C4.89658 17.3036 5.01765 17.3728 5.15601 17.4247C5.93429 17.6841 6.72987 17.5804 7.52545 17.5631C8.59775 17.5458 9.65276 17.5631 10.7251 17.5804C11.1747 17.5804 11.6071 17.5977 12.0568 17.6496C12.5584 17.7014 13.0599 17.6496 13.5442 17.615C13.9593 17.5804 14.4435 17.6496 14.8413 17.5458C15.3775 17.4074 15.9136 17.1826 16.3633 16.854C17.2972 16.1968 17.8161 15.159 17.9717 14.0522C17.868 14.7958 17.6258 15.5395 17.2453 16.1968C17.0551 16.5427 16.8303 16.854 16.5708 17.148C16.346 17.4247 15.8963 17.7706 16.0866 18.1857C16.2595 18.5489 16.9167 18.7392 17.2799 18.6873C17.4702 18.6527 17.6604 18.5662 17.8334 18.4797C18.2312 18.2549 18.5771 17.9782 18.8884 17.6496C18.0063 18.8083 16.7611 19.2234 15.3948 19.1369C13.5961 19.0332 11.7628 19.1715 9.96407 19.1888C8.63234 19.2061 7.31791 19.3445 6.00347 19.3272C5.57109 19.3272 5.05224 19.3618 4.56797 19.3445Z" fill="#255FA7"/>
<path d="M13.751 17.6668C13.751 17.6668 14.6676 17.857 15.7572 17.4419C16.8468 17.0268 17.4349 16.4388 17.7116 15.7989C17.9883 15.159 18.0575 13.5332 18.0575 13.5332C18.0575 13.5332 17.7635 15.574 17.2619 16.0237C16.7603 16.4907 16.2069 17.5803 13.751 17.6668Z" fill="#86AADA"/>
<path d="M0.815558 16.2487C0.52154 15.0899 0.798263 14.2079 0.884739 13.0664C0.763673 14.45 1.05769 16.0239 1.7322 17.2518C2.06081 17.8571 2.54508 18.4279 3.21959 18.67C4.06705 18.9813 5.10477 18.7738 4.65509 17.6496C4.79345 17.8226 4.82804 18.0474 4.87993 18.2549C5.001 18.9813 5.38149 19.0678 6.02141 19.0159C7.1456 18.9121 8.25249 18.843 9.39397 18.8257C9.75717 18.8084 10.1204 18.843 10.4836 18.8603C11.8672 18.9294 13.2335 18.9467 14.6171 18.9467C15.0149 18.9467 15.5684 19.137 15.9489 18.964C16.658 18.67 15.897 18.0993 16.2775 17.615C16.2429 17.8744 16.2083 18.1512 16.3466 18.3587C16.5196 18.6008 16.8482 18.6527 17.1422 18.67C17.9205 18.7392 19.0966 16.6811 19.2522 15.9374C19.4425 15.1591 19.6673 11.5271 19.6673 11.5271L19.7192 15.8509C19.7192 15.8509 19.356 17.1134 18.9236 17.6496C18.4912 18.1685 17.6265 19.0851 16.3985 19.2235C15.1706 19.3618 13.0779 19.2235 13.0779 19.2235H8.33897L5.15665 19.4483C5.15665 19.4483 3.23689 19.5002 2.51049 18.7738C1.7495 17.9955 1.09228 17.321 0.815558 16.2487Z" fill="#A5CDFB"/>
<path d="M5.91644 17.2517C5.39758 17.148 4.89602 16.975 4.42905 16.6291C3.80642 16.1794 3.25298 15.5741 3.06273 14.8304C2.87248 14.0521 2.83789 13.2566 2.83789 12.461C2.90707 13.0836 2.97625 13.6889 3.1665 14.277C3.35675 14.865 3.68536 15.4358 4.16962 15.799C5.03438 16.4562 6.12398 16.5081 7.16169 16.4562C8.97768 16.3524 10.811 16.3351 12.6443 16.2313C13.8549 16.1622 15.1521 16.0411 16.0341 15.2109C16.8297 14.4499 17.0545 13.2739 17.1583 12.167C17.2621 11.1465 17.2967 10.1261 17.2794 9.10571C17.4177 10.5585 17.4523 12.0286 17.3831 13.4987C17.3486 14.5364 17.1929 15.6779 16.4146 16.3697C15.6017 17.0788 14.27 17.1307 13.2496 17.2345C12.0216 17.3555 10.8283 17.1134 9.61761 17.1653C8.38965 17.1999 7.1098 17.4593 5.91644 17.2517Z" fill="#6B96CC"/>
<path d="M12.8698 1.91089C10.7079 1.98007 8.51143 1.98007 6.36683 2.01466C5.70961 2.03195 5.00051 2.13573 4.48165 2.55081C4.01468 2.89671 3.39205 3.19073 3.08074 3.69229C2.94238 3.91713 2.82131 4.14197 2.73484 4.3841C2.45811 5.14509 2.42352 5.97526 2.42352 6.78813C2.42352 7.87773 2.35434 8.96733 2.51 10.0742C2.51 8.82897 2.64836 7.60101 2.90779 6.39034C3.13263 5.35263 3.56501 4.33222 4.44706 3.70959C5.53666 2.9486 7.09323 2.91401 8.37307 2.82753C9.92964 2.72376 11.5035 2.75835 13.0601 2.9486C13.6827 3.01778 14.3053 3.12155 14.8588 3.38098C16.1386 3.95172 16.5883 5.28345 16.9515 6.52871C17.1417 7.18592 17.3493 8.11986 17.2801 8.79438C17.3493 8.15446 17.332 7.54912 17.3147 6.9092C17.2974 6.37305 17.3666 5.75042 17.7644 5.33534C17.8335 5.26616 17.92 5.17968 17.9373 5.0932C17.9373 5.02402 17.92 4.97214 17.9027 4.92025C17.7817 4.64353 17.6779 4.36681 17.5568 4.10738C17.5049 3.96902 17.4358 3.83066 17.3493 3.70959C17.0898 3.34639 16.6229 3.03508 16.2943 2.74106C15.8619 2.37786 15.2911 2.11843 14.7377 2.03196C14.1324 1.92818 13.527 1.94548 12.9217 1.96277C12.9044 1.91089 12.8871 1.91089 12.8698 1.91089Z" fill="#3F74B6"/>
<path d="M3.7376 2.22206C4.25646 2.03181 4.8099 1.96263 5.34605 1.73779C4.27375 2.18747 3.11497 2.68903 2.52694 3.67485C2.11185 4.38396 2.02538 5.23142 1.99079 6.0443C1.9389 5.52544 1.88701 5.00659 1.9562 4.48773C2.02538 3.93428 2.26751 3.38084 2.63071 2.96575C2.97661 2.56796 3.33981 2.37772 3.7376 2.22206Z" fill="white"/>
<path d="M2.24984 2.22227C2.11147 2.29145 1.99041 2.42981 1.93852 2.56818C1.92123 2.62006 1.90393 2.68924 1.92123 2.75842C1.93852 2.8276 1.99041 2.87949 2.05959 2.86219C2.11147 2.86219 2.16336 2.81031 2.19795 2.75842C2.31902 2.62006 2.47467 2.499 2.66492 2.42981C2.71681 2.41252 2.78599 2.39522 2.82058 2.34334C2.85517 2.30875 2.87246 2.22227 2.82058 2.18768C2.80328 2.17039 2.78599 2.17039 2.7514 2.15309C2.52656 2.10121 2.30172 2.15309 2.11147 2.27416L2.24984 2.22227Z" fill="white"/>
<path d="M1.00416 2.89683C1.02146 2.84494 1.05605 2.77576 1.09064 2.67199C1.12523 2.58552 1.17711 2.48174 1.229 2.37797C1.35007 2.15314 1.52302 1.911 1.78245 1.65157C2.04187 1.39215 2.37048 1.15001 2.78557 0.959767C2.88934 0.907881 2.99311 0.855996 3.11418 0.821405C3.16606 0.80411 3.23524 0.786815 3.28713 0.752224L3.33901 0.734929H3.35631H3.3736L3.46008 0.700339C3.70221 0.631158 3.96164 0.561977 4.23836 0.527387C4.79181 0.440911 5.39714 0.423616 6.05436 0.440911C7.36879 0.475501 8.85618 0.527387 10.4646 0.579272C11.2775 0.596568 12.125 0.631158 12.9897 0.665748C13.8718 0.683044 14.7711 0.648453 15.6705 0.734929C16.1202 0.76952 16.5698 0.8387 17.0022 0.977062C17.106 1.01165 17.2098 1.04624 17.3308 1.08083C17.5903 1.16731 17.7805 1.28838 18.0053 1.44403C18.0572 1.27108 18.1264 1.09813 18.1783 0.925176C18.0053 0.734929 17.7805 0.613863 17.5384 0.527387C17.4173 0.475501 17.2962 0.440911 17.1752 0.40632C16.6909 0.267959 16.2066 0.198778 15.7397 0.164188C14.7711 0.0950069 13.8718 0.129597 13.007 0.129597C12.1423 0.129597 11.2948 0.112302 10.4819 0.112302C8.85618 0.0950069 7.38609 0.0604165 6.05436 0.0777117C5.39714 0.0950069 4.77451 0.129597 4.20377 0.250664C3.63303 0.354435 3.13147 0.527387 2.69909 0.76952C1.85163 1.23649 1.36736 1.87641 1.14252 2.34338C1.09064 2.46445 1.05605 2.56822 1.02146 2.6547C1.00416 2.74117 0.969571 2.82765 0.952276 2.89683C0.917686 3.01789 0.900391 3.08708 0.900391 3.08708L0.952276 3.10437C0.969571 3.08708 0.969571 3.03519 1.00416 2.89683Z" fill="#5987C3"/>
<path d="M14.063 17.7707C14.063 17.7707 13.1637 17.7707 11.6071 17.788C10.8288 17.788 9.87757 17.8053 8.78797 17.8226C8.23452 17.8226 7.66378 17.8399 7.04115 17.8399C6.8855 17.8399 6.72984 17.8399 6.57418 17.8399C6.48771 17.8399 6.41853 17.8399 6.33205 17.8399C6.24558 17.8399 6.17639 17.8399 6.08992 17.8399C5.93426 17.8399 5.76131 17.8053 5.58836 17.788C5.41541 17.7707 5.25975 17.7188 5.0868 17.667C4.42958 17.4594 3.78966 17.0962 3.2708 16.5774C2.75195 16.0585 2.35416 15.384 2.16391 14.623C2.11202 14.4328 2.09473 14.2425 2.06014 14.0523C2.04284 13.9485 2.04284 13.862 2.04284 13.7582C2.04284 13.6545 2.02555 13.568 2.04284 13.4642C2.04284 13.0837 2.04284 12.6859 2.06014 12.2881C2.07743 11.4926 2.07743 10.6797 2.09473 9.84952C2.11202 9.01935 2.11202 8.18918 2.11202 7.34172C2.11202 6.90934 2.11202 6.49426 2.11202 6.06187C2.11202 5.6295 2.1812 5.19712 2.31957 4.78203C2.59629 3.95186 3.13244 3.19087 3.85884 2.67202C4.22204 2.41259 4.61983 2.18775 5.05221 2.04939C5.48459 1.91103 5.93426 1.84185 6.38394 1.82455C7.26599 1.78996 8.16534 1.77267 9.06469 1.77267C9.96404 1.77267 10.8461 1.75537 11.7282 1.75537C12.1605 1.75537 12.6102 1.75537 13.0426 1.75537C13.2674 1.75537 13.475 1.75537 13.6998 1.75537H14.0284C14.1495 1.75537 14.2533 1.77267 14.357 1.77267C15.2564 1.82455 16.1038 2.17046 16.7783 2.68931C17.107 2.96604 17.4183 3.26005 17.6604 3.60596C17.9025 3.95186 18.0928 4.33236 18.2139 4.71285C18.2484 4.81662 18.2657 4.9031 18.3003 5.00687C18.3349 5.11064 18.3522 5.19712 18.3695 5.30089C18.3868 5.40466 18.4041 5.50843 18.4214 5.59491C18.4214 5.69868 18.4387 5.80245 18.4387 5.88892C18.456 6.28671 18.4387 6.66721 18.4387 7.0477C18.4387 8.56968 18.4214 9.98789 18.4041 11.3196C18.3868 11.9768 18.3868 12.6168 18.3695 13.2221C18.3695 13.3777 18.3695 13.5161 18.3522 13.6718C18.3522 13.7409 18.3349 13.8101 18.3349 13.8966C18.3349 13.9658 18.3349 14.035 18.3176 14.1214C18.283 14.4155 18.2139 14.6922 18.1101 14.9516C17.9198 15.4705 17.6604 15.9028 17.3491 16.266C17.0378 16.6292 16.6919 16.906 16.3806 17.1135C15.706 17.5286 15.1007 17.6842 14.6856 17.7361C14.4781 17.7707 14.3224 17.7707 14.2014 17.7707C14.1149 17.7707 14.063 17.7707 14.063 17.7707ZM14.063 17.7361C14.063 17.7361 14.1149 17.7361 14.2187 17.7188C14.3224 17.7188 14.4954 17.7188 14.6856 17.667C15.1007 17.5978 15.706 17.4421 16.3633 17.027C16.6919 16.8195 17.0205 16.5255 17.2972 16.1796C17.5912 15.8164 17.8334 15.384 18.0063 14.8824C18.0582 14.7614 18.0755 14.623 18.1101 14.5019C18.1274 14.4328 18.1447 14.3636 18.1447 14.2944C18.162 14.2252 18.162 14.156 18.1793 14.0868C18.1966 14.0177 18.1966 13.9485 18.1966 13.8793C18.1966 13.8101 18.1966 13.7409 18.1966 13.6545C18.1966 13.5161 18.1966 13.3604 18.1966 13.2048C18.1966 12.5995 18.1793 11.9768 18.162 11.3023C18.1447 9.98789 18.1274 8.55238 18.1274 7.03041C18.1274 6.64991 18.1274 6.26942 18.1274 5.88892C18.1274 5.80245 18.1101 5.69868 18.1101 5.6122C18.0928 5.52572 18.0755 5.42195 18.0582 5.33548C18.0409 5.249 18.0236 5.14523 17.989 5.05875C17.9544 4.97228 17.9371 4.86851 17.9025 4.78203C17.7815 4.41883 17.5912 4.07293 17.3837 3.74432C17.1588 3.41571 16.8821 3.13899 16.5708 2.87956C15.9482 2.378 15.1353 2.04939 14.3051 1.9975C14.2014 1.9975 14.0803 1.98021 13.9938 1.98021H13.6652C13.4404 1.98021 13.2328 1.98021 13.008 1.98021C12.5756 1.98021 12.1259 1.98021 11.6936 1.98021C10.8461 1.98021 9.94675 1.98021 9.06469 1.98021C8.16534 1.96291 7.28329 1.96291 6.38394 1.94562C5.95156 1.94562 5.50188 2.0148 5.0868 2.13587C4.67171 2.25693 4.27392 2.46447 3.91072 2.7239C3.18433 3.22546 2.66547 3.96916 2.38875 4.78203C2.25039 5.19712 2.1985 5.6122 2.1985 6.04458C2.1985 6.47696 2.1985 6.90934 2.1985 7.32443C2.1985 8.17189 2.21579 9.01935 2.21579 9.83223C2.23309 10.6624 2.23309 11.4753 2.25039 12.2709C2.25039 12.6686 2.25039 13.0664 2.26768 13.4469C2.26768 13.5507 2.26768 13.6372 2.28498 13.7409C2.28498 13.8274 2.28498 13.9312 2.30227 14.0177C2.33686 14.2079 2.35416 14.3809 2.40604 14.5711C2.49252 14.9343 2.64817 15.2629 2.82113 15.5742C2.87301 15.6434 2.9076 15.7299 2.95949 15.7991C3.01137 15.8683 3.06326 15.9374 3.11515 16.0066C3.21892 16.145 3.33998 16.2833 3.46105 16.4044C3.94531 16.906 4.55065 17.2519 5.17327 17.4594C5.32893 17.494 5.48459 17.5459 5.64024 17.5805C5.7959 17.5978 5.95156 17.6497 6.10721 17.6497C6.19369 17.6497 6.26287 17.667 6.34935 17.667C6.41853 17.667 6.505 17.667 6.57418 17.667C6.72984 17.667 6.8855 17.667 7.04115 17.667C7.64649 17.6842 8.23452 17.6842 8.78797 17.6842C9.87757 17.7015 10.8288 17.7188 11.6071 17.7188C13.1637 17.7361 14.063 17.7361 14.063 17.7361Z" fill="#A2BFE6"/>
<path d="M19.9949 3.83078C19.9085 3.31193 19.7701 2.79307 19.5453 2.3261C19.4242 2.08397 19.3031 1.85913 19.1475 1.63429L19.0956 1.54782L19.0437 1.46134C18.9918 1.40945 18.9572 1.35757 18.9054 1.30568C18.8016 1.20191 18.6805 1.11544 18.5767 1.04625C18.4557 0.977074 18.3519 0.907893 18.2308 0.856007L18.1444 0.821417L18.0579 0.769531H18.0406C18.0233 0.977074 17.9714 1.16732 17.9022 1.34027L17.9714 1.37486C18.0752 1.42675 18.179 1.47863 18.2654 1.54782C18.3519 1.5997 18.4384 1.66888 18.5076 1.73806C18.5422 1.77265 18.5767 1.80724 18.6113 1.84183L18.6632 1.91101L18.7151 1.9802C18.8535 2.17044 18.9572 2.36069 19.061 2.56823C19.2513 2.98332 19.3896 3.45029 19.4761 3.93455C19.649 4.90308 19.6145 5.9235 19.5972 6.96121C19.5799 7.48007 19.5799 8.01622 19.5799 8.53507C19.5799 9.05393 19.5626 9.59008 19.5626 10.1262C19.5626 11.1812 19.5453 12.2535 19.5453 13.3431C19.5453 13.8793 19.5453 14.4154 19.5453 14.9516C19.5453 15.4877 19.528 16.0239 19.3896 16.5082C19.2513 17.0097 18.9572 17.4421 18.6113 17.8572C18.2654 18.255 17.8676 18.6182 17.418 18.8603C16.951 19.1024 16.4321 19.1716 15.896 19.2062C15.3598 19.2235 14.841 19.1889 14.3048 19.1716C14.0454 19.1543 13.7687 19.137 13.5093 19.137C13.2498 19.137 12.9731 19.137 12.7137 19.137C12.1948 19.137 11.6587 19.137 11.1398 19.137C10.1021 19.137 9.06439 19.1197 8.06126 19.1197C7.04085 19.0851 6.03773 19.2408 5.08649 19.2235C4.61952 19.2235 4.13526 19.1716 3.72017 19.0333L3.56451 18.9814L3.39156 18.9122L3.30509 18.8776H3.28779H3.2705L3.23591 18.8603C3.18402 18.843 3.13213 18.8084 3.08025 18.7911C2.89 18.6874 2.69975 18.5663 2.5268 18.4452C2.1809 18.1858 1.86959 17.8745 1.64475 17.5113C1.59286 17.4248 1.52368 17.3383 1.4718 17.2346C1.41991 17.1481 1.38532 17.0616 1.33343 16.9578C1.31614 16.9059 1.28155 16.8541 1.26425 16.8195L1.21237 16.6811C1.17778 16.5773 1.14319 16.4909 1.1086 16.3871C0.866464 15.5915 0.849169 14.7613 0.883759 13.9658C0.901054 13.568 0.918349 13.1702 0.935645 12.7724C0.95294 12.3746 0.95294 11.9941 0.95294 11.6309C0.95294 10.8872 0.95294 10.1954 0.95294 9.5382C0.95294 8.88098 0.935645 8.25835 0.935645 7.68761C0.935645 7.11687 0.918349 6.59801 0.918349 6.13104C0.883759 5.14522 0.883759 4.40152 0.883759 3.89996C0.883759 3.3984 0.901054 3.12168 0.901054 3.12168H0.849169C0.849169 3.12168 0.814578 3.38111 0.762693 3.89996C0.728102 4.40152 0.710807 5.14522 0.676217 6.09645C0.658922 6.56342 0.641626 7.09957 0.624331 7.65302C0.607036 8.22376 0.589741 8.82909 0.572446 9.50361C0.55515 10.1608 0.537855 10.8526 0.52056 11.5963C0.52056 11.9595 0.503265 12.34 0.48597 12.7205C0.468674 13.101 0.434084 13.4988 0.399494 13.9139C0.347608 14.7268 0.364903 15.6088 0.624331 16.4909C0.658922 16.5946 0.693512 16.7157 0.728102 16.8195L0.797283 16.9751C0.814578 17.0443 0.849169 17.0789 0.866464 17.1308C0.918349 17.2346 0.970235 17.3556 1.02212 17.4421C1.07401 17.5459 1.14319 17.6496 1.21237 17.7361C1.48909 18.1339 1.8177 18.4798 2.21549 18.7738C2.40574 18.9122 2.63057 19.0506 2.85541 19.1543C2.9073 19.1889 2.97648 19.2062 3.02836 19.2408L3.06295 19.2581L3.08025 19.2754L3.11484 19.2927L3.20132 19.3273L3.37427 19.3965L3.56451 19.4483C4.06607 19.5867 4.56764 19.604 5.0519 19.604C6.05502 19.5867 7.02355 19.3965 8.02667 19.3965C9.0298 19.3619 10.0675 19.3446 11.1052 19.3273C11.6241 19.31 12.1429 19.31 12.6791 19.31C12.9385 19.31 13.1979 19.31 13.4747 19.2927C13.7341 19.2927 13.9935 19.31 14.2702 19.3273C14.8064 19.3619 15.3425 19.3965 15.8787 19.3792C16.1554 19.3792 16.4148 19.3446 16.6916 19.31C16.9683 19.2581 17.245 19.1889 17.4871 19.0506C17.9887 18.7911 18.4038 18.4279 18.7843 18.0301C18.9745 17.8226 19.1475 17.6151 19.2858 17.3729C19.4415 17.1481 19.5626 16.8887 19.649 16.6119C19.822 16.0758 19.8566 15.505 19.8739 14.9689C19.8912 14.4327 19.9085 13.8966 19.9258 13.3604C19.9604 12.2881 19.9777 11.2158 20.0122 10.1608C20.0468 9.10582 20.0641 8.03351 20.0987 7.0131C20.116 5.9062 20.1679 4.86849 19.9949 3.83078Z" fill="#184681"/>
<path d="M13.9407 17.6669C13.9407 17.6669 13.076 17.6669 11.554 17.6842C10.793 17.6842 9.87636 17.7015 8.80406 17.7187C8.26791 17.7187 7.71446 17.736 7.10913 17.736C6.95347 17.736 6.81511 17.736 6.65946 17.736C6.57298 17.736 6.5038 17.736 6.41732 17.736C6.34814 17.736 6.26167 17.736 6.19249 17.736C6.03683 17.736 5.88117 17.7015 5.70822 17.6842C5.55256 17.6669 5.37961 17.615 5.22395 17.5631C4.58403 17.3555 3.96141 17.0096 3.45984 16.4908C2.95828 15.9719 2.56049 15.3147 2.38754 14.5537C2.33566 14.3635 2.31836 14.1732 2.28377 13.983C2.26648 13.8792 2.26648 13.7927 2.26648 13.689C2.26648 13.5852 2.24918 13.4987 2.26648 13.3949C2.26648 13.0145 2.26648 12.6167 2.28377 12.2362C2.30107 11.4579 2.30107 10.645 2.31836 9.83214C2.31836 9.01926 2.33566 8.18909 2.33566 7.34163C2.33566 6.92655 2.33566 6.49417 2.33566 6.07908C2.33566 5.6467 2.40484 5.21432 2.5432 4.81653C2.80263 4.00366 3.32148 3.24267 4.04788 2.72381C4.39379 2.46439 4.79157 2.23955 5.20666 2.10119C5.62174 1.96282 6.07142 1.89364 6.5038 1.87635C7.36856 1.85905 8.25061 1.85905 9.11537 1.84176C9.98013 1.84176 10.8449 1.82446 11.6924 1.82446C12.1247 1.82446 12.5398 1.82446 12.9722 1.82446C13.1797 1.82446 13.3873 1.82446 13.6121 1.82446H13.9234C14.0445 1.82446 14.131 1.84176 14.252 1.84176C15.1168 1.89364 15.947 2.22225 16.6042 2.74111C16.9328 3.00054 17.2268 3.31185 17.469 3.65775C17.6938 4.00366 17.884 4.36686 18.0051 4.76465C18.0397 4.85112 18.057 4.95489 18.0916 5.05866C18.1262 5.16244 18.1435 5.24891 18.1608 5.35268C18.1781 5.45645 18.1954 5.54293 18.2126 5.6467C18.2126 5.75047 18.2299 5.85424 18.2299 5.94072C18.2472 6.33851 18.2299 6.70171 18.2299 7.0822C18.2299 8.56959 18.2126 9.98779 18.2126 11.3022C18.1954 11.9594 18.1954 12.5821 18.1781 13.1701C18.1781 13.3258 18.1781 13.4641 18.1608 13.6198C18.1608 13.689 18.1435 13.7581 18.1435 13.8273C18.1435 13.8965 18.1435 13.9657 18.1262 14.0349C18.0916 14.3289 18.0224 14.5883 17.9359 14.8477C17.763 15.3493 17.5035 15.799 17.1922 16.1449C16.8982 16.4908 16.5696 16.7675 16.241 16.9923C15.6011 17.4074 14.9957 17.5631 14.598 17.615C14.3904 17.6496 14.2348 17.6496 14.131 17.6496C13.9926 17.6669 13.9407 17.6669 13.9407 17.6669ZM13.9407 17.6496C13.9407 17.6496 13.9926 17.6496 14.0964 17.6323C14.2002 17.6323 14.3558 17.6323 14.5634 17.5804C14.9612 17.5112 15.5492 17.3555 16.1891 16.9405C16.5004 16.7329 16.829 16.4562 17.1058 16.093C17.3825 15.7298 17.6246 15.2974 17.7976 14.8132C17.8494 14.6921 17.8667 14.5537 17.9013 14.4327C17.9186 14.3635 17.9359 14.2943 17.9359 14.2424C17.9532 14.1732 17.9532 14.104 17.9705 14.0349C17.9878 13.9657 17.9878 13.8965 17.9878 13.8273C17.9878 13.7581 17.9878 13.689 17.9878 13.6198C17.9878 13.4814 17.9878 13.3258 17.9878 13.1874C17.9878 12.5994 17.9705 11.9767 17.9532 11.3195C17.9359 10.0224 17.9186 8.60418 17.9359 7.0995C17.9359 6.7363 17.9359 6.33851 17.9359 5.97531C17.9359 5.88883 17.9186 5.78506 17.9186 5.69859C17.9013 5.61211 17.884 5.50834 17.884 5.42186C17.8667 5.33539 17.8494 5.23162 17.8322 5.14514C17.7976 5.05866 17.7976 4.95489 17.763 4.86842C17.6419 4.50522 17.469 4.15931 17.2441 3.848C17.0193 3.53669 16.7599 3.24267 16.4485 3.00054C15.8432 2.51627 15.0649 2.18766 14.252 2.13578C14.1483 2.13578 14.0445 2.11848 13.9407 2.11848H13.6294C13.4219 2.11848 13.2143 2.11848 12.9895 2.11848C12.5571 2.11848 12.142 2.11848 11.7097 2.11848C10.8622 2.11848 9.99743 2.10119 9.13267 2.10119C8.26791 2.08389 7.40315 2.08389 6.52109 2.0666C6.08871 2.0666 5.67363 2.13578 5.25855 2.25684C4.84346 2.37791 4.46297 2.58545 4.11706 2.82758C3.42525 3.32914 2.9064 4.05554 2.64697 4.86842C2.5259 5.26621 2.45672 5.69859 2.45672 6.11367C2.45672 6.54605 2.45672 6.96113 2.45672 7.37622C2.45672 8.22368 2.47402 9.03656 2.47402 9.86673C2.49131 10.6796 2.49131 11.4752 2.50861 12.2708C2.50861 12.6685 2.50861 13.049 2.5259 13.4295C2.5259 13.5333 2.5259 13.6198 2.5432 13.7063C2.5432 13.7927 2.5432 13.8965 2.56049 13.983C2.59508 14.1559 2.61238 14.3462 2.66427 14.5191C2.75074 14.865 2.8891 15.2109 3.06205 15.505C3.11394 15.5741 3.14853 15.6606 3.20042 15.7298C3.2523 15.799 3.30419 15.8682 3.35607 15.9373C3.45984 16.0757 3.58091 16.1968 3.68468 16.3351C4.15165 16.8194 4.73969 17.1653 5.34502 17.3728C5.50068 17.4074 5.65633 17.4593 5.7947 17.4939C5.95035 17.5112 6.08871 17.5458 6.24437 17.5631C6.33085 17.5631 6.40003 17.5804 6.46921 17.5804C6.53839 17.5804 6.62487 17.5804 6.69405 17.5804C6.8497 17.5804 7.00536 17.5804 7.14372 17.5804C7.73176 17.5977 8.3025 17.5977 8.83865 17.5977C9.89366 17.615 10.8276 17.6323 11.5886 17.6323C13.076 17.6323 13.9407 17.6496 13.9407 17.6496Z" fill="#427ABB"/>
<path opacity="0.52" d="M16.5869 2.75847C16.3621 2.56823 16.1027 2.41257 15.8432 2.2915L15.3936 2.39527C15.7568 2.55093 16.1027 2.74118 16.414 2.98331C16.7253 3.22544 16.9847 3.51946 17.2096 3.83078C17.4171 4.15939 17.6073 4.48799 17.7284 4.85119C17.7457 4.88578 17.7457 4.92037 17.763 4.95496L17.9705 4.64365C17.8495 4.29775 17.6765 3.96914 17.469 3.65782C17.2096 3.32922 16.9155 3.0352 16.5869 2.75847Z" fill="#184681"/>
<path opacity="0.52" d="M5.29442 17.3729C4.68909 17.1654 4.10105 16.8194 3.63408 16.3352C3.51301 16.2141 3.40924 16.0758 3.30547 15.9374C3.25359 15.8682 3.2017 15.799 3.14982 15.7299C3.09793 15.6607 3.06334 15.5742 3.01145 15.505C2.87309 15.2456 2.75203 14.9862 2.66555 14.6921L2.45801 14.8132C2.66555 15.4531 3.01145 16.0412 3.46113 16.4908C3.97998 17.0097 4.58532 17.3556 5.22524 17.5631C5.31172 17.5804 5.39819 17.615 5.48467 17.6323L5.65762 17.4594C5.55385 17.4421 5.43278 17.3902 5.29442 17.3729Z" fill="#184681"/>
</svg>
