<svg width="10" height="10" viewBox="0 0 10 10" fill="none" xmlns="http://www.w3.org/2000/svg">
<path d="M5.24746 9.97857C5.97131 9.97857 6.6537 9.80696 7.26295 9.50924C5.73003 8.76121 4.67161 7.19201 4.67161 5.37173C4.67161 3.55145 5.73003 1.98225 7.26295 1.23421C6.6537 0.936497 5.97131 0.764893 5.24746 0.764893C2.70334 0.764893 0.640625 2.8276 0.640625 5.37173C0.640625 7.91585 2.70334 9.97857 5.24746 9.97857Z" fill="white"/>
<path d="M8.70347 2.49268C8.70347 3.129 8.18808 3.64438 7.55176 3.64438C8.18808 3.64438 8.70347 4.15977 8.70347 4.79609C8.70347 4.15977 9.21886 3.64438 9.85518 3.64438C9.21886 3.64438 8.70347 3.129 8.70347 2.49268Z" fill="white"/>
<path d="M6.39976 4.22021C6.39976 4.85653 5.88437 5.37192 5.24805 5.37192C5.88437 5.37192 6.39976 5.88731 6.39976 6.52363C6.39976 5.88731 6.91515 5.37192 7.55147 5.37192C6.91515 5.37192 6.39976 4.85653 6.39976 4.22021Z" fill="white"/>
<path d="M8.1273 8.25117C8.1273 7.61485 8.64268 7.09946 9.279 7.09946C8.64268 7.09946 8.1273 6.58407 8.1273 5.94775C8.1273 6.58407 7.61191 7.09946 6.97559 7.09946C7.61191 7.09946 8.1273 7.61485 8.1273 8.25117Z" fill="white"/>
</svg>
