<svg width="21" height="20" viewBox="0 0 21 20" fill="none" xmlns="http://www.w3.org/2000/svg">
<path d="M15.0334 19.3445H6.40312C3.53212 19.3445 1.19727 16.9923 1.19727 14.1386V5.49101C1.19727 2.62001 3.54941 0.285156 6.40312 0.285156H15.0334C17.9044 0.285156 20.2393 2.6373 20.2393 5.49101V14.1213C20.2393 16.9923 17.9044 19.3445 15.0334 19.3445Z" fill="#708A6E"/>
<path d="M2.39102 11.8038C2.52938 11.6827 2.68504 11.5617 2.8234 11.4579C3.04823 12.0978 2.85799 13.0837 2.85799 13.7755C2.85799 13.7755 2.97905 15.3839 3.94758 16.2833C4.91612 17.1826 5.95383 17.5112 5.95383 17.5112L10.0874 17.5804H15.0511C15.0511 17.5804 16.919 17.1307 17.7664 16.0238C18.5966 14.9342 18.5966 13.2566 18.5966 13.2566V10.1089C18.5966 10.1089 18.856 15.211 19.3749 15.0034C19.8938 14.8132 20.2051 13.7063 20.2051 13.7063V16.0238C20.2051 16.0238 19.8765 16.8021 19.2365 17.7707C18.5966 18.7392 17.7491 18.9986 17.7491 18.9986L16.4693 19.3272L11.8861 19.2062L7.04342 19.3272L4.65669 19.3964C4.65669 19.3964 2.78881 19.0678 2.0797 17.8398C1.3706 16.6119 1.04199 15.3839 1.04199 15.3839C1.07658 14.7613 1.11117 14.1214 1.16306 13.4987C1.19765 12.928 1.18035 12.8069 1.63003 12.4264C1.88946 12.2362 2.13159 12.0114 2.39102 11.8038Z" fill="#547657"/>
<path d="M3.47998 3.83096C3.58375 3.6753 3.70481 3.53694 3.84317 3.41587C4.79441 2.51652 6.10884 1.94578 7.40598 1.8766C8.40911 1.82472 9.41223 2.04955 10.4153 2.10144C12.4043 2.18791 14.5143 1.56529 16.313 2.39546C17.4372 2.91431 18.302 4.02121 18.5095 5.24916C18.423 4.3844 19.1321 3.51964 19.9969 3.41587C19.8758 2.17062 18.7862 1.21938 17.5929 0.83889C16.3995 0.458395 15.1369 0.544871 13.8917 0.562166C12.2659 0.596757 10.6402 0.544871 9.03173 0.389215C7.7 0.268148 6.35098 0.077901 5.03654 0.268148C3.3935 0.510281 1.73316 1.44422 1.38726 3.20833C1.33537 3.45046 1.33537 3.70989 1.33537 3.96932C1.31808 4.4017 1.31808 4.81678 1.30078 5.24916C1.36996 4.98974 1.45644 4.73031 1.52562 4.45359C1.66398 3.96932 1.97529 4.29793 2.13095 4.57465C2.3039 4.88597 2.37308 5.31835 2.45956 5.66425C2.61522 6.44253 2.6671 7.23811 2.70169 8.03369C2.75358 8.98493 2.85735 9.97075 2.85735 10.922C2.87464 9.52108 2.89194 8.12017 2.90923 6.71926C2.90923 5.76802 2.94382 4.66113 3.47998 3.83096Z" fill="#9CAE9E"/>
<path d="M14.047 1.94557C15.396 2.03205 17.2466 2.67197 18.2324 1.30565C18.267 1.25377 18.3016 1.18459 18.3016 1.1327C18.2843 1.02893 18.1806 0.977044 18.0941 0.942454C14.635 -0.510343 10.3804 0.423598 6.73114 0.16417C6.31606 0.129579 5.88368 0.112284 5.46859 0.181465C5.05351 0.250646 4.67302 0.423598 4.29252 0.59655C3.94662 0.752206 3.54883 0.977044 3.54883 1.35754C3.54883 1.4959 3.61801 1.63426 3.70448 1.75533C3.92932 2.03205 4.29252 2.18771 4.63843 2.23959C5.29564 2.32607 5.90097 2.10123 6.5236 2.01476C7.35377 1.89369 8.23583 1.91098 9.08329 1.89369C10.7436 1.80721 12.404 1.8418 14.047 1.94557Z" fill="#A1B3A3"/>
<path d="M5.07188 19.3445C4.41466 19.3272 3.75744 19.2234 3.1867 18.8948C2.68514 18.6008 2.44301 18.1684 2.1144 17.736C1.73391 17.2345 1.45718 16.6983 1.31882 16.0757C1.00751 14.5883 1.05939 12.8415 1.23234 11.3368C1.28423 10.9217 1.33612 10.5066 1.28423 10.0916C1.26693 11.1293 1.30153 12.1843 1.37071 13.222C1.43989 14.1386 1.43989 15.0899 1.71661 15.9719C1.95874 16.7502 2.39112 17.4939 2.97916 18.0646C3.44613 18.5143 4.43196 19.1369 5.10647 18.7219C5.90205 17.9263 4.69138 17.0615 4.13794 16.5081C4.01687 16.387 3.87851 16.2486 3.82662 16.0757C4.24171 16.5254 4.72597 16.9232 5.26213 17.2345C5.40049 17.3036 5.52155 17.3728 5.65991 17.4247C6.4382 17.6841 7.23378 17.5804 8.02936 17.5631C9.10166 17.5458 10.1567 17.5631 11.229 17.5804C11.6786 17.5804 12.111 17.5977 12.5607 17.6496C13.0623 17.7014 13.5638 17.6496 14.0481 17.615C14.4632 17.5804 14.9474 17.6496 15.3452 17.5458C15.8814 17.4074 16.4175 17.1826 16.8672 16.854C17.8011 16.1968 18.32 15.159 18.4757 14.0522C18.3719 14.7958 18.1297 15.5395 17.7493 16.1968C17.559 16.5427 17.3342 16.854 17.0747 17.148C16.8499 17.4247 16.4002 17.7706 16.5905 18.1857C16.7634 18.5489 17.4206 18.7392 17.7838 18.6873C17.9741 18.6527 18.1643 18.5662 18.3373 18.4797C18.7351 18.2549 19.081 17.9782 19.3923 17.6496C18.5102 18.8083 17.265 19.2234 15.8987 19.1369C14.1 19.0332 12.2667 19.1715 10.468 19.1888C9.13625 19.2061 7.82181 19.3445 6.50738 19.3272C6.075 19.3272 5.55614 19.3618 5.07188 19.3445Z" fill="#3A6145"/>
<path d="M14.2549 17.667C14.2549 17.667 15.1715 17.8572 16.2611 17.4422C17.3507 17.0271 17.9388 16.439 18.2155 15.7991C18.4922 15.1592 18.5614 13.5334 18.5614 13.5334C18.5614 13.5334 18.2674 15.5743 17.7658 16.024C17.2642 16.4909 16.7108 17.5805 14.2549 17.667Z" fill="#9CAE9E"/>
<path d="M1.31946 16.2487C1.02545 15.0899 1.30217 14.2079 1.38865 13.0664C1.26758 14.45 1.5616 16.0239 2.23611 17.2518C2.56472 17.8571 3.04898 18.4279 3.7235 18.67C4.57096 18.9813 5.60867 18.7738 5.159 17.6496C5.29736 17.8226 5.33195 18.0474 5.38384 18.2549C5.5049 18.9813 5.8854 19.0678 6.52532 19.0159C7.64951 18.9121 8.7564 18.843 9.89788 18.8257C10.2611 18.8084 10.6243 18.843 10.9875 18.8603C12.3711 18.9294 13.7374 18.9467 15.121 18.9467C15.5188 18.9467 16.0723 19.137 16.4528 18.964C17.1619 18.67 16.4009 18.0993 16.7814 17.615C16.7468 17.8744 16.7122 18.1512 16.8505 18.3587C17.0235 18.6008 17.3521 18.6527 17.6461 18.67C18.4244 18.7392 19.6005 16.6811 19.7561 15.9374C19.9464 15.1591 20.1712 11.5271 20.1712 11.5271L20.2231 15.8509C20.2231 15.8509 19.8599 17.1134 19.4275 17.6496C18.9952 18.1685 18.1304 19.0851 16.9024 19.2235C15.6745 19.3618 13.5818 19.2235 13.5818 19.2235H8.84287L5.66056 19.4483C5.66056 19.4483 3.74079 19.5002 3.01439 18.7738C2.2534 17.9955 1.59619 17.321 1.31946 16.2487Z" fill="#8FA08F"/>
<path d="M6.42034 17.2517C5.90149 17.148 5.39992 16.975 4.93295 16.6291C4.31033 16.1794 3.75688 15.5741 3.56663 14.8304C3.37639 14.0521 3.3418 13.2566 3.3418 12.461C3.41098 13.0836 3.48016 13.6889 3.67041 14.277C3.86065 14.865 4.18926 15.4358 4.67353 15.799C5.53829 16.4562 6.62788 16.5081 7.6656 16.4562C9.48159 16.3524 11.3149 16.3351 13.1482 16.2313C14.3588 16.1622 15.656 16.0411 16.538 15.2109C17.3336 14.4499 17.5584 13.2739 17.6622 12.167C17.766 11.1465 17.8006 10.1261 17.7833 9.10571C17.9216 10.5585 17.9562 12.0286 17.8871 13.4987C17.8525 14.5364 17.6968 15.6779 16.9185 16.3697C16.1056 17.0788 14.7739 17.1307 13.7535 17.2345C12.5255 17.3555 11.3322 17.1134 10.1215 17.1653C8.89355 17.1999 7.61371 17.4593 6.42034 17.2517Z" fill="#819983"/>
<path d="M13.3737 1.91089C11.2118 1.98007 9.01534 1.98007 6.87073 2.01466C6.21352 2.03195 5.50441 2.13573 4.98556 2.55081C4.51859 2.89671 3.89596 3.19073 3.58465 3.69229C3.44629 3.91713 3.32522 4.14197 3.23874 4.3841C2.96202 5.14509 2.92743 5.97526 2.92743 6.78813C2.92743 7.87773 2.85825 8.96733 3.01391 10.0742C3.01391 8.82897 3.15227 7.60101 3.4117 6.39034C3.63653 5.35263 4.06891 4.33222 4.95097 3.70959C6.04056 2.9486 7.59713 2.91401 8.87698 2.82753C10.4335 2.72376 12.0074 2.75835 13.564 2.9486C14.1866 3.01778 14.8092 3.12155 15.3627 3.38098C16.6425 3.95172 17.0922 5.28345 17.4554 6.52871C17.6456 7.18592 17.8532 8.11986 17.784 8.79438C17.8532 8.15446 17.8359 7.54912 17.8186 6.9092C17.8013 6.37305 17.8705 5.75042 18.2683 5.33534C18.3374 5.26616 18.4239 5.17968 18.4412 5.0932C18.4412 5.02402 18.4239 4.97214 18.4066 4.92025C18.2856 4.64353 18.1818 4.36681 18.0607 4.10738C18.0088 3.96902 17.9397 3.83066 17.8532 3.70959C17.5938 3.34639 17.1268 3.03508 16.7982 2.74106C16.3658 2.37786 15.7951 2.11843 15.2416 2.03196C14.6363 1.92818 14.0309 1.94548 13.4256 1.96277C13.4083 1.91089 13.391 1.91089 13.3737 1.91089Z" fill="#547657"/>
<path d="M4.24053 2.2223C4.75939 2.03206 5.31283 1.96287 5.84898 1.73804C4.77668 2.18771 3.6179 2.68927 3.02987 3.6751C2.61478 4.3842 2.52831 5.23167 2.49372 6.04454C2.44183 5.52569 2.38994 5.00683 2.45913 4.48797C2.52831 3.93453 2.77044 3.38108 3.13364 2.966C3.47954 2.56821 3.84274 2.37796 4.24053 2.2223Z" fill="white"/>
<path d="M2.75374 2.22227C2.61538 2.29145 2.49431 2.42981 2.44243 2.56818C2.42513 2.62006 2.40784 2.68924 2.42513 2.75842C2.44243 2.8276 2.49431 2.87949 2.56349 2.86219C2.61538 2.86219 2.66727 2.81031 2.70186 2.75842C2.82292 2.62006 2.97858 2.499 3.16883 2.42981C3.22071 2.41252 3.28989 2.39522 3.32448 2.34334C3.35907 2.29145 3.37637 2.22227 3.32448 2.18768C3.30719 2.17039 3.28989 2.17039 3.2553 2.15309C3.03046 2.10121 2.80563 2.15309 2.61538 2.27416L2.75374 2.22227Z" fill="white"/>
<path d="M1.50807 2.89683C1.52536 2.84494 1.55995 2.77576 1.59454 2.67199C1.62913 2.58552 1.68102 2.48174 1.73291 2.37797C1.85397 2.15314 2.02692 1.911 2.28635 1.65157C2.54578 1.39215 2.87439 1.15001 3.28947 0.959767C3.39324 0.907881 3.49702 0.855996 3.61808 0.821405C3.66997 0.80411 3.73915 0.786815 3.79103 0.752224L3.84292 0.734929H3.86021H3.87751L3.96399 0.700339C4.20612 0.631158 4.46555 0.561977 4.74227 0.527387C5.29572 0.440911 5.90105 0.423616 6.55826 0.440911C7.8727 0.475501 9.36009 0.527387 10.9685 0.579272C11.7814 0.596568 12.6289 0.631158 13.4936 0.665748C14.3757 0.683044 15.275 0.648453 16.1744 0.734929C16.6241 0.76952 17.0737 0.8387 17.5061 0.977062C17.6099 1.01165 17.7137 1.04624 17.8347 1.08083C18.0942 1.16731 18.2844 1.28838 18.5092 1.44403C18.5611 1.27108 18.6303 1.09813 18.6822 0.925176C18.5092 0.734929 18.2844 0.613863 18.0423 0.527387C17.9212 0.475501 17.8001 0.440911 17.6791 0.40632C17.1948 0.267959 16.7105 0.198778 16.2436 0.164188C15.275 0.0950069 14.3757 0.129597 13.5109 0.129597C12.6462 0.129597 11.7987 0.112302 10.9858 0.112302C9.36009 0.0950069 7.89 0.0604165 6.55826 0.0777117C5.90105 0.0950069 5.27842 0.129597 4.70768 0.250664C4.13694 0.354435 3.63538 0.527387 3.203 0.76952C2.35553 1.23649 1.87127 1.87641 1.64643 2.34338C1.59454 2.46445 1.55995 2.56822 1.52536 2.6547C1.50807 2.74117 1.47348 2.82765 1.45618 2.89683C1.42159 3.01789 1.4043 3.08708 1.4043 3.08708L1.45618 3.10437C1.47348 3.08708 1.47348 3.03519 1.50807 2.89683Z" fill="#708A6E"/>
<path d="M14.5669 17.7707C14.5669 17.7707 13.6676 17.7707 12.111 17.788C11.3327 17.788 10.3815 17.8053 9.29187 17.8226C8.73843 17.8226 8.16769 17.8399 7.54506 17.8399C7.3894 17.8399 7.23375 17.8399 7.07809 17.8399C6.99161 17.8399 6.92243 17.8399 6.83596 17.8399C6.74948 17.8399 6.6803 17.8399 6.59382 17.8399C6.43817 17.8399 6.26522 17.8053 6.09226 17.788C5.91931 17.7707 5.76366 17.7188 5.5907 17.667C4.93349 17.4594 4.29356 17.0962 3.77471 16.5774C3.25585 16.0585 2.85806 15.384 2.66782 14.623C2.61593 14.4328 2.59863 14.2425 2.56404 14.0523C2.54675 13.9485 2.54675 13.862 2.54675 13.7582C2.54675 13.6545 2.52945 13.568 2.54675 13.4642C2.54675 13.0837 2.54675 12.6859 2.56404 12.2881C2.58134 11.4926 2.58134 10.6797 2.59863 9.84952C2.61593 9.01935 2.61593 8.18918 2.61593 7.34172C2.61593 6.90934 2.61593 6.49426 2.61593 6.06187C2.61593 5.6295 2.68511 5.19712 2.82347 4.78203C3.1002 3.95186 3.63635 3.19087 4.36274 2.67202C4.72594 2.41259 5.12373 2.18775 5.55611 2.04939C5.98849 1.91103 6.43817 1.84185 6.88784 1.82455C7.7699 1.78996 8.66925 1.77267 9.5686 1.77267C10.4679 1.77267 11.35 1.75537 12.2321 1.75537C12.6644 1.75537 13.1141 1.75537 13.5465 1.75537C13.7713 1.75537 13.9789 1.75537 14.2037 1.75537H14.5323C14.6534 1.75537 14.7572 1.77267 14.8609 1.77267C15.7603 1.82455 16.6077 2.17046 17.2823 2.68931C17.6109 2.96604 17.9222 3.26005 18.1643 3.60596C18.4064 3.95186 18.5967 4.33236 18.7178 4.71285C18.7523 4.81662 18.7696 4.9031 18.8042 5.00687C18.8388 5.11064 18.8561 5.19712 18.8734 5.30089C18.8907 5.40466 18.908 5.50843 18.9253 5.59491C18.9253 5.69868 18.9426 5.80245 18.9426 5.88892C18.9599 6.28671 18.9426 6.66721 18.9426 7.0477C18.9426 8.56968 18.9253 9.98789 18.908 11.3196C18.8907 11.9768 18.8907 12.6168 18.8734 13.2221C18.8734 13.3777 18.8734 13.5161 18.8561 13.6718C18.8561 13.7409 18.8388 13.8101 18.8388 13.8966C18.8388 13.9658 18.8388 14.035 18.8215 14.1214C18.7869 14.4155 18.7178 14.6922 18.614 14.9516C18.4237 15.4705 18.1643 15.9028 17.853 16.266C17.5417 16.6292 17.1958 16.906 16.8845 17.1135C16.21 17.5286 15.6046 17.6842 15.1895 17.7361C14.982 17.7707 14.8263 17.7707 14.7053 17.7707C14.6188 17.7707 14.5669 17.7707 14.5669 17.7707ZM14.5669 17.7361C14.5669 17.7361 14.6188 17.7361 14.7226 17.7188C14.8263 17.7188 14.9993 17.7188 15.1895 17.667C15.6046 17.5978 16.21 17.4421 16.8672 17.027C17.1958 16.8195 17.5244 16.5255 17.8011 16.1796C18.0951 15.8164 18.3373 15.384 18.5102 14.8824C18.5621 14.7614 18.5794 14.623 18.614 14.5019C18.6313 14.4328 18.6486 14.3636 18.6486 14.2944C18.6659 14.2252 18.6659 14.156 18.6832 14.0868C18.7005 14.0177 18.7005 13.9485 18.7005 13.8793C18.7005 13.8101 18.7005 13.7409 18.7005 13.6545C18.7005 13.5161 18.7005 13.3604 18.7005 13.2048C18.7005 12.5995 18.6832 11.9768 18.6659 11.3023C18.6486 9.98789 18.6313 8.55238 18.6313 7.03041C18.6313 6.64991 18.6313 6.26942 18.6313 5.88892C18.6313 5.80245 18.614 5.69868 18.614 5.6122C18.5967 5.52572 18.5794 5.42195 18.5621 5.33548C18.5448 5.249 18.5275 5.14523 18.4929 5.05875C18.4583 4.97228 18.441 4.86851 18.4064 4.78203C18.2854 4.41883 18.0951 4.07293 17.8876 3.74432C17.6628 3.41571 17.386 3.13899 17.0747 2.87956C16.4521 2.378 15.6392 2.04939 14.809 1.9975C14.7053 1.9975 14.5842 1.98021 14.4977 1.98021H14.1691C13.9443 1.98021 13.7367 1.98021 13.5119 1.98021C13.0795 1.98021 12.6298 1.98021 12.1975 1.98021C11.35 1.98021 10.4507 1.98021 9.5686 1.98021C8.66925 1.96291 7.78719 1.96291 6.88784 1.94562C6.45546 1.94562 6.00579 2.0148 5.5907 2.13587C5.17562 2.25693 4.77783 2.46447 4.41463 2.7239C3.68823 3.22546 3.16938 3.96916 2.89265 4.78203C2.75429 5.19712 2.70241 5.6122 2.70241 6.04458C2.70241 6.47696 2.70241 6.90934 2.70241 7.32443C2.70241 8.17189 2.7197 9.01935 2.7197 9.83223C2.737 10.6624 2.737 11.4753 2.75429 12.2709C2.75429 12.6686 2.75429 13.0664 2.77159 13.4469C2.77159 13.5507 2.77159 13.6372 2.78888 13.7409C2.78888 13.8274 2.78888 13.9312 2.80618 14.0177C2.84077 14.2079 2.85806 14.3809 2.90995 14.5711C2.99642 14.9343 3.15208 15.2629 3.32503 15.5742C3.37692 15.6434 3.41151 15.7299 3.46339 15.7991C3.51528 15.8683 3.56717 15.9374 3.61905 16.0066C3.72282 16.145 3.84389 16.2833 3.96495 16.4044C4.44922 16.906 5.05455 17.2519 5.67718 17.4594C5.83284 17.494 5.98849 17.5459 6.14415 17.5805C6.29981 17.5978 6.45546 17.6497 6.61112 17.6497C6.6976 17.6497 6.76678 17.667 6.85325 17.667C6.92243 17.667 7.00891 17.667 7.07809 17.667C7.23375 17.667 7.3894 17.667 7.54506 17.667C8.15039 17.6842 8.73843 17.6842 9.29187 17.6842C10.3815 17.7015 11.3327 17.7188 12.111 17.7188C13.6676 17.7361 14.5669 17.7361 14.5669 17.7361Z" fill="#9AA59C"/>
<path d="M20.4989 3.83078C20.4124 3.31193 20.274 2.79307 20.0492 2.3261C19.9281 2.08397 19.807 1.85913 19.6514 1.63429L19.5995 1.54782L19.5476 1.46134C19.4957 1.40945 19.4611 1.35757 19.4093 1.30568C19.3055 1.20191 19.1844 1.11544 19.0806 1.04625C18.9596 0.977074 18.8558 0.907893 18.7347 0.856007L18.6483 0.821417L18.5618 0.769531H18.5445C18.5272 0.977074 18.4753 1.16732 18.4061 1.34027L18.4753 1.37486C18.5791 1.42675 18.6829 1.47863 18.7693 1.54782C18.8558 1.5997 18.9423 1.66888 19.0115 1.73806C19.0461 1.77265 19.0807 1.80724 19.1152 1.84183L19.1671 1.91101L19.219 1.9802C19.3574 2.17044 19.4611 2.36069 19.5649 2.56823C19.7552 2.98332 19.8935 3.45029 19.98 3.93455C20.153 4.90308 20.1184 5.9235 20.1011 6.96121C20.0838 7.48007 20.0838 8.01622 20.0838 8.53507C20.0838 9.05393 20.0665 9.59008 20.0665 10.1262C20.0665 11.1812 20.0492 12.2535 20.0492 13.3431C20.0492 13.8793 20.0492 14.4154 20.0492 14.9516C20.0492 15.4877 20.0319 16.0239 19.8935 16.5082C19.7552 17.0097 19.4611 17.4421 19.1152 17.8572C18.7693 18.255 18.3715 18.6182 17.9219 18.8603C17.4549 19.1024 16.936 19.1716 16.3999 19.2062C15.8637 19.2235 15.3449 19.1889 14.8087 19.1716C14.5493 19.1543 14.2726 19.137 14.0132 19.137C13.7537 19.137 13.477 19.137 13.2176 19.137C12.6987 19.137 12.1626 19.137 11.6437 19.137C10.606 19.137 9.56829 19.1197 8.56517 19.1197C7.54475 19.0851 6.54163 19.2408 5.5904 19.2235C5.12343 19.2235 4.63916 19.1716 4.22408 19.0333L4.06842 18.9814L3.89547 18.9122L3.80899 18.8776H3.7917H3.7744L3.73981 18.8603C3.68793 18.843 3.63604 18.8084 3.58416 18.7911C3.39391 18.6874 3.20366 18.5663 3.03071 18.4452C2.6848 18.1858 2.37349 17.8745 2.14865 17.5113C2.09677 17.4248 2.02759 17.3383 1.9757 17.2346C1.92382 17.1481 1.88923 17.0616 1.83734 16.9578C1.82005 16.9059 1.78545 16.8541 1.76816 16.8195L1.71627 16.6811C1.68168 16.5773 1.64709 16.4909 1.6125 16.3871C1.37037 15.5915 1.35307 14.7613 1.38767 13.9658C1.40496 13.568 1.42226 13.1702 1.43955 12.7724C1.45685 12.3746 1.45685 11.9941 1.45685 11.6309C1.45685 10.8872 1.45685 10.1954 1.45685 9.5382C1.45685 8.88098 1.43955 8.25835 1.43955 7.68761C1.43955 7.11687 1.42226 6.59801 1.42226 6.13104C1.38767 5.14522 1.38767 4.40152 1.38767 3.89996C1.38767 3.3984 1.40496 3.12168 1.40496 3.12168H1.35307C1.35307 3.12168 1.31848 3.38111 1.2666 3.89996C1.23201 4.40152 1.21471 5.14522 1.18012 6.09645C1.16283 6.56342 1.14553 7.09957 1.12824 7.65302C1.11094 8.22376 1.09365 8.82909 1.07635 9.50361C1.05906 10.1608 1.04176 10.8526 1.02447 11.5963C1.02447 11.9595 1.00717 12.34 0.989876 12.7205C0.972581 13.101 0.93799 13.4988 0.9034 13.9139C0.851514 14.7268 0.868809 15.6088 1.12824 16.4909C1.16283 16.5946 1.19742 16.7157 1.23201 16.8195L1.30119 16.9751C1.31848 17.0443 1.35307 17.0789 1.37037 17.1308C1.42226 17.2346 1.47414 17.3556 1.52603 17.4421C1.57791 17.5459 1.64709 17.6496 1.71627 17.7361C1.993 18.1339 2.32161 18.4798 2.7194 18.7738C2.90964 18.9122 3.13448 19.0506 3.35932 19.1543C3.4112 19.1889 3.48038 19.2062 3.53227 19.2408L3.56686 19.2581L3.58416 19.2754L3.61875 19.2927L3.70522 19.3273L3.87817 19.3965L4.06842 19.4483C4.56998 19.5867 5.07154 19.604 5.55581 19.604C6.55893 19.5867 7.52746 19.3965 8.53058 19.3965C9.5337 19.3619 10.5714 19.3446 11.6091 19.3273C12.128 19.31 12.6468 19.31 13.183 19.31C13.4424 19.31 13.7018 19.31 13.9786 19.2927C14.238 19.2927 14.4974 19.31 14.7741 19.3273C15.3103 19.3619 15.8464 19.3965 16.3826 19.3792C16.6593 19.3792 16.9188 19.3446 17.1955 19.31C17.4722 19.2581 17.7489 19.1889 17.9911 19.0506C18.4926 18.7911 18.9077 18.4279 19.2882 18.0301C19.4784 17.8226 19.6514 17.6151 19.7898 17.3729C19.9454 17.1481 20.0665 16.8887 20.153 16.6119C20.3259 16.0758 20.3605 15.505 20.3778 14.9689C20.3951 14.4327 20.4124 13.8966 20.4297 13.3604C20.4643 12.2881 20.4816 11.2158 20.5162 10.1608C20.5507 9.10582 20.568 8.03351 20.6026 7.0131C20.6199 5.9062 20.6718 4.86849 20.4989 3.83078Z" fill="#254424"/>
<path d="M14.4446 17.6669C14.4446 17.6669 13.5799 17.6669 12.0579 17.6842C11.2969 17.6842 10.3803 17.7015 9.30797 17.7187C8.77182 17.7187 8.21837 17.736 7.61304 17.736C7.45738 17.736 7.31902 17.736 7.16336 17.736C7.07689 17.736 7.00771 17.736 6.92123 17.736C6.85205 17.736 6.76557 17.736 6.69639 17.736C6.54073 17.736 6.38508 17.7015 6.21213 17.6842C6.05647 17.6669 5.88352 17.615 5.72786 17.5631C5.08794 17.3555 4.46531 17.0096 3.96375 16.4908C3.46219 15.9719 3.0644 15.3147 2.89145 14.5537C2.83956 14.3635 2.82227 14.1732 2.78768 13.983C2.77038 13.8792 2.77038 13.7927 2.77038 13.689C2.77038 13.5852 2.75309 13.4987 2.77038 13.3949C2.77038 13.0145 2.77038 12.6167 2.78768 12.2362C2.80497 11.4579 2.80497 10.645 2.82227 9.83214C2.82227 9.01926 2.83956 8.18909 2.83956 7.34163C2.83956 6.92655 2.83956 6.49417 2.83956 6.07908C2.83956 5.6467 2.90874 5.21432 3.04711 4.81653C3.30653 4.00366 3.82539 3.24267 4.55179 2.72381C4.89769 2.46439 5.29548 2.23955 5.71057 2.10119C6.12565 1.96282 6.57533 1.89364 7.00771 1.87635C7.87247 1.85905 8.75452 1.85905 9.61928 1.84176C10.484 1.84176 11.3488 1.82446 12.1963 1.82446C12.6286 1.82446 13.0437 1.82446 13.4761 1.82446C13.6837 1.82446 13.8912 1.82446 14.116 1.82446H14.4273C14.5484 1.82446 14.6349 1.84176 14.756 1.84176C15.6207 1.89364 16.4509 2.22225 17.1081 2.74111C17.4367 3.00054 17.7307 3.31185 17.9729 3.65775C18.1977 4.00366 18.3879 4.36686 18.509 4.76465C18.5436 4.85112 18.5609 4.95489 18.5955 5.05866C18.6301 5.16244 18.6474 5.24891 18.6647 5.35268C18.682 5.45645 18.6993 5.54293 18.7166 5.6467C18.7166 5.75047 18.7338 5.85424 18.7338 5.94072C18.7511 6.33851 18.7338 6.70171 18.7338 7.0822C18.7338 8.56959 18.7166 9.98779 18.7166 11.3022C18.6993 11.9594 18.6993 12.5821 18.682 13.1701C18.682 13.3258 18.682 13.4641 18.6647 13.6198C18.6647 13.689 18.6474 13.7581 18.6474 13.8273C18.6474 13.8965 18.6474 13.9657 18.6301 14.0349C18.5955 14.3289 18.5263 14.5883 18.4398 14.8477C18.2669 15.3493 18.0075 15.799 17.6961 16.1449C17.4021 16.4908 17.0735 16.7675 16.7449 16.9923C16.105 17.4074 15.4996 17.5631 15.1019 17.615C14.8943 17.6496 14.7387 17.6496 14.6349 17.6496C14.4965 17.6669 14.4446 17.6669 14.4446 17.6669ZM14.4446 17.6496C14.4446 17.6496 14.4965 17.6496 14.6003 17.6323C14.7041 17.6323 14.8597 17.6323 15.0673 17.5804C15.4651 17.5112 16.0531 17.3555 16.693 16.9405C17.0043 16.7329 17.3329 16.4562 17.6097 16.093C17.8864 15.7298 18.1285 15.2974 18.3015 14.8132C18.3534 14.6921 18.3707 14.5537 18.4052 14.4327C18.4225 14.3635 18.4398 14.2943 18.4398 14.2424C18.4571 14.1732 18.4571 14.104 18.4744 14.0349C18.4917 13.9657 18.4917 13.8965 18.4917 13.8273C18.4917 13.7581 18.4917 13.689 18.4917 13.6198C18.4917 13.4814 18.4917 13.3258 18.4917 13.1874C18.4917 12.5994 18.4744 11.9767 18.4571 11.3195C18.4398 10.0224 18.4225 8.60418 18.4398 7.0995C18.4398 6.7363 18.4398 6.33851 18.4398 5.97531C18.4398 5.88883 18.4225 5.78506 18.4225 5.69859C18.4052 5.61211 18.3879 5.50834 18.3879 5.42186C18.3706 5.33539 18.3534 5.23162 18.3361 5.14514C18.3015 5.05866 18.3015 4.95489 18.2669 4.86842C18.1458 4.50522 17.9729 4.15931 17.748 3.848C17.5232 3.53669 17.2638 3.24267 16.9524 3.00054C16.3471 2.51627 15.5688 2.18766 14.756 2.13578C14.6522 2.13578 14.5484 2.11848 14.4446 2.11848H14.1333C13.9258 2.11848 13.7182 2.11848 13.4934 2.11848C13.061 2.11848 12.6459 2.11848 12.2136 2.11848C11.3661 2.11848 10.5013 2.10119 9.63657 2.10119C8.77181 2.08389 7.90706 2.08389 7.025 2.0666C6.59262 2.0666 6.17754 2.13578 5.76245 2.25684C5.34737 2.37791 4.96687 2.58545 4.62097 2.82758C3.92916 3.32914 3.4103 4.05554 3.15088 4.86842C3.02981 5.26621 2.96063 5.69859 2.96063 6.11367C2.96063 6.54605 2.96063 6.96113 2.96063 7.37622C2.96063 8.22368 2.97792 9.03656 2.97792 9.86673C2.99522 10.6796 2.99522 11.4752 3.01251 12.2708C3.01251 12.6685 3.01251 13.049 3.02981 13.4295C3.02981 13.5333 3.02981 13.6198 3.04711 13.7063C3.04711 13.7927 3.04711 13.8965 3.0644 13.983C3.09899 14.1559 3.11629 14.3462 3.16817 14.5191C3.25465 14.865 3.39301 15.2109 3.56596 15.505C3.61785 15.5741 3.65244 15.6606 3.70432 15.7298C3.75621 15.799 3.80809 15.8682 3.85998 15.9373C3.96375 16.0757 4.08482 16.1968 4.18859 16.3351C4.65556 16.8194 5.2436 17.1653 5.84893 17.3728C6.00458 17.4074 6.16024 17.4593 6.2986 17.4939C6.45426 17.5112 6.59262 17.5458 6.74828 17.5631C6.83475 17.5631 6.90393 17.5804 6.97311 17.5804C7.0423 17.5804 7.12877 17.5804 7.19795 17.5804C7.35361 17.5804 7.50927 17.5804 7.64763 17.5804C8.23566 17.5977 8.80641 17.5977 9.34256 17.5977C10.3976 17.615 11.3315 17.6323 12.0925 17.6323C13.5799 17.6323 14.4446 17.6496 14.4446 17.6496Z" fill="#284927"/>
<path opacity="0.52" d="M17.0908 2.75847C16.866 2.56823 16.6066 2.41257 16.3471 2.2915L15.8975 2.39527C16.2607 2.55093 16.6066 2.74118 16.9179 2.98331C17.2292 3.22544 17.4886 3.51946 17.7135 3.83078C17.921 4.15939 18.1112 4.48799 18.2323 4.85119C18.2496 4.88578 18.2496 4.92037 18.2669 4.95496L18.4744 4.64365C18.3534 4.29775 18.1804 3.96914 17.9729 3.65782C17.7135 3.32922 17.4194 3.0352 17.0908 2.75847Z" fill="#254424"/>
<path opacity="0.52" d="M5.79735 17.3729C5.19202 17.1654 4.60398 16.8194 4.13701 16.3352C4.01594 16.2141 3.91217 16.0758 3.8084 15.9374C3.75652 15.8682 3.70463 15.799 3.65275 15.7299C3.60086 15.6607 3.56627 15.5742 3.51438 15.505C3.37602 15.2456 3.25496 14.9862 3.16848 14.6921L2.96094 14.8132C3.16848 15.4531 3.51438 16.0412 3.96406 16.4908C4.48291 17.0097 5.08825 17.3556 5.72817 17.5631C5.81464 17.5804 5.90112 17.615 5.9876 17.6323L6.16055 17.4594C6.05678 17.4421 5.93571 17.3902 5.79735 17.3729Z" fill="#254424"/>
<path d="M4.05178 6.73645C3.87883 6.78833 3.70588 6.85752 3.55022 6.94399C3.2562 7.08235 3.13514 7.42826 3.03137 7.72228C2.75464 7.09965 3.08325 6.32136 3.22161 5.69874C3.23891 5.61226 3.2562 5.52579 3.32538 5.4566C3.37727 5.38742 3.49834 5.37013 3.56752 5.42201C3.6194 5.4566 3.6367 5.50849 3.65399 5.57767C3.9999 6.40784 6.04073 6.01005 6.80172 6.01005C8.13345 6.01005 9.48247 6.02735 10.8142 6.02735C10.3472 6.32136 9.46518 6.11382 8.92903 6.13112C8.18533 6.14841 7.45894 6.2003 6.73254 6.28677C5.86778 6.39055 4.89925 6.45973 4.05178 6.73645Z" fill="#547657"/>
<path d="M16.764 4.66094C16.7813 5.00684 16.47 5.28357 16.1587 5.45652C15.6917 5.69865 15.1556 5.78513 14.6367 5.8716C14.0141 5.97537 13.4088 6.07914 12.7861 6.18292C14.0487 6.18292 15.3285 6.20021 16.5911 6.20021C16.8851 6.20021 17.231 6.21751 17.4212 6.44234C17.3348 5.78513 17.0926 5.12791 16.7294 4.57446L16.764 4.66094Z" fill="#547657"/>
<path d="M17.6455 12.2883C17.6801 12.4267 17.4725 12.5132 17.3342 12.5305C16.7289 12.5823 16.1235 12.6515 15.5182 12.7034C14.7745 12.7726 14.0308 12.8418 13.2871 12.911C14.3421 12.9283 15.3971 12.9628 16.4521 12.9801C16.6078 12.9801 16.7807 12.9801 16.9191 13.032C17.1958 13.1185 17.4207 13.3606 17.4898 13.6547C17.5417 13.2396 17.5763 12.8072 17.6282 12.3921L17.6455 12.2883Z" fill="#819983"/>
<path opacity="0.61" d="M17.5754 16.4391C17.8002 16.2835 17.8867 16.0067 18.0078 15.7646C18.0423 15.7127 18.0769 15.6435 18.1461 15.6262C18.2326 15.609 18.3018 15.6954 18.3191 15.7819C18.3191 15.8684 18.2845 15.9549 18.2499 16.024C18.0596 16.3699 17.9559 16.6986 17.5235 16.785C17.4889 16.785 17.4543 16.8023 17.4197 16.785C17.3678 16.7504 17.3505 16.664 17.4024 16.6121C17.437 16.5602 17.5062 16.5256 17.5581 16.491C17.5408 16.4564 17.5581 16.4564 17.5754 16.4391Z" fill="white"/>
</svg>
