<svg width="10" height="8" viewBox="0 0 10 8" fill="none" xmlns="http://www.w3.org/2000/svg">
<path d="M5.0256 7.81171H4.5861C4.55754 7.80618 4.5299 7.79788 4.50134 7.79512C4.22124 7.76564 3.9393 7.74905 3.66197 7.70391C3.32014 7.64862 2.99398 7.69008 2.67427 7.81171H2.52132C2.51487 7.80433 2.50934 7.7942 2.50105 7.78959C1.77685 7.35194 1.23325 6.74937 0.921825 5.96436C0.542222 5.00614 0.341364 4.00461 0.27779 2.97545C0.268576 2.8225 0.250149 2.67048 0.236328 2.51845V1.88086C0.243699 1.83848 0.253834 1.7961 0.258441 1.75371C0.310038 1.3262 0.468513 0.953046 0.785463 0.650838C1.04345 0.404833 1.31249 0.180019 1.66445 0.0795898H1.92796C2.0118 0.114602 2.10578 0.135793 2.17765 0.18739C2.38772 0.339415 2.59964 0.492362 2.79036 0.666501C2.87697 0.744817 2.93041 0.870123 2.97095 0.984373C3.00319 1.07467 3.00596 1.18247 2.89355 1.2442C2.87973 1.25157 2.87236 1.27921 2.8696 1.29764C2.84748 1.44782 2.77377 1.54733 2.63925 1.55746C2.59595 1.62841 2.57384 1.69751 2.52685 1.73252C2.43747 1.79978 2.33797 1.84769 2.24952 1.92601C2.1067 2.05224 1.79436 1.97945 1.68011 1.82466C1.64971 1.84309 1.62114 1.8652 1.5889 1.88086C1.55296 1.89929 1.51519 1.91311 1.47833 1.92785C1.39541 1.9601 1.36869 2.01538 1.39725 2.10199C1.59074 2.67324 1.84964 3.20303 2.29835 3.62501C2.66505 3.97052 2.94238 4.38145 3.13771 4.84675C3.1672 4.91769 3.19945 4.98864 3.23906 5.07801C3.4952 3.75585 4.28113 3.19381 5.59592 3.37348C5.33057 2.57005 5.71939 1.89653 6.24364 1.57681C6.76974 1.25618 7.34836 1.16865 7.94541 1.2829C8.58945 1.40544 8.95983 1.84309 9.15056 2.44658C9.20308 2.61243 9.22611 2.78749 9.26296 2.95794V3.41955C9.23809 3.53287 9.22058 3.64897 9.18741 3.75953C8.9884 4.43305 8.52679 4.87254 7.91408 5.17475C7.8459 5.20884 7.81089 5.2503 7.78601 5.32125C7.62662 5.78378 7.40457 6.21498 7.10881 6.60564C6.68866 7.16122 6.16625 7.57307 5.4743 7.73615C5.32965 7.76932 5.1767 7.78591 5.0256 7.81171Z" fill="white"/>
</svg>
