<svg width="20" height="20" viewBox="0 0 20 20" fill="none" xmlns="http://www.w3.org/2000/svg">
<path d="M14.2815 19.3445H5.65117C2.78016 19.3445 0.445312 16.9923 0.445312 14.1386V5.49101C0.445312 2.62001 2.79746 0.285156 5.65117 0.285156H14.2815C17.1525 0.285156 19.4873 2.6373 19.4873 5.49101V14.1213C19.4873 16.9923 17.1525 19.3445 14.2815 19.3445Z" fill="#828F9E"/>
<path d="M1.63906 11.8038C1.77743 11.6827 1.93308 11.5617 2.07144 11.4579C2.29628 12.0978 2.10603 13.0837 2.10603 13.7755C2.10603 13.7755 2.2271 15.3839 3.19563 16.2833C4.16416 17.1826 5.20187 17.5112 5.20187 17.5112L9.33543 17.5804H14.2991C14.2991 17.5804 16.167 17.1307 17.0145 16.0238C17.8447 14.9342 17.8447 13.2566 17.8447 13.2566V10.1089C17.8447 10.1089 18.1041 15.211 18.6229 15.0034C19.1418 14.8132 19.4531 13.7063 19.4531 13.7063V16.0238C19.4531 16.0238 19.1245 16.8021 18.4846 17.7707C17.8447 18.7392 16.9972 18.9986 16.9972 18.9986L15.7174 19.3272L11.1341 19.2062L6.29147 19.3272L3.90473 19.3964C3.90473 19.3964 2.03685 19.0678 1.32775 17.8398C0.618648 16.6119 0.290039 15.3839 0.290039 15.3839C0.324629 14.7613 0.35922 14.1214 0.411105 13.4987C0.445696 12.928 0.428401 12.8069 0.878076 12.4264C1.1375 12.2362 1.37964 12.0114 1.63906 11.8038Z" fill="#68788A"/>
<path d="M2.72802 3.83071C2.83179 3.67506 2.95286 3.5367 3.09122 3.41563C4.04246 2.51628 5.35689 1.94554 6.65403 1.87636C7.65715 1.82447 8.66027 2.04931 9.66339 2.10119C11.6523 2.18767 13.7624 1.56504 15.5611 2.39521C16.6852 2.91407 17.55 4.02096 17.7575 5.24892C17.6711 4.38416 18.3802 3.5194 19.2449 3.41563C19.1239 2.17038 18.0343 1.21914 16.8409 0.838646C15.6475 0.458151 14.385 0.544627 13.1397 0.561922C11.514 0.596513 9.88823 0.544627 8.27978 0.38897C6.94805 0.267904 5.59902 0.0776569 4.28459 0.267904C2.64155 0.510037 0.981208 1.44398 0.635304 3.20809C0.583419 3.45022 0.583418 3.70965 0.583418 3.96908C0.566123 4.40146 0.566123 4.81654 0.548828 5.24892C0.618009 4.98949 0.704485 4.73006 0.773666 4.45334C0.912027 3.96908 1.22334 4.29768 1.379 4.57441C1.55195 4.88572 1.62113 5.3181 1.70761 5.664C1.86326 6.44229 1.91515 7.23787 1.94974 8.03345C2.00162 8.98468 2.1054 9.97051 2.1054 10.9217C2.12269 9.52083 2.13999 8.11992 2.15728 6.71901C2.15728 5.76778 2.19187 4.66088 2.72802 3.83071Z" fill="#B0B9C2"/>
<path d="M13.2951 1.94557C14.6441 2.03205 16.4947 2.67197 17.4805 1.30565C17.5151 1.25377 17.5497 1.18459 17.5497 1.1327C17.5324 1.02893 17.4286 0.977044 17.3421 0.942454C13.8831 -0.510343 9.62848 0.423598 5.97919 0.16417C5.56411 0.129579 5.13173 0.112284 4.71664 0.181465C4.30156 0.250646 3.92106 0.423598 3.54057 0.59655C3.19466 0.752206 2.79688 0.977044 2.79688 1.35754C2.79688 1.4959 2.86606 1.63426 2.95253 1.75533C3.17737 2.03205 3.54057 2.18771 3.88647 2.23959C4.54369 2.32607 5.14902 2.10123 5.77165 2.01476C6.60182 1.89369 7.48387 1.91098 8.33134 1.89369C9.99168 1.80721 11.652 1.8418 13.2951 1.94557Z" fill="#D3DCE5"/>
<path d="M4.31993 19.3445C3.66271 19.3272 3.00549 19.2234 2.43475 18.8948C1.93319 18.6008 1.69106 18.1684 1.36245 17.736C0.981952 17.2345 0.705229 16.6983 0.566867 16.0757C0.255554 14.5883 0.30744 12.8415 0.480391 11.3368C0.532277 10.9217 0.584163 10.5066 0.532277 10.0916C0.514982 11.1293 0.549572 12.1843 0.618753 13.222C0.687934 14.1386 0.687934 15.0899 0.964657 15.9719C1.20679 16.7502 1.63917 17.4939 2.22721 18.0646C2.69418 18.5143 3.68 19.1369 4.35452 18.7219C5.15009 17.9263 3.93943 17.0615 3.38598 16.5081C3.26492 16.387 3.12656 16.2486 3.07467 16.0757C3.48976 16.5254 3.97402 16.9232 4.51017 17.2345C4.64853 17.3036 4.7696 17.3728 4.90796 17.4247C5.68625 17.6841 6.48182 17.5804 7.2774 17.5631C8.3497 17.5458 9.40471 17.5631 10.477 17.5804C10.9267 17.5804 11.3591 17.5977 11.8087 17.6496C12.3103 17.7014 12.8119 17.6496 13.2961 17.615C13.7112 17.5804 14.1955 17.6496 14.5933 17.5458C15.1294 17.4074 15.6656 17.1826 16.1152 16.854C17.0492 16.1968 17.568 15.159 17.7237 14.0522C17.6199 14.7958 17.3778 15.5395 16.9973 16.1968C16.8071 16.5427 16.5822 16.854 16.3228 17.148C16.098 17.4247 15.6483 17.7706 15.8385 18.1857C16.0115 18.5489 16.6687 18.7392 17.0319 18.6873C17.2221 18.6527 17.4124 18.5662 17.5853 18.4797C17.9831 18.2549 18.329 17.9782 18.6403 17.6496C17.7583 18.8083 16.513 19.2234 15.1467 19.1369C13.348 19.0332 11.5147 19.1715 9.71603 19.1888C8.3843 19.2061 7.06986 19.3445 5.75543 19.3272C5.32305 19.3272 4.80419 19.3618 4.31993 19.3445Z" fill="#4E6075"/>
<path d="M13.5029 17.6668C13.5029 17.6668 14.4196 17.857 15.5092 17.4419C16.5988 17.0268 17.1868 16.4388 17.4635 15.7989C17.7403 15.159 17.8094 13.5332 17.8094 13.5332C17.8094 13.5332 17.5154 15.574 17.0139 16.0237C16.5123 16.4907 15.9588 17.5803 13.5029 17.6668Z" fill="#B0B9C2"/>
<path d="M0.567512 16.2487C0.273493 15.0899 0.550216 14.2079 0.636692 13.0664C0.515626 14.45 0.809644 16.0239 1.48416 17.2518C1.81277 17.8571 2.29703 18.4279 2.97154 18.67C3.81901 18.9813 4.85672 18.7738 4.40704 17.6496C4.54541 17.8226 4.58 18.0474 4.63188 18.2549C4.75295 18.9813 5.13344 19.0678 5.77336 19.0159C6.89755 18.9121 8.00444 18.843 9.14593 18.8257C9.50913 18.8084 9.87233 18.843 10.2355 18.8603C11.6191 18.9294 12.9855 18.9467 14.3691 18.9467C14.7669 18.9467 15.3203 19.137 15.7008 18.964C16.4099 18.67 15.6489 18.0993 16.0294 17.615C15.9948 17.8744 15.9602 18.1512 16.0986 18.3587C16.2715 18.6008 16.6002 18.6527 16.8942 18.67C17.6725 18.7392 18.8485 16.6811 19.0042 15.9374C19.1944 15.1591 19.4193 11.5271 19.4193 11.5271L19.4712 15.8509C19.4712 15.8509 19.108 17.1134 18.6756 17.6496C18.2432 18.1685 17.3784 19.0851 16.1505 19.2235C14.9225 19.3618 12.8298 19.2235 12.8298 19.2235H8.09092L4.90861 19.4483C4.90861 19.4483 2.98884 19.5002 2.26244 18.7738C1.50145 17.9955 0.844235 17.321 0.567512 16.2487Z" fill="#D5DEE6"/>
<path d="M5.66839 17.2517C5.14953 17.148 4.64797 16.975 4.181 16.6291C3.55837 16.1794 3.00493 15.5741 2.81468 14.8304C2.62443 14.0521 2.58984 13.2566 2.58984 12.461C2.65902 13.0836 2.72821 13.6889 2.91845 14.277C3.1087 14.865 3.43731 15.4358 3.92157 15.799C4.78633 16.4562 5.87593 16.5081 6.91364 16.4562C8.72964 16.3524 10.5629 16.3351 12.3962 16.2313C13.6069 16.1622 14.904 16.0411 15.7861 15.2109C16.5817 14.4499 16.8065 13.2739 16.9103 12.167C17.014 11.1465 17.0486 10.1261 17.0313 9.10571C17.1697 10.5585 17.2043 12.0286 17.1351 13.4987C17.1005 14.5364 16.9449 15.6779 16.1666 16.3697C15.3537 17.0788 14.022 17.1307 13.0016 17.2345C11.7736 17.3555 10.5802 17.1134 9.36956 17.1653C8.1416 17.1999 6.86176 17.4593 5.66839 17.2517Z" fill="#95A0AD"/>
<path d="M12.6218 1.91089C10.4599 1.98007 8.26338 1.98007 6.11878 2.01466C5.46156 2.03195 4.75246 2.13573 4.2336 2.55081C3.76663 2.89671 3.14401 3.19073 2.83269 3.69229C2.69433 3.91713 2.57327 4.14197 2.48679 4.3841C2.21007 5.14509 2.17548 5.97526 2.17548 6.78813C2.17548 7.87773 2.1063 8.96733 2.26195 10.0742C2.26195 8.82897 2.40031 7.60101 2.65974 6.39034C2.88458 5.35263 3.31696 4.33222 4.19901 3.70959C5.28861 2.9486 6.84518 2.91401 8.12502 2.82753C9.68159 2.72376 11.2555 2.75835 12.812 2.9486C13.4346 3.01778 14.0573 3.12155 14.6107 3.38098C15.8906 3.95172 16.3402 5.28345 16.7034 6.52871C16.8937 7.18592 17.1012 8.11986 17.032 8.79438C17.1012 8.15446 17.0839 7.54912 17.0666 6.9092C17.0493 6.37305 17.1185 5.75042 17.5163 5.33534C17.5855 5.26616 17.672 5.17968 17.6893 5.0932C17.6893 5.02402 17.672 4.97214 17.6547 4.92025C17.5336 4.64353 17.4298 4.36681 17.3088 4.10738C17.2569 3.96902 17.1877 3.83066 17.1012 3.70959C16.8418 3.34639 16.3748 3.03508 16.0462 2.74106C15.6138 2.37786 15.0431 2.11843 14.4897 2.03196C13.8843 1.92818 13.279 1.94548 12.6737 1.96277C12.6564 1.91089 12.6391 1.91089 12.6218 1.91089Z" fill="#68788A"/>
<path d="M3.48858 2.22206C4.00743 2.03181 4.56088 1.96263 5.09703 1.73779C4.02473 2.18747 2.86595 2.68903 2.27791 3.67485C1.86283 4.38396 1.77635 5.23142 1.74176 6.0443C1.68988 5.52544 1.63799 5.00659 1.70717 4.48773C1.77635 3.93428 2.01849 3.38084 2.38168 2.96575C2.72759 2.56796 3.09079 2.37772 3.48858 2.22206Z" fill="white"/>
<path d="M2.00179 2.22227C1.86343 2.29145 1.74236 2.42981 1.69047 2.56818C1.67318 2.62006 1.65588 2.68924 1.67318 2.75842C1.69047 2.8276 1.74236 2.87949 1.81154 2.86219C1.86343 2.86219 1.91531 2.81031 1.9499 2.75842C2.07097 2.62006 2.22663 2.499 2.41687 2.42981C2.46876 2.41252 2.53794 2.39522 2.57253 2.34334C2.60712 2.29145 2.62442 2.22227 2.57253 2.18768C2.55523 2.17039 2.53794 2.17039 2.50335 2.15309C2.27851 2.10121 2.05367 2.15309 1.86343 2.27416L2.00179 2.22227Z" fill="white"/>
<path d="M0.756115 2.89683C0.77341 2.84494 0.808 2.77576 0.842591 2.67199C0.877181 2.58552 0.929067 2.48174 0.980952 2.37797C1.10202 2.15314 1.27497 1.911 1.5344 1.65157C1.79383 1.39215 2.12244 1.15001 2.53752 0.959767C2.64129 0.907881 2.74506 0.855996 2.86613 0.821405C2.91801 0.80411 2.9872 0.786815 3.03908 0.752224L3.09097 0.734929H3.10826H3.12556L3.21203 0.700339C3.45417 0.631158 3.71359 0.561977 3.99032 0.527387C4.54376 0.440911 5.14909 0.423616 5.80631 0.440911C7.12075 0.475501 8.60813 0.527387 10.2166 0.579272C11.0295 0.596568 11.8769 0.631158 12.7417 0.665748C13.6237 0.683044 14.5231 0.648453 15.4224 0.734929C15.8721 0.76952 16.3218 0.8387 16.7542 0.977062C16.8579 1.01165 16.9617 1.04624 17.0828 1.08083C17.3422 1.16731 17.5325 1.28838 17.7573 1.44403C17.8092 1.27108 17.8784 1.09813 17.9302 0.925176C17.7573 0.734929 17.5325 0.613863 17.2903 0.527387C17.1693 0.475501 17.0482 0.440911 16.9271 0.40632C16.4429 0.267959 15.9586 0.198778 15.4916 0.164188C14.5231 0.0950069 13.6237 0.129597 12.759 0.129597C11.8942 0.129597 11.0468 0.112302 10.2339 0.112302C8.60813 0.0950069 7.13804 0.0604165 5.80631 0.0777117C5.14909 0.0950069 4.52647 0.129597 3.95573 0.250664C3.38498 0.354435 2.88342 0.527387 2.45104 0.76952C1.60358 1.23649 1.11931 1.87641 0.894477 2.34338C0.842591 2.46445 0.808001 2.56822 0.77341 2.6547C0.756115 2.74117 0.721525 2.82765 0.704229 2.89683C0.669639 3.01789 0.652344 3.08708 0.652344 3.08708L0.704229 3.10437C0.721525 3.08708 0.721525 3.03519 0.756115 2.89683Z" fill="#828F9E"/>
<path d="M13.815 17.7707C13.815 17.7707 12.9156 17.7707 11.359 17.788C10.5808 17.788 9.62952 17.8053 8.53992 17.8226C7.98648 17.8226 7.41573 17.8399 6.79311 17.8399C6.63745 17.8399 6.48179 17.8399 6.32614 17.8399C6.23966 17.8399 6.17048 17.8399 6.084 17.8399C5.99753 17.8399 5.92835 17.8399 5.84187 17.8399C5.68622 17.8399 5.51326 17.8053 5.34031 17.788C5.16736 17.7707 5.0117 17.7188 4.83875 17.667C4.18153 17.4594 3.54161 17.0962 3.02276 16.5774C2.5039 16.0585 2.10611 15.384 1.91586 14.623C1.86398 14.4328 1.84668 14.2425 1.81209 14.0523C1.7948 13.9485 1.7948 13.862 1.7948 13.7582C1.7948 13.6545 1.7775 13.568 1.7948 13.4642C1.7948 13.0837 1.7948 12.6859 1.81209 12.2881C1.82939 11.4926 1.82939 10.6797 1.84668 9.84952C1.86398 9.01935 1.86398 8.18918 1.86398 7.34172C1.86398 6.90934 1.86398 6.49426 1.86398 6.06187C1.86398 5.6295 1.93316 5.19712 2.07152 4.78203C2.34824 3.95186 2.88439 3.19087 3.61079 2.67202C3.97399 2.41259 4.37178 2.18775 4.80416 2.04939C5.23654 1.91103 5.68622 1.84185 6.13589 1.82455C7.01795 1.78996 7.91729 1.77267 8.81665 1.77267C9.716 1.77267 10.5981 1.75537 11.4801 1.75537C11.9125 1.75537 12.3622 1.75537 12.7945 1.75537C13.0194 1.75537 13.2269 1.75537 13.4518 1.75537H13.7804C13.9014 1.75537 14.0052 1.77267 14.109 1.77267C15.0083 1.82455 15.8558 2.17046 16.5303 2.68931C16.8589 2.96604 17.1702 3.26005 17.4124 3.60596C17.6545 3.95186 17.8447 4.33236 17.9658 4.71285C18.0004 4.81662 18.0177 4.9031 18.0523 5.00687C18.0869 5.11064 18.1042 5.19712 18.1215 5.30089C18.1388 5.40466 18.1561 5.50843 18.1733 5.59491C18.1733 5.69868 18.1906 5.80245 18.1906 5.88892C18.2079 6.28671 18.1906 6.66721 18.1906 7.0477C18.1906 8.56968 18.1733 9.98789 18.156 11.3196C18.1388 11.9768 18.1388 12.6168 18.1215 13.2221C18.1215 13.3777 18.1215 13.5161 18.1042 13.6718C18.1042 13.7409 18.0869 13.8101 18.0869 13.8966C18.0869 13.9658 18.0869 14.035 18.0696 14.1214C18.035 14.4155 17.9658 14.6922 17.862 14.9516C17.6718 15.4705 17.4124 15.9028 17.101 16.266C16.7897 16.6292 16.4438 16.906 16.1325 17.1135C15.458 17.5286 14.8527 17.6842 14.4376 17.7361C14.23 17.7707 14.0744 17.7707 13.9533 17.7707C13.8668 17.7707 13.815 17.7707 13.815 17.7707ZM13.815 17.7361C13.815 17.7361 13.8668 17.7361 13.9706 17.7188C14.0744 17.7188 14.2473 17.7188 14.4376 17.667C14.8527 17.5978 15.458 17.4421 16.1152 17.027C16.4438 16.8195 16.7724 16.5255 17.0492 16.1796C17.3432 15.8164 17.5853 15.384 17.7583 14.8824C17.8101 14.7614 17.8274 14.623 17.862 14.5019C17.8793 14.4328 17.8966 14.3636 17.8966 14.2944C17.9139 14.2252 17.9139 14.156 17.9312 14.0868C17.9485 14.0177 17.9485 13.9485 17.9485 13.8793C17.9485 13.8101 17.9485 13.7409 17.9485 13.6545C17.9485 13.5161 17.9485 13.3604 17.9485 13.2048C17.9485 12.5995 17.9312 11.9768 17.9139 11.3023C17.8966 9.98789 17.8793 8.55238 17.8793 7.03041C17.8793 6.64991 17.8793 6.26942 17.8793 5.88892C17.8793 5.80245 17.862 5.69868 17.862 5.6122C17.8447 5.52572 17.8274 5.42195 17.8101 5.33548C17.7929 5.249 17.7756 5.14523 17.741 5.05875C17.7064 4.97228 17.6891 4.86851 17.6545 4.78203C17.5334 4.41883 17.3432 4.07293 17.1356 3.74432C16.9108 3.41571 16.6341 3.13899 16.3228 2.87956C15.7001 2.378 14.8873 2.04939 14.0571 1.9975C13.9533 1.9975 13.8323 1.98021 13.7458 1.98021H13.4172C13.1923 1.98021 12.9848 1.98021 12.7599 1.98021C12.3276 1.98021 11.8779 1.98021 11.4455 1.98021C10.5981 1.98021 9.6987 1.98021 8.81665 1.98021C7.91729 1.96291 7.03524 1.96291 6.13589 1.94562C5.70351 1.94562 5.25384 2.0148 4.83875 2.13587C4.42367 2.25693 4.02588 2.46447 3.66268 2.7239C2.93628 3.22546 2.41742 3.96916 2.1407 4.78203C2.00234 5.19712 1.95045 5.6122 1.95045 6.04458C1.95045 6.47696 1.95045 6.90934 1.95045 7.32443C1.95045 8.17189 1.96775 9.01935 1.96775 9.83223C1.98504 10.6624 1.98504 11.4753 2.00234 12.2709C2.00234 12.6686 2.00234 13.0664 2.01963 13.4469C2.01963 13.5507 2.01963 13.6372 2.03693 13.7409C2.03693 13.8274 2.03693 13.9312 2.05422 14.0177C2.08881 14.2079 2.10611 14.3809 2.158 14.5711C2.24447 14.9343 2.40013 15.2629 2.57308 15.5742C2.62497 15.6434 2.65956 15.7299 2.71144 15.7991C2.76333 15.8683 2.81521 15.9374 2.8671 16.0066C2.97087 16.145 3.09194 16.2833 3.213 16.4044C3.69727 16.906 4.3026 17.2519 4.92523 17.4594C5.08088 17.494 5.23654 17.5459 5.3922 17.5805C5.54785 17.5978 5.70351 17.6497 5.85917 17.6497C5.94564 17.6497 6.01482 17.667 6.1013 17.667C6.17048 17.667 6.25696 17.667 6.32614 17.667C6.48179 17.667 6.63745 17.667 6.79311 17.667C7.39844 17.6842 7.98648 17.6842 8.53992 17.6842C9.62952 17.7015 10.5808 17.7188 11.359 17.7188C12.9156 17.7361 13.815 17.7361 13.815 17.7361Z" fill="#CCD1D7"/>
<path d="M19.7469 3.83078C19.6604 3.31193 19.5221 2.79307 19.2972 2.3261C19.1762 2.08397 19.0551 1.85913 18.8994 1.63429L18.8476 1.54782L18.7957 1.46134C18.7438 1.40945 18.7092 1.35757 18.6573 1.30568C18.5535 1.20191 18.4325 1.11544 18.3287 1.04625C18.2076 0.977074 18.1039 0.907893 17.9828 0.856007L17.8963 0.821417L17.8098 0.769531H17.7925C17.7752 0.977074 17.7234 1.16732 17.6542 1.34027L17.7234 1.37486C17.8271 1.42675 17.9309 1.47863 18.0174 1.54782C18.1039 1.5997 18.1903 1.66888 18.2595 1.73806C18.2941 1.77265 18.3287 1.80724 18.3633 1.84183L18.4152 1.91101L18.4671 1.9802C18.6054 2.17044 18.7092 2.36069 18.813 2.56823C19.0032 2.98332 19.1416 3.45029 19.228 3.93455C19.401 4.90308 19.3664 5.9235 19.3491 6.96121C19.3318 7.48007 19.3318 8.01622 19.3318 8.53507C19.3318 9.05393 19.3145 9.59008 19.3145 10.1262C19.3145 11.1812 19.2972 12.2535 19.2972 13.3431C19.2972 13.8793 19.2972 14.4154 19.2972 14.9516C19.2972 15.4877 19.2799 16.0239 19.1416 16.5082C19.0032 17.0097 18.7092 17.4421 18.3633 17.8572C18.0174 18.255 17.6196 18.6182 17.1699 18.8603C16.7029 19.1024 16.1841 19.1716 15.6479 19.2062C15.1118 19.2235 14.5929 19.1889 14.0568 19.1716C13.7974 19.1543 13.5206 19.137 13.2612 19.137C13.0018 19.137 12.7251 19.137 12.4656 19.137C11.9468 19.137 11.4106 19.137 10.8918 19.137C9.85405 19.137 8.81634 19.1197 7.81322 19.1197C6.7928 19.0851 5.78968 19.2408 4.83844 19.2235C4.37147 19.2235 3.88721 19.1716 3.47212 19.0333L3.31647 18.9814L3.14352 18.9122L3.05704 18.8776H3.03974H3.02245L2.98786 18.8603C2.93597 18.843 2.88409 18.8084 2.8322 18.7911C2.64195 18.6874 2.45171 18.5663 2.27876 18.4452C1.93285 18.1858 1.62154 17.8745 1.3967 17.5113C1.34482 17.4248 1.27563 17.3383 1.22375 17.2346C1.17186 17.1481 1.13727 17.0616 1.08539 16.9578C1.06809 16.9059 1.0335 16.8541 1.01621 16.8195L0.964321 16.6811C0.929731 16.5773 0.89514 16.4909 0.86055 16.3871C0.618417 15.5915 0.601122 14.7613 0.635712 13.9658C0.653007 13.568 0.670303 13.1702 0.687598 12.7724C0.704893 12.3746 0.704893 11.9941 0.704893 11.6309C0.704893 10.8872 0.704893 10.1954 0.704893 9.5382C0.704893 8.88098 0.687598 8.25835 0.687598 7.68761C0.687598 7.11687 0.670303 6.59801 0.670303 6.13104C0.635712 5.14522 0.635712 4.40152 0.635712 3.89996C0.635712 3.3984 0.653007 3.12168 0.653007 3.12168H0.601122C0.601122 3.12168 0.566531 3.38111 0.514646 3.89996C0.480055 4.40152 0.46276 5.14522 0.42817 6.09645C0.410875 6.56342 0.393579 7.09957 0.376284 7.65302C0.358989 8.22376 0.341694 8.82909 0.324399 9.50361C0.307103 10.1608 0.289808 10.8526 0.272513 11.5963C0.272513 11.9595 0.255218 12.34 0.237923 12.7205C0.220628 13.101 0.186037 13.4988 0.151447 13.9139C0.0995611 14.7268 0.116856 15.6088 0.376284 16.4909C0.410875 16.5946 0.445465 16.7157 0.480055 16.8195L0.549236 16.9751C0.566531 17.0443 0.601122 17.0789 0.618417 17.1308C0.670303 17.2346 0.722188 17.3556 0.774074 17.4421C0.825959 17.5459 0.89514 17.6496 0.964321 17.7361C1.24104 18.1339 1.56965 18.4798 1.96744 18.7738C2.15769 18.9122 2.38253 19.0506 2.60736 19.1543C2.65925 19.1889 2.72843 19.2062 2.78032 19.2408L2.81491 19.2581L2.8322 19.2754L2.86679 19.2927L2.95327 19.3273L3.12622 19.3965L3.31647 19.4483C3.81803 19.5867 4.31959 19.604 4.80385 19.604C5.80698 19.5867 6.77551 19.3965 7.77863 19.3965C8.78175 19.3619 9.81946 19.3446 10.8572 19.3273C11.376 19.31 11.8949 19.31 12.431 19.31C12.6905 19.31 12.9499 19.31 13.2266 19.2927C13.486 19.2927 13.7455 19.31 14.0222 19.3273C14.5583 19.3619 15.0945 19.3965 15.6306 19.3792C15.9074 19.3792 16.1668 19.3446 16.4435 19.31C16.7202 19.2581 16.997 19.1889 17.2391 19.0506C17.7407 18.7911 18.1557 18.4279 18.5362 18.0301C18.7265 17.8226 18.8994 17.6151 19.0378 17.3729C19.1935 17.1481 19.3145 16.8887 19.401 16.6119C19.574 16.0758 19.6085 15.505 19.6258 14.9689C19.6431 14.4327 19.6604 13.8966 19.6777 13.3604C19.7123 12.2881 19.7296 11.2158 19.7642 10.1608C19.7988 9.10582 19.8161 8.03351 19.8507 7.0131C19.868 5.9062 19.9199 4.86849 19.7469 3.83078Z" fill="#384758"/>
<path d="M13.6927 17.6669C13.6927 17.6669 12.8279 17.6669 11.3059 17.6842C10.545 17.6842 9.62832 17.7015 8.55601 17.7187C8.01986 17.7187 7.46642 17.736 6.86108 17.736C6.70543 17.736 6.56707 17.736 6.41141 17.736C6.32493 17.736 6.25575 17.736 6.16928 17.736C6.1001 17.736 6.01362 17.736 5.94444 17.736C5.78878 17.736 5.63313 17.7015 5.46017 17.6842C5.30452 17.6669 5.13156 17.615 4.97591 17.5631C4.33599 17.3555 3.71336 17.0096 3.2118 16.4908C2.71024 15.9719 2.31245 15.3147 2.1395 14.5537C2.08761 14.3635 2.07031 14.1732 2.03572 13.983C2.01843 13.8792 2.01843 13.7927 2.01843 13.689C2.01843 13.5852 2.00113 13.4987 2.01843 13.3949C2.01843 13.0145 2.01843 12.6167 2.03572 12.2362C2.05302 11.4579 2.05302 10.645 2.07031 9.83214C2.07031 9.01926 2.08761 8.18909 2.08761 7.34163C2.08761 6.92655 2.08761 6.49417 2.08761 6.07908C2.08761 5.6467 2.15679 5.21432 2.29515 4.81653C2.55458 4.00366 3.07344 3.24267 3.79983 2.72381C4.14574 2.46439 4.54353 2.23955 4.95861 2.10119C5.3737 1.96282 5.82337 1.89364 6.25575 1.87635C7.12051 1.85905 8.00257 1.85905 8.86733 1.84176C9.73209 1.84176 10.5968 1.82446 11.4443 1.82446C11.8767 1.82446 12.2918 1.82446 12.7242 1.82446C12.9317 1.82446 13.1392 1.82446 13.3641 1.82446H13.6754C13.7965 1.82446 13.8829 1.84176 14.004 1.84176C14.8688 1.89364 15.6989 2.22225 16.3561 2.74111C16.6848 3.00054 16.9788 3.31185 17.2209 3.65775C17.4457 4.00366 17.636 4.36686 17.7571 4.76465C17.7916 4.85112 17.8089 4.95489 17.8435 5.05866C17.8781 5.16244 17.8954 5.24891 17.9127 5.35268C17.93 5.45645 17.9473 5.54293 17.9646 5.6467C17.9646 5.75047 17.9819 5.85424 17.9819 5.94072C17.9992 6.33851 17.9819 6.70171 17.9819 7.0822C17.9819 8.56959 17.9646 9.98779 17.9646 11.3022C17.9473 11.9594 17.9473 12.5821 17.93 13.1701C17.93 13.3258 17.93 13.4641 17.9127 13.6198C17.9127 13.689 17.8954 13.7581 17.8954 13.8273C17.8954 13.8965 17.8954 13.9657 17.8781 14.0349C17.8435 14.3289 17.7744 14.5883 17.6879 14.8477C17.5149 15.3493 17.2555 15.799 16.9442 16.1449C16.6502 16.4908 16.3216 16.7675 15.9929 16.9923C15.353 17.4074 14.7477 17.5631 14.3499 17.615C14.1424 17.6496 13.9867 17.6496 13.8829 17.6496C13.7446 17.6669 13.6927 17.6669 13.6927 17.6669ZM13.6927 17.6496C13.6927 17.6496 13.7446 17.6496 13.8483 17.6323C13.9521 17.6323 14.1078 17.6323 14.3153 17.5804C14.7131 17.5112 15.3011 17.3555 15.9411 16.9405C16.2524 16.7329 16.581 16.4562 16.8577 16.093C17.1344 15.7298 17.3766 15.2974 17.5495 14.8132C17.6014 14.6921 17.6187 14.5537 17.6533 14.4327C17.6706 14.3635 17.6879 14.2943 17.6879 14.2424C17.7052 14.1732 17.7052 14.104 17.7225 14.0349C17.7398 13.9657 17.7398 13.8965 17.7398 13.8273C17.7398 13.7581 17.7398 13.689 17.7398 13.6198C17.7398 13.4814 17.7398 13.3258 17.7398 13.1874C17.7398 12.5994 17.7225 11.9767 17.7052 11.3195C17.6879 10.0224 17.6706 8.60418 17.6879 7.0995C17.6879 6.7363 17.6879 6.33851 17.6879 5.97531C17.6879 5.88883 17.6706 5.78506 17.6706 5.69859C17.6533 5.61211 17.636 5.50834 17.636 5.42186C17.6187 5.33539 17.6014 5.23162 17.5841 5.14514C17.5495 5.05866 17.5495 4.95489 17.5149 4.86842C17.3939 4.50522 17.2209 4.15931 16.9961 3.848C16.7712 3.53669 16.5118 3.24267 16.2005 3.00054C15.5952 2.51627 14.8169 2.18766 14.004 2.13578C13.9002 2.13578 13.7965 2.11848 13.6927 2.11848H13.3814C13.1738 2.11848 12.9663 2.11848 12.7415 2.11848C12.3091 2.11848 11.894 2.11848 11.4616 2.11848C10.6141 2.11848 9.74938 2.10119 8.88462 2.10119C8.01986 2.08389 7.1551 2.08389 6.27305 2.0666C5.84067 2.0666 5.42558 2.13578 5.0105 2.25684C4.59541 2.37791 4.21492 2.58545 3.86902 2.82758C3.17721 3.32914 2.65835 4.05554 2.39892 4.86842C2.27786 5.26621 2.20868 5.69859 2.20868 6.11367C2.20868 6.54605 2.20868 6.96113 2.20868 7.37622C2.20868 8.22368 2.22597 9.03656 2.22597 9.86673C2.24327 10.6796 2.24327 11.4752 2.26056 12.2708C2.26056 12.6685 2.26056 13.049 2.27786 13.4295C2.27786 13.5333 2.27786 13.6198 2.29515 13.7063C2.29515 13.7927 2.29515 13.8965 2.31245 13.983C2.34704 14.1559 2.36433 14.3462 2.41622 14.5191C2.50269 14.865 2.64106 15.2109 2.81401 15.505C2.86589 15.5741 2.90048 15.6606 2.95237 15.7298C3.00426 15.799 3.05614 15.8682 3.10803 15.9373C3.2118 16.0757 3.33286 16.1968 3.43664 16.3351C3.90361 16.8194 4.49164 17.1653 5.09697 17.3728C5.25263 17.4074 5.40829 17.4593 5.54665 17.4939C5.70231 17.5112 5.84067 17.5458 5.99632 17.5631C6.0828 17.5631 6.15198 17.5804 6.22116 17.5804C6.29034 17.5804 6.37682 17.5804 6.446 17.5804C6.60166 17.5804 6.75731 17.5804 6.89567 17.5804C7.48371 17.5977 8.05445 17.5977 8.5906 17.5977C9.64561 17.615 10.5796 17.6323 11.3405 17.6323C12.8279 17.6323 13.6927 17.6496 13.6927 17.6496Z" fill="#6D7D8F"/>
<path opacity="0.52" d="M16.3389 2.75847C16.114 2.56823 15.8546 2.41257 15.5952 2.2915L15.1455 2.39527C15.5087 2.55093 15.8546 2.74118 16.1659 2.98331C16.4772 3.22544 16.7367 3.51946 16.9615 3.83078C17.169 4.15939 17.3593 4.48799 17.4804 4.85119C17.4977 4.88578 17.4977 4.92037 17.5149 4.95496L17.7225 4.64365C17.6014 4.29775 17.4285 3.96914 17.2209 3.65782C16.9615 3.32922 16.6675 3.0352 16.3389 2.75847Z" fill="#384758"/>
<path opacity="0.52" d="M5.0454 17.3729C4.44006 17.1654 3.85203 16.8194 3.38506 16.3352C3.26399 16.2141 3.16022 16.0758 3.05645 15.9374C3.00456 15.8682 2.95268 15.799 2.90079 15.7299C2.84891 15.6607 2.81432 15.5742 2.76243 15.505C2.62407 15.2456 2.503 14.9862 2.41653 14.6921L2.20898 14.8132C2.41653 15.4531 2.76243 16.0412 3.21211 16.4908C3.73096 17.0097 4.33629 17.3556 4.97622 17.5631C5.06269 17.5804 5.14917 17.615 5.23564 17.6323L5.4086 17.4594C5.30482 17.4421 5.18376 17.3902 5.0454 17.3729Z" fill="#384758"/>
<path d="M3.29983 6.7362C3.12688 6.78809 2.95393 6.85727 2.79827 6.94375C2.50425 7.08211 2.38318 7.42801 2.27941 7.72203C2.00269 7.0994 2.3313 6.32112 2.46966 5.69849C2.48696 5.61202 2.50425 5.52554 2.57343 5.45636C2.62532 5.38718 2.74638 5.36988 2.81556 5.42177C2.86745 5.45636 2.88474 5.50825 2.90204 5.57743C3.24794 6.4076 5.28878 6.00981 6.04977 6.00981C7.38149 6.00981 8.73052 6.0271 10.0623 6.0271C9.59528 6.32112 8.71322 6.11358 8.17707 6.13087C7.43338 6.14817 6.70698 6.20005 5.98058 6.28653C5.11582 6.3903 4.14729 6.45948 3.29983 6.7362Z" fill="#68788A"/>
<path d="M16.0121 4.66094C16.0294 5.00684 15.7181 5.28357 15.4067 5.45652C14.9398 5.69865 14.4036 5.78513 13.8848 5.8716C13.2621 5.97537 12.6568 6.07914 12.0342 6.18292C13.2967 6.18292 14.5766 6.20021 15.8391 6.20021C16.1331 6.20021 16.479 6.21751 16.6693 6.44234C16.5828 5.78513 16.3407 5.12791 15.9775 4.57446L16.0121 4.66094Z" fill="#68788A"/>
<path d="M16.8935 12.2881C16.9281 12.4264 16.7206 12.5129 16.5822 12.5302C15.9769 12.5821 15.3716 12.6513 14.7662 12.7032C14.0225 12.7724 13.2788 12.8415 12.5352 12.9107C13.5902 12.928 14.6452 12.9626 15.7002 12.9799C15.8558 12.9799 16.0288 12.9799 16.1671 13.0318C16.4439 13.1183 16.6687 13.3604 16.7379 13.6544C16.7898 13.2393 16.8244 12.8069 16.8763 12.3919L16.8935 12.2881Z" fill="#95A0AD"/>
<path opacity="0.61" d="M16.8234 16.4389C17.0483 16.2832 17.1347 16.0065 17.2558 15.7644C17.2904 15.7125 17.325 15.6433 17.3942 15.626C17.4806 15.6087 17.5498 15.6952 17.5671 15.7817C17.5671 15.8681 17.5325 15.9546 17.4979 16.0238C17.3077 16.3697 17.2039 16.6983 16.7715 16.7848C16.7369 16.7848 16.7024 16.8021 16.6678 16.7848C16.6159 16.7502 16.5986 16.6637 16.6505 16.6118C16.6851 16.5599 16.7542 16.5254 16.8061 16.4908C16.7888 16.4562 16.8061 16.4562 16.8234 16.4389Z" fill="white"/>
</svg>
