<svg width="10" height="10" viewBox="0 0 10 10" fill="none" xmlns="http://www.w3.org/2000/svg">
<path fill-rule="evenodd" clip-rule="evenodd" d="M2.122 2.72063V2.74751C2.18348 4.43664 2.49821 5.94729 2.6422 6.09503C2.97626 6.54048 4.01076 7.27377 4.59434 7.6423C4.7383 7.73446 4.86107 7.75176 4.99941 7.75546C5.13752 7.75174 5.26032 7.72865 5.40434 7.6423C5.99952 7.29095 7.04748 6.54048 7.37968 6.09503C7.52555 5.94729 7.81721 4.43664 7.87873 2.74751L7.88057 2.72063C7.88057 2.56511 7.78081 2.43078 7.64251 2.38084C6.91888 2.12947 5.85945 2.06226 5.00125 2.06226C4.14122 2.06226 3.08175 2.12947 2.36004 2.38084C2.22172 2.43078 2.122 2.56511 2.122 2.72063ZM0.392578 1.61303L0.394416 1.65528C0.492257 4.358 0.926043 6.73428 1.16035 6.9704C1.69778 7.68468 3.41582 8.79401 4.34481 9.40056C4.56565 9.54459 4.77673 9.6521 4.99941 9.65777C5.22214 9.6521 5.43314 9.54461 5.654 9.40056C6.58301 8.79401 8.30101 7.68466 8.83848 6.9704C9.07258 6.73428 9.50655 4.35802 9.60439 1.65528L9.60625 1.61303C9.60625 1.36356 9.44503 1.14664 9.22233 1.06794C8.05715 0.66481 6.38524 0.444092 4.99941 0.444092C3.6134 0.444092 1.94149 0.664788 0.776462 1.06794C0.55378 1.14666 0.392578 1.36356 0.392578 1.61303ZM1.32347 2.24072C1.32347 2.04117 1.45205 1.87032 1.62865 1.807C2.55017 1.48829 3.90337 1.40382 4.99941 1.40382C6.09542 1.40382 7.44871 1.48827 8.37018 1.80698C8.54682 1.8703 8.67542 2.04115 8.67542 2.2407L8.67329 2.27343C8.59474 4.41367 8.22414 6.35617 8.03799 6.54433C7.61175 7.10877 6.25275 8.01458 5.51775 8.49441C5.34299 8.60784 5.17593 8.69423 4.99941 8.69801C4.82283 8.69423 4.6558 8.60784 4.48112 8.49441C3.74591 8.01458 2.38689 7.10877 1.9608 6.54433C1.77469 6.35617 1.40407 4.41365 1.32535 2.27343L1.32347 2.24072Z" fill="white"/>
</svg>
