<svg width="10" height="10" viewBox="0 0 10 10" fill="none" xmlns="http://www.w3.org/2000/svg">
<path d="M6.72521 2.04454L6.55963 1.83756L5.45116 0.430124L5.38216 0.361132L5.30397 0.338135H5.24418H5.1154H5.0556C5.03285 0.346057 5.0112 0.356878 4.99121 0.370331L4.92222 0.430124L3.79995 1.83756L3.63437 2.04454C3.42364 2.35504 3.3129 2.72257 3.31701 3.09781C3.3123 3.17593 3.3123 3.25426 3.31701 3.33238C3.38647 3.77037 3.60992 4.16921 3.94716 4.45718C4.28441 4.74515 4.71333 4.90336 5.15679 4.90336C5.60026 4.90336 6.02917 4.74515 6.36642 4.45718C6.70366 4.16921 6.92711 3.77037 6.99658 3.33238C7.00128 3.25426 7.00128 3.17593 6.99658 3.09781C7.01434 2.72739 6.91975 2.36025 6.72521 2.04454Z" fill="white"/>
<path d="M9.00255 6.6669L8.83697 6.45992L7.7285 5.05249L7.64571 4.98349L7.58132 4.9375H7.52152H7.39274H7.33295L7.26855 4.9697L7.18576 5.03869L6.07729 6.44612L5.91171 6.6531C5.70277 6.96102 5.59211 7.32506 5.59435 7.69718C5.58964 7.7753 5.58964 7.85363 5.59435 7.93175C5.66382 8.36974 5.88726 8.76858 6.22451 9.05655C6.56175 9.34452 6.99067 9.50273 7.43413 9.50273C7.8776 9.50273 8.30652 9.34452 8.64376 9.05655C8.98101 8.76858 9.20445 8.36974 9.27392 7.93175C9.27863 7.85363 9.27863 7.7753 9.27392 7.69718C9.28706 7.3345 9.19264 6.97604 9.00255 6.6669Z" fill="white"/>
<path d="M3.93322 6.19774L3.76764 5.99076L2.65916 4.58333L2.57637 4.51433L2.51198 4.47754H2.45219H2.3234H2.26361L2.19922 4.50974L2.11643 4.57873L1.00796 5.99076L0.842377 6.19774C0.634324 6.50436 0.523708 6.86667 0.525014 7.23722C0.520308 7.31534 0.520308 7.39367 0.525014 7.47179C0.594483 7.90978 0.817928 8.30862 1.15517 8.59659C1.49242 8.88456 1.92133 9.04277 2.3648 9.04277C2.80826 9.04277 3.23718 8.88456 3.57443 8.59659C3.91167 8.30862 4.13512 7.90978 4.20458 7.47179C4.20929 7.39367 4.20929 7.31534 4.20458 7.23722C4.21956 6.87144 4.12508 6.50952 3.93322 6.19774Z" fill="white"/>
</svg>
