<svg width="20" height="20" viewBox="0 0 20 20" fill="none" xmlns="http://www.w3.org/2000/svg">
<path d="M14.4104 19.3445H5.78007C2.90907 19.3445 0.574219 16.9923 0.574219 14.1386V5.49101C0.574219 2.62001 2.92637 0.285156 5.78007 0.285156H14.4104C17.2814 0.285156 19.6162 2.6373 19.6162 5.49101V14.1213C19.6162 16.9923 17.2814 19.3445 14.4104 19.3445Z" fill="#FF90FF"/>
<path d="M0.885916 10.7487C0.885916 10.7487 1.14534 12.3572 1.59502 11.7173C2.04469 11.0774 2.23494 9.97046 2.23494 9.97046V13.7754C2.23494 13.7754 2.35601 15.3839 3.32454 16.2832C4.29307 17.1826 5.33078 17.5112 5.33078 17.5112L9.46433 17.5803H14.4281C14.4281 17.5803 16.2959 17.1307 17.1434 16.0238C17.9736 14.9342 17.9736 13.2565 17.9736 13.2565V10.1088C17.9736 10.1088 18.233 15.2109 18.7519 15.0034C19.2707 14.8131 19.582 13.7062 19.582 13.7062V16.0238C19.582 16.0238 19.2534 16.8021 18.6135 17.7706C17.9736 18.7391 17.1261 18.9985 17.1261 18.9985L15.8463 19.3272L11.263 19.2061L6.42038 19.3272L4.03364 19.3963C4.03364 19.3963 2.16576 19.0677 1.45666 17.8398C0.747554 16.6118 0.418945 15.3839 0.418945 15.3839C0.418945 15.3839 0.695668 10.5585 0.885916 10.7487Z" fill="#E86CC5"/>
<path d="M2.85693 3.83071C2.9607 3.67506 3.08177 3.5367 3.22013 3.41563C4.17136 2.51628 5.4858 1.94554 6.78294 1.87636C7.78606 1.82447 8.78918 2.04931 9.7923 2.10119C11.7812 2.18767 13.8913 1.56504 15.69 2.39521C16.8141 2.91407 17.6789 4.02096 17.8865 5.24892C17.8 4.38416 18.5091 3.5194 19.3738 3.41563C19.2528 2.17038 18.1632 1.21914 16.9698 0.838645C15.7764 0.458151 14.5139 0.544627 13.2686 0.561922C11.6429 0.596513 10.0171 0.544627 8.40869 0.38897C7.07696 0.267904 5.72793 0.0776569 4.4135 0.267904C2.77045 0.510037 1.11011 1.44398 0.76421 3.20809C0.712325 3.45022 0.712325 3.70965 0.712325 3.96908C0.69503 4.40145 0.69503 4.81654 0.677734 5.24892C0.746915 4.98949 0.833391 4.73006 0.902572 4.45334C1.04093 3.96908 1.35225 4.29768 1.5079 4.57441C1.68086 4.88572 1.75004 5.3181 1.83651 5.664C1.99217 6.44229 2.04405 7.23787 2.07865 8.03344C2.13053 8.98468 2.2343 9.97051 2.2343 10.9217C2.2516 9.52083 2.26889 8.11992 2.28619 6.71901C2.28619 5.76778 2.32078 4.66088 2.85693 3.83071Z" fill="#FFADFD"/>
<path d="M13.424 1.94557C14.773 2.03205 16.6236 2.67197 17.6094 1.30565C17.644 1.25377 17.6786 1.18459 17.6786 1.1327C17.6613 1.02893 17.5575 0.977044 17.471 0.942453C14.012 -0.510343 9.75738 0.423598 6.1081 0.16417C5.69301 0.129579 5.26063 0.112284 4.84555 0.181465C4.43046 0.250646 4.04997 0.423598 3.66947 0.59655C3.32357 0.752206 2.92578 0.977044 2.92578 1.35754C2.92578 1.4959 2.99496 1.63426 3.08144 1.75533C3.30628 2.03205 3.66947 2.18771 4.01538 2.23959C4.6726 2.32607 5.27793 2.10123 5.90055 2.01476C6.73072 1.89369 7.61278 1.91098 8.46024 1.89369C10.1206 1.80721 11.7809 1.8418 13.424 1.94557Z" fill="#FFD6FF"/>
<path opacity="0.53" d="M4.44883 19.3445C3.79161 19.3272 3.1344 19.2234 2.56365 18.8948C2.06209 18.6008 1.81996 18.1684 1.49135 17.736C1.11086 17.2345 0.834135 16.6983 0.695774 16.0757C0.38446 14.5883 0.436346 12.8415 0.609298 11.3368C0.661183 10.9217 0.713069 10.5066 0.661183 10.0916C0.643888 11.1293 0.678478 12.1843 0.747659 13.222C0.81684 14.1386 0.81684 15.0899 1.09356 15.9719C1.3357 16.7502 1.76808 17.4939 2.35611 18.0646C2.82308 18.5143 3.80891 19.1369 4.48342 18.7219C5.279 17.9263 4.06834 17.0615 3.51489 16.5081C3.39382 16.387 3.25546 16.2486 3.20358 16.0757C3.61866 16.5254 4.10293 16.9232 4.63908 17.2345C4.77744 17.3036 4.89851 17.3728 5.03687 17.4247C5.81515 17.6841 6.61073 17.5804 7.40631 17.5631C8.47861 17.5458 9.53362 17.5631 10.6059 17.5804C11.0556 17.5804 11.488 17.5977 11.9377 17.6496C12.4392 17.7014 12.9408 17.6496 13.425 17.615C13.8401 17.5804 14.3244 17.6496 14.7222 17.5458C15.2583 17.4074 15.7945 17.1826 16.2442 16.854C17.1781 16.1968 17.6969 15.159 17.8526 14.0522C17.7488 14.7958 17.5067 15.5395 17.1262 16.1968C16.936 16.5427 16.7111 16.854 16.4517 17.148C16.2269 17.4247 15.7772 17.7706 15.9674 18.1857C16.1404 18.5489 16.7976 18.7391 17.1608 18.6873C17.351 18.6527 17.5413 18.5662 17.7142 18.4797C18.112 18.2549 18.4579 17.9782 18.7693 17.6496C17.8872 18.8083 16.6419 19.2234 15.2756 19.1369C13.4769 19.0332 11.6436 19.1715 9.84493 19.1888C8.5132 19.2061 7.19877 19.3445 5.88433 19.3272C5.45195 19.3272 4.9331 19.3618 4.44883 19.3445Z" fill="#D380C1"/>
<path d="M13.6318 17.667C13.6318 17.667 14.5485 17.8572 15.6381 17.4422C16.7277 17.0271 17.3157 16.439 17.5924 15.7991C17.8692 15.1592 17.9383 13.5334 17.9383 13.5334C17.9383 13.5334 17.6443 15.5743 17.1428 16.024C16.6412 16.4909 16.0878 17.5805 13.6318 17.667Z" fill="#FFADFD"/>
<path d="M0.696418 16.2487C0.402399 15.0899 0.679123 14.2079 0.765599 13.0664C0.644532 14.45 0.938551 16.0239 1.61306 17.2518C1.94167 17.8571 2.42594 18.4279 3.10045 18.67C3.94791 18.9813 4.98563 18.7738 4.53595 17.6496C4.67431 17.8226 4.7089 18.0474 4.76079 18.2549C4.88185 18.9813 5.26235 19.0678 5.90227 19.0159C7.02646 18.9121 8.13335 18.843 9.27483 18.8257C9.63803 18.8084 10.0012 18.843 10.3644 18.8603C11.748 18.9294 13.1144 18.9467 14.498 18.9467C14.8958 18.9467 15.4492 19.137 15.8297 18.964C16.5388 18.67 15.7778 18.0993 16.1583 17.615C16.1237 17.8744 16.0891 18.1512 16.2275 18.3587C16.4005 18.6008 16.7291 18.6527 17.0231 18.67C17.8014 18.7392 18.9774 16.6811 19.1331 15.9374C19.3233 15.1591 19.5482 11.5271 19.5482 11.5271L19.6001 15.8509C19.6001 15.8509 19.2369 17.1134 18.8045 17.6496C18.3721 18.1685 17.5073 19.0851 16.2794 19.2235C15.0514 19.3618 12.9587 19.2235 12.9587 19.2235H8.21983L5.03751 19.4483C5.03751 19.4483 3.11774 19.5002 2.39135 18.7738C1.63036 17.9955 0.973141 17.321 0.696418 16.2487Z" fill="#FFADFD"/>
<path d="M5.79729 17.2517C5.27844 17.148 4.77688 16.975 4.30991 16.6291C3.68728 16.1794 3.13383 15.5741 2.94359 14.8304C2.75334 14.0521 2.71875 13.2566 2.71875 12.461C2.78793 13.0836 2.85711 13.6889 3.04736 14.277C3.23761 14.865 3.56621 15.4358 4.05048 15.799C4.91524 16.4562 6.00484 16.5081 7.04255 16.4562C8.85854 16.3524 10.6918 16.3351 12.5251 16.2313C13.7358 16.1622 15.0329 16.0411 15.915 15.2109C16.7106 14.4499 16.9354 13.2739 17.0392 12.167C17.1429 11.1465 17.1775 10.1261 17.1602 9.10571C17.2986 10.5585 17.3332 12.0286 17.264 13.4987C17.2294 14.5364 17.0738 15.6779 16.2955 16.3697C15.4826 17.0788 14.1509 17.1307 13.1305 17.2345C11.9025 17.3555 10.7091 17.1134 9.49847 17.1653C8.27051 17.1999 6.99066 17.4593 5.79729 17.2517Z" fill="#EA80D9"/>
<path opacity="0.37" d="M12.7507 1.91089C10.5888 1.98007 8.39229 1.98007 6.24769 2.01466C5.59047 2.03195 4.88137 2.13573 4.36251 2.55081C3.89554 2.89671 3.27291 3.19073 2.9616 3.69229C2.82324 3.91713 2.70217 4.14197 2.6157 4.3841C2.33897 5.14509 2.30438 5.97526 2.30438 6.78813C2.30438 7.87773 2.2352 8.96733 2.39086 10.0742C2.39086 8.82897 2.52922 7.60101 2.78865 6.39034C3.01349 5.35263 3.44587 4.33222 4.32792 3.70959C5.41752 2.9486 6.97408 2.91401 8.25393 2.82753C9.8105 2.72376 11.3844 2.75835 12.9409 2.9486C13.5636 3.01778 14.1862 3.12155 14.7396 3.38098C16.0195 3.95172 16.4691 5.28345 16.8323 6.5287C17.0226 7.18592 17.2301 8.11986 17.161 8.79438C17.2301 8.15445 17.2128 7.54912 17.1955 6.9092C17.1782 6.37305 17.2474 5.75042 17.6452 5.33534C17.7144 5.26616 17.8009 5.17968 17.8182 5.0932C17.8182 5.02402 17.8009 4.97214 17.7836 4.92025C17.6625 4.64353 17.5587 4.36681 17.4377 4.10738C17.3858 3.96902 17.3166 3.83065 17.2301 3.70959C16.9707 3.34639 16.5037 3.03508 16.1751 2.74106C15.7427 2.37786 15.172 2.11843 14.6186 2.03195C14.0132 1.92818 13.4079 1.94548 12.8026 1.96277C12.7853 1.91089 12.768 1.91089 12.7507 1.91089Z" fill="#E86CC5"/>
<path opacity="0.82" d="M12.6459 10.4548C12.8361 10.5067 13.0091 10.5759 13.1647 10.6969C13.2685 10.7834 13.355 10.8699 13.4587 10.9391C13.6144 11.0428 13.8046 11.0601 13.9949 11.0774C14.7559 11.1466 15.5342 11.1639 16.3124 11.0947C15.6725 11.0082 15.0499 10.9045 14.41 10.818C14.0641 10.7661 13.3895 10.3683 13.5625 9.88406C13.7355 9.39979 14.4791 9.76299 14.5829 9.20954C14.6002 9.10577 14.5829 9.002 14.6521 8.93282C14.704 8.88093 14.7905 8.86364 14.8596 8.84634C15.5514 8.72528 16.2433 8.62151 16.9524 8.75987C17.2983 8.82905 17.6442 8.88093 17.9901 8.95011C18.0765 8.96741 18.163 8.9847 18.2495 9.03659C18.336 9.08848 18.4052 9.17495 18.457 9.26143C18.8202 9.79758 19.1661 10.3337 19.5293 10.8699C19.2699 10.057 18.9067 9.27872 18.457 8.55233C18.4052 8.46585 18.336 8.36208 18.2495 8.31019C18.1457 8.25831 18.042 8.25831 17.9209 8.25831C16.814 8.2756 15.1882 8.06806 14.1851 8.62151C14.0986 8.67339 14.0295 8.72528 13.9949 8.81175C13.9776 8.86364 13.9949 8.93282 13.9603 8.9847C13.943 9.03659 13.8911 9.07118 13.8392 9.08848C13.4068 9.33061 12.9399 9.45167 12.4556 9.52086C12.0405 9.59004 11.4525 9.50356 11.072 9.67651C10.9509 9.7284 10.8472 9.84946 10.8817 9.98783C11.4179 10.23 12.0578 10.2818 12.6459 10.4548Z" fill="#D954D4"/>
<path opacity="0.5" d="M16.8489 9.64201C16.4511 9.6766 16.0706 9.6939 15.6728 9.72849C15.3442 9.74578 14.981 9.79767 14.7734 10.0571C14.9118 10.1782 15.102 10.23 15.275 10.2646C15.9668 10.4203 16.6413 10.6451 17.2812 10.9564C17.4715 11.0429 17.6617 11.1467 17.8347 11.2505C18.2671 11.5445 18.5784 11.9769 18.8897 12.3919C18.7513 12.0633 18.5784 11.7347 18.3535 11.4407C18.2325 11.2678 18.0941 11.1121 17.9212 10.9737C17.6271 10.7662 16.33 10.4722 16.2781 10.109C16.2608 10.0052 16.3473 9.93603 16.4338 9.88415C16.6413 9.76308 16.8489 9.6766 17.0737 9.60742C16.9353 9.64201 16.797 9.65931 16.6759 9.65931L16.8489 9.64201Z" fill="#D954D4"/>
<path opacity="0.39" d="M9.41186 5.94086C11.0376 6.23488 12.6634 6.66726 14.2199 7.20341C14.3064 7.39366 14.0297 7.53202 13.8048 7.54932C12.9228 7.65309 12.0234 7.63579 11.1414 7.75686C10.5706 7.82604 9.9826 7.91252 9.42916 8.03358C8.97948 8.13735 8.13202 8.29301 8.80653 8.74268C9.08325 8.93293 9.34268 9.15777 9.60211 9.36531C9.80965 9.53826 10.0518 9.72851 10.121 10.0052C10.1901 10.2993 10.0691 10.5933 9.91342 10.8527C9.77506 11.0948 9.58481 11.337 9.53293 11.6137C9.51563 11.6829 9.51563 11.752 9.55022 11.8039C9.58481 11.8558 9.6367 11.8731 9.68859 11.8904C10.1901 12.098 10.6398 12.2536 11.1587 12.3574C11.937 12.513 12.6979 12.7552 13.4243 13.0492C13.6146 13.1184 13.8221 13.2567 13.8048 13.447C13.7875 13.6372 8.68546 12.6514 8.09743 12.5303C8.02825 12.513 7.95907 12.4957 7.94177 12.4266C7.92448 12.392 7.94177 12.3401 7.94177 12.3055C8.08013 11.752 8.94489 11.0948 9.30809 10.6797C9.39457 10.5933 9.48104 10.4895 9.53293 10.3684C9.58481 10.2474 9.58481 10.109 9.49834 10.0052C9.42916 9.90146 9.2908 9.86687 9.16973 9.83228C8.16661 9.57285 7.21537 9.24425 6.22955 8.93293C6.12578 8.89834 6.022 8.86375 5.98741 8.75998C5.91823 8.56973 6.14307 8.43137 6.33332 8.36219C7.35373 8.03358 8.44333 7.65309 9.51563 7.49743C9.84424 7.44555 12.1445 6.96128 12.2137 7.04776C11.9888 6.75374 11.6084 6.63267 11.2624 6.5289C10.3458 6.25218 9.41186 5.97545 8.49522 5.69873L9.41186 5.94086Z" fill="#D954D4"/>
<path opacity="0.5" d="M1.68083 6.18293C1.36951 6.47695 1.11009 6.75367 0.850659 7.09957C0.798773 7.16875 0.712297 7.23793 0.643117 7.18605C0.625821 7.16875 0.625821 7.13416 0.608526 7.08228C0.573936 6.89203 0.556641 6.68449 0.556641 6.49424C0.556641 6.20022 0.643117 5.83702 0.91984 5.73325C1.14468 5.64678 1.40411 5.75055 1.64624 5.66407C1.81919 5.59489 1.95755 5.37005 2.09591 5.24899C2.16509 5.17981 2.23427 5.11063 2.33805 5.09333C2.56288 5.04145 2.75313 5.24899 2.90879 5.40464C3.46223 5.9235 4.2924 5.9408 5.05339 5.95809C6.21217 5.99268 7.50931 6.00998 8.6162 6.32129C8.77186 6.37318 8.9794 6.45965 8.9621 6.6326C8.94481 6.78826 8.77186 6.84015 8.6335 6.87474C6.97316 7.23794 5.08798 7.32441 3.53141 8.0854C3.42764 8.13729 3.34117 8.18917 3.27199 8.27565C3.2201 8.36212 3.20281 8.50048 3.28928 8.56966C3.32387 8.60426 3.37576 8.62155 3.41035 8.63885C4.2924 8.96745 5.20905 9.22688 6.1084 9.5382C6.16028 9.55549 6.24676 9.60738 6.22946 9.65926C6.19487 9.83221 4.98421 9.86681 4.79396 9.91869C4.25781 10.0571 3.72166 10.1608 3.16821 10.23C3.27199 10.0743 3.41035 9.91869 3.44494 9.72844C3.61789 9.07123 2.32075 8.63885 1.92296 9.01934C1.75001 9.175 1.62894 9.48631 1.38681 9.43442C1.4387 8.91557 1.61165 8.41401 1.90567 7.98163C1.99214 7.84327 2.09591 7.70491 2.25157 7.63572C2.38993 7.54925 2.56288 7.53195 2.73584 7.53195C3.30658 7.49736 3.96379 7.54925 4.36158 7.11687C4.41347 7.06498 4.46535 6.9958 4.44806 6.92662C4.43076 6.84015 4.32699 6.78826 4.24052 6.75367C3.63519 6.51154 3.02985 6.2867 2.42452 6.04457C2.30346 5.99268 2.16509 5.9408 2.04403 5.97539C1.88837 5.99268 1.7846 6.09645 1.68083 6.18293Z" fill="#D954D4"/>
<path opacity="0.68" d="M0.662089 13.2739C1.09447 12.8934 1.52685 12.5129 1.95923 12.1324C2.37431 11.7692 2.85858 11.3714 3.41203 11.3887C3.37743 11.5789 3.34284 11.7865 3.32555 11.9767C3.94818 11.8038 4.55351 11.6308 5.17613 11.4406C6.0063 11.1984 6.85377 10.9563 7.73582 10.9563C7.90877 10.9563 8.15091 11.0082 8.1682 11.1984C8.1855 11.2849 8.13361 11.3714 8.06443 11.4406C7.61476 12.0113 6.81918 12.3053 6.59434 12.9798C8.65247 13.8619 11.0565 14.0003 13.2184 14.571C13.2876 14.5883 13.3395 14.6056 13.3741 14.6748C13.4259 14.7958 13.2703 14.8823 13.1492 14.9169C12.3882 15.1417 11.6791 15.5049 11.0392 15.9719C12.1634 16.4562 13.4605 16.1103 14.6712 16.0411C15.3457 16.0065 16.0202 16.0757 16.6774 16.1276C16.7812 16.1449 16.885 16.1449 16.9715 16.1794C17.0752 16.2313 17.1617 16.3005 17.2482 16.387C17.8708 17.0961 17.8362 18.2895 17.1617 18.964C17.4211 18.4278 17.4557 17.7187 17.0752 17.2517C16.6256 16.6983 15.83 16.6291 15.1036 16.6118C13.7373 16.5772 12.3709 16.5426 11.0046 16.5081C10.7279 16.5081 10.1226 16.5772 9.88043 16.4216C9.56911 16.214 9.67288 15.8854 9.9669 15.7125C10.4166 15.4358 11.0046 15.3839 11.3332 14.9861C11.3505 14.9515 11.3678 14.9342 11.3678 14.8996C11.3678 14.8477 11.2986 14.8131 11.2467 14.8131C9.05026 14.2943 6.78459 14.2251 4.60539 13.6543C4.48433 13.6198 4.34597 13.5506 4.34597 13.4295C4.34597 13.3603 4.39785 13.3084 4.44974 13.2739C4.89941 12.8761 5.57392 12.6166 5.74688 12.0286C4.77835 11.9421 3.8444 12.3918 2.97965 12.8242C2.56456 13.0317 2.14948 13.2566 1.73439 13.4641C1.57873 13.3257 1.7171 13.0836 1.85546 12.9452C1.99382 12.8069 2.18407 12.6339 2.09759 12.4437C1.59603 12.8761 1.02529 13.2393 0.419957 13.4987C0.385366 13.4295 0.489137 13.343 0.558318 13.3603C0.644794 13.3776 0.679385 13.4641 0.73127 13.5333L0.662089 13.2739Z" fill="#D954D4"/>
<path opacity="0.5" d="M17.6971 14.7267C18.5099 15.2975 18.4581 16.5254 18.9596 17.3902C19.0634 16.8368 18.6656 16.3179 18.631 15.7644C18.5618 15.0726 19.0461 14.45 19.5131 13.9139C19.2882 14.1214 18.9942 14.2771 18.7002 14.3462C18.5272 14.3808 18.3197 14.3808 18.2332 14.2425C18.1813 14.156 18.164 14.0522 18.164 13.9657C18.1467 13.6371 18.1467 13.2912 18.1294 12.9626C18.0257 13.395 17.8181 13.8966 17.3858 13.9657C17.282 13.983 17.1782 13.9657 17.0571 13.9485C16.6421 13.8966 16.227 13.8274 15.8119 13.7755C16.0194 13.6717 16.227 13.5507 16.3653 13.3777C16.5037 13.2048 16.5556 12.928 16.4172 12.7378C16.3307 12.634 16.2097 12.5821 16.0886 12.5302C15.3103 12.2016 14.4629 12.0633 13.6327 11.9249C13.3387 11.873 11.8167 11.8557 11.6956 11.5271C11.6438 11.3715 11.7648 11.2158 11.9205 11.1466C12.0588 11.0775 12.2318 11.0429 12.3529 10.9218C12.0415 10.9045 10.9346 10.818 10.779 11.1466C10.5714 11.579 12.0242 12.0114 12.3356 12.0979C12.8371 12.2189 13.3387 12.3227 13.8575 12.4265C14.238 12.513 14.9125 12.5475 15.2239 12.7724C16.0367 13.3777 14.4283 13.8447 14.0651 13.9139C14.0651 13.983 14.0651 14.0349 14.0651 14.1041C14.0478 13.8966 17.3858 14.5192 17.6971 14.7267Z" fill="#D954D4"/>
<path opacity="0.5" d="M12.6453 9.15766C12.7491 9.15766 12.9047 9.14037 12.9047 9.0193C12.9047 8.96742 12.8874 8.93283 12.8874 8.89824C12.8701 8.79446 12.9393 8.70799 13.0085 8.63881C13.2852 8.36209 13.6484 8.18913 14.0462 8.11995C13.9252 8.01618 13.7522 8.01618 13.5965 8.03348C12.5415 8.10266 11.3482 7.92971 10.345 8.2929C9.54947 8.58692 10.3969 8.79446 10.812 8.89824C11.4173 9.0366 12.0227 9.12307 12.6453 9.15766Z" fill="#D954D4"/>
<path opacity="0.5" d="M13.9609 6.39057C13.4939 6.37327 13.0615 6.21762 12.6291 6.07926C11.5395 5.71606 10.4499 5.35286 9.36033 4.98966C9.18738 4.93777 8.96254 4.79941 9.01443 4.62646C9.04902 4.50539 9.20468 4.45351 9.32574 4.41892C9.87919 4.29785 10.4499 4.21138 11.0207 4.15949C11.626 4.1076 12.2486 4.09031 12.7848 3.83088C12.9404 3.74441 13.1307 3.58875 13.0788 3.4158C13.0615 3.32932 12.975 3.27744 12.9058 3.22555C12.4735 2.91424 11.9027 2.63751 11.8681 2.11866C12.7329 1.09824 14.1511 0.821517 15.4655 0.59668C14.5489 1.02906 13.6495 1.49603 12.7675 1.9803C12.6983 2.01489 12.6118 2.08407 12.6118 2.17054C12.6118 2.25702 12.6983 2.3089 12.7675 2.36079C13.1826 2.60292 13.5631 2.86235 13.9609 3.13907C14.0646 3.20825 14.1684 3.29473 14.1857 3.3985C14.2376 3.60604 13.9954 3.779 13.8052 3.86547C13.0442 4.22867 12.2313 4.52269 11.4185 4.74753C11.9027 5.37015 12.7675 5.45663 13.5458 5.61229C14.2203 5.75065 14.8775 5.95819 15.4828 6.25221C15.6039 6.30409 15.725 6.39057 15.725 6.51164C15.7077 6.68459 15.4828 6.71918 15.3791 6.85754C15.2753 7.0132 15.3791 7.22074 15.5347 7.30722C15.6904 7.39369 15.8806 7.3764 16.0709 7.3764C16.7454 7.3764 17.4199 7.48017 18.0598 7.68771C16.8664 7.91255 15.6212 7.91255 14.4278 7.68771C14.5316 7.42828 14.8429 7.27262 14.8948 6.9959C14.9294 6.75377 14.7564 6.52893 14.5316 6.44246C14.3068 6.35598 14.0646 6.37327 13.8225 6.39057H13.9609Z" fill="#D954D4"/>
<path opacity="0.5" d="M16.8495 0.873206C16.3999 0.994272 16.1404 1.47854 16.0194 1.94551C15.8983 2.39518 15.8637 2.89674 15.6043 3.27724C15.0854 4.05552 13.9094 4.17659 13.4424 4.97217C14.4801 4.74733 15.587 4.76462 16.6247 5.04135C16.6939 5.05864 16.7804 5.09323 16.8322 5.14512C16.9533 5.28348 16.8495 5.49102 16.7112 5.62938C16.5901 5.76775 16.4345 5.90611 16.469 6.09635C16.5209 6.37308 16.9187 6.35578 17.2127 6.35578C17.8008 6.35578 18.3369 6.71898 18.6828 7.18595C19.0287 7.65292 19.2363 8.22366 19.4265 8.75981C19.7378 8.50039 19.6514 7.98153 19.4092 7.65292C19.1671 7.32431 18.8212 7.06489 18.6309 6.70169C18.3888 6.20013 18.5272 5.61209 18.7347 5.09323C18.9596 4.59167 19.2536 4.09011 19.34 3.55396C18.8558 4.19388 18.3888 4.81651 17.9045 5.45643C17.7316 5.68127 17.5068 5.9234 17.2473 5.87152C17.3857 5.50832 17.5413 5.14512 17.6797 4.78192C17.7143 4.71274 17.7489 4.60897 17.7143 4.53979C17.6797 4.45331 17.5759 4.41872 17.4895 4.40143C16.9533 4.28036 16.3999 4.22847 15.8637 4.22847C16.1923 3.24265 16.5209 2.20494 17.2473 1.46124C17.3684 1.32288 17.524 1.14993 17.4549 0.976977C17.4203 0.925092 17.3684 0.873206 17.3165 0.855911C16.9879 0.665664 16.5382 0.838616 16.3999 1.18452L16.8495 0.873206Z" fill="#D954D4"/>
<path opacity="0.5" d="M18.1801 1.44409C18.6298 1.72081 16.9694 3.74435 16.8311 3.9519C16.9694 3.76165 17.4537 3.67517 17.6612 3.45033C17.9034 3.17361 17.9725 2.96607 18.3876 2.87959C18.6125 2.82771 18.8546 2.82771 19.0794 2.77582C19.1313 2.75853 19.1832 2.74123 19.1832 2.68935C19.1832 2.62017 19.0967 2.60287 19.0275 2.60287C18.9238 2.60287 18.8373 2.60287 18.7335 2.60287C18.2493 2.60287 18.353 2.4818 18.4049 2.22238C18.4741 1.87647 18.647 1.73811 18.1801 1.44409Z" fill="#D954D4"/>
<path opacity="0.5" d="M19.5297 5.54322C19.3395 5.59511 19.1319 5.647 18.9763 5.75077C18.8206 5.87183 18.6996 6.07938 18.7514 6.26962C18.786 6.40798 18.8898 6.51176 18.9936 6.59823C19.1838 6.75389 19.3914 6.85766 19.6162 6.92684C19.5989 6.59823 19.0455 6.51176 19.0109 6.16585C19.2876 5.9929 19.5816 5.76806 19.6335 5.43945L19.5297 5.54322Z" fill="#D954D4"/>
<path opacity="0.5" d="M5.08782 3.60596C5.74503 3.4676 6.41955 3.34654 7.07676 3.20817C7.6648 3.08711 8.23554 2.84498 8.84087 2.7412C8.94464 2.72391 9.06571 2.67202 9.04842 2.56825C9.04842 2.51637 8.97923 2.46448 8.92735 2.44719C8.65063 2.29153 8.3739 2.17046 8.07989 2.06669C8.028 2.0494 7.97611 2.0321 7.95882 1.98022C7.90693 1.91103 7.95882 1.80726 8.0107 1.72079C8.32202 1.23652 8.63333 0.769552 8.96194 0.285287C9.01383 0.198811 9.1176 0.0950395 9.22137 0.12963C9.1176 0.492829 9.04842 0.873323 8.97924 1.25382C8.96194 1.35759 8.94464 1.46136 8.97924 1.56513C9.01383 1.6862 9.1176 1.78997 9.23866 1.84185C9.4635 1.98022 9.72293 2.0321 9.94777 2.17046C10.1726 2.30882 10.3283 2.58555 10.2245 2.82768C10.1899 2.91416 10.1207 2.98334 10.0342 3.03522C9.35973 3.58867 8.18366 3.38113 7.59562 4.07293C7.47455 4.2113 7.43996 4.43613 7.54373 4.5745C7.63021 4.67827 7.75128 4.73015 7.85505 4.79933C7.95882 4.86851 8.06259 5.00688 7.99341 5.12794C7.94152 5.21442 7.83775 5.24901 7.73398 5.2663C7.09406 5.37007 6.41955 5.35278 5.79692 5.23171C5.26077 5.12794 4.72462 5.09335 4.18847 4.98958C3.15076 4.78204 2.06116 4.14212 1.68066 3.1217C2.66649 4.12482 4.0847 4.69556 5.48561 4.64368C5.48561 4.43613 5.26077 4.31507 5.07052 4.22859C4.88027 4.12482 4.69003 3.91728 4.81109 3.74433C4.88027 3.64055 4.98405 3.62326 5.08782 3.60596Z" fill="#D954D4"/>
<path opacity="0.5" d="M0.93698 17.3901C1.55961 16.4735 2.07846 15.4358 2.94322 14.7959C3.16806 14.6229 3.3756 13.9138 2.90863 13.9311C2.49355 13.9484 2.11305 14.1732 1.78444 14.45C1.42125 14.7613 1.09264 15.1072 0.833209 15.505C0.746733 15.626 0.642961 15.7644 0.487305 15.7298C0.487305 15.5223 0.573781 15.332 0.660257 15.1591C1.07534 14.4154 1.71526 13.81 2.47625 13.4468C2.92593 13.2393 3.44478 13.1009 3.91175 13.2393C3.79069 13.4641 3.72151 13.7236 3.72151 13.983C3.72151 15.1591 6.67898 14.7786 7.38809 14.8132C7.78588 14.8304 8.20096 14.8477 8.51227 15.0899C7.63022 15.4877 6.76546 15.9027 5.8834 16.3005C5.76234 16.3524 5.62398 16.4216 5.5375 16.5081C5.29537 16.7502 5.31266 17.148 5.34725 17.4766C5.41643 18.0992 5.46832 18.7219 5.5375 19.3272C5.32996 19.3272 5.22619 19.1024 5.1743 18.8948C5.01865 18.3933 4.86299 17.8917 4.70733 17.4074C4.63815 17.1826 4.56897 16.9405 4.62086 16.7156C4.75922 16.1795 5.46832 16.0584 5.83152 15.6433C5.86611 15.6087 5.9007 15.5568 5.918 15.4877C5.93529 15.3147 5.67586 15.2628 5.50291 15.2801C4.96676 15.332 4.4479 15.3839 3.91175 15.4358C3.77339 15.4531 3.63503 15.4704 3.53126 15.5568C3.42749 15.6433 3.41019 15.8336 3.51396 15.92C3.04699 15.7471 2.56273 16.0757 2.18223 16.387C1.74985 16.7329 1.33477 17.0615 0.93698 17.3901Z" fill="#D954D4"/>
<path d="M19.8758 3.83083C19.6856 2.68935 19.357 1.65164 18.3192 1.02901C18.2328 0.977127 17.1951 0.389091 17.1778 0.631223C17.1778 0.838766 17.368 1.01172 17.5583 1.11549C18.0771 1.4268 18.6479 1.99754 18.9073 2.55099C19.0975 2.96607 19.2359 3.43304 19.3224 3.91731C19.4953 4.88584 19.4607 5.90626 19.4434 6.94397C19.4261 7.46282 19.4261 7.99898 19.4261 8.51783C19.4261 9.03669 19.4088 9.57284 19.4088 10.109C19.4088 11.164 19.3915 12.2363 19.3915 13.3259C19.3915 13.862 19.3915 14.3982 19.3915 14.9343C19.3915 15.4705 19.3742 16.0067 19.2359 16.4909C19.0975 16.9925 18.8035 17.4249 18.4576 17.8399C18.1117 18.2377 17.7139 18.6009 17.2642 18.8431C16.7973 19.0852 16.2784 19.1544 15.7423 19.189C15.2061 19.2063 14.6873 19.1717 14.1511 19.1544C13.8917 19.1371 13.6149 19.1198 13.3555 19.1198C13.0961 19.1198 12.8194 19.1198 12.5599 19.1198C12.0411 19.1198 11.5049 19.1198 10.9861 19.1198C9.94837 19.1198 8.91066 19.1025 7.90753 19.1025C6.88712 19.0679 5.884 19.2236 4.93276 19.2063C4.46579 19.2063 3.98152 19.1544 3.56644 19.016L3.41078 18.9641L3.23783 18.8949L3.15136 18.8604H3.13406H3.11677L3.08217 18.8431C3.03029 18.8258 2.9784 18.7912 2.92652 18.7739C2.73627 18.6701 2.54602 18.549 2.37307 18.428C2.02717 18.1686 1.71585 17.8572 1.49102 17.494C1.43913 17.4076 1.36995 17.3211 1.31806 17.2173C1.26618 17.1308 1.23159 17.0444 1.1797 16.9406C1.16241 16.8887 1.12782 16.8368 1.11052 16.8022L1.05864 16.6639C1.02405 16.5601 0.989456 16.4736 0.954866 16.3698C0.712733 15.5743 0.695438 14.7441 0.730028 13.9485C0.747323 13.5507 0.764618 13.1529 0.781914 12.7552C0.799209 12.3574 0.799209 11.9769 0.799209 11.6137C0.799209 10.87 0.799209 10.1782 0.799209 9.52095C0.799209 8.86374 0.781914 8.24111 0.781914 7.67037C0.781914 7.09963 0.764618 6.58077 0.764618 6.1138C0.764618 5.14527 0.764618 4.40158 0.764618 3.90001C0.764618 3.39845 0.781914 3.12173 0.781914 3.12173H0.747323C0.730028 3.13903 0.730028 3.13903 0.712733 3.15632C0.695438 3.2428 0.678142 3.48493 0.643552 3.90001C0.608962 4.40158 0.591666 5.14527 0.557076 6.0965C0.539781 6.56347 0.522486 7.09963 0.505191 7.65307C0.487895 8.22381 0.4706 8.82914 0.453305 9.50366C0.43601 10.1609 0.418715 10.8527 0.401419 11.5964C0.401419 11.9596 0.384124 12.3401 0.366829 12.7206C0.349534 13.1011 0.314943 13.4988 0.280353 13.9139C0.228467 14.7268 0.245763 15.6089 0.505191 16.4909C0.539781 16.5947 0.574371 16.7158 0.608962 16.8195L0.678142 16.9752C0.695438 17.0444 0.730028 17.079 0.747323 17.1308C0.799209 17.2346 0.851094 17.3557 0.90298 17.4422C0.954866 17.5459 1.02405 17.6497 1.09323 17.7362C1.36995 18.134 1.69856 18.4799 2.09635 18.7739C2.2866 18.9122 2.51143 19.0506 2.73627 19.1544C2.78816 19.189 2.85734 19.2063 2.90922 19.2409L2.94381 19.2581L2.96111 19.2754L2.9957 19.2927L3.08217 19.3273L3.25513 19.3965L3.44537 19.4484C3.94693 19.5868 4.44849 19.6041 4.93276 19.6041C5.93588 19.5868 6.90441 19.3965 7.90753 19.3965C8.91066 19.3619 9.94837 19.3446 10.9861 19.3273C11.5049 19.31 12.0238 19.31 12.5599 19.31C12.8194 19.31 13.0788 19.31 13.3555 19.2927C13.6149 19.2927 13.8744 19.31 14.1511 19.3273C14.6873 19.3619 15.2234 19.3965 15.7596 19.3792C16.0363 19.3792 16.2957 19.3446 16.5724 19.31C16.8491 19.2581 17.1259 19.189 17.368 19.0506C17.8696 18.7912 18.2847 18.428 18.6651 18.0302C18.8554 17.8226 19.0283 17.6151 19.1667 17.373C19.3224 17.1481 19.4434 16.8887 19.5299 16.612C19.7029 16.0758 19.7374 15.5051 19.7547 14.9689C19.772 14.4328 19.7893 13.8966 19.8066 13.3605C19.8412 12.2882 19.8585 11.2159 19.8931 10.1609C19.9277 9.10587 19.945 8.03357 19.9796 7.01315C19.9969 5.90626 20.0488 4.86855 19.8758 3.83083Z" fill="#BE4CB3"/>
<path d="M13.9439 17.7707C13.9439 17.7707 13.0445 17.7707 11.4879 17.788C10.7097 17.788 9.75842 17.8053 8.66883 17.8226C8.11538 17.8226 7.54464 17.8399 6.92201 17.8399C6.76636 17.8399 6.6107 17.8399 6.45504 17.8399C6.36857 17.8399 6.29939 17.8399 6.21291 17.8399C6.12643 17.8399 6.05725 17.8399 5.97078 17.8399C5.81512 17.8399 5.64217 17.8053 5.46922 17.788C5.29626 17.7707 5.14061 17.7188 4.96766 17.667C4.31044 17.4594 3.67052 17.0962 3.15166 16.5774C2.63281 16.0585 2.23502 15.384 2.04477 14.623C1.99288 14.4327 1.97559 14.2425 1.941 14.0523C1.9237 13.9485 1.9237 13.862 1.9237 13.7582C1.9237 13.6545 1.90641 13.568 1.9237 13.4642C1.9237 13.0837 1.9237 12.6859 1.941 12.2881C1.95829 11.4926 1.95829 10.6797 1.97559 9.84952C1.99288 9.01935 1.99288 8.18918 1.99288 7.34172C1.99288 6.90934 1.99288 6.49425 1.99288 6.06187C1.99288 5.62949 2.06206 5.19711 2.20043 4.78203C2.47715 3.95186 3.0133 3.19087 3.7397 2.67202C4.1029 2.41259 4.50069 2.18775 4.93307 2.04939C5.36545 1.91103 5.81512 1.84185 6.2648 1.82455C7.14685 1.78996 8.0462 1.77267 8.94555 1.77267C9.8449 1.77267 10.727 1.75537 11.609 1.75537C12.0414 1.75537 12.4911 1.75537 12.9234 1.75537C13.1483 1.75537 13.3558 1.75537 13.5807 1.75537H13.9093C14.0303 1.75537 14.1341 1.77267 14.2379 1.77267C15.1372 1.82455 15.9847 2.17046 16.6592 2.68931C16.9878 2.96603 17.2991 3.26005 17.5413 3.60596C17.7834 3.95186 17.9736 4.33235 18.0947 4.71285C18.1293 4.81662 18.1466 4.9031 18.1812 5.00687C18.2158 5.11064 18.2331 5.19711 18.2504 5.30089C18.2677 5.40466 18.285 5.50843 18.3022 5.5949C18.3022 5.69868 18.3195 5.80245 18.3195 5.88892C18.3368 6.28671 18.3195 6.66721 18.3195 7.0477C18.3195 8.56968 18.3022 9.98788 18.285 11.3196C18.2677 11.9768 18.2677 12.6168 18.2504 13.2221C18.2504 13.3777 18.2504 13.5161 18.2331 13.6718C18.2331 13.7409 18.2158 13.8101 18.2158 13.8966C18.2158 13.9658 18.2158 14.035 18.1985 14.1214C18.1639 14.4155 18.0947 14.6922 17.9909 14.9516C17.8007 15.4705 17.5413 15.9028 17.2299 16.266C16.9186 16.6292 16.5727 16.906 16.2614 17.1135C15.5869 17.5286 14.9816 17.6842 14.5665 17.7361C14.3589 17.7707 14.2033 17.7707 14.0822 17.7707C13.9957 17.7707 13.9439 17.7707 13.9439 17.7707ZM13.9439 17.7361C13.9439 17.7361 13.9957 17.7361 14.0995 17.7188C14.2033 17.7188 14.3762 17.7188 14.5665 17.667C14.9816 17.5978 15.5869 17.4421 16.2441 17.027C16.5727 16.8195 16.9013 16.5255 17.1781 16.1796C17.4721 15.8164 17.7142 15.384 17.8872 14.8824C17.9391 14.7614 17.9563 14.623 17.9909 14.5019C18.0082 14.4327 18.0255 14.3636 18.0255 14.2944C18.0428 14.2252 18.0428 14.156 18.0601 14.0868C18.0774 14.0177 18.0774 13.9485 18.0774 13.8793C18.0774 13.8101 18.0774 13.7409 18.0774 13.6545C18.0774 13.5161 18.0774 13.3604 18.0774 13.2048C18.0774 12.5995 18.0601 11.9768 18.0428 11.3023C18.0255 9.98788 18.0082 8.55238 18.0082 7.03041C18.0082 6.64991 18.0082 6.26942 18.0082 5.88892C18.0082 5.80245 17.9909 5.69868 17.9909 5.6122C17.9736 5.52572 17.9563 5.42195 17.939 5.33548C17.9218 5.249 17.9045 5.14523 17.8699 5.05875C17.8353 4.97228 17.818 4.86851 17.7834 4.78203C17.6623 4.41883 17.4721 4.07293 17.2645 3.74432C17.0397 3.41571 16.763 3.13899 16.4517 2.87956C15.829 2.378 15.0162 2.04939 14.186 1.9975C14.0822 1.9975 13.9612 1.98021 13.8747 1.98021H13.5461C13.3212 1.98021 13.1137 1.98021 12.8889 1.98021C12.4565 1.98021 12.0068 1.98021 11.5744 1.98021C10.727 1.98021 9.82761 1.98021 8.94555 1.98021C8.0462 1.96291 7.16415 1.96291 6.2648 1.94562C5.83242 1.94562 5.38274 2.0148 4.96766 2.13587C4.55257 2.25693 4.15478 2.46447 3.79158 2.7239C3.06518 3.22546 2.54633 3.96916 2.26961 4.78203C2.13124 5.19711 2.07936 5.6122 2.07936 6.04458C2.07936 6.47696 2.07936 6.90934 2.07936 7.32442C2.07936 8.17189 2.09665 9.01935 2.09665 9.83223C2.11395 10.6624 2.11395 11.4753 2.13124 12.2708C2.13124 12.6686 2.13124 13.0664 2.14854 13.4469C2.14854 13.5507 2.14854 13.6372 2.16584 13.7409C2.16584 13.8274 2.16584 13.9312 2.18313 14.0177C2.21772 14.2079 2.23502 14.3809 2.2869 14.5711C2.37338 14.9343 2.52903 15.2629 2.70199 15.5742C2.75387 15.6434 2.78846 15.7299 2.84035 15.7991C2.89223 15.8683 2.94412 15.9374 2.996 16.0066C3.09978 16.145 3.22084 16.2833 3.34191 16.4044C3.82617 16.906 4.43151 17.2519 5.05413 17.4594C5.20979 17.494 5.36545 17.5459 5.5211 17.5805C5.67676 17.5978 5.83242 17.6497 5.98807 17.6497C6.07455 17.6497 6.14373 17.667 6.23021 17.667C6.29939 17.667 6.38586 17.667 6.45504 17.667C6.6107 17.667 6.76636 17.667 6.92201 17.667C7.52734 17.6842 8.11538 17.6842 8.66883 17.6842C9.75842 17.7015 10.7097 17.7188 11.4879 17.7188C13.0445 17.7361 13.9439 17.7361 13.9439 17.7361Z" fill="#CD83CD"/>
<path d="M13.8216 17.6669C13.8216 17.6669 12.9568 17.6669 11.4349 17.6842C10.6739 17.6842 9.75722 17.7015 8.68492 17.7187C8.14877 17.7187 7.59532 17.736 6.98999 17.736C6.83433 17.736 6.69597 17.736 6.54032 17.736C6.45384 17.736 6.38466 17.736 6.29818 17.736C6.229 17.736 6.14253 17.736 6.07334 17.736C5.91769 17.736 5.76203 17.7015 5.58908 17.6842C5.43342 17.6669 5.26047 17.615 5.10481 17.5631C4.46489 17.3555 3.84226 17.0096 3.3407 16.4908C2.83914 15.9719 2.44135 15.3147 2.2684 14.5537C2.21652 14.3635 2.19922 14.1732 2.16463 13.983C2.14734 13.8792 2.14734 13.7927 2.14734 13.689C2.14734 13.5852 2.13004 13.4987 2.14734 13.3949C2.14734 13.0145 2.14734 12.6167 2.16463 12.2362C2.18193 11.4579 2.18193 10.645 2.19922 9.83214C2.19922 9.01926 2.21652 8.18909 2.21652 7.34163C2.21652 6.92655 2.21652 6.49417 2.21652 6.07908C2.21652 5.6467 2.2857 5.21432 2.42406 4.81653C2.68349 4.00366 3.20234 3.24267 3.92874 2.72381C4.27464 2.46439 4.67243 2.23955 5.08752 2.10119C5.5026 1.96282 5.95228 1.89364 6.38466 1.87635C7.24942 1.85905 8.13147 1.85905 8.99623 1.84176C9.86099 1.84176 10.7258 1.82446 11.5732 1.82446C12.0056 1.82446 12.4207 1.82446 12.8531 1.82446C13.0606 1.82446 13.2681 1.82446 13.493 1.82446H13.8043C13.9254 1.82446 14.0118 1.84176 14.1329 1.84176C14.9977 1.89364 15.8278 2.22225 16.4851 2.74111C16.8137 3.00054 17.1077 3.31185 17.3498 3.65775C17.5747 4.00366 17.7649 4.36686 17.886 4.76465C17.9206 4.85112 17.9379 4.95489 17.9724 5.05866C18.007 5.16244 18.0243 5.24891 18.0416 5.35268C18.0589 5.45645 18.0762 5.54293 18.0935 5.6467C18.0935 5.75047 18.1108 5.85424 18.1108 5.94072C18.1281 6.33851 18.1108 6.70171 18.1108 7.0822C18.1108 8.56959 18.0935 9.98779 18.0935 11.3022C18.0762 11.9594 18.0762 12.5821 18.0589 13.1701C18.0589 13.3258 18.0589 13.4641 18.0416 13.6198C18.0416 13.689 18.0243 13.7581 18.0243 13.8273C18.0243 13.8965 18.0243 13.9657 18.007 14.0349C17.9724 14.3289 17.9033 14.5883 17.8168 14.8477C17.6438 15.3493 17.3844 15.799 17.0731 16.1449C16.7791 16.4908 16.4505 16.7675 16.1219 16.9923C15.4819 17.4074 14.8766 17.5631 14.4788 17.615C14.2713 17.6496 14.1156 17.6496 14.0118 17.6496C13.8735 17.6669 13.8216 17.6669 13.8216 17.6669ZM13.8216 17.6496C13.8216 17.6496 13.8735 17.6496 13.9773 17.6323C14.081 17.6323 14.2367 17.6323 14.4442 17.5804C14.842 17.5112 15.43 17.3555 16.07 16.9405C16.3813 16.7329 16.7099 16.4562 16.9866 16.093C17.2633 15.7298 17.5055 15.2974 17.6784 14.8132C17.7303 14.6921 17.7476 14.5537 17.7822 14.4327C17.7995 14.3635 17.8168 14.2943 17.8168 14.2424C17.8341 14.1732 17.8341 14.104 17.8514 14.0349C17.8687 13.9657 17.8687 13.8965 17.8687 13.8273C17.8687 13.7581 17.8687 13.689 17.8687 13.6198C17.8687 13.4814 17.8687 13.3258 17.8687 13.1874C17.8687 12.5994 17.8514 11.9767 17.8341 11.3195C17.8168 10.0224 17.7995 8.60418 17.8168 7.0995C17.8168 6.7363 17.8168 6.33851 17.8168 5.97531C17.8168 5.88883 17.7995 5.78506 17.7995 5.69859C17.7822 5.61211 17.7649 5.50834 17.7649 5.42186C17.7476 5.33539 17.7303 5.23162 17.713 5.14514C17.6784 5.05866 17.6784 4.95489 17.6438 4.86842C17.5228 4.50522 17.3498 4.15931 17.125 3.848C16.9001 3.53669 16.6407 3.24267 16.3294 3.00054C15.7241 2.51627 14.9458 2.18766 14.1329 2.13578C14.0291 2.13578 13.9254 2.11848 13.8216 2.11848H13.5103C13.3027 2.11848 13.0952 2.11848 12.8704 2.11848C12.438 2.11848 12.0229 2.11848 11.5905 2.11848C10.743 2.11848 9.87829 2.10119 9.01353 2.10119C8.14877 2.08389 7.28401 2.08389 6.40195 2.0666C5.96957 2.0666 5.55449 2.13578 5.1394 2.25684C4.72432 2.37791 4.34383 2.58545 3.99792 2.82758C3.30611 3.32914 2.78726 4.05554 2.52783 4.86842C2.40676 5.26621 2.33758 5.69859 2.33758 6.11367C2.33758 6.54605 2.33758 6.96113 2.33758 7.37622C2.33758 8.22368 2.35488 9.03656 2.35488 9.86673C2.37217 10.6796 2.37217 11.4752 2.38947 12.2708C2.38947 12.6685 2.38947 13.049 2.40676 13.4295C2.40676 13.5333 2.40676 13.6198 2.42406 13.7063C2.42406 13.7927 2.42406 13.8965 2.44135 13.983C2.47594 14.1559 2.49324 14.3462 2.54512 14.5191C2.6316 14.865 2.76996 15.2109 2.94291 15.505C2.9948 15.5741 3.02939 15.6606 3.08128 15.7298C3.13316 15.799 3.18505 15.8682 3.23693 15.9373C3.3407 16.0757 3.46177 16.1968 3.56554 16.3351C4.03251 16.8194 4.62055 17.1653 5.22588 17.3728C5.38154 17.4074 5.53719 17.4593 5.67556 17.4939C5.83121 17.5112 5.96957 17.5458 6.12523 17.5631C6.21171 17.5631 6.28089 17.5804 6.35007 17.5804C6.41925 17.5804 6.50572 17.5804 6.57491 17.5804C6.73056 17.5804 6.88622 17.5804 7.02458 17.5804C7.61262 17.5977 8.18336 17.5977 8.71951 17.5977C9.77452 17.615 10.7085 17.6323 11.4694 17.6323C12.9568 17.6323 13.8216 17.6496 13.8216 17.6496Z" fill="#AA48B3"/>
<path d="M16.8303 15.1245C16.7265 15.1937 16.6054 15.2802 16.5881 15.4012C16.5708 15.5223 16.6573 15.678 16.7784 15.678C16.8303 15.678 16.8649 15.6434 16.8995 15.6261C17.0378 15.5223 17.107 15.3321 17.0551 15.1764C16.934 15.1418 16.813 15.1764 16.7265 15.2283L16.8303 15.1245Z" fill="#FFADFD"/>
<path d="M2.20083 6.80555C2.11435 5.83701 1.97599 5.04144 2.37378 4.12479C2.96182 2.81036 4.25896 1.99748 5.69446 1.96289C4.79511 1.99748 3.65362 2.81036 3.10018 3.48487C2.37378 4.34963 2.09706 5.69865 2.20083 6.80555Z" fill="#DF69C5"/>
<path d="M17.2993 0.492796C17.2128 0.458206 17.1263 0.440911 17.0399 0.40632C16.5556 0.267959 16.0713 0.198778 15.6044 0.164188C14.6531 0.0950069 13.7538 0.129597 12.889 0.129597C12.0243 0.129597 11.1768 0.112302 10.3639 0.112302C8.73817 0.0950069 7.26808 0.0604165 5.93635 0.0777117C5.27913 0.0950069 4.65651 0.129597 4.08576 0.250664C3.51502 0.354435 3.01346 0.527387 2.58108 0.769519C1.73362 1.23649 1.24935 1.87641 1.02451 2.34338C0.972629 2.46445 0.938038 2.56822 0.903448 2.65469C0.886153 2.74117 0.851562 2.81035 0.851562 2.87953C0.886153 2.86224 0.920743 2.82765 0.938038 2.81035C0.938038 2.75847 0.955334 2.72388 0.972629 2.67199C1.00722 2.58551 1.0591 2.48174 1.11099 2.37797C1.23206 2.15313 1.40501 1.911 1.66444 1.65157C1.92386 1.39215 2.25247 1.15001 2.66756 0.959766C2.77133 0.907881 2.8751 0.855995 2.99617 0.821405C3.04805 0.80411 3.11723 0.786815 3.16912 0.752224L3.221 0.734929H3.2383H3.25559L3.34207 0.700339C3.5842 0.631158 3.84363 0.561977 4.12035 0.527387C4.6738 0.440911 5.27913 0.423616 5.93635 0.440911C7.25078 0.475501 8.73817 0.527387 10.3466 0.579272C11.1595 0.596567 12.007 0.631158 12.8717 0.665748C13.7538 0.683043 14.6531 0.648453 15.5525 0.734929C16.0022 0.769519 16.4518 0.8387 16.8842 0.977062C16.988 1.01165 17.109 1.04624 17.2128 1.08083C17.3166 1.11542 17.4204 1.15001 17.5241 1.2019L17.6798 1.27108L17.749 1.30567L17.8354 1.34026C17.87 1.35756 17.9046 1.37485 17.9565 1.40944C17.7663 1.08083 17.5414 0.786815 17.2993 0.492796Z" fill="#EEC2EF"/>
<path d="M18.9254 11.2157C18.96 11.2675 19.0118 11.3194 19.0637 11.354C19.0983 11.4059 19.1156 11.4405 19.1502 11.4924C19.2021 11.6134 19.2713 11.7345 19.3404 11.8556C19.3923 11.942 19.4961 11.9766 19.5826 11.9593C19.6172 11.9593 19.6518 11.9248 19.6864 11.9075C19.7555 11.8383 19.7728 11.7345 19.7209 11.648C19.6345 11.5097 19.5134 11.3713 19.375 11.3021C19.254 11.2502 19.1502 11.1638 19.0118 11.1119C18.9254 11.0946 18.8908 11.1811 18.9254 11.2157Z" fill="#BE4CB3"/>
<path d="M1.87114 16.9578C1.78466 17.027 1.73278 17.1308 1.6463 17.2173C1.61171 17.2692 1.55983 17.321 1.52524 17.3556C1.49064 17.4075 1.45605 17.4767 1.40417 17.5113C1.21392 17.7015 1.62901 17.9091 1.6636 17.6151C1.6636 17.5632 1.69819 17.494 1.71548 17.4421C1.73278 17.3902 1.75007 17.3383 1.76737 17.2864C1.80196 17.1827 1.87114 17.0962 1.90573 16.9924C1.94032 16.9751 1.90573 16.9405 1.87114 16.9578Z" fill="#BE4CB3"/>
<path d="M2.75407 18.0474C2.71948 18.0993 2.70219 18.1512 2.6676 18.2031C2.6503 18.2377 2.61571 18.2896 2.58112 18.3241C2.52924 18.4106 2.46006 18.4798 2.44276 18.5836C2.42547 18.6528 2.44276 18.7046 2.51194 18.7392C2.52924 18.7565 2.56383 18.7565 2.58112 18.7565C2.63301 18.7565 2.68489 18.7219 2.70219 18.6873C2.75407 18.6009 2.77137 18.4798 2.77137 18.376C2.78867 18.2723 2.80596 18.1685 2.82326 18.0647C2.84055 18.0301 2.77137 18.0128 2.75407 18.0474Z" fill="#BE4CB3"/>
<path d="M17.8531 16.3526C17.8531 16.3353 17.8531 16.318 17.8531 16.3007C17.8531 16.2661 17.8358 16.2315 17.8358 16.2142C17.8185 16.1623 17.7666 16.1104 17.732 16.0586C17.6974 16.0067 17.6628 15.9721 17.6282 15.9202C17.5763 15.8683 17.5072 15.851 17.4553 15.8164C17.4034 15.7991 17.3342 15.8337 17.3169 15.9029C17.2996 15.9721 17.3342 16.024 17.4034 16.0413C17.438 16.0586 17.4553 16.0586 17.4899 16.0758C17.5072 16.0931 17.5417 16.0931 17.5763 16.1104C17.559 16.0931 17.6109 16.1277 17.6109 16.1277C17.6455 16.145 17.6282 16.1277 17.6628 16.1623C17.6974 16.1969 17.732 16.2488 17.7666 16.2834C17.7839 16.3007 17.8185 16.3353 17.8358 16.3526C17.8185 16.3872 17.8531 16.3872 17.8531 16.3526Z" fill="#DE90FF"/>
<path d="M2.80562 17.1833C2.82299 17.1312 2.84036 17.0964 2.84036 17.0443C2.84036 17.027 2.82299 17.0096 2.80562 17.027C2.77089 17.0617 2.75353 17.1138 2.73616 17.1659C2.7188 17.2006 2.78826 17.218 2.80562 17.1833Z" fill="#DE90FF"/>
<path d="M2.8217 17.096C2.87359 17.0096 2.90818 16.9058 2.96006 16.8366C3.01195 16.7674 3.04654 16.6637 3.11572 16.6291C3.1849 16.5945 3.1849 16.508 3.11572 16.4561C3.06383 16.4215 2.96006 16.4561 2.97736 16.5426C2.99465 16.6291 2.92547 16.7328 2.90818 16.802C2.87359 16.8885 2.8217 16.9923 2.78711 17.0788C2.78711 17.096 2.8217 17.1133 2.8217 17.096Z" fill="#DE90FF"/>
<path d="M18.9768 11.2158C19.046 11.2504 19.0979 11.2849 19.1671 11.3195C19.219 11.3541 19.2709 11.3887 19.34 11.3714C19.3573 11.3714 19.3746 11.3368 19.3746 11.3195C19.3573 11.2504 19.2882 11.2331 19.219 11.1985C19.1498 11.1639 19.0806 11.1293 19.0114 11.0947C18.9595 11.0774 18.925 11.1812 18.9768 11.2158Z" fill="#DE90FF"/>
<path d="M1.95685 1.39206C2.00873 1.32288 2.07791 1.271 2.14709 1.21911C2.21628 1.16723 2.30275 1.16723 2.35464 1.11534C2.37193 1.09805 2.37193 1.06346 2.35464 1.04616C2.26816 1.02886 2.16439 1.08075 2.09521 1.11534C2.00873 1.16723 1.95685 1.23641 1.90496 1.32288C1.87037 1.39206 1.92226 1.42665 1.95685 1.39206Z" fill="#BE4CB3"/>
<path d="M1.71577 3.12163C1.94061 3.39835 2.26922 3.72696 2.61512 3.83073C2.66701 3.84803 2.6843 3.77884 2.64971 3.76155C2.51135 3.65778 2.3384 3.5713 2.20003 3.48483C2.04438 3.38106 1.88872 3.24269 1.75036 3.10433C1.71577 3.08704 1.69847 3.10433 1.71577 3.12163Z" fill="#BE4CB3"/>
<path d="M15.1555 8.39675C16.0203 8.37946 16.8851 8.39675 17.7498 8.46594C17.7152 8.43134 17.6979 8.39675 17.6634 8.36216C17.6461 8.39675 17.6461 8.41405 17.6288 8.44864C17.6115 8.48323 17.6634 8.51782 17.6979 8.50053C17.7325 8.48323 17.7498 8.46594 17.7844 8.46594C17.8536 8.43134 17.819 8.31028 17.7498 8.31028C16.8851 8.25839 16.003 8.25839 15.1555 8.37946C15.1383 8.36216 15.1383 8.39675 15.1555 8.39675Z" fill="#AA48B3"/>
<path d="M5.41711 9.84961C4.3967 9.8669 3.35899 9.9015 2.33857 9.97068C2.2348 9.97068 2.2348 10.1436 2.33857 10.1436C3.35899 10.1609 4.41399 10.0744 5.43441 9.8842C5.43441 9.8669 5.43441 9.84961 5.41711 9.84961Z" fill="#AA48B3"/>
<path d="M2.649 10.472C2.52794 10.4374 2.40687 10.4028 2.26851 10.4201C2.16474 10.4374 2.21662 10.5931 2.3031 10.5758C2.40687 10.5412 2.52794 10.5066 2.63171 10.5066C2.6663 10.5066 2.6663 10.472 2.649 10.472Z" fill="#AA48B3"/>
<path d="M15.7073 14.2252C16.3472 14.4673 17.039 14.623 17.6963 14.8478C17.8 14.8824 17.8519 14.7095 17.7481 14.6749C17.0909 14.4501 16.3991 14.2598 15.7073 14.2252C15.69 14.2079 15.69 14.2252 15.7073 14.2252Z" fill="#AA48B3"/>
<path d="M14.4969 8.50049C14.9293 8.4486 15.3617 8.34483 15.7941 8.29295C16.4167 8.20647 17.0047 8.25836 17.6101 8.29295C17.662 8.29295 17.662 8.22377 17.6101 8.22377C16.5378 8.0854 15.5347 8.24106 14.4969 8.50049C14.4796 8.48319 14.4969 8.50049 14.4969 8.50049Z" fill="#CD83CD"/>
<path d="M15.5693 14.2771C16.3303 14.4673 17.1259 14.5711 17.7831 15.0035C17.8177 15.0208 17.8523 14.9689 17.8177 14.9343C17.1605 14.5365 16.3303 14.329 15.5693 14.2771Z" fill="#CD83CD"/>
<path d="M2.09668 9.93602C3.18628 9.95331 4.25858 9.76306 5.34818 9.86684C5.40006 9.86684 5.40006 9.78036 5.34818 9.78036C4.29317 9.69388 3.15169 9.78036 2.09668 9.93602Z" fill="#CD83CD"/>
<path d="M2.04438 10.4028C2.13086 10.4374 2.23463 10.4547 2.3384 10.472C2.44217 10.4893 2.54595 10.5066 2.64972 10.5239C2.7016 10.5239 2.7189 10.4374 2.66701 10.4201C2.56324 10.4028 2.45947 10.3855 2.3384 10.3682C2.23463 10.3509 2.14816 10.3336 2.04438 10.3509C2.02709 10.3336 2.00979 10.3855 2.04438 10.4028Z" fill="#CD83CD"/>
</svg>
