<svg width="20" height="20" viewBox="0 0 20 20" fill="none" xmlns="http://www.w3.org/2000/svg">
<path d="M14.1535 19.3445H5.52324C2.65223 19.3445 0.317383 16.9923 0.317383 14.1386V5.49101C0.317383 2.62001 2.66953 0.285156 5.52324 0.285156H14.1535C17.0245 0.285156 19.3594 2.6373 19.3594 5.49101V14.1213C19.3594 16.9923 17.0245 19.3445 14.1535 19.3445Z" fill="#C35959"/>
<path d="M1.51113 11.8038C1.6495 11.6827 1.80515 11.5617 1.94351 11.4579C2.16835 12.0978 1.9781 13.0837 1.9781 13.7755C1.9781 13.7755 2.09917 15.3839 3.0677 16.2833C4.03623 17.1826 5.07394 17.5112 5.07394 17.5112L9.2075 17.5804H14.1712C14.1712 17.5804 16.0391 17.1307 16.8866 16.0238C17.7167 14.9342 17.7167 13.2566 17.7167 13.2566V10.1089C17.7167 10.1089 17.9762 15.211 18.495 15.0034C19.0139 14.8132 19.3252 13.7063 19.3252 13.7063V16.0238C19.3252 16.0238 18.9966 16.8021 18.3567 17.7707C17.7167 18.7392 16.8693 18.9986 16.8693 18.9986L15.5894 19.3272L11.0062 19.2062L6.16354 19.3272L3.7768 19.3964C3.7768 19.3964 1.90892 19.0678 1.19982 17.8398C0.490718 16.6119 0.162109 15.3839 0.162109 15.3839C0.1967 14.7613 0.23129 14.1214 0.283176 13.4987C0.317766 12.928 0.300471 12.8069 0.750146 12.4264C1.00957 12.2362 1.25171 12.0114 1.51113 11.8038Z" fill="#B63F3F"/>
<path d="M2.60009 3.83071C2.70386 3.67506 2.82493 3.5367 2.96329 3.41563C3.91453 2.51628 5.22896 1.94554 6.5261 1.87636C7.52922 1.82447 8.53234 2.04931 9.53547 2.10119C11.5244 2.18767 13.6344 1.56504 15.4331 2.39521C16.5573 2.91407 17.4221 4.02096 17.6296 5.24892C17.5431 4.38416 18.2522 3.5194 19.117 3.41563C18.9959 2.17038 17.9063 1.21914 16.713 0.838646C15.5196 0.458151 14.2571 0.544627 13.0118 0.561922C11.3861 0.596513 9.7603 0.544627 8.15185 0.38897C6.82012 0.267904 5.4711 0.0776569 4.15666 0.267904C2.51362 0.510037 0.853278 1.44398 0.507374 3.20809C0.455489 3.45022 0.455489 3.70965 0.455489 3.96908C0.438194 4.40146 0.438194 4.81654 0.420898 5.24892C0.490079 4.98949 0.576555 4.73006 0.645736 4.45334C0.784097 3.96908 1.09541 4.29768 1.25107 4.57441C1.42402 4.88572 1.4932 5.3181 1.57968 5.664C1.73533 6.44229 1.78722 7.23787 1.82181 8.03345C1.87369 8.98468 1.97747 9.97051 1.97747 10.9217C1.99476 9.52083 2.01206 8.11992 2.02935 6.71901C2.02935 5.76778 2.06394 4.66088 2.60009 3.83071Z" fill="#DA8686"/>
<path d="M13.1671 1.94557C14.5162 2.03205 16.3667 2.67197 17.3526 1.30565C17.3872 1.25377 17.4217 1.18459 17.4217 1.1327C17.4045 1.02893 17.3007 0.977044 17.2142 0.942454C13.7552 -0.510343 9.50055 0.423598 5.85126 0.16417C5.43618 0.129579 5.0038 0.112284 4.58871 0.181465C4.17363 0.250646 3.79313 0.423598 3.41264 0.59655C3.06673 0.752206 2.66895 0.977044 2.66895 1.35754C2.66895 1.4959 2.73813 1.63426 2.8246 1.75533C3.04944 2.03205 3.41264 2.18771 3.75854 2.23959C4.41576 2.32607 5.02109 2.10123 5.64372 2.01476C6.47389 1.89369 7.35594 1.91098 8.20341 1.89369C9.86375 1.80721 11.5241 1.8418 13.1671 1.94557Z" fill="#FBA3A3"/>
<path d="M4.192 19.3445C3.53478 19.3272 2.87756 19.2234 2.30682 18.8948C1.80526 18.6008 1.56313 18.1684 1.23452 17.736C0.854022 17.2345 0.577299 16.6983 0.438938 16.0757C0.127624 14.5883 0.17951 12.8415 0.352462 11.3368C0.404347 10.9217 0.456233 10.5066 0.404347 10.0916C0.387052 11.1293 0.421643 12.1843 0.490823 13.222C0.560004 14.1386 0.560004 15.0899 0.836727 15.9719C1.07886 16.7502 1.51124 17.4939 2.09928 18.0646C2.56625 18.5143 3.55207 19.1369 4.22659 18.7219C5.02216 17.9263 3.8115 17.0615 3.25805 16.5081C3.13699 16.387 2.99863 16.2486 2.94674 16.0757C3.36183 16.5254 3.84609 16.9232 4.38224 17.2345C4.5206 17.3036 4.64167 17.3728 4.78003 17.4247C5.55832 17.6841 6.35389 17.5804 7.14947 17.5631C8.22178 17.5458 9.27678 17.5631 10.3491 17.5804C10.7988 17.5804 11.2311 17.5977 11.6808 17.6496C12.1824 17.7014 12.6839 17.6496 13.1682 17.615C13.5833 17.5804 14.0676 17.6496 14.4653 17.5458C15.0015 17.4074 15.5376 17.1826 15.9873 16.854C16.9213 16.1968 17.4401 15.159 17.5958 14.0522C17.492 14.7958 17.2499 15.5395 16.8694 16.1968C16.6791 16.5427 16.4543 16.854 16.1949 17.148C15.97 17.4247 15.5203 17.7706 15.7106 18.1857C15.8835 18.5489 16.5408 18.7392 16.904 18.6873C17.0942 18.6527 17.2845 18.5662 17.4574 18.4797C17.8552 18.2549 18.2011 17.9782 18.5124 17.6496C17.6304 18.8083 16.3851 19.2234 15.0188 19.1369C13.2201 19.0332 11.3868 19.1715 9.5881 19.1888C8.25637 19.2061 6.94193 19.3445 5.6275 19.3272C5.19512 19.3272 4.67626 19.3618 4.192 19.3445Z" fill="#A72525"/>
<path d="M13.375 17.6668C13.375 17.6668 14.2916 17.857 15.3812 17.4419C16.4708 17.0268 17.0589 16.4388 17.3356 15.7989C17.6123 15.159 17.6815 13.5332 17.6815 13.5332C17.6815 13.5332 17.3875 15.574 16.8859 16.0237C16.3844 16.4907 15.8309 17.5803 13.375 17.6668Z" fill="#DA8686"/>
<path d="M0.439582 16.2487C0.145564 15.0899 0.422287 14.2079 0.508763 13.0664C0.387696 14.45 0.681715 16.0239 1.35623 17.2518C1.68484 17.8571 2.1691 18.4279 2.84361 18.67C3.69108 18.9813 4.72879 18.7738 4.27911 17.6496C4.41748 17.8226 4.45207 18.0474 4.50395 18.2549C4.62502 18.9813 5.00551 19.0678 5.64543 19.0159C6.76962 18.9121 7.87651 18.843 9.018 18.8257C9.3812 18.8084 9.7444 18.843 10.1076 18.8603C11.4912 18.9294 12.8575 18.9467 14.2411 18.9467C14.6389 18.9467 15.1924 19.137 15.5729 18.964C16.282 18.67 15.521 18.0993 15.9015 17.615C15.8669 17.8744 15.8323 18.1512 15.9707 18.3587C16.1436 18.6008 16.4722 18.6527 16.7662 18.67C17.5445 18.7392 18.7206 16.6811 18.8763 15.9374C19.0665 15.1591 19.2913 11.5271 19.2913 11.5271L19.3432 15.8509C19.3432 15.8509 18.98 17.1134 18.5476 17.6496C18.1153 18.1685 17.2505 19.0851 16.0226 19.2235C14.7946 19.3618 12.7019 19.2235 12.7019 19.2235H7.96299L4.78068 19.4483C4.78068 19.4483 2.86091 19.5002 2.13451 18.7738C1.37352 17.9955 0.716305 17.321 0.439582 16.2487Z" fill="#FBA5A5"/>
<path d="M5.54046 17.2517C5.0216 17.148 4.52004 16.975 4.05307 16.6291C3.43044 16.1794 2.877 15.5741 2.68675 14.8304C2.4965 14.0521 2.46191 13.2566 2.46191 12.461C2.53109 13.0836 2.60028 13.6889 2.79052 14.277C2.98077 14.865 3.30938 15.4358 3.79364 15.799C4.6584 16.4562 5.748 16.5081 6.78571 16.4562C8.60171 16.3524 10.435 16.3351 12.2683 16.2313C13.479 16.1622 14.7761 16.0411 15.6581 15.2109C16.4537 14.4499 16.6786 13.2739 16.7823 12.167C16.8861 11.1465 16.9207 10.1261 16.9034 9.10571C17.0418 10.5585 17.0764 12.0286 17.0072 13.4987C16.9726 14.5364 16.8169 15.6779 16.0386 16.3697C15.2258 17.0788 13.894 17.1307 12.8736 17.2345C11.6457 17.3555 10.4523 17.1134 9.24163 17.1653C8.01367 17.1999 6.73383 17.4593 5.54046 17.2517Z" fill="#CC6B6B"/>
<path d="M12.4938 1.91089C10.3319 1.98007 8.13546 1.98007 5.99085 2.01466C5.33363 2.03195 4.62453 2.13573 4.10568 2.55081C3.6387 2.89671 3.01608 3.19073 2.70476 3.69229C2.5664 3.91713 2.44534 4.14197 2.35886 4.3841C2.08214 5.14509 2.04755 5.97526 2.04755 6.78813C2.04755 7.87773 1.97837 8.96733 2.13402 10.0742C2.13402 8.82897 2.27238 7.60101 2.53181 6.39034C2.75665 5.35263 3.18903 4.33222 4.07108 3.70959C5.16068 2.9486 6.71725 2.91401 7.99709 2.82753C9.55366 2.72376 11.1275 2.75835 12.6841 2.9486C13.3067 3.01778 13.9293 3.12155 14.4828 3.38098C15.7626 3.95172 16.2123 5.28345 16.5755 6.52871C16.7658 7.18592 16.9733 8.11986 16.9041 8.79438C16.9733 8.15446 16.956 7.54912 16.9387 6.9092C16.9214 6.37305 16.9906 5.75042 17.3884 5.33534C17.4576 5.26616 17.544 5.17968 17.5613 5.0932C17.5613 5.02402 17.544 4.97214 17.5267 4.92025C17.4057 4.64353 17.3019 4.36681 17.1808 4.10738C17.129 3.96902 17.0598 3.83066 16.9733 3.70959C16.7139 3.34639 16.2469 3.03508 15.9183 2.74106C15.4859 2.37786 14.9152 2.11843 14.3617 2.03196C13.7564 1.92818 13.1511 1.94548 12.5457 1.96277C12.5284 1.91089 12.5111 1.91089 12.4938 1.91089Z" fill="#B63F3F"/>
<path d="M3.36065 2.2223C3.8795 2.03206 4.43295 1.96287 4.9691 1.73804C3.8968 2.18771 2.73802 2.68927 2.14998 3.6751C1.7349 4.3842 1.64842 5.23167 1.61383 6.04454C1.56195 5.52569 1.51006 5.00683 1.57924 4.48797C1.64842 3.93453 1.89056 3.38108 2.25375 2.966C2.59966 2.56821 2.96286 2.37796 3.36065 2.2223Z" fill="white"/>
<path d="M1.87386 2.22227C1.7355 2.29145 1.61443 2.42981 1.56255 2.56818C1.54525 2.62006 1.52795 2.68924 1.54525 2.75842C1.56255 2.8276 1.61443 2.87949 1.68361 2.86219C1.7355 2.86219 1.78738 2.81031 1.82197 2.75842C1.94304 2.62006 2.0987 2.499 2.28894 2.42981C2.34083 2.41252 2.41001 2.39522 2.4446 2.34334C2.47919 2.30875 2.49649 2.22227 2.4446 2.18768C2.4273 2.17039 2.41001 2.17039 2.37542 2.15309C2.15058 2.10121 1.92574 2.15309 1.7355 2.27416L1.87386 2.22227Z" fill="white"/>
<path d="M0.628185 2.89683C0.64548 2.84494 0.680071 2.77576 0.714661 2.67199C0.749252 2.58552 0.801137 2.48174 0.853023 2.37797C0.974089 2.15314 1.14704 1.911 1.40647 1.65157C1.6659 1.39215 1.99451 1.15001 2.40959 0.959767C2.51336 0.907881 2.61713 0.855996 2.7382 0.821405C2.79008 0.80411 2.85927 0.786815 2.91115 0.752224L2.96304 0.734929H2.98033H2.99763L3.0841 0.700339C3.32624 0.631158 3.58566 0.561977 3.86239 0.527387C4.41583 0.440911 5.02116 0.423616 5.67838 0.440911C6.99282 0.475501 8.4802 0.527387 10.0887 0.579272C10.9015 0.596568 11.749 0.631158 12.6138 0.665748C13.4958 0.683044 14.3952 0.648453 15.2945 0.734929C15.7442 0.76952 16.1939 0.8387 16.6262 0.977062C16.73 1.01165 16.8338 1.04624 16.9548 1.08083C17.2143 1.16731 17.4045 1.28838 17.6294 1.44403C17.6812 1.27108 17.7504 1.09813 17.8023 0.925176C17.6294 0.734929 17.4045 0.613863 17.1624 0.527387C17.0413 0.475501 16.9203 0.440911 16.7992 0.40632C16.3149 0.267959 15.8307 0.198778 15.3637 0.164188C14.3952 0.0950069 13.4958 0.129597 12.6311 0.129597C11.7663 0.129597 10.9188 0.112302 10.106 0.112302C8.4802 0.0950069 7.01011 0.0604165 5.67838 0.0777117C5.02116 0.0950069 4.39854 0.129597 3.8278 0.250664C3.25706 0.354435 2.75549 0.527387 2.32311 0.76952C1.47565 1.23649 0.991384 1.87641 0.766547 2.34338C0.714661 2.46445 0.680071 2.56822 0.64548 2.6547C0.628185 2.74117 0.593595 2.82765 0.5763 2.89683C0.541709 3.01789 0.524414 3.08708 0.524414 3.08708L0.5763 3.10437C0.593595 3.08708 0.593595 3.03519 0.628185 2.89683Z" fill="#C35959"/>
<path d="M13.687 17.7707C13.687 17.7707 12.7877 17.7707 11.2311 17.788C10.4528 17.788 9.50159 17.8053 8.41199 17.8226C7.85855 17.8226 7.28781 17.8399 6.66518 17.8399C6.50952 17.8399 6.35386 17.8399 6.19821 17.8399C6.11173 17.8399 6.04255 17.8399 5.95608 17.8399C5.8696 17.8399 5.80042 17.8399 5.71394 17.8399C5.55829 17.8399 5.38533 17.8053 5.21238 17.788C5.03943 17.7707 4.88377 17.7188 4.71082 17.667C4.0536 17.4594 3.41368 17.0962 2.89483 16.5774C2.37597 16.0585 1.97818 15.384 1.78793 14.623C1.73605 14.4328 1.71875 14.2425 1.68416 14.0523C1.66687 13.9485 1.66687 13.862 1.66687 13.7582C1.66687 13.6545 1.64957 13.568 1.66687 13.4642C1.66687 13.0837 1.66687 12.6859 1.68416 12.2881C1.70146 11.4926 1.70146 10.6797 1.71875 9.84952C1.73605 9.01935 1.73605 8.18918 1.73605 7.34172C1.73605 6.90934 1.73605 6.49426 1.73605 6.06187C1.73605 5.6295 1.80523 5.19712 1.94359 4.78203C2.22031 3.95186 2.75646 3.19087 3.48286 2.67202C3.84606 2.41259 4.24385 2.18775 4.67623 2.04939C5.10861 1.91103 5.55829 1.84185 6.00796 1.82455C6.89002 1.78996 7.78937 1.77267 8.68872 1.77267C9.58807 1.77267 10.4701 1.75537 11.3522 1.75537C11.7846 1.75537 12.2342 1.75537 12.6666 1.75537C12.8914 1.75537 13.099 1.75537 13.3238 1.75537H13.6524C13.7735 1.75537 13.8773 1.77267 13.981 1.77267C14.8804 1.82455 15.7279 2.17046 16.4024 2.68931C16.731 2.96604 17.0423 3.26005 17.2844 3.60596C17.5266 3.95186 17.7168 4.33236 17.8379 4.71285C17.8725 4.81662 17.8898 4.9031 17.9243 5.00687C17.9589 5.11064 17.9762 5.19712 17.9935 5.30089C18.0108 5.40466 18.0281 5.50843 18.0454 5.59491C18.0454 5.69868 18.0627 5.80245 18.0627 5.88892C18.08 6.28671 18.0627 6.66721 18.0627 7.0477C18.0627 8.56968 18.0454 9.98789 18.0281 11.3196C18.0108 11.9768 18.0108 12.6168 17.9935 13.2221C17.9935 13.3777 17.9935 13.5161 17.9762 13.6718C17.9762 13.7409 17.9589 13.8101 17.9589 13.8966C17.9589 13.9658 17.9589 14.035 17.9416 14.1214C17.9071 14.4155 17.8379 14.6922 17.7341 14.9516C17.5439 15.4705 17.2844 15.9028 16.9731 16.266C16.6618 16.6292 16.3159 16.906 16.0046 17.1135C15.3301 17.5286 14.7247 17.6842 14.3097 17.7361C14.1021 17.7707 13.9465 17.7707 13.8254 17.7707C13.7389 17.7707 13.687 17.7707 13.687 17.7707ZM13.687 17.7361C13.687 17.7361 13.7389 17.7361 13.8427 17.7188C13.9465 17.7188 14.1194 17.7188 14.3097 17.667C14.7247 17.5978 15.3301 17.4421 15.9873 17.027C16.3159 16.8195 16.6445 16.5255 16.9212 16.1796C17.2152 15.8164 17.4574 15.384 17.6303 14.8824C17.6822 14.7614 17.6995 14.623 17.7341 14.5019C17.7514 14.4328 17.7687 14.3636 17.7687 14.2944C17.786 14.2252 17.786 14.156 17.8033 14.0868C17.8206 14.0177 17.8206 13.9485 17.8206 13.8793C17.8206 13.8101 17.8206 13.7409 17.8206 13.6545C17.8206 13.5161 17.8206 13.3604 17.8206 13.2048C17.8206 12.5995 17.8033 11.9768 17.786 11.3023C17.7687 9.98789 17.7514 8.55238 17.7514 7.03041C17.7514 6.64991 17.7514 6.26942 17.7514 5.88892C17.7514 5.80245 17.7341 5.69868 17.7341 5.6122C17.7168 5.52572 17.6995 5.42195 17.6822 5.33548C17.6649 5.249 17.6476 5.14523 17.613 5.05875C17.5784 4.97228 17.5612 4.86851 17.5266 4.78203C17.4055 4.41883 17.2152 4.07293 17.0077 3.74432C16.7829 3.41571 16.5061 3.13899 16.1948 2.87956C15.5722 2.378 14.7593 2.04939 13.9292 1.9975C13.8254 1.9975 13.7043 1.98021 13.6178 1.98021H13.2892C13.0644 1.98021 12.8569 1.98021 12.632 1.98021C12.1996 1.98021 11.75 1.98021 11.3176 1.98021C10.4701 1.98021 9.57077 1.98021 8.68872 1.98021C7.78937 1.96291 6.90731 1.96291 6.00796 1.94562C5.57558 1.94562 5.12591 2.0148 4.71082 2.13587C4.29574 2.25693 3.89795 2.46447 3.53475 2.7239C2.80835 3.22546 2.28949 3.96916 2.01277 4.78203C1.87441 5.19712 1.82252 5.6122 1.82252 6.04458C1.82252 6.47696 1.82252 6.90934 1.82252 7.32443C1.82252 8.17189 1.83982 9.01935 1.83982 9.83223C1.85711 10.6624 1.85711 11.4753 1.87441 12.2709C1.87441 12.6686 1.87441 13.0664 1.8917 13.4469C1.8917 13.5507 1.8917 13.6372 1.909 13.7409C1.909 13.8274 1.909 13.9312 1.92629 14.0177C1.96088 14.2079 1.97818 14.3809 2.03007 14.5711C2.11654 14.9343 2.2722 15.2629 2.44515 15.5742C2.49704 15.6434 2.53163 15.7299 2.58351 15.7991C2.6354 15.8683 2.68728 15.9374 2.73917 16.0066C2.84294 16.145 2.96401 16.2833 3.08507 16.4044C3.56934 16.906 4.17467 17.2519 4.7973 17.4594C4.95295 17.494 5.10861 17.5459 5.26427 17.5805C5.41992 17.5978 5.57558 17.6497 5.73124 17.6497C5.81771 17.6497 5.88689 17.667 5.97337 17.667C6.04255 17.667 6.12903 17.667 6.19821 17.667C6.35386 17.667 6.50952 17.667 6.66518 17.667C7.27051 17.6842 7.85855 17.6842 8.41199 17.6842C9.50159 17.7015 10.4528 17.7188 11.2311 17.7188C12.7877 17.7361 13.687 17.7361 13.687 17.7361Z" fill="#E6A2A2"/>
<path d="M19.619 3.83078C19.5325 3.31193 19.3941 2.79307 19.1693 2.3261C19.0482 2.08397 18.9272 1.85913 18.7715 1.63429L18.7196 1.54782L18.6677 1.46134C18.6159 1.40945 18.5813 1.35757 18.5294 1.30568C18.4256 1.20191 18.3045 1.11544 18.2008 1.04625C18.0797 0.977074 17.9759 0.907893 17.8549 0.856007L17.7684 0.821417L17.6819 0.769531H17.6646C17.6473 0.977074 17.5954 1.16732 17.5263 1.34027L17.5954 1.37486C17.6992 1.42675 17.803 1.47863 17.8895 1.54782C17.9759 1.5997 18.0624 1.66888 18.1316 1.73806C18.1662 1.77265 18.2008 1.80724 18.2354 1.84183L18.2872 1.91101L18.3391 1.9802C18.4775 2.17044 18.5813 2.36069 18.685 2.56823C18.8753 2.98332 19.0136 3.45029 19.1001 3.93455C19.2731 4.90308 19.2385 5.9235 19.2212 6.96121C19.2039 7.48007 19.2039 8.01622 19.2039 8.53507C19.2039 9.05393 19.1866 9.59008 19.1866 10.1262C19.1866 11.1812 19.1693 12.2535 19.1693 13.3431C19.1693 13.8793 19.1693 14.4154 19.1693 14.9516C19.1693 15.4877 19.152 16.0239 19.0136 16.5082C18.8753 17.0097 18.5813 17.4421 18.2354 17.8572C17.8895 18.255 17.4917 18.6182 17.042 18.8603C16.575 19.1024 16.0562 19.1716 15.52 19.2062C14.9839 19.2235 14.465 19.1889 13.9289 19.1716C13.6694 19.1543 13.3927 19.137 13.1333 19.137C12.8738 19.137 12.5971 19.137 12.3377 19.137C11.8188 19.137 11.2827 19.137 10.7638 19.137C9.72612 19.137 8.68841 19.1197 7.68529 19.1197C6.66487 19.0851 5.66175 19.2408 4.71052 19.2235C4.24354 19.2235 3.75928 19.1716 3.34419 19.0333L3.18854 18.9814L3.01559 18.9122L2.92911 18.8776H2.91181H2.89452L2.85993 18.8603C2.80804 18.843 2.75616 18.8084 2.70427 18.7911C2.51403 18.6874 2.32378 18.5663 2.15083 18.4452C1.80492 18.1858 1.49361 17.8745 1.26877 17.5113C1.21689 17.4248 1.1477 17.3383 1.09582 17.2346C1.04393 17.1481 1.00934 17.0616 0.957458 16.9578C0.940162 16.9059 0.905572 16.8541 0.888277 16.8195L0.836391 16.6811C0.801801 16.5773 0.76721 16.4909 0.73262 16.3871C0.490487 15.5915 0.473192 14.7613 0.507783 13.9658C0.525078 13.568 0.542373 13.1702 0.559668 12.7724C0.576963 12.3746 0.576963 11.9941 0.576963 11.6309C0.576963 10.8872 0.576963 10.1954 0.576963 9.5382C0.576963 8.88098 0.559668 8.25835 0.559668 7.68761C0.559668 7.11687 0.542373 6.59801 0.542373 6.13104C0.507782 5.14522 0.507783 4.40152 0.507783 3.89996C0.507783 3.3984 0.525078 3.12168 0.525078 3.12168H0.473192C0.473192 3.12168 0.438602 3.38111 0.386716 3.89996C0.352126 4.40152 0.334831 5.14522 0.30024 6.09645C0.282945 6.56342 0.26565 7.09957 0.248355 7.65302C0.231059 8.22376 0.213764 8.82909 0.196469 9.50361C0.179174 10.1608 0.161879 10.8526 0.144583 11.5963C0.144583 11.9595 0.127288 12.34 0.109993 12.7205C0.0926978 13.101 0.0581074 13.4988 0.023517 13.9139C-0.0283686 14.7268 -0.0110734 15.6088 0.248355 16.4909C0.282945 16.5946 0.317535 16.7157 0.352126 16.8195L0.421307 16.9751C0.438602 17.0443 0.473192 17.0789 0.490487 17.1308C0.542373 17.2346 0.594258 17.3556 0.646144 17.4421C0.69803 17.5459 0.76721 17.6496 0.836391 17.7361C1.11311 18.1339 1.44172 18.4798 1.83951 18.7738C2.02976 18.9122 2.2546 19.0506 2.47943 19.1543C2.53132 19.1889 2.6005 19.2062 2.65239 19.2408L2.68698 19.2581L2.70427 19.2754L2.73886 19.2927L2.82534 19.3273L2.99829 19.3965L3.18854 19.4483C3.6901 19.5867 4.19166 19.604 4.67592 19.604C5.67905 19.5867 6.64758 19.3965 7.6507 19.3965C8.65382 19.3619 9.69153 19.3446 10.7292 19.3273C11.2481 19.31 11.767 19.31 12.3031 19.31C12.5625 19.31 12.822 19.31 13.0987 19.2927C13.3581 19.2927 13.6175 19.31 13.8943 19.3273C14.4304 19.3619 14.9666 19.3965 15.5027 19.3792C15.7794 19.3792 16.0389 19.3446 16.3156 19.31C16.5923 19.2581 16.869 19.1889 17.1112 19.0506C17.6127 18.7911 18.0278 18.4279 18.4083 18.0301C18.5986 17.8226 18.7715 17.6151 18.9099 17.3729C19.0655 17.1481 19.1866 16.8887 19.2731 16.6119C19.446 16.0758 19.4806 15.505 19.4979 14.9689C19.5152 14.4327 19.5325 13.8966 19.5498 13.3604C19.5844 12.2881 19.6017 11.2158 19.6363 10.1608C19.6709 9.10582 19.6882 8.03351 19.7227 7.0131C19.74 5.9062 19.7919 4.86849 19.619 3.83078Z" fill="#811818"/>
<path d="M13.5648 17.6669C13.5648 17.6669 12.7 17.6669 11.178 17.6842C10.417 17.6842 9.50039 17.7015 8.42808 17.7187C7.89193 17.7187 7.33849 17.736 6.73315 17.736C6.5775 17.736 6.43914 17.736 6.28348 17.736C6.197 17.736 6.12782 17.736 6.04135 17.736C5.97217 17.736 5.88569 17.736 5.81651 17.736C5.66085 17.736 5.5052 17.7015 5.33224 17.6842C5.17659 17.6669 5.00363 17.615 4.84798 17.5631C4.20806 17.3555 3.58543 17.0096 3.08387 16.4908C2.58231 15.9719 2.18452 15.3147 2.01157 14.5537C1.95968 14.3635 1.94238 14.1732 1.90779 13.983C1.8905 13.8792 1.8905 13.7927 1.8905 13.689C1.8905 13.5852 1.8732 13.4987 1.8905 13.3949C1.8905 13.0145 1.8905 12.6167 1.90779 12.2362C1.92509 11.4579 1.92509 10.645 1.94238 9.83214C1.94238 9.01926 1.95968 8.18909 1.95968 7.34163C1.95968 6.92655 1.95968 6.49417 1.95968 6.07908C1.95968 5.6467 2.02886 5.21432 2.16722 4.81653C2.42665 4.00366 2.94551 3.24267 3.6719 2.72381C4.01781 2.46439 4.4156 2.23955 4.83068 2.10119C5.24577 1.96282 5.69544 1.89364 6.12782 1.87635C6.99258 1.85905 7.87464 1.85905 8.7394 1.84176C9.60416 1.84176 10.4689 1.82446 11.3164 1.82446C11.7488 1.82446 12.1638 1.82446 12.5962 1.82446C12.8038 1.82446 13.0113 1.82446 13.2361 1.82446H13.5475C13.6685 1.82446 13.755 1.84176 13.8761 1.84176C14.7408 1.89364 15.571 2.22225 16.2282 2.74111C16.5568 3.00054 16.8508 3.31185 17.093 3.65775C17.3178 4.00366 17.5081 4.36686 17.6291 4.76465C17.6637 4.85112 17.681 4.95489 17.7156 5.05866C17.7502 5.16244 17.7675 5.24891 17.7848 5.35268C17.8021 5.45645 17.8194 5.54293 17.8367 5.6467C17.8367 5.75047 17.854 5.85424 17.854 5.94072C17.8713 6.33851 17.854 6.70171 17.854 7.0822C17.854 8.56959 17.8367 9.98779 17.8367 11.3022C17.8194 11.9594 17.8194 12.5821 17.8021 13.1701C17.8021 13.3258 17.8021 13.4641 17.7848 13.6198C17.7848 13.689 17.7675 13.7581 17.7675 13.8273C17.7675 13.8965 17.7675 13.9657 17.7502 14.0349C17.7156 14.3289 17.6464 14.5883 17.5599 14.8477C17.387 15.3493 17.1276 15.799 16.8163 16.1449C16.5222 16.4908 16.1936 16.7675 15.865 16.9923C15.2251 17.4074 14.6198 17.5631 14.222 17.615C14.0144 17.6496 13.8588 17.6496 13.755 17.6496C13.6166 17.6669 13.5648 17.6669 13.5648 17.6669ZM13.5648 17.6496C13.5648 17.6496 13.6166 17.6496 13.7204 17.6323C13.8242 17.6323 13.9798 17.6323 14.1874 17.5804C14.5852 17.5112 15.1732 17.3555 15.8131 16.9405C16.1244 16.7329 16.4531 16.4562 16.7298 16.093C17.0065 15.7298 17.2486 15.2974 17.4216 14.8132C17.4735 14.6921 17.4908 14.5537 17.5254 14.4327C17.5427 14.3635 17.5599 14.2943 17.5599 14.2424C17.5772 14.1732 17.5772 14.104 17.5945 14.0349C17.6118 13.9657 17.6118 13.8965 17.6118 13.8273C17.6118 13.7581 17.6118 13.689 17.6118 13.6198C17.6118 13.4814 17.6118 13.3258 17.6118 13.1874C17.6118 12.5994 17.5945 11.9767 17.5772 11.3195C17.5599 10.0224 17.5427 8.60418 17.5599 7.0995C17.5599 6.7363 17.5599 6.33851 17.5599 5.97531C17.5599 5.88883 17.5427 5.78506 17.5427 5.69859C17.5254 5.61211 17.5081 5.50834 17.5081 5.42186C17.4908 5.33539 17.4735 5.23162 17.4562 5.14514C17.4216 5.05866 17.4216 4.95489 17.387 4.86842C17.2659 4.50522 17.093 4.15931 16.8681 3.848C16.6433 3.53669 16.3839 3.24267 16.0726 3.00054C15.4672 2.51627 14.6889 2.18766 13.8761 2.13578C13.7723 2.13578 13.6685 2.11848 13.5648 2.11848H13.2534C13.0459 2.11848 12.8384 2.11848 12.6135 2.11848C12.1811 2.11848 11.7661 2.11848 11.3337 2.11848C10.4862 2.11848 9.62145 2.10119 8.75669 2.10119C7.89193 2.08389 7.02717 2.08389 6.14512 2.0666C5.71274 2.0666 5.29765 2.13578 4.88257 2.25684C4.46748 2.37791 4.08699 2.58545 3.74109 2.82758C3.04928 3.32914 2.53042 4.05554 2.27099 4.86842C2.14993 5.26621 2.08075 5.69859 2.08075 6.11367C2.08075 6.54605 2.08075 6.96113 2.08075 7.37622C2.08075 8.22368 2.09804 9.03656 2.09804 9.86673C2.11534 10.6796 2.11534 11.4752 2.13263 12.2708C2.13263 12.6685 2.13263 13.049 2.14993 13.4295C2.14993 13.5333 2.14993 13.6198 2.16722 13.7063C2.16722 13.7927 2.16722 13.8965 2.18452 13.983C2.21911 14.1559 2.2364 14.3462 2.28829 14.5191C2.37476 14.865 2.51313 15.2109 2.68608 15.505C2.73796 15.5741 2.77255 15.6606 2.82444 15.7298C2.87633 15.799 2.92821 15.8682 2.9801 15.9373C3.08387 16.0757 3.20493 16.1968 3.30871 16.3351C3.77568 16.8194 4.36371 17.1653 4.96904 17.3728C5.1247 17.4074 5.28036 17.4593 5.41872 17.4939C5.57438 17.5112 5.71274 17.5458 5.86839 17.5631C5.95487 17.5631 6.02405 17.5804 6.09323 17.5804C6.16241 17.5804 6.24889 17.5804 6.31807 17.5804C6.47373 17.5804 6.62938 17.5804 6.76774 17.5804C7.35578 17.5977 7.92652 17.5977 8.46267 17.5977C9.51768 17.615 10.4516 17.6323 11.2126 17.6323C12.7 17.6323 13.5648 17.6496 13.5648 17.6496Z" fill="#BB4242"/>
<path opacity="0.52" d="M16.2109 2.75847C15.9861 2.56823 15.7267 2.41257 15.4673 2.2915L15.0176 2.39527C15.3808 2.55093 15.7267 2.74118 16.038 2.98331C16.3493 3.22544 16.6087 3.51946 16.8336 3.83078C17.0411 4.15939 17.2314 4.48799 17.3524 4.85119C17.3697 4.88578 17.3697 4.92037 17.387 4.95496L17.5946 4.64365C17.4735 4.29775 17.3005 3.96914 17.093 3.65782C16.8336 3.32922 16.5396 3.0352 16.2109 2.75847Z" fill="#811818"/>
<path opacity="0.52" d="M4.91844 17.3729C4.31311 17.1654 3.72507 16.8194 3.2581 16.3352C3.13704 16.2141 3.03327 16.0758 2.9295 15.9374C2.87761 15.8682 2.82572 15.799 2.77384 15.7299C2.72195 15.6607 2.68736 15.5742 2.63548 15.505C2.49712 15.2456 2.37605 14.9862 2.28957 14.6921L2.08203 14.8132C2.28957 15.4531 2.63548 16.0412 3.08515 16.4908C3.60401 17.0097 4.20934 17.3556 4.84926 17.5631C4.93574 17.5804 5.02221 17.615 5.10869 17.6323L5.28164 17.4594C5.17787 17.4421 5.0568 17.3902 4.91844 17.3729Z" fill="#811818"/>
</svg>
