<svg width="10" height="10" viewBox="0 0 10 10" fill="none" xmlns="http://www.w3.org/2000/svg">
<path d="M4.76592 7.22655C4.96926 7.4227 4.97466 7.74842 4.77851 7.95177C4.58236 8.15512 4.25664 8.16052 4.0533 7.96437L4.0407 7.95177L3.31548 7.22655L1.86685 8.67699C2.0666 8.87674 2.0666 9.20245 1.86685 9.4022C1.6671 9.60195 1.34138 9.60195 1.14163 9.4022L0.416414 8.67699C0.216664 8.47724 0.216664 8.15152 0.416414 7.95177C0.616163 7.75202 0.941881 7.75202 1.14163 7.95177L2.59206 6.50134L1.86685 5.77612C1.6707 5.57277 1.6761 5.24705 1.87944 5.0509C2.07739 4.85835 2.39231 4.85835 2.59206 5.0509L4.76592 7.22655ZM5.12942 6.86304L2.95377 4.68739L7.30327 0.337891L9.11542 0.699599L9.47892 2.51354L5.12942 6.86304Z" fill="white"/>
</svg>
