<svg width="21" height="20" viewBox="0 0 21 20" fill="none" xmlns="http://www.w3.org/2000/svg">
<path d="M14.6565 19.3445H6.02617C3.15516 19.3445 0.820312 16.9923 0.820312 14.1386V5.49101C0.820312 2.62001 3.17246 0.285156 6.02617 0.285156H14.6565C17.5275 0.285156 19.8623 2.6373 19.8623 5.49101V14.1213C19.8623 16.9923 17.5275 19.3445 14.6565 19.3445Z" fill="#59BDC3"/>
<path d="M2.01504 11.8038C2.1534 11.6827 2.30906 11.5617 2.44742 11.4579C2.67226 12.0978 2.48201 13.0837 2.48201 13.7755C2.48201 13.7755 2.60308 15.3839 3.57161 16.2833C4.54014 17.1826 5.57785 17.5112 5.57785 17.5112L9.7114 17.5804H14.6751C14.6751 17.5804 16.543 17.1307 17.3905 16.0238C18.2206 14.9342 18.2206 13.2566 18.2206 13.2566V10.1089C18.2206 10.1089 18.4801 15.211 18.9989 15.0034C19.5178 14.8132 19.8291 13.7063 19.8291 13.7063V16.0238C19.8291 16.0238 19.5005 16.8021 18.8606 17.7707C18.2206 18.7392 17.3732 18.9986 17.3732 18.9986L16.0933 19.3272L11.5101 19.2062L6.66745 19.3272L4.28071 19.3964C4.28071 19.3964 2.41283 19.0678 1.70373 17.8398C0.994624 16.6119 0.666016 15.3839 0.666016 15.3839C0.700606 14.7613 0.735196 14.1214 0.787082 13.4987C0.821672 12.928 0.804377 12.8069 1.25405 12.4264C1.51348 12.2362 1.75561 12.0114 2.01504 11.8038Z" fill="#3FAFB6"/>
<path d="M3.104 3.83096C3.20777 3.6753 3.32884 3.53694 3.4672 3.41587C4.41843 2.51652 5.73287 1.94578 7.03001 1.8766C8.03313 1.82472 9.03625 2.04955 10.0394 2.10144C12.0283 2.18791 14.1383 1.56529 15.937 2.39546C17.0612 2.91431 17.926 4.02121 18.1335 5.24916C18.047 4.3844 18.7561 3.51964 19.6209 3.41587C19.4998 2.17062 18.4102 1.21938 17.2169 0.83889C16.0235 0.458395 14.761 0.544871 13.5157 0.562166C11.89 0.596757 10.2642 0.544871 8.65576 0.389215C7.32403 0.268148 5.975 0.077901 4.66057 0.268148C3.01752 0.510281 1.35718 1.44422 1.01128 3.20833C0.959395 3.45046 0.959395 3.70989 0.959395 3.96932C0.9421 4.4017 0.9421 4.81678 0.924805 5.24916C0.993985 4.98974 1.08046 4.73031 1.14964 4.45359C1.288 3.96932 1.59932 4.29793 1.75497 4.57465C1.92793 4.88597 1.99711 5.31835 2.08358 5.66425C2.23924 6.44253 2.29113 7.23811 2.32572 8.03369C2.3776 8.98493 2.48137 9.97075 2.48137 10.922C2.49867 9.52108 2.51596 8.12017 2.53326 6.71926C2.53326 5.76802 2.56785 4.66113 3.104 3.83096Z" fill="#86D5DA"/>
<path d="M13.6701 1.94557C15.0191 2.03205 16.8697 2.67197 17.8555 1.30565C17.8901 1.25377 17.9247 1.18459 17.9247 1.1327C17.9074 1.02893 17.8036 0.977044 17.7171 0.942454C14.2581 -0.510343 10.0035 0.423598 6.35419 0.16417C5.93911 0.129579 5.50673 0.112284 5.09164 0.181465C4.67656 0.250646 4.29606 0.423598 3.91557 0.59655C3.56966 0.752206 3.17188 0.977044 3.17188 1.35754C3.17188 1.4959 3.24106 1.63426 3.32753 1.75533C3.55237 2.03205 3.91557 2.18771 4.26147 2.23959C4.91869 2.32607 5.52402 2.10123 6.14665 2.01476C6.97682 1.89369 7.85887 1.91098 8.70634 1.89369C10.3667 1.80721 12.027 1.8418 13.6701 1.94557Z" fill="#A3F6FB"/>
<path d="M4.6959 19.3445C4.03868 19.3272 3.38147 19.2234 2.81073 18.8948C2.30916 18.6008 2.06703 18.1684 1.73842 17.736C1.35793 17.2345 1.08121 16.6983 0.942844 16.0757C0.631531 14.5883 0.683416 12.8415 0.856368 11.3368C0.908254 10.9217 0.960139 10.5066 0.908254 10.0916C0.890958 11.1293 0.925549 12.1843 0.99473 13.222C1.06391 14.1386 1.06391 15.0899 1.34063 15.9719C1.58277 16.7502 2.01515 17.4939 2.60318 18.0646C3.07015 18.5143 4.05598 19.1369 4.73049 18.7219C5.52607 17.9263 4.31541 17.0615 3.76196 16.5081C3.64089 16.387 3.50253 16.2486 3.45065 16.0757C3.86573 16.5254 4.35 16.9232 4.88615 17.2345C5.02451 17.3036 5.14558 17.3728 5.28394 17.4247C6.06222 17.6841 6.8578 17.5804 7.65338 17.5631C8.72568 17.5458 9.78069 17.5631 10.853 17.5804C11.3027 17.5804 11.735 17.5977 12.1847 17.6496C12.6863 17.7014 13.1878 17.6496 13.6721 17.615C14.0872 17.5804 14.5715 17.6496 14.9692 17.5458C15.5054 17.4074 16.0415 17.1826 16.4912 16.854C17.4252 16.1968 17.944 15.159 18.0997 14.0522C17.9959 14.7958 17.7538 15.5395 17.3733 16.1968C17.183 16.5427 16.9582 16.854 16.6988 17.148C16.4739 17.4247 16.0243 17.7706 16.2145 18.1857C16.3875 18.5489 17.0447 18.7392 17.4079 18.6873C17.5981 18.6527 17.7884 18.5662 17.9613 18.4797C18.3591 18.2549 18.705 17.9782 19.0163 17.6496C18.1343 18.8083 16.889 19.2234 15.5227 19.1369C13.724 19.0332 11.8907 19.1715 10.092 19.1888C8.76027 19.2061 7.44584 19.3445 6.1314 19.3272C5.69902 19.3272 5.18017 19.3618 4.6959 19.3445Z" fill="#259FA7"/>
<path d="M13.8789 17.667C13.8789 17.667 14.7956 17.8572 15.8851 17.4422C16.9747 17.0271 17.5628 16.439 17.8395 15.7991C18.1162 15.1592 18.1854 13.5334 18.1854 13.5334C18.1854 13.5334 17.8914 15.5743 17.3898 16.024C16.8883 16.4909 16.3348 17.5805 13.8789 17.667Z" fill="#86D5DA"/>
<path d="M0.942512 16.2487C0.648493 15.0899 0.925216 14.2079 1.01169 13.0664C0.890626 14.45 1.18464 16.0239 1.85916 17.2518C2.18777 17.8571 2.67203 18.4279 3.34654 18.67C4.19401 18.9813 5.23172 18.7738 4.78204 17.6496C4.92041 17.8226 4.955 18.0474 5.00688 18.2549C5.12795 18.9813 5.50844 19.0678 6.14836 19.0159C7.27255 18.9121 8.37944 18.843 9.52093 18.8257C9.88413 18.8084 10.2473 18.843 10.6105 18.8603C11.9941 18.9294 13.3605 18.9467 14.7441 18.9467C15.1419 18.9467 15.6953 19.137 16.0758 18.964C16.7849 18.67 16.0239 18.0993 16.4044 17.615C16.3698 17.8744 16.3352 18.1512 16.4736 18.3587C16.6465 18.6008 16.9752 18.6527 17.2692 18.67C18.0475 18.7392 19.2235 16.6811 19.3792 15.9374C19.5694 15.1591 19.7943 11.5271 19.7943 11.5271L19.8462 15.8509C19.8462 15.8509 19.483 17.1134 19.0506 17.6496C18.6182 18.1685 17.7534 19.0851 16.5255 19.2235C15.2975 19.3618 13.2048 19.2235 13.2048 19.2235H8.46592L5.28361 19.4483C5.28361 19.4483 3.36384 19.5002 2.63744 18.7738C1.87645 17.9955 1.21923 17.321 0.942512 16.2487Z" fill="#A5F6FB"/>
<path d="M6.04339 17.2517C5.52453 17.148 5.02297 16.975 4.556 16.6291C3.93337 16.1794 3.37993 15.5741 3.18968 14.8304C2.99943 14.0521 2.96484 13.2566 2.96484 12.461C3.03402 13.0836 3.10321 13.6889 3.29345 14.277C3.4837 14.865 3.81231 15.4358 4.29657 15.799C5.16133 16.4562 6.25093 16.5081 7.28864 16.4562C9.10464 16.3524 10.9379 16.3351 12.7712 16.2313C13.9819 16.1622 15.279 16.0411 16.1611 15.2109C16.9567 14.4499 17.1815 13.2739 17.2853 12.167C17.389 11.1465 17.4236 10.1261 17.4063 9.10571C17.5447 10.5585 17.5793 12.0286 17.5101 13.4987C17.4755 14.5364 17.3199 15.6779 16.5416 16.3697C15.7287 17.0788 14.397 17.1307 13.3766 17.2345C12.1486 17.3555 10.9552 17.1134 9.74456 17.1653C8.5166 17.1999 7.23676 17.4593 6.04339 17.2517Z" fill="#6BCCCC"/>
<path d="M12.9968 1.91089C10.8349 1.98007 8.63838 1.98007 6.49378 2.01466C5.83656 2.03195 5.12746 2.13573 4.6086 2.55081C4.14163 2.89671 3.51901 3.19073 3.20769 3.69229C3.06933 3.91713 2.94827 4.14197 2.86179 4.3841C2.58507 5.14509 2.55048 5.97526 2.55048 6.78813C2.55048 7.87773 2.4813 8.96733 2.63695 10.0742C2.63695 8.82897 2.77531 7.60101 3.03474 6.39034C3.25958 5.35263 3.69196 4.33222 4.57401 3.70959C5.66361 2.9486 7.22018 2.91401 8.50002 2.82753C10.0566 2.72376 11.6305 2.75835 13.187 2.9486C13.8096 3.01778 14.4323 3.12155 14.9857 3.38098C16.2656 3.95172 16.7152 5.28345 17.0784 6.52871C17.2687 7.18592 17.4762 8.11986 17.407 8.79438C17.4762 8.15446 17.4589 7.54912 17.4416 6.9092C17.4243 6.37305 17.4935 5.75042 17.8913 5.33534C17.9605 5.26616 18.047 5.17968 18.0643 5.0932C18.0643 5.02402 18.047 4.97214 18.0297 4.92025C17.9086 4.64353 17.8048 4.36681 17.6838 4.10738C17.6319 3.96902 17.5627 3.83066 17.4762 3.70959C17.2168 3.34639 16.7498 3.03508 16.4212 2.74106C15.9888 2.37786 15.4181 2.11843 14.8647 2.03196C14.2593 1.92818 13.654 1.94548 13.0487 1.96277C13.0314 1.91089 13.0141 1.91089 12.9968 1.91089Z" fill="#3FAFB6"/>
<path d="M3.86455 2.2223C4.38341 2.03206 4.93686 1.96287 5.47301 1.73804C4.40071 2.18771 3.24193 2.68927 2.65389 3.6751C2.23881 4.3842 2.15233 5.23167 2.11774 6.04454C2.06585 5.52569 2.01397 5.00683 2.08315 4.48797C2.15233 3.93453 2.39446 3.38108 2.75766 2.966C3.10357 2.56821 3.46676 2.37796 3.86455 2.2223Z" fill="white"/>
<path d="M2.37679 2.22227C2.23843 2.29145 2.11736 2.42981 2.06547 2.56818C2.04818 2.62006 2.03088 2.68924 2.04818 2.75842C2.06547 2.8276 2.11736 2.87949 2.18654 2.86219C2.23843 2.86219 2.29031 2.81031 2.3249 2.75842C2.44597 2.62006 2.60163 2.499 2.79187 2.42981C2.84376 2.41252 2.91294 2.39522 2.94753 2.34334C2.98212 2.30875 2.99942 2.22227 2.94753 2.18768C2.93023 2.17039 2.91294 2.17039 2.87835 2.15309C2.65351 2.10121 2.42867 2.15309 2.23843 2.27416L2.37679 2.22227Z" fill="white"/>
<path d="M1.13111 2.89683C1.14841 2.84494 1.183 2.77576 1.21759 2.67199C1.25218 2.58552 1.30407 2.48174 1.35595 2.37797C1.47702 2.15314 1.64997 1.911 1.9094 1.65157C2.16883 1.39215 2.49744 1.15001 2.91252 0.959767C3.01629 0.907881 3.12006 0.855996 3.24113 0.821405C3.29301 0.80411 3.3622 0.786815 3.41408 0.752224L3.46597 0.734929H3.48326H3.50056L3.58703 0.700339C3.82917 0.631158 4.08859 0.561977 4.36532 0.527387C4.91876 0.440911 5.52409 0.423616 6.18131 0.440911C7.49575 0.475501 8.98313 0.527387 10.5916 0.579272C11.4045 0.596568 12.2519 0.631158 13.1167 0.665748C13.9987 0.683044 14.8981 0.648453 15.7974 0.734929C16.2471 0.76952 16.6968 0.8387 17.1292 0.977062C17.2329 1.01165 17.3367 1.04624 17.4578 1.08083C17.7172 1.16731 17.9075 1.28838 18.1323 1.44403C18.1842 1.27108 18.2534 1.09813 18.3052 0.925176C18.1323 0.734929 17.9075 0.613863 17.6653 0.527387C17.5443 0.475501 17.4232 0.440911 17.3021 0.40632C16.8179 0.267959 16.3336 0.198778 15.8666 0.164188C14.8981 0.0950069 13.9987 0.129597 13.134 0.129597C12.2692 0.129597 11.4218 0.112302 10.6089 0.112302C8.98313 0.0950069 7.51304 0.0604165 6.18131 0.0777117C5.52409 0.0950069 4.90147 0.129597 4.33073 0.250664C3.75998 0.354435 3.25842 0.527387 2.82604 0.76952C1.97858 1.23649 1.49431 1.87641 1.26948 2.34338C1.21759 2.46445 1.183 2.56822 1.14841 2.6547C1.13111 2.74117 1.09652 2.82765 1.07923 2.89683C1.04464 3.01789 1.02734 3.08708 1.02734 3.08708L1.07923 3.10437C1.09652 3.08708 1.09652 3.03519 1.13111 2.89683Z" fill="#59BDC3"/>
<path d="M14.189 17.7707C14.189 17.7707 13.2896 17.7707 11.7331 17.788C10.9548 17.788 10.0035 17.8053 8.91395 17.8226C8.3605 17.8226 7.78976 17.8399 7.16713 17.8399C7.01147 17.8399 6.85582 17.8399 6.70016 17.8399C6.61368 17.8399 6.5445 17.8399 6.45803 17.8399C6.37155 17.8399 6.30237 17.8399 6.2159 17.8399C6.06024 17.8399 5.88729 17.8053 5.71433 17.788C5.54138 17.7707 5.38573 17.7188 5.21277 17.667C4.55556 17.4594 3.91563 17.0962 3.39678 16.5774C2.87792 16.0585 2.48013 15.384 2.28989 14.623C2.238 14.4328 2.22071 14.2425 2.18611 14.0523C2.16882 13.9485 2.16882 13.862 2.16882 13.7582C2.16882 13.6545 2.15152 13.568 2.16882 13.4642C2.16882 13.0837 2.16882 12.6859 2.18611 12.2881C2.20341 11.4926 2.20341 10.6797 2.22071 9.84952C2.238 9.01935 2.238 8.18918 2.238 7.34172C2.238 6.90934 2.238 6.49426 2.238 6.06187C2.238 5.6295 2.30718 5.19712 2.44554 4.78203C2.72227 3.95186 3.25842 3.19087 3.98482 2.67202C4.34801 2.41259 4.7458 2.18775 5.17818 2.04939C5.61056 1.91103 6.06024 1.84185 6.50991 1.82455C7.39197 1.78996 8.29132 1.77267 9.19067 1.77267C10.09 1.77267 10.9721 1.75537 11.8541 1.75537C12.2865 1.75537 12.7362 1.75537 13.1686 1.75537C13.3934 1.75537 13.6009 1.75537 13.8258 1.75537H14.1544C14.2755 1.75537 14.3792 1.77267 14.483 1.77267C15.3823 1.82455 16.2298 2.17046 16.9043 2.68931C17.2329 2.96604 17.5442 3.26005 17.7864 3.60596C18.0285 3.95186 18.2188 4.33236 18.3398 4.71285C18.3744 4.81662 18.3917 4.9031 18.4263 5.00687C18.4609 5.11064 18.4782 5.19712 18.4955 5.30089C18.5128 5.40466 18.5301 5.50843 18.5474 5.59491C18.5474 5.69868 18.5647 5.80245 18.5647 5.88892C18.582 6.28671 18.5647 6.66721 18.5647 7.0477C18.5647 8.56968 18.5474 9.98789 18.5301 11.3196C18.5128 11.9768 18.5128 12.6168 18.4955 13.2221C18.4955 13.3777 18.4955 13.5161 18.4782 13.6718C18.4782 13.7409 18.4609 13.8101 18.4609 13.8966C18.4609 13.9658 18.4609 14.035 18.4436 14.1214C18.409 14.4155 18.3398 14.6922 18.2361 14.9516C18.0458 15.4705 17.7864 15.9028 17.4751 16.266C17.1638 16.6292 16.8178 16.906 16.5065 17.1135C15.832 17.5286 15.2267 17.6842 14.8116 17.7361C14.6041 17.7707 14.4484 17.7707 14.3273 17.7707C14.2409 17.7707 14.189 17.7707 14.189 17.7707ZM14.189 17.7361C14.189 17.7361 14.2409 17.7361 14.3446 17.7188C14.4484 17.7188 14.6214 17.7188 14.8116 17.667C15.2267 17.5978 15.832 17.4421 16.4892 17.027C16.8179 16.8195 17.1465 16.5255 17.4232 16.1796C17.7172 15.8164 17.9593 15.384 18.1323 14.8824C18.1842 14.7614 18.2015 14.623 18.2361 14.5019C18.2534 14.4328 18.2706 14.3636 18.2706 14.2944C18.2879 14.2252 18.2879 14.156 18.3052 14.0868C18.3225 14.0177 18.3225 13.9485 18.3225 13.8793C18.3225 13.8101 18.3225 13.7409 18.3225 13.6545C18.3225 13.5161 18.3225 13.3604 18.3225 13.2048C18.3225 12.5995 18.3052 11.9768 18.2879 11.3023C18.2706 9.98789 18.2534 8.55238 18.2534 7.03041C18.2534 6.64991 18.2534 6.26942 18.2534 5.88892C18.2534 5.80245 18.2361 5.69868 18.2361 5.6122C18.2188 5.52572 18.2015 5.42195 18.1842 5.33548C18.1669 5.249 18.1496 5.14523 18.115 5.05875C18.0804 4.97228 18.0631 4.86851 18.0285 4.78203C17.9074 4.41883 17.7172 4.07293 17.5097 3.74432C17.2848 3.41571 17.0081 3.13899 16.6968 2.87956C16.0742 2.378 15.2613 2.04939 14.4311 1.9975C14.3273 1.9975 14.2063 1.98021 14.1198 1.98021H13.7912C13.5664 1.98021 13.3588 1.98021 13.134 1.98021C12.7016 1.98021 12.2519 1.98021 11.8195 1.98021C10.9721 1.98021 10.0727 1.98021 9.19067 1.98021C8.29132 1.96291 7.40926 1.96291 6.50991 1.94562C6.07753 1.94562 5.62786 2.0148 5.21277 2.13587C4.79769 2.25693 4.3999 2.46447 4.0367 2.7239C3.3103 3.22546 2.79145 3.96916 2.51472 4.78203C2.37636 5.19712 2.32448 5.6122 2.32448 6.04458C2.32448 6.47696 2.32448 6.90934 2.32448 7.32443C2.32448 8.17189 2.34177 9.01935 2.34177 9.83223C2.35907 10.6624 2.35907 11.4753 2.37636 12.2709C2.37636 12.6686 2.37636 13.0664 2.39366 13.4469C2.39366 13.5507 2.39366 13.6372 2.41095 13.7409C2.41095 13.8274 2.41095 13.9312 2.42825 14.0177C2.46284 14.2079 2.48013 14.3809 2.53202 14.5711C2.61849 14.9343 2.77415 15.2629 2.9471 15.5742C2.99899 15.6434 3.03358 15.7299 3.08546 15.7991C3.13735 15.8683 3.18924 15.9374 3.24112 16.0066C3.34489 16.145 3.46596 16.2833 3.58703 16.4044C4.07129 16.906 4.67662 17.2519 5.29925 17.4594C5.45491 17.494 5.61056 17.5459 5.76622 17.5805C5.92188 17.5978 6.07753 17.6497 6.23319 17.6497C6.31967 17.6497 6.38885 17.667 6.47532 17.667C6.5445 17.667 6.63098 17.667 6.70016 17.667C6.85582 17.667 7.01147 17.667 7.16713 17.667C7.77246 17.6842 8.3605 17.6842 8.91395 17.6842C10.0035 17.7015 10.9548 17.7188 11.7331 17.7188C13.2896 17.7361 14.189 17.7361 14.189 17.7361Z" fill="#A2E6E6"/>
<path d="M20.1229 3.83078C20.0364 3.31193 19.898 2.79307 19.6732 2.3261C19.5521 2.08397 19.4311 1.85913 19.2754 1.63429L19.2235 1.54782L19.1716 1.46134C19.1198 1.40945 19.0852 1.35757 19.0333 1.30568C18.9295 1.20191 18.8084 1.11544 18.7047 1.04625C18.5836 0.977074 18.4798 0.907893 18.3588 0.856007L18.2723 0.821417L18.1858 0.769531H18.1685C18.1512 0.977074 18.0993 1.16732 18.0302 1.34027L18.0993 1.37486C18.2031 1.42675 18.3069 1.47863 18.3934 1.54782C18.4798 1.5997 18.5663 1.66888 18.6355 1.73806C18.6701 1.77265 18.7047 1.80724 18.7393 1.84183L18.7911 1.91101L18.843 1.9802C18.9814 2.17044 19.0852 2.36069 19.1889 2.56823C19.3792 2.98332 19.5175 3.45029 19.604 3.93455C19.777 4.90308 19.7424 5.9235 19.7251 6.96121C19.7078 7.48007 19.7078 8.01622 19.7078 8.53507C19.7078 9.05393 19.6905 9.59008 19.6905 10.1262C19.6905 11.1812 19.6732 12.2535 19.6732 13.3431C19.6732 13.8793 19.6732 14.4154 19.6732 14.9516C19.6732 15.4877 19.6559 16.0239 19.5175 16.5082C19.3792 17.0097 19.0852 17.4421 18.7393 17.8572C18.3934 18.255 17.9956 18.6182 17.5459 18.8603C17.0789 19.1024 16.5601 19.1716 16.0239 19.2062C15.4878 19.2235 14.9689 19.1889 14.4328 19.1716C14.1733 19.1543 13.8966 19.137 13.6372 19.137C13.3778 19.137 13.101 19.137 12.8416 19.137C12.3227 19.137 11.7866 19.137 11.2677 19.137C10.23 19.137 9.19232 19.1197 8.18919 19.1197C7.16878 19.0851 6.16566 19.2408 5.21442 19.2235C4.74745 19.2235 4.26319 19.1716 3.8481 19.0333L3.69244 18.9814L3.51949 18.9122L3.43302 18.8776H3.41572H3.39843L3.36384 18.8603C3.31195 18.843 3.26006 18.8084 3.20818 18.7911C3.01793 18.6874 2.82768 18.5663 2.65473 18.4452C2.30883 18.1858 1.99751 17.8745 1.77268 17.5113C1.72079 17.4248 1.65161 17.3383 1.59973 17.2346C1.54784 17.1481 1.51325 17.0616 1.46136 16.9578C1.44407 16.9059 1.40948 16.8541 1.39218 16.8195L1.3403 16.6811C1.30571 16.5773 1.27112 16.4909 1.23653 16.3871C0.994394 15.5915 0.977098 14.7613 1.01169 13.9658C1.02898 13.568 1.04628 13.1702 1.06357 12.7724C1.08087 12.3746 1.08087 11.9941 1.08087 11.6309C1.08087 10.8872 1.08087 10.1954 1.08087 9.5382C1.08087 8.88098 1.06357 8.25835 1.06357 7.68761C1.06357 7.11687 1.04628 6.59801 1.04628 6.13104C1.01169 5.14522 1.01169 4.40152 1.01169 3.89996C1.01169 3.3984 1.02898 3.12168 1.02898 3.12168H0.977098C0.977098 3.12168 0.942508 3.38111 0.890622 3.89996C0.856032 4.40152 0.838737 5.14522 0.804146 6.09645C0.786851 6.56342 0.769556 7.09957 0.752261 7.65302C0.734966 8.22376 0.71767 8.82909 0.700375 9.50361C0.68308 10.1608 0.665785 10.8526 0.64849 11.5963C0.64849 11.9595 0.631194 12.34 0.613899 12.7205C0.596604 13.101 0.562014 13.4988 0.527423 13.9139C0.475538 14.7268 0.492833 15.6088 0.752261 16.4909C0.786851 16.5946 0.821442 16.7157 0.856032 16.8195L0.925213 16.9751C0.942508 17.0443 0.977098 17.0789 0.994394 17.1308C1.04628 17.2346 1.09816 17.3556 1.15005 17.4421C1.20194 17.5459 1.27112 17.6496 1.3403 17.7361C1.61702 18.1339 1.94563 18.4798 2.34342 18.7738C2.53367 18.9122 2.7585 19.0506 2.98334 19.1543C3.03523 19.1889 3.10441 19.2062 3.15629 19.2408L3.19088 19.2581L3.20818 19.2754L3.24277 19.2927L3.32924 19.3273L3.5022 19.3965L3.69244 19.4483C4.194 19.5867 4.69557 19.604 5.17983 19.604C6.18295 19.5867 7.15148 19.3965 8.1546 19.3965C9.15773 19.3619 10.1954 19.3446 11.2331 19.3273C11.752 19.31 12.2709 19.31 12.807 19.31C13.0664 19.31 13.3259 19.31 13.6026 19.2927C13.862 19.2927 14.1214 19.31 14.3982 19.3273C14.9343 19.3619 15.4705 19.3965 16.0066 19.3792C16.2833 19.3792 16.5428 19.3446 16.8195 19.31C17.0962 19.2581 17.3729 19.1889 17.6151 19.0506C18.1166 18.7911 18.5317 18.4279 18.9122 18.0301C19.1025 17.8226 19.2754 17.6151 19.4138 17.3729C19.5694 17.1481 19.6905 16.8887 19.777 16.6119C19.9499 16.0758 19.9845 15.505 20.0018 14.9689C20.0191 14.4327 20.0364 13.8966 20.0537 13.3604C20.0883 12.2881 20.1056 11.2158 20.1402 10.1608C20.1748 9.10582 20.1921 8.03351 20.2267 7.0131C20.2439 5.9062 20.2958 4.86849 20.1229 3.83078Z" fill="#188181"/>
<path d="M14.0687 17.6669C14.0687 17.6669 13.2039 17.6669 11.6819 17.6842C10.9209 17.6842 10.0043 17.7015 8.93199 17.7187C8.39584 17.7187 7.84239 17.736 7.23706 17.736C7.0814 17.736 6.94304 17.736 6.78739 17.736C6.70091 17.736 6.63173 17.736 6.54525 17.736C6.47607 17.736 6.3896 17.736 6.32042 17.736C6.16476 17.736 6.0091 17.7015 5.83615 17.6842C5.68049 17.6669 5.50754 17.615 5.35188 17.5631C4.71196 17.3555 4.08933 17.0096 3.58777 16.4908C3.08621 15.9719 2.68842 15.3147 2.51547 14.5537C2.46359 14.3635 2.44629 14.1732 2.4117 13.983C2.39441 13.8792 2.39441 13.7927 2.39441 13.689C2.39441 13.5852 2.37711 13.4987 2.39441 13.3949C2.39441 13.0145 2.39441 12.6167 2.4117 12.2362C2.429 11.4579 2.429 10.645 2.44629 9.83214C2.44629 9.01926 2.46359 8.18909 2.46359 7.34163C2.46359 6.92655 2.46359 6.49417 2.46359 6.07908C2.46359 5.6467 2.53277 5.21432 2.67113 4.81653C2.93056 4.00366 3.44941 3.24267 4.17581 2.72381C4.52171 2.46439 4.9195 2.23955 5.33459 2.10119C5.74967 1.96282 6.19935 1.89364 6.63173 1.87635C7.49649 1.85905 8.37854 1.85905 9.2433 1.84176C10.1081 1.84176 10.9728 1.82446 11.8203 1.82446C12.2527 1.82446 12.6678 1.82446 13.1001 1.82446C13.3077 1.82446 13.5152 1.82446 13.7401 1.82446H14.0514C14.1724 1.82446 14.2589 1.84176 14.38 1.84176C15.2447 1.89364 16.0749 2.22225 16.7321 2.74111C17.0607 3.00054 17.3548 3.31185 17.5969 3.65775C17.8217 4.00366 18.012 4.36686 18.133 4.76465C18.1676 4.85112 18.1849 4.95489 18.2195 5.05866C18.2541 5.16244 18.2714 5.24891 18.2887 5.35268C18.306 5.45645 18.3233 5.54293 18.3406 5.6467C18.3406 5.75047 18.3579 5.85424 18.3579 5.94072C18.3752 6.33851 18.3579 6.70171 18.3579 7.0822C18.3579 8.56959 18.3406 9.98779 18.3406 11.3022C18.3233 11.9594 18.3233 12.5821 18.306 13.1701C18.306 13.3258 18.306 13.4641 18.2887 13.6198C18.2887 13.689 18.2714 13.7581 18.2714 13.8273C18.2714 13.8965 18.2714 13.9657 18.2541 14.0349C18.2195 14.3289 18.1503 14.5883 18.0639 14.8477C17.8909 15.3493 17.6315 15.799 17.3202 16.1449C17.0261 16.4908 16.6975 16.7675 16.3689 16.9923C15.729 17.4074 15.1237 17.5631 14.7259 17.615C14.5183 17.6496 14.3627 17.6496 14.2589 17.6496C14.1205 17.6669 14.0687 17.6669 14.0687 17.6669ZM14.0687 17.6496C14.0687 17.6496 14.1206 17.6496 14.2243 17.6323C14.3281 17.6323 14.4837 17.6323 14.6913 17.5804C15.0891 17.5112 15.6771 17.3555 16.317 16.9405C16.6284 16.7329 16.957 16.4562 17.2337 16.093C17.5104 15.7298 17.7525 15.2974 17.9255 14.8132C17.9774 14.6921 17.9947 14.5537 18.0293 14.4327C18.0466 14.3635 18.0639 14.2943 18.0639 14.2424C18.0811 14.1732 18.0811 14.104 18.0984 14.0349C18.1157 13.9657 18.1157 13.8965 18.1157 13.8273C18.1157 13.7581 18.1157 13.689 18.1157 13.6198C18.1157 13.4814 18.1157 13.3258 18.1157 13.1874C18.1157 12.5994 18.0984 11.9767 18.0811 11.3195C18.0639 10.0224 18.0466 8.60418 18.0639 7.0995C18.0639 6.7363 18.0639 6.33851 18.0639 5.97531C18.0639 5.88883 18.0466 5.78506 18.0466 5.69859C18.0293 5.61211 18.012 5.50834 18.012 5.42186C17.9947 5.33539 17.9774 5.23162 17.9601 5.14514C17.9255 5.05866 17.9255 4.95489 17.8909 4.86842C17.7698 4.50522 17.5969 4.15931 17.372 3.848C17.1472 3.53669 16.8878 3.24267 16.5765 3.00054C15.9711 2.51627 15.1929 2.18766 14.38 2.13578C14.2762 2.13578 14.1724 2.11848 14.0687 2.11848H13.7573C13.5498 2.11848 13.3423 2.11848 13.1174 2.11848C12.685 2.11848 12.27 2.11848 11.8376 2.11848C10.9901 2.11848 10.1254 2.10119 9.2606 2.10119C8.39584 2.08389 7.53108 2.08389 6.64902 2.0666C6.21664 2.0666 5.80156 2.13578 5.38647 2.25684C4.97139 2.37791 4.5909 2.58545 4.24499 2.82758C3.55318 3.32914 3.03433 4.05554 2.7749 4.86842C2.65383 5.26621 2.58465 5.69859 2.58465 6.11367C2.58465 6.54605 2.58465 6.96113 2.58465 7.37622C2.58465 8.22368 2.60195 9.03656 2.60195 9.86673C2.61924 10.6796 2.61924 11.4752 2.63654 12.2708C2.63654 12.6685 2.63654 13.049 2.65383 13.4295C2.65383 13.5333 2.65383 13.6198 2.67113 13.7063C2.67113 13.7927 2.67113 13.8965 2.68842 13.983C2.72301 14.1559 2.74031 14.3462 2.7922 14.5191C2.87867 14.865 3.01703 15.2109 3.18998 15.505C3.24187 15.5741 3.27646 15.6606 3.32835 15.7298C3.38023 15.799 3.43212 15.8682 3.484 15.9373C3.58777 16.0757 3.70884 16.1968 3.81261 16.3351C4.27958 16.8194 4.86762 17.1653 5.47295 17.3728C5.62861 17.4074 5.78426 17.4593 5.92263 17.4939C6.07828 17.5112 6.21664 17.5458 6.3723 17.5631C6.45878 17.5631 6.52796 17.5804 6.59714 17.5804C6.66632 17.5804 6.7528 17.5804 6.82198 17.5804C6.97763 17.5804 7.13329 17.5804 7.27165 17.5804C7.85969 17.5977 8.43043 17.5977 8.96658 17.5977C10.0216 17.615 10.9555 17.6323 11.7165 17.6323C13.2039 17.6323 14.0687 17.6496 14.0687 17.6496Z" fill="#42B4BB"/>
<path opacity="0.52" d="M16.7149 2.75847C16.49 2.56823 16.2306 2.41257 15.9712 2.2915L15.5215 2.39527C15.8847 2.55093 16.2306 2.74118 16.5419 2.98331C16.8532 3.22544 17.1126 3.51946 17.3375 3.83078C17.545 4.15939 17.7353 4.48799 17.8563 4.85119C17.8736 4.88578 17.8736 4.92037 17.8909 4.95496L18.0985 4.64365C17.9774 4.29775 17.8045 3.96914 17.5969 3.65782C17.3375 3.32922 17.0435 3.0352 16.7149 2.75847Z" fill="#188181"/>
<path opacity="0.52" d="M5.4204 17.3729C4.81506 17.1654 4.22703 16.8194 3.76006 16.3352C3.63899 16.2141 3.53522 16.0758 3.43145 15.9374C3.37956 15.8682 3.32768 15.799 3.27579 15.7299C3.22391 15.6607 3.18932 15.5742 3.13743 15.505C2.99907 15.2456 2.878 14.9862 2.79153 14.6921L2.58398 14.8132C2.79153 15.4531 3.13743 16.0412 3.58711 16.4908C4.10596 17.0097 4.71129 17.3556 5.35122 17.5631C5.43769 17.5804 5.52417 17.615 5.61064 17.6323L5.7836 17.4594C5.67982 17.4421 5.55876 17.3902 5.4204 17.3729Z" fill="#188181"/>
</svg>
