<svg width="10" height="9" viewBox="0 0 10 9" fill="none" xmlns="http://www.w3.org/2000/svg">
<path fill-rule="evenodd" clip-rule="evenodd" d="M9.94557 2.17736C10.0648 2.58844 9.86159 2.58923 9.78436 2.76552C9.69363 2.97422 9.78436 4.20903 9.8196 4.67387C10.1668 9.11192 0.736395 8.67555 0.768637 6.56008C1.01607 6.6249 1.307 6.76167 1.47496 6.59723C1.61217 6.46126 1.88735 6.30237 2.21277 6.17035C2.3138 6.27732 2.4257 6.37223 2.54644 6.45336C2.87541 6.66551 3.25256 6.78021 3.63816 6.78538C4.02825 6.79749 4.41497 6.70616 4.76288 6.51976C4.92111 6.43282 5.06597 6.32115 5.19252 6.18853C6.05705 6.28656 6.68614 6.24308 7.12778 6.06916C7.80261 5.80433 8.06804 4.69837 8.26449 3.96318C8.42046 3.37897 8.31473 3.00189 8.32673 2.45088C8.33423 2.07933 8.4452 1.83743 8.60491 1.69671L8.25925 0.884837C8.21449 0.877467 8.17257 0.85705 8.13824 0.825891C8.10391 0.794731 8.07852 0.754072 8.06495 0.708504C8.05138 0.662935 8.05016 0.614274 8.06144 0.568016C8.07272 0.521757 8.09604 0.479744 8.12876 0.446722C8.16149 0.4137 8.20233 0.390983 8.24666 0.381138C8.29099 0.371294 8.33704 0.374713 8.37962 0.391009C8.42221 0.407306 8.45962 0.435831 8.48764 0.473363C8.51565 0.510895 8.53316 0.555939 8.53818 0.603407C8.54506 0.665132 8.5307 0.727412 8.49769 0.778905L8.8366 1.56944C8.98195 1.52796 9.13514 1.52796 9.28049 1.56944L9.44995 0.661116C9.40088 0.619635 9.36935 0.559398 9.36222 0.493522C9.35684 0.446772 9.36379 0.399362 9.3823 0.356505C9.40082 0.313648 9.43018 0.277003 9.46717 0.250596C9.50415 0.22419 9.54733 0.209046 9.59194 0.206827C9.63656 0.204609 9.6809 0.215403 9.72007 0.238023C9.75925 0.260642 9.79176 0.294212 9.81402 0.335042C9.83627 0.375872 9.84742 0.422382 9.84624 0.469459C9.84506 0.516536 9.83159 0.562358 9.80731 0.601888C9.78303 0.641418 9.74889 0.673126 9.70863 0.693528V0.699852L9.52718 1.67221C9.72303 1.77734 9.87327 1.95752 9.94707 2.17578L9.94557 2.17736ZM5.56743 5.64938C6.27225 5.71421 6.94708 5.53634 7.37072 5.2051C7.22076 2.2912 4.2965 1.03741 2.60792 2.78528C1.81162 3.60744 1.75989 5.38456 2.77813 6.06995C3.27675 6.40593 4.02357 6.41541 4.56418 6.11738C4.85088 5.96503 5.07113 5.70239 5.17941 5.38373C5.28769 5.06507 5.27575 4.71472 5.14603 4.40508C4.72764 3.4185 3.21677 3.35921 3.29625 4.76873C3.33599 4.96873 3.03082 5.00589 2.99632 4.74501C2.95844 4.56027 2.96462 4.3685 3.01432 4.1869C3.49495 2.56946 6.20851 3.01058 5.56368 5.64938H5.56743ZM9.11628 2.07222C9.15439 2.07222 9.19165 2.08413 9.22334 2.10646C9.25503 2.12878 9.27973 2.16051 9.29431 2.19764C9.3089 2.23476 9.31271 2.27561 9.30528 2.31502C9.29784 2.35443 9.27949 2.39063 9.25254 2.41905C9.22559 2.44746 9.19125 2.46681 9.15387 2.47465C9.11649 2.48249 9.07775 2.47847 9.04254 2.46309C9.00732 2.44771 8.97723 2.42167 8.95605 2.38826C8.93488 2.35485 8.92358 2.31557 8.92358 2.27539C8.92358 2.2215 8.94388 2.16983 8.98002 2.13172C9.01616 2.09362 9.06517 2.07222 9.11628 2.07222Z" fill="white"/>
</svg>
