<svg width="10" height="10" viewBox="0 0 10 10" fill="none" xmlns="http://www.w3.org/2000/svg">
<g clip-path="url(#clip0_183_329)">
<path fill-rule="evenodd" clip-rule="evenodd" d="M8.43161 5.43623C8.1552 5.43623 7.9095 5.19053 7.9095 4.91412C7.9095 4.63771 8.1552 4.39201 8.43161 4.39201C8.70802 4.39201 8.95372 4.63771 8.95372 4.91412C8.95372 5.22124 8.73874 5.43623 8.43161 5.43623ZM6.92671 8.01605C6.71173 7.80107 6.71173 7.46323 6.92671 7.27896C7.1417 7.06397 7.47953 7.06397 7.66381 7.27896C7.87879 7.49395 7.87879 7.83178 7.66381 8.01605C7.47953 8.20033 7.1417 8.20033 6.92671 8.01605ZM6.92671 2.57999C6.71173 2.365 6.71173 2.02717 6.92671 1.84289C7.1417 1.62791 7.47953 1.62791 7.66381 1.84289C7.87879 2.05788 7.87879 2.39571 7.66381 2.57999C7.47953 2.79497 7.1417 2.79497 6.92671 2.57999ZM4.6233 7.40181C3.27196 7.40181 2.16632 6.29617 2.16632 4.94483C2.16632 3.59349 3.27196 2.48785 4.6233 2.48785C5.97463 2.48785 7.08027 3.59349 7.08027 4.94483C7.08027 6.29617 5.97463 7.40181 4.6233 7.40181ZM2.81127 5.06768C2.8727 6.01976 3.67122 6.78756 4.6233 6.78756C5.57537 6.78756 6.37389 6.01976 6.43532 5.06768H2.81127ZM4.59258 1.59719C4.31617 1.59719 4.07048 1.3515 4.07048 1.07509C4.07048 0.798677 4.31617 0.552979 4.59258 0.552979C4.86899 0.552979 5.11469 0.798677 5.11469 1.07509C5.11469 1.3515 4.89971 1.59719 4.59258 1.59719ZM1.52136 2.57999C1.30637 2.365 1.30637 2.02717 1.52136 1.84289C1.73634 1.62791 2.07418 1.62791 2.25845 1.84289C2.47344 2.05788 2.47344 2.39571 2.25845 2.57999C2.04347 2.76426 1.70563 2.79497 1.52136 2.57999ZM0.753553 5.43623C0.477143 5.43623 0.231445 5.19053 0.231445 4.91412C0.231445 4.63771 0.477143 4.39201 0.753553 4.39201C1.02996 4.39201 1.27566 4.63771 1.27566 4.91412C1.27566 5.22124 1.06068 5.43623 0.753553 5.43623ZM2.25845 7.24825C2.47344 7.46323 2.47344 7.80107 2.25845 7.98534C2.04347 8.16962 1.70563 8.20033 1.52136 7.98534C1.30637 7.77036 1.30637 7.43252 1.52136 7.24825C1.70563 7.06397 2.04347 7.06397 2.25845 7.24825ZM4.59258 8.23104C4.86899 8.23104 5.11469 8.47674 5.11469 8.75315C5.11469 9.02956 4.86899 9.27526 4.59258 9.27526C4.31617 9.27526 4.07048 9.02956 4.07048 8.75315C4.07048 8.47674 4.31617 8.23104 4.59258 8.23104Z" fill="white"/>
</g>
<defs>
<clipPath id="clip0_183_329">
<rect width="9.21367" height="9.21367" fill="white" transform="translate(0.0166016 0.337891)"/>
</clipPath>
</defs>
</svg>
