<svg width="21" height="20" viewBox="0 0 21 20" fill="none" xmlns="http://www.w3.org/2000/svg">
<path d="M14.9055 19.3445H6.27519C3.40419 19.3445 1.06934 16.9923 1.06934 14.1386V5.49101C1.06934 2.62001 3.42148 0.285156 6.27519 0.285156H14.9055C17.7765 0.285156 20.1113 2.6373 20.1113 5.49101V14.1213C20.1113 16.9923 17.7765 19.3445 14.9055 19.3445Z" fill="#C1C359"/>
<path d="M2.26309 11.8038C2.40145 11.6827 2.55711 11.5617 2.69547 11.4579C2.92031 12.0978 2.73006 13.0837 2.73006 13.7755C2.73006 13.7755 2.85112 15.3839 3.81966 16.2833C4.78819 17.1826 5.8259 17.5112 5.8259 17.5112L9.95945 17.5804H14.9232C14.9232 17.5804 16.791 17.1307 17.6385 16.0238C18.4687 14.9342 18.4687 13.2566 18.4687 13.2566V10.1089C18.4687 10.1089 18.7281 15.211 19.247 15.0034C19.7658 14.8132 20.0771 13.7063 20.0771 13.7063V16.0238C20.0771 16.0238 19.7485 16.8021 19.1086 17.7707C18.4687 18.7392 17.6212 18.9986 17.6212 18.9986L16.3414 19.3272L11.7581 19.2062L6.91549 19.3272L4.52876 19.3964C4.52876 19.3964 2.66088 19.0678 1.95177 17.8398C1.24267 16.6119 0.914062 15.3839 0.914062 15.3839C0.948653 14.7613 0.983243 14.1214 1.03513 13.4987C1.06972 12.928 1.05242 12.8069 1.5021 12.4264C1.76153 12.2362 2.00366 12.0114 2.26309 11.8038Z" fill="#B4B63F"/>
<path d="M3.35205 3.83096C3.45582 3.6753 3.57688 3.53694 3.71525 3.41587C4.66648 2.51652 5.98092 1.94578 7.27805 1.8766C8.28118 1.82472 9.2843 2.04955 10.2874 2.10144C12.2764 2.18791 14.3864 1.56529 16.1851 2.39546C17.3093 2.91431 18.174 4.02121 18.3816 5.24916C18.2951 4.3844 19.0042 3.51964 19.869 3.41587C19.7479 2.17062 18.6583 1.21938 17.4649 0.83889C16.2716 0.458395 15.009 0.544871 13.7638 0.562166C12.138 0.596757 10.5123 0.544871 8.9038 0.389215C7.57207 0.268148 6.22305 0.077901 4.90861 0.268148C3.26557 0.510281 1.60523 1.44422 1.25933 3.20833C1.20744 3.45046 1.20744 3.70989 1.20744 3.96932C1.19015 4.4017 1.19015 4.81678 1.17285 5.24916C1.24203 4.98974 1.32851 4.73031 1.39769 4.45359C1.53605 3.96932 1.84736 4.29793 2.00302 4.57465C2.17597 4.88597 2.24515 5.31835 2.33163 5.66425C2.48729 6.44253 2.53917 7.23811 2.57376 8.03369C2.62565 8.98493 2.72942 9.97075 2.72942 10.922C2.74671 9.52108 2.76401 8.12017 2.7813 6.71926C2.7813 5.76802 2.8159 4.66113 3.35205 3.83096Z" fill="#D8DA86"/>
<path d="M13.9191 1.94557C15.2681 2.03205 17.1187 2.67197 18.1045 1.30565C18.1391 1.25377 18.1737 1.18459 18.1737 1.1327C18.1564 1.02893 18.0526 0.977044 17.9662 0.942454C14.5071 -0.510343 10.2525 0.423598 6.60321 0.16417C6.18813 0.129579 5.75575 0.112284 5.34067 0.181465C4.92558 0.250646 4.54509 0.423598 4.16459 0.59655C3.81869 0.752206 3.4209 0.977044 3.4209 1.35754C3.4209 1.4959 3.49008 1.63426 3.57656 1.75533C3.80139 2.03205 4.16459 2.18771 4.5105 2.23959C5.16771 2.32607 5.77304 2.10123 6.39567 2.01476C7.22584 1.89369 8.1079 1.91098 8.95536 1.89369C10.6157 1.80721 12.276 1.8418 13.9191 1.94557Z" fill="#F4FBA3"/>
<path d="M4.94395 19.3445C4.28673 19.3272 3.62951 19.2234 3.05877 18.8948C2.55721 18.6008 2.31508 18.1684 1.98647 17.736C1.60598 17.2345 1.32925 16.6983 1.19089 16.0757C0.879577 14.5883 0.931463 12.8415 1.10441 11.3368C1.1563 10.9217 1.20819 10.5066 1.1563 10.0916C1.13901 11.1293 1.1736 12.1843 1.24278 13.222C1.31196 14.1386 1.31196 15.0899 1.58868 15.9719C1.83081 16.7502 2.26319 17.4939 2.85123 18.0646C3.3182 18.5143 4.30403 19.1369 4.97854 18.7219C5.77412 17.9263 4.56345 17.0615 4.01001 16.5081C3.88894 16.387 3.75058 16.2486 3.69869 16.0757C4.11378 16.5254 4.59804 16.9232 5.1342 17.2345C5.27256 17.3036 5.39362 17.3728 5.53198 17.4247C6.31027 17.6841 7.10585 17.5804 7.90143 17.5631C8.97373 17.5458 10.0287 17.5631 11.101 17.5804C11.5507 17.5804 11.9831 17.5977 12.4328 17.6496C12.9343 17.7014 13.4359 17.6496 13.9202 17.615C14.3352 17.5804 14.8195 17.6496 15.2173 17.5458C15.7534 17.4074 16.2896 17.1826 16.7393 16.854C17.6732 16.1968 18.1921 15.159 18.3477 14.0522C18.244 14.7958 18.0018 15.5395 17.6213 16.1968C17.4311 16.5427 17.2062 16.854 16.9468 17.148C16.722 17.4247 16.2723 17.7706 16.4625 18.1857C16.6355 18.5489 17.2927 18.7392 17.6559 18.6873C17.8462 18.6527 18.0364 18.5662 18.2094 18.4797C18.6072 18.2549 18.9531 17.9782 19.2644 17.6496C18.3823 18.8083 17.1371 19.2234 15.7707 19.1369C13.972 19.0332 12.1387 19.1715 10.34 19.1888C9.00832 19.2061 7.69388 19.3445 6.37945 19.3272C5.94707 19.3272 5.42821 19.3618 4.94395 19.3445Z" fill="#A4A725"/>
<path d="M14.127 17.667C14.127 17.667 15.0436 17.8572 16.1332 17.4422C17.2228 17.0271 17.8108 16.439 18.0876 15.7991C18.3643 15.1592 18.4335 13.5334 18.4335 13.5334C18.4335 13.5334 18.1394 15.5743 17.6379 16.024C17.1363 16.4909 16.5829 17.5805 14.127 17.667Z" fill="#D8DA86"/>
<path d="M1.19153 16.2487C0.897517 15.0899 1.17424 14.2079 1.26072 13.0664C1.13965 14.45 1.43367 16.0239 2.10818 17.2518C2.43679 17.8571 2.92105 18.4279 3.59557 18.67C4.44303 18.9813 5.48074 18.7738 5.03107 17.6496C5.16943 17.8226 5.20402 18.0474 5.25591 18.2549C5.37697 18.9813 5.75747 19.0678 6.39739 19.0159C7.52158 18.9121 8.62847 18.843 9.76995 18.8257C10.1331 18.8084 10.4963 18.843 10.8595 18.8603C12.2432 18.9294 13.6095 18.9467 14.9931 18.9467C15.3909 18.9467 15.9443 19.137 16.3248 18.964C17.0339 18.67 16.2729 18.0993 16.6534 17.615C16.6188 17.8744 16.5843 18.1512 16.7226 18.3587C16.8956 18.6008 17.2242 18.6527 17.5182 18.67C18.2965 18.7392 19.4726 16.6811 19.6282 15.9374C19.8185 15.1591 20.0433 11.5271 20.0433 11.5271L20.0952 15.8509C20.0952 15.8509 19.732 17.1134 19.2996 17.6496C18.8672 18.1685 18.0025 19.0851 16.7745 19.2235C15.5465 19.3618 13.4538 19.2235 13.4538 19.2235H8.71494L5.53263 19.4483C5.53263 19.4483 3.61286 19.5002 2.88646 18.7738C2.12548 17.9955 1.46826 17.321 1.19153 16.2487Z" fill="#FBF8A5"/>
<path d="M6.29241 17.2517C5.77356 17.148 5.272 16.975 4.80502 16.6291C4.1824 16.1794 3.62895 15.5741 3.4387 14.8304C3.24846 14.0521 3.21387 13.2566 3.21387 12.461C3.28305 13.0836 3.35223 13.6889 3.54248 14.277C3.73272 14.865 4.06133 15.4358 4.5456 15.799C5.41036 16.4562 6.49995 16.5081 7.53767 16.4562C9.35366 16.3524 11.187 16.3351 13.0202 16.2313C14.2309 16.1622 15.528 16.0411 16.4101 15.2109C17.2057 14.4499 17.4305 13.2739 17.5343 12.167C17.6381 11.1465 17.6726 10.1261 17.6554 9.10571C17.7937 10.5585 17.8283 12.0286 17.7591 13.4987C17.7245 14.5364 17.5689 15.6779 16.7906 16.3697C15.9777 17.0788 14.646 17.1307 13.6256 17.2345C12.3976 17.3555 11.2042 17.1134 9.99358 17.1653C8.76562 17.1999 7.48578 17.4593 6.29241 17.2517Z" fill="#CACC6B"/>
<path d="M13.2458 1.91089C11.0839 1.98007 8.88741 1.98007 6.7428 2.01466C6.08559 2.03195 5.37648 2.13573 4.85763 2.55081C4.39066 2.89671 3.76803 3.19073 3.45672 3.69229C3.31836 3.91713 3.19729 4.14197 3.11081 4.3841C2.83409 5.14509 2.7995 5.97526 2.7995 6.78813C2.7995 7.87773 2.73032 8.96733 2.88598 10.0742C2.88598 8.82897 3.02434 7.60101 3.28377 6.39034C3.5086 5.35263 3.94098 4.33222 4.82304 3.70959C5.91264 2.9486 7.4692 2.91401 8.74905 2.82753C10.3056 2.72376 11.8795 2.75835 13.436 2.9486C14.0587 3.01778 14.6813 3.12155 15.2347 3.38098C16.5146 3.95172 16.9643 5.28345 17.3275 6.52871C17.5177 7.18592 17.7253 8.11986 17.6561 8.79438C17.7253 8.15446 17.708 7.54912 17.6907 6.9092C17.6734 6.37305 17.7425 5.75042 18.1403 5.33534C18.2095 5.26616 18.296 5.17968 18.3133 5.0932C18.3133 5.02402 18.296 4.97214 18.2787 4.92025C18.1576 4.64353 18.0539 4.36681 17.9328 4.10738C17.8809 3.96902 17.8117 3.83066 17.7253 3.70959C17.4658 3.34639 16.9989 3.03508 16.6702 2.74106C16.2379 2.37786 15.6671 2.11843 15.1137 2.03196C14.5083 1.92818 13.903 1.94548 13.2977 1.96277C13.2804 1.91089 13.2631 1.91089 13.2458 1.91089Z" fill="#B4B63F"/>
<path d="M4.1126 2.2223C4.63146 2.03206 5.1849 1.96287 5.72105 1.73804C4.64875 2.18771 3.48997 2.68927 2.90194 3.6751C2.48685 4.3842 2.40038 5.23167 2.36579 6.04454C2.3139 5.52569 2.26201 5.00683 2.3312 4.48797C2.40038 3.93453 2.64251 3.38108 3.00571 2.966C3.35161 2.56821 3.71481 2.37796 4.1126 2.2223Z" fill="white"/>
<path d="M2.62581 2.22227C2.48745 2.29145 2.36638 2.42981 2.3145 2.56818C2.2972 2.62006 2.27991 2.68924 2.2972 2.75842C2.3145 2.8276 2.36638 2.87949 2.43556 2.86219C2.48745 2.86219 2.53934 2.81031 2.57393 2.75842C2.69499 2.62006 2.85065 2.499 3.0409 2.42981C3.09278 2.41252 3.16196 2.39522 3.19655 2.34334C3.23114 2.30875 3.24844 2.22227 3.19655 2.18768C3.17926 2.17039 3.16196 2.17039 3.12737 2.15309C2.90253 2.10121 2.6777 2.15309 2.48745 2.27416L2.62581 2.22227Z" fill="white"/>
<path d="M1.38014 2.89683C1.39743 2.84494 1.43202 2.77576 1.46661 2.67199C1.5012 2.58552 1.55309 2.48174 1.60498 2.37797C1.72604 2.15314 1.89899 1.911 2.15842 1.65157C2.41785 1.39215 2.74646 1.15001 3.16154 0.959767C3.26531 0.907881 3.36909 0.855996 3.49015 0.821405C3.54204 0.80411 3.61122 0.786815 3.6631 0.752224L3.71499 0.734929H3.73229H3.74958L3.83606 0.700339C4.07819 0.631158 4.33762 0.561977 4.61434 0.527387C5.16779 0.440911 5.77312 0.423616 6.43034 0.440911C7.74477 0.475501 9.23216 0.527387 10.8406 0.579272C11.6535 0.596568 12.5009 0.631158 13.3657 0.665748C14.2478 0.683044 15.1471 0.648453 16.0465 0.734929C16.4961 0.76952 16.9458 0.8387 17.3782 0.977062C17.482 1.01165 17.5857 1.04624 17.7068 1.08083C17.9662 1.16731 18.1565 1.28838 18.3813 1.44403C18.4332 1.27108 18.5024 1.09813 18.5543 0.925176C18.3813 0.734929 18.1565 0.613863 17.9143 0.527387C17.7933 0.475501 17.6722 0.440911 17.5511 0.40632C17.0669 0.267959 16.5826 0.198778 16.1156 0.164188C15.1471 0.0950069 14.2478 0.129597 13.383 0.129597C12.5182 0.129597 11.6708 0.112302 10.8579 0.112302C9.23216 0.0950069 7.76207 0.0604165 6.43034 0.0777117C5.77312 0.0950069 5.15049 0.129597 4.57975 0.250664C4.00901 0.354435 3.50745 0.527387 3.07507 0.76952C2.2276 1.23649 1.74334 1.87641 1.5185 2.34338C1.46661 2.46445 1.43202 2.56822 1.39743 2.6547C1.38014 2.74117 1.34555 2.82765 1.32825 2.89683C1.29366 3.01789 1.27637 3.08708 1.27637 3.08708L1.32825 3.10437C1.34555 3.08708 1.34555 3.03519 1.38014 2.89683Z" fill="#C1C359"/>
<path d="M14.439 17.7707C14.439 17.7707 13.5396 17.7707 11.9831 17.788C11.2048 17.788 10.2535 17.8053 9.16395 17.8226C8.6105 17.8226 8.03976 17.8399 7.41713 17.8399C7.26147 17.8399 7.10582 17.8399 6.95016 17.8399C6.86368 17.8399 6.7945 17.8399 6.70803 17.8399C6.62155 17.8399 6.55237 17.8399 6.4659 17.8399C6.31024 17.8399 6.13729 17.8053 5.96433 17.788C5.79138 17.7707 5.63573 17.7188 5.46277 17.667C4.80556 17.4594 4.16563 17.0962 3.64678 16.5774C3.12792 16.0585 2.73013 15.384 2.53989 14.623C2.488 14.4328 2.47071 14.2425 2.43611 14.0523C2.41882 13.9485 2.41882 13.862 2.41882 13.7582C2.41882 13.6545 2.40152 13.568 2.41882 13.4642C2.41882 13.0837 2.41882 12.6859 2.43611 12.2881C2.45341 11.4926 2.45341 10.6797 2.47071 9.84952C2.488 9.01935 2.488 8.18918 2.488 7.34172C2.488 6.90934 2.488 6.49426 2.488 6.06187C2.488 5.6295 2.55718 5.19712 2.69554 4.78203C2.97227 3.95186 3.50842 3.19087 4.23482 2.67202C4.59801 2.41259 4.9958 2.18775 5.42818 2.04939C5.86056 1.91103 6.31024 1.84185 6.75991 1.82455C7.64197 1.78996 8.54132 1.77267 9.44067 1.77267C10.34 1.77267 11.2221 1.75537 12.1041 1.75537C12.5365 1.75537 12.9862 1.75537 13.4186 1.75537C13.6434 1.75537 13.8509 1.75537 14.0758 1.75537H14.4044C14.5255 1.75537 14.6292 1.77267 14.733 1.77267C15.6323 1.82455 16.4798 2.17046 17.1543 2.68931C17.4829 2.96604 17.7942 3.26005 18.0364 3.60596C18.2785 3.95186 18.4688 4.33236 18.5898 4.71285C18.6244 4.81662 18.6417 4.9031 18.6763 5.00687C18.7109 5.11064 18.7282 5.19712 18.7455 5.30089C18.7628 5.40466 18.7801 5.50843 18.7974 5.59491C18.7974 5.69868 18.8147 5.80245 18.8147 5.88892C18.832 6.28671 18.8147 6.66721 18.8147 7.0477C18.8147 8.56968 18.7974 9.98789 18.7801 11.3196C18.7628 11.9768 18.7628 12.6168 18.7455 13.2221C18.7455 13.3777 18.7455 13.5161 18.7282 13.6718C18.7282 13.7409 18.7109 13.8101 18.7109 13.8966C18.7109 13.9658 18.7109 14.035 18.6936 14.1214C18.659 14.4155 18.5898 14.6922 18.4861 14.9516C18.2958 15.4705 18.0364 15.9028 17.7251 16.266C17.4138 16.6292 17.0678 16.906 16.7565 17.1135C16.082 17.5286 15.4767 17.6842 15.0616 17.7361C14.8541 17.7707 14.6984 17.7707 14.5773 17.7707C14.4909 17.7707 14.439 17.7707 14.439 17.7707ZM14.439 17.7361C14.439 17.7361 14.4909 17.7361 14.5946 17.7188C14.6984 17.7188 14.8714 17.7188 15.0616 17.667C15.4767 17.5978 16.082 17.4421 16.7392 17.027C17.0679 16.8195 17.3965 16.5255 17.6732 16.1796C17.9672 15.8164 18.2093 15.384 18.3823 14.8824C18.4342 14.7614 18.4515 14.623 18.4861 14.5019C18.5034 14.4328 18.5206 14.3636 18.5206 14.2944C18.5379 14.2252 18.5379 14.156 18.5552 14.0868C18.5725 14.0177 18.5725 13.9485 18.5725 13.8793C18.5725 13.8101 18.5725 13.7409 18.5725 13.6545C18.5725 13.5161 18.5725 13.3604 18.5725 13.2048C18.5725 12.5995 18.5552 11.9768 18.5379 11.3023C18.5206 9.98789 18.5034 8.55238 18.5034 7.03041C18.5034 6.64991 18.5034 6.26942 18.5034 5.88892C18.5034 5.80245 18.4861 5.69868 18.4861 5.6122C18.4688 5.52572 18.4515 5.42195 18.4342 5.33548C18.4169 5.249 18.3996 5.14523 18.365 5.05875C18.3304 4.97228 18.3131 4.86851 18.2785 4.78203C18.1574 4.41883 17.9672 4.07293 17.7597 3.74432C17.5348 3.41571 17.2581 3.13899 16.9468 2.87956C16.3242 2.378 15.5113 2.04939 14.6811 1.9975C14.5773 1.9975 14.4563 1.98021 14.3698 1.98021H14.0412C13.8164 1.98021 13.6088 1.98021 13.384 1.98021C12.9516 1.98021 12.5019 1.98021 12.0695 1.98021C11.2221 1.98021 10.3227 1.98021 9.44067 1.98021C8.54132 1.96291 7.65926 1.96291 6.75991 1.94562C6.32753 1.94562 5.87786 2.0148 5.46277 2.13587C5.04769 2.25693 4.6499 2.46447 4.2867 2.7239C3.5603 3.22546 3.04145 3.96916 2.76472 4.78203C2.62636 5.19712 2.57448 5.6122 2.57448 6.04458C2.57448 6.47696 2.57448 6.90934 2.57448 7.32443C2.57448 8.17189 2.59177 9.01935 2.59177 9.83223C2.60907 10.6624 2.60907 11.4753 2.62636 12.2709C2.62636 12.6686 2.62636 13.0664 2.64366 13.4469C2.64366 13.5507 2.64366 13.6372 2.66095 13.7409C2.66095 13.8274 2.66095 13.9312 2.67825 14.0177C2.71284 14.2079 2.73013 14.3809 2.78202 14.5711C2.86849 14.9343 3.02415 15.2629 3.1971 15.5742C3.24899 15.6434 3.28358 15.7299 3.33546 15.7991C3.38735 15.8683 3.43924 15.9374 3.49112 16.0066C3.59489 16.145 3.71596 16.2833 3.83703 16.4044C4.32129 16.906 4.92662 17.2519 5.54925 17.4594C5.70491 17.494 5.86056 17.5459 6.01622 17.5805C6.17188 17.5978 6.32753 17.6497 6.48319 17.6497C6.56967 17.6497 6.63885 17.667 6.72532 17.667C6.7945 17.667 6.88098 17.667 6.95016 17.667C7.10582 17.667 7.26147 17.667 7.41713 17.667C8.02246 17.6842 8.6105 17.6842 9.16395 17.6842C10.2535 17.7015 11.2048 17.7188 11.9831 17.7188C13.5396 17.7361 14.439 17.7361 14.439 17.7361Z" fill="#E5E6A2"/>
<path d="M20.3709 3.83078C20.2845 3.31193 20.1461 2.79307 19.9213 2.3261C19.8002 2.08397 19.6791 1.85913 19.5235 1.63429L19.4716 1.54782L19.4197 1.46134C19.3678 1.40945 19.3332 1.35757 19.2813 1.30568C19.1776 1.20191 19.0565 1.11544 18.9527 1.04625C18.8317 0.977074 18.7279 0.907893 18.6068 0.856007L18.5203 0.821417L18.4339 0.769531H18.4166C18.3993 0.977074 18.3474 1.16732 18.2782 1.34027L18.3474 1.37486C18.4512 1.42675 18.5549 1.47863 18.6414 1.54782C18.7279 1.5997 18.8144 1.66888 18.8835 1.73806C18.9181 1.77265 18.9527 1.80724 18.9873 1.84183L19.0392 1.91101L19.0911 1.9802C19.2294 2.17044 19.3332 2.36069 19.437 2.56823C19.6272 2.98332 19.7656 3.45029 19.8521 3.93455C20.025 4.90308 19.9904 5.9235 19.9731 6.96121C19.9558 7.48007 19.9558 8.01622 19.9558 8.53507C19.9558 9.05393 19.9385 9.59008 19.9385 10.1262C19.9385 11.1812 19.9213 12.2535 19.9213 13.3431C19.9213 13.8793 19.9213 14.4154 19.9213 14.9516C19.9213 15.4877 19.904 16.0239 19.7656 16.5082C19.6272 17.0097 19.3332 17.4421 18.9873 17.8572C18.6414 18.255 18.2436 18.6182 17.7939 18.8603C17.327 19.1024 16.8081 19.1716 16.272 19.2062C15.7358 19.2235 15.217 19.1889 14.6808 19.1716C14.4214 19.1543 14.1447 19.137 13.8852 19.137C13.6258 19.137 13.3491 19.137 13.0896 19.137C12.5708 19.137 12.0346 19.137 11.5158 19.137C10.4781 19.137 9.44036 19.1197 8.43724 19.1197C7.41682 19.0851 6.4137 19.2408 5.46247 19.2235C4.9955 19.2235 4.51123 19.1716 4.09615 19.0333L3.94049 18.9814L3.76754 18.9122L3.68106 18.8776H3.66377H3.64647L3.61188 18.8603C3.56 18.843 3.50811 18.8084 3.45623 18.7911C3.26598 18.6874 3.07573 18.5663 2.90278 18.4452C2.55688 18.1858 2.24556 17.8745 2.02072 17.5113C1.96884 17.4248 1.89966 17.3383 1.84777 17.2346C1.79589 17.1481 1.7613 17.0616 1.70941 16.9578C1.69212 16.9059 1.65753 16.8541 1.64023 16.8195L1.58834 16.6811C1.55375 16.5773 1.51916 16.4909 1.48457 16.3871C1.24244 15.5915 1.22515 14.7613 1.25974 13.9658C1.27703 13.568 1.29433 13.1702 1.31162 12.7724C1.32892 12.3746 1.32892 11.9941 1.32892 11.6309C1.32892 10.8872 1.32892 10.1954 1.32892 9.5382C1.32892 8.88098 1.31162 8.25835 1.31162 7.68761C1.31162 7.11687 1.29433 6.59801 1.29433 6.13104C1.25974 5.14522 1.25974 4.40152 1.25974 3.89996C1.25974 3.3984 1.27703 3.12168 1.27703 3.12168H1.22515C1.22515 3.12168 1.19055 3.38111 1.13867 3.89996C1.10408 4.40152 1.08678 5.14522 1.05219 6.09645C1.0349 6.56342 1.0176 7.09957 1.00031 7.65302C0.983012 8.22376 0.965717 8.82909 0.948422 9.50361C0.931127 10.1608 0.913832 10.8526 0.896537 11.5963C0.896537 11.9595 0.879241 12.34 0.861946 12.7205C0.844651 13.101 0.810061 13.4988 0.77547 13.9139C0.723585 14.7268 0.74088 15.6088 1.00031 16.4909C1.0349 16.5946 1.06949 16.7157 1.10408 16.8195L1.17326 16.9751C1.19055 17.0443 1.22515 17.0789 1.24244 17.1308C1.29433 17.2346 1.34621 17.3556 1.3981 17.4421C1.44998 17.5459 1.51916 17.6496 1.58834 17.7361C1.86507 18.1339 2.19368 18.4798 2.59147 18.7738C2.78171 18.9122 3.00655 19.0506 3.23139 19.1543C3.28327 19.1889 3.35245 19.2062 3.40434 19.2408L3.43893 19.2581L3.45623 19.2754L3.49082 19.2927L3.57729 19.3273L3.75024 19.3965L3.94049 19.4483C4.44205 19.5867 4.94361 19.604 5.42788 19.604C6.431 19.5867 7.39953 19.3965 8.40265 19.3965C9.40577 19.3619 10.4435 19.3446 11.4812 19.3273C12.0001 19.31 12.5189 19.31 13.0551 19.31C13.3145 19.31 13.5739 19.31 13.8506 19.2927C14.1101 19.2927 14.3695 19.31 14.6462 19.3273C15.1824 19.3619 15.7185 19.3965 16.2547 19.3792C16.5314 19.3792 16.7908 19.3446 17.0675 19.31C17.3443 19.2581 17.621 19.1889 17.8631 19.0506C18.3647 18.7911 18.7798 18.4279 19.1603 18.0301C19.3505 17.8226 19.5235 17.6151 19.6618 17.3729C19.8175 17.1481 19.9385 16.8887 20.025 16.6119C20.198 16.0758 20.2326 15.505 20.2499 14.9689C20.2672 14.4327 20.2845 13.8966 20.3017 13.3604C20.3363 12.2881 20.3536 11.2158 20.3882 10.1608C20.4228 9.10582 20.4401 8.03351 20.4747 7.0131C20.492 5.9062 20.5439 4.86849 20.3709 3.83078Z" fill="#7F8118"/>
<path d="M14.3167 17.6669C14.3167 17.6669 13.452 17.6669 11.93 17.6842C11.169 17.6842 10.2523 17.7015 9.18004 17.7187C8.64389 17.7187 8.09044 17.736 7.48511 17.736C7.32945 17.736 7.19109 17.736 7.03543 17.736C6.94896 17.736 6.87978 17.736 6.7933 17.736C6.72412 17.736 6.63764 17.736 6.56846 17.736C6.41281 17.736 6.25715 17.7015 6.0842 17.6842C5.92854 17.6669 5.75559 17.615 5.59993 17.5631C4.96001 17.3555 4.33738 17.0096 3.83582 16.4908C3.33426 15.9719 2.93647 15.3147 2.76352 14.5537C2.71163 14.3635 2.69434 14.1732 2.65975 13.983C2.64245 13.8792 2.64245 13.7927 2.64245 13.689C2.64245 13.5852 2.62516 13.4987 2.64245 13.3949C2.64245 13.0145 2.64245 12.6167 2.65975 12.2362C2.67704 11.4579 2.67704 10.645 2.69434 9.83214C2.69434 9.01926 2.71163 8.18909 2.71163 7.34163C2.71163 6.92655 2.71163 6.49417 2.71163 6.07908C2.71163 5.6467 2.78081 5.21432 2.91918 4.81653C3.1786 4.00366 3.69746 3.24267 4.42386 2.72381C4.76976 2.46439 5.16755 2.23955 5.58264 2.10119C5.99772 1.96282 6.4474 1.89364 6.87978 1.87635C7.74454 1.85905 8.62659 1.85905 9.49135 1.84176C10.3561 1.84176 11.2209 1.82446 12.0683 1.82446C12.5007 1.82446 12.9158 1.82446 13.3482 1.82446C13.5557 1.82446 13.7633 1.82446 13.9881 1.82446H14.2994C14.4205 1.82446 14.507 1.84176 14.628 1.84176C15.4928 1.89364 16.323 2.22225 16.9802 2.74111C17.3088 3.00054 17.6028 3.31185 17.8449 3.65775C18.0698 4.00366 18.26 4.36686 18.3811 4.76465C18.4157 4.85112 18.433 4.95489 18.4676 5.05866C18.5021 5.16244 18.5194 5.24891 18.5367 5.35268C18.554 5.45645 18.5713 5.54293 18.5886 5.6467C18.5886 5.75047 18.6059 5.85424 18.6059 5.94072C18.6232 6.33851 18.6059 6.70171 18.6059 7.0822C18.6059 8.56959 18.5886 9.98779 18.5886 11.3022C18.5713 11.9594 18.5713 12.5821 18.554 13.1701C18.554 13.3258 18.554 13.4641 18.5367 13.6198C18.5367 13.689 18.5194 13.7581 18.5194 13.8273C18.5194 13.8965 18.5194 13.9657 18.5021 14.0349C18.4676 14.3289 18.3984 14.5883 18.3119 14.8477C18.1389 15.3493 17.8795 15.799 17.5682 16.1449C17.2742 16.4908 16.9456 16.7675 16.617 16.9923C15.977 17.4074 15.3717 17.5631 14.9739 17.615C14.7664 17.6496 14.6107 17.6496 14.507 17.6496C14.3686 17.6669 14.3167 17.6669 14.3167 17.6669ZM14.3167 17.6496C14.3167 17.6496 14.3686 17.6496 14.4724 17.6323C14.5761 17.6323 14.7318 17.6323 14.9393 17.5804C15.3371 17.5112 15.9252 17.3555 16.5651 16.9405C16.8764 16.7329 17.205 16.4562 17.4817 16.093C17.7585 15.7298 18.0006 15.2974 18.1735 14.8132C18.2254 14.6921 18.2427 14.5537 18.2773 14.4327C18.2946 14.3635 18.3119 14.2943 18.3119 14.2424C18.3292 14.1732 18.3292 14.104 18.3465 14.0349C18.3638 13.9657 18.3638 13.8965 18.3638 13.8273C18.3638 13.7581 18.3638 13.689 18.3638 13.6198C18.3638 13.4814 18.3638 13.3258 18.3638 13.1874C18.3638 12.5994 18.3465 11.9767 18.3292 11.3195C18.3119 10.0224 18.2946 8.60418 18.3119 7.0995C18.3119 6.7363 18.3119 6.33851 18.3119 5.97531C18.3119 5.88883 18.2946 5.78506 18.2946 5.69859C18.2773 5.61211 18.26 5.50834 18.26 5.42186C18.2427 5.33539 18.2254 5.23162 18.2081 5.14514C18.1735 5.05866 18.1735 4.95489 18.1389 4.86842C18.0179 4.50522 17.8449 4.15931 17.6201 3.848C17.3953 3.53669 17.1358 3.24267 16.8245 3.00054C16.2192 2.51627 15.4409 2.18766 14.628 2.13578C14.5243 2.13578 14.4205 2.11848 14.3167 2.11848H14.0054C13.7979 2.11848 13.5903 2.11848 13.3655 2.11848C12.9331 2.11848 12.518 2.11848 12.0856 2.11848C11.2382 2.11848 10.3734 2.10119 9.50865 2.10119C8.64389 2.08389 7.77913 2.08389 6.89707 2.0666C6.46469 2.0666 6.04961 2.13578 5.63452 2.25684C5.21944 2.37791 4.83894 2.58545 4.49304 2.82758C3.80123 3.32914 3.28237 4.05554 3.02295 4.86842C2.90188 5.26621 2.8327 5.69859 2.8327 6.11367C2.8327 6.54605 2.8327 6.96113 2.8327 7.37622C2.8327 8.22368 2.84999 9.03656 2.84999 9.86673C2.86729 10.6796 2.86729 11.4752 2.88459 12.2708C2.88459 12.6685 2.88459 13.049 2.90188 13.4295C2.90188 13.5333 2.90188 13.6198 2.91918 13.7063C2.91918 13.7927 2.91918 13.8965 2.93647 13.983C2.97106 14.1559 2.98836 14.3462 3.04024 14.5191C3.12672 14.865 3.26508 15.2109 3.43803 15.505C3.48992 15.5741 3.52451 15.6606 3.57639 15.7298C3.62828 15.799 3.68016 15.8682 3.73205 15.9373C3.83582 16.0757 3.95689 16.1968 4.06066 16.3351C4.52763 16.8194 5.11567 17.1653 5.721 17.3728C5.87665 17.4074 6.03231 17.4593 6.17067 17.4939C6.32633 17.5112 6.46469 17.5458 6.62035 17.5631C6.70682 17.5631 6.776 17.5804 6.84519 17.5804C6.91437 17.5804 7.00084 17.5804 7.07002 17.5804C7.22568 17.5804 7.38134 17.5804 7.5197 17.5804C8.10773 17.5977 8.67848 17.5977 9.21463 17.5977C10.2696 17.615 11.2036 17.6323 11.9646 17.6323C13.452 17.6323 14.3167 17.6496 14.3167 17.6496Z" fill="#B9BB42"/>
<path opacity="0.52" d="M16.9629 2.75847C16.7381 2.56823 16.4786 2.41257 16.2192 2.2915L15.7695 2.39527C16.1327 2.55093 16.4786 2.74118 16.7899 2.98331C17.1013 3.22544 17.3607 3.51946 17.5855 3.83078C17.7931 4.15939 17.9833 4.48799 18.1044 4.85119C18.1217 4.88578 18.1217 4.92037 18.139 4.95496L18.3465 4.64365C18.2254 4.29775 18.0525 3.96914 17.845 3.65782C17.5855 3.32922 17.2915 3.0352 16.9629 2.75847Z" fill="#7F8118"/>
<path opacity="0.52" d="M5.6704 17.3729C5.06506 17.1654 4.47703 16.8194 4.01006 16.3352C3.88899 16.2141 3.78522 16.0758 3.68145 15.9374C3.62956 15.8682 3.57768 15.799 3.52579 15.7299C3.47391 15.6607 3.43932 15.5742 3.38743 15.505C3.24907 15.2456 3.128 14.9862 3.04153 14.6921L2.83398 14.8132C3.04153 15.4531 3.38743 16.0412 3.83711 16.4908C4.35596 17.0097 4.96129 17.3556 5.60122 17.5631C5.68769 17.5804 5.77417 17.615 5.86064 17.6323L6.0336 17.4594C5.92982 17.4421 5.80876 17.3902 5.6704 17.3729Z" fill="#7F8118"/>
</svg>
