<svg width="26" height="26" viewBox="0 0 26 26" fill="none" xmlns="http://www.w3.org/2000/svg">
<g clip-path="url(#clip0_4:1186)">
<path fill-rule="evenodd" clip-rule="evenodd" d="M21.1683 0C22.6373 0 23.8333 1.196 23.8333 2.678V26L21.0383 23.53L19.4653 22.074L17.8013 20.527L18.4903 22.932H3.74834C2.27934 22.932 1.08334 21.736 1.08334 20.254V2.678C1.08334 1.196 2.27934 0 3.74834 0H21.1683V0ZM16.1503 16.978C19.0233 16.887 20.1283 15.002 20.1283 15.002C20.1283 10.816 18.2563 7.423 18.2563 7.423C16.3843 6.019 14.6033 6.058 14.6033 6.058L14.4213 6.266C16.6313 6.942 17.6583 7.917 17.6583 7.917C16.3063 7.176 14.9803 6.812 13.7453 6.669C12.8093 6.565 11.9123 6.591 11.1193 6.695L10.8983 6.721C10.4433 6.76 9.33834 6.929 7.94734 7.54C7.46634 7.761 7.18034 7.917 7.18034 7.917C7.18034 7.917 8.25934 6.89 10.5993 6.214L10.4693 6.058C10.4693 6.058 8.68834 6.019 6.81634 7.423C6.81634 7.423 4.94434 10.816 4.94434 15.002C4.94434 15.002 6.03634 16.887 8.90934 16.978C8.90934 16.978 9.39034 16.393 9.78034 15.899C8.12934 15.405 7.50534 14.365 7.50534 14.365L7.86934 14.586L7.92134 14.625L7.97226 14.6543L7.98743 14.6608L8.03834 14.69C8.36334 14.872 8.68834 15.015 8.98734 15.132C9.52034 15.34 10.1573 15.548 10.8983 15.691C11.8733 15.873 13.0173 15.938 14.2653 15.704C14.8763 15.6 15.5003 15.418 16.1503 15.145C16.6053 14.976 17.1123 14.729 17.6453 14.378C17.6453 14.378 16.9953 15.444 15.2923 15.925C15.6823 16.419 16.1503 16.978 16.1503 16.978ZM10.1053 10.907C9.36434 10.907 8.77934 11.557 8.77934 12.35C8.77934 13.143 9.37734 13.793 10.1053 13.793C10.8463 13.793 11.4313 13.143 11.4313 12.35C11.4443 11.557 10.8463 10.907 10.1053 10.907ZM14.8503 10.907C14.1093 10.907 13.5243 11.557 13.5243 12.35C13.5243 13.143 14.1223 13.793 14.8503 13.793C15.5913 13.793 16.1763 13.143 16.1763 12.35C16.1763 11.557 15.5913 10.907 14.8503 10.907Z" fill="white"/>
</g>
<defs>
<clipPath id="clip0_4:1186">
<rect width="26" height="26" fill="white"/>
</clipPath>
</defs>
</svg>
