<svg width="14" height="16" viewBox="0 0 14 16" fill="none" xmlns="http://www.w3.org/2000/svg">
<path d="M13.1861 2.0464C13.087 1.94324 12.9702 1.89135 12.8353 1.89135C12.7681 1.89135 12.6265 1.94907 12.4112 2.06298C12.1956 2.1772 11.9668 2.30431 11.726 2.44616C11.4846 2.58709 11.1989 2.71482 10.8692 2.82904C10.5398 2.94295 10.2348 3.00067 9.9541 3.00067C9.69481 3.00067 9.46603 2.94909 9.26892 2.84562C8.61513 2.52507 8.0464 2.28589 7.56361 2.12807C7.08082 1.97056 6.56166 1.89135 6.00584 1.89135C5.04612 1.89135 3.95295 2.21803 2.7275 2.87018C2.47466 3.00221 2.2934 3.10445 2.17607 3.17937L2.05963 2.28558C2.32273 2.0464 2.49256 1.69791 2.49256 1.3046C2.49256 0.583984 1.93468 0 1.24628 0C0.557878 0 0 0.583984 0 1.3046C0 1.77467 0.239929 2.18334 0.596008 2.413L2.27961 15.3362C2.32977 15.7209 2.6442 16 3.00526 16C3.03812 16 3.07155 15.9979 3.10528 15.9932C3.50653 15.9355 3.78752 15.549 3.73268 15.1289L3.05601 9.93479C4.28381 9.29708 5.34589 8.97561 6.23931 8.97561C6.61856 8.97561 6.98843 9.03487 7.34891 9.15461C7.70968 9.27466 8.00974 9.40485 8.24849 9.54578C8.48725 9.68701 8.76912 9.81781 9.09323 9.93694C9.41792 10.0567 9.73851 10.1166 10.055 10.1166C10.8546 10.1166 11.8122 9.80123 12.9283 9.17089C13.0685 9.09474 13.1711 9.01982 13.236 8.94644C13.3008 8.87306 13.3333 8.76867 13.3333 8.63296V2.41331C13.3333 2.27238 13.2843 2.14987 13.1861 2.0464Z" fill="white"/>
</svg>
