<svg width="14" height="16" viewBox="0 0 14 16" fill="none" xmlns="http://www.w3.org/2000/svg">
<path d="M11.8519 0H1.48148C0.662963 0 0 0.681905 0 1.52381V12.1905C0 13.0324 0.662963 13.7143 1.48148 13.7143H4.44444L6.66667 16L8.88889 13.7143H11.8519C12.6704 13.7143 13.3333 13.0324 13.3333 12.1905V1.52381C13.3333 0.681905 12.6704 0 11.8519 0ZM7.40741 12.1905H5.92593V10.6667H7.40741V12.1905ZM8.93704 6.28952L8.27407 6.99048C7.74074 7.53905 7.40741 8 7.40741 9.14286H5.92593V8.7619C5.92593 7.92 6.25926 7.1581 6.79259 6.60571L7.71481 5.64571C7.98148 5.37143 8.14815 4.99048 8.14815 4.57143C8.14815 3.72952 7.48518 3.04762 6.66667 3.04762C5.84815 3.04762 5.18518 3.72952 5.18518 4.57143H3.7037C3.7037 2.88762 5.02963 1.52381 6.66667 1.52381C8.3037 1.52381 9.62963 2.88762 9.62963 4.57143C9.62963 5.2419 9.36666 5.84762 8.93704 6.28952Z" fill="black"/>
</svg>
