<svg width="15" height="16" viewBox="0 0 15 16" fill="none" xmlns="http://www.w3.org/2000/svg">
<path d="M13.9184 9.16343L13.6203 8.98971C13.2654 8.78343 13.0534 8.41314 13.0534 8C13.0534 7.58686 13.2654 7.21657 13.6203 7.01029L13.9184 6.83657C14.7324 6.36229 15.0107 5.31543 14.5408 4.49486L13.974 3.50514C13.5052 2.68629 12.4627 2.40514 11.651 2.87771L11.3529 3.05086C10.998 3.25771 10.5734 3.25771 10.2192 3.05086C9.8643 2.844 9.6523 2.47429 9.6523 2.06114V1.71429C9.6523 0.769143 8.88932 0 7.95175 0H6.81805C5.88048 0 5.1175 0.769143 5.1175 1.71429V2.06171C5.1175 2.47486 4.90549 2.84457 4.55065 3.05143C4.1958 3.25771 3.77179 3.25829 3.41694 3.05143L3.11878 2.87771C2.30705 2.40514 1.26461 2.68629 0.795259 3.50514L0.228409 4.49486C-0.24151 5.31543 0.0368133 6.36286 0.850811 6.83657L1.14954 7.01029C1.50439 7.21657 1.71639 7.58686 1.71639 8C1.71639 8.41314 1.50439 8.78343 1.14954 8.98971L0.851378 9.16343C0.0373801 9.63714 -0.240944 10.6846 0.228976 11.5051L0.795826 12.4949C1.26518 13.3137 2.30762 13.5949 3.11878 13.1223L3.41694 12.9491C3.77179 12.7417 4.1958 12.7429 4.55065 12.9491C4.90549 13.156 5.1175 13.5257 5.1175 13.9389V14.2857C5.1175 15.2309 5.88048 16 6.81805 16H7.95175C8.88932 16 9.6523 15.2309 9.6523 14.2857V13.9383C9.6523 13.5251 9.8643 13.1554 10.2192 12.9486C10.5734 12.7423 10.998 12.7417 11.3529 12.9486L11.651 13.1223C12.4627 13.5943 13.5052 13.3131 13.974 12.4949L14.5408 11.5051C15.0107 10.6846 14.7324 9.63714 13.9184 9.16343ZM7.3849 10.8571C5.82209 10.8571 4.55065 9.57543 4.55065 8C4.55065 6.42457 5.82209 5.14286 7.3849 5.14286C8.94771 5.14286 10.2192 6.42457 10.2192 8C10.2192 9.57543 8.94771 10.8571 7.3849 10.8571Z" fill="white"/>
</svg>
